<svg width="200" height="200" viewBox="0 0 200 200" fill="none" xmlns="http://www.w3.org/2000/svg">
<path d="M15.2372 59.8117C10.2842 52.1777 7.75122 42.8757 9.52822 33.4477C10.3718 28.951 12.0949 24.6651 14.5985 20.8358C17.1022 17.0065 20.3372 13.7092 24.118 11.1329C27.8988 8.55659 32.151 6.75203 36.6307 5.8227C41.1105 4.89337 45.7296 4.85757 50.2232 5.71734C54.7168 6.57712 58.9965 8.31556 62.8168 10.8329C66.637 13.3503 69.9228 16.5971 72.4855 20.3872C75.0482 24.1772 76.8375 28.4359 77.7507 32.9189C78.6639 37.402 78.6831 42.0212 77.8072 46.5117C75.5462 58.5747 68.9882 66.7677 56.1882 72.5637C49.9992 75.3677 26.7242 77.5147 15.2372 59.8117ZM25.8872 34.9697C26.7142 37.6704 28.2144 40.1165 30.2468 42.078C32.2791 44.0395 34.7769 45.452 37.5053 46.1826C40.2336 46.9133 43.103 46.9382 45.8436 46.2549C48.5843 45.5716 51.1062 44.2027 53.1722 42.2767C64.9932 31.2507 55.4722 11.4997 39.3332 13.7517C36.9774 14.1059 34.7253 14.9624 32.7295 16.2631C30.7337 17.5638 29.0408 19.2784 27.7657 21.2907C26.4905 23.3029 25.6628 25.5658 25.3387 27.9259C25.0146 30.286 25.2017 32.6882 25.8872 34.9697ZM31.3592 70.6557C31.2762 70.9387 31.5302 70.9987 31.7932 71.0857C48.6002 76.6557 63.9462 70.4457 71.9242 57.8147C72.1312 57.4887 72.1472 57.4077 71.8482 57.1667C61.2892 46.8637 35.0062 53.9557 31.3592 70.6557Z" fill="#51B748"/>
<path d="M46.8792 23.3487C46.8592 27.4047 41.8462 29.1487 41.6392 32.5957C41.5462 34.1337 43.3982 35.1577 42.2462 36.0957C41.3192 36.8477 40.1922 34.8957 39.8772 33.1327C39.8585 32.5539 39.9058 31.9748 40.0182 31.4067C40.7292 27.9377 45.3012 26.3167 44.9072 23.0467C44.5132 19.7767 40.8692 20.3577 38.2672 22.9207C37.3072 23.8657 37.5212 24.5617 37.2372 25.1007C36.8622 25.8087 35.9042 25.3277 35.8222 24.5367C35.4562 21.0147 42.5622 16.0437 46.1092 20.8947C46.629 21.6057 46.8997 22.4683 46.8792 23.3487Z" fill="#51B748"/>
<path d="M43.0483 41.0548C42.8658 40.9517 42.7097 40.8076 42.5925 40.6338C42.4753 40.46 42.4001 40.2613 42.3728 40.0535C42.3456 39.8456 42.367 39.6343 42.4355 39.4362C42.5039 39.238 42.6175 39.0585 42.7673 38.9118C42.8966 38.782 43.0533 38.6828 43.226 38.6214C43.3987 38.5601 43.5829 38.5382 43.7651 38.5574C43.9474 38.5766 44.123 38.6364 44.2791 38.7323C44.4352 38.8282 44.5679 38.9579 44.6673 39.1118C45.2403 40.0998 44.2243 41.6528 43.0483 41.0548Z" fill="#51B748"/>
<path d="M20.5411 179.146C34.7251 175.262 69.4041 170.983 84.0081 169.257C119.078 165.112 155.594 161.642 190.608 160.021C190.714 160.02 190.817 160.06 190.895 160.133C190.973 160.205 191.019 160.305 191.025 160.411C191.031 160.518 190.995 160.622 190.926 160.703C190.857 160.784 190.759 160.835 190.653 160.845C147.046 163.745 46.4071 174.386 20.9321 180.831C20.4061 180.963 20.0221 179.288 20.5411 179.146Z" fill="#51B748"/>
<path d="M142.499 114.85C142.278 114.35 143.277 114.914 143.647 113.875C144.528 111.397 144.539 110.62 143.393 109.762C142.029 108.882 140.56 108.176 139.02 107.662C138.635 107.544 139.467 107.162 140.413 106.01C140.653 105.719 140.578 105.831 142.864 106.972C145.653 108.365 145.827 108.211 146.164 109.107C146.602 110.142 147.409 110.977 148.429 111.449C150.498 112.504 152.51 113.508 154.161 111.754C154.367 111.535 154.353 111.56 155.507 112.169C160.79 114.956 160.645 114.412 160.77 114.996C160.915 115.615 161.204 116.191 161.613 116.677C162.022 117.164 162.539 117.547 163.124 117.796C164.819 118.705 165.674 119.344 167.388 118.758C172.388 117.048 175.357 109.984 173.077 107.736C171.124 105.812 170.064 104.484 167.365 105.077C166.947 105.169 167.282 105.172 162.013 101.484C161.466 101.101 161.458 101.005 161.543 100.693C161.629 100.37 161.637 100.031 161.566 99.7039C161.495 99.3771 161.347 99.072 161.134 98.814C158.193 94.929 155.534 95.069 154.584 95.128C154.493 95.1385 154.4 95.1279 154.313 95.0968C154.226 95.0658 154.148 95.0152 154.084 94.949C149.784 89.996 119.462 68.939 112.096 63.975C111.364 63.481 111.822 63.314 111.628 62.632C110.928 60.165 107.184 56.818 104.928 55.949C96.0044 52.512 85.1324 64 86.0704 73.456C86.5864 78.656 89.2304 80.62 93.9934 82.508C94.8369 82.8355 95.7489 82.9468 96.6464 82.832C97.5842 82.571 98.4846 82.1906 99.3254 81.7C100.208 81.115 99.7414 82.605 127.625 98.728C128.071 98.986 127.887 98.964 127.871 99.47C127.787 101.444 128.223 103.404 129.136 105.156C129.347 105.556 129.036 105.356 127.726 105.317C124.269 105.207 123.966 106.185 123.954 109.589C123.954 110.3 124.364 110.62 125.075 111.018C126.117 111.603 126.157 111.631 126.097 111.836C125.985 112.218 97.6694 191.914 97.6254 193.161C97.5924 194.109 98.5964 194.831 99.5254 194.998C99.7404 195.037 100.601 192.909 102.145 189.027C105.79 179.864 115.13 157.49 116.797 153.242C130.843 117.442 128.814 122.298 130.821 117.363C131.11 116.653 131.102 117.252 131.269 120.052C131.348 121.371 135.913 186.376 136.177 189.475C136.415 192.252 136.53 192.246 136.91 192.275C137.334 192.382 137.778 192.384 138.203 192.282C138.629 192.18 139.023 191.976 139.353 191.689C139.873 191.059 139.703 190.836 139.471 184.289C139.339 180.572 137.144 119.35 137.162 119.348C137.162 116.748 160.338 174.47 168.124 191.8C168.44 192.5 168.866 192.168 169.96 191.631C170.357 191.355 170.643 190.947 170.766 190.479C170.889 190.011 170.842 189.515 170.633 189.079C167.422 180.445 142.499 114.85 142.499 114.85ZM172.655 108.35C173.632 109.401 173.333 112.191 171.455 114.813C170.135 116.655 167.703 118.847 165.634 118.03C164.434 117.557 163.95 116.23 164.74 113.73C165.875 110.129 170.66 106.2 172.654 108.349L172.655 108.35ZM168.906 105.75C169.597 105.847 170.236 106.175 170.717 106.681C170.804 106.759 171.088 107.049 170.558 107.051C167.568 107.4 163.763 111.884 163.558 115.421C163.479 116.751 163.758 116.946 163.353 116.803C160.542 115.818 161.331 111.77 163.58 108.843C164.344 107.868 165.265 107.027 166.306 106.355C167.085 105.88 167.996 105.668 168.905 105.75H168.906ZM166.106 105.263C166.671 105.63 165.575 105.284 163.459 107.663C159.429 112.19 161.534 114.326 160.059 113.68C159.45 113.413 158.287 112.751 155.741 111.429C151.641 109.3 151.682 109.322 151.741 108.863C152.082 107.022 152.839 105.283 153.954 103.779C154.909 102.394 156.118 101.202 157.516 100.267C157.902 99.998 158.134 99.806 158.631 100.151C159.376 100.672 161.178 102.064 166.099 105.263H166.106ZM157.654 96.572C159.205 97.602 160.574 99.072 159.977 98.794C158.402 98.06 156.519 99.713 155.102 101.034C153.086 102.91 151.637 105.314 150.919 107.972C150.743 108.51 150.676 109.078 150.721 109.642C150.766 110.206 150.922 110.756 151.181 111.259C151.291 111.43 151.543 111.859 150.981 111.688C149.799 111.338 148.696 110.764 147.731 109.997C146.758 109.188 146.547 107.46 146.562 106.239C146.633 100.159 153.762 93.99 157.649 96.572H157.654ZM95.6374 81.633C95.5244 81.798 95.3254 81.768 95.1374 81.697C91.8464 80.455 87.8514 78.918 87.2374 74.115C86.3374 67.051 91.4024 59.303 98.5374 57.015C100.459 56.2729 102.58 56.2196 104.537 56.864C106.525 57.8558 108.277 59.2628 109.674 60.99C108.837 60.6703 107.932 60.5671 107.044 60.69C99.3364 61.622 90.7194 76.798 95.2834 81.221C95.4434 81.376 95.6804 81.569 95.6374 81.633ZM95.5234 77.681C95.4118 77.6337 95.3212 77.5475 95.2684 77.4384C95.2156 77.3294 95.2042 77.2048 95.2364 77.088C96.8434 67.674 104.705 61.782 106.752 61.856C107.123 61.831 107.094 61.8 110.218 63.987C122.877 72.846 140.991 84.962 153.381 95.256C153.854 95.649 150.597 95.694 147.503 100.276C144.659 104.488 146.083 107.701 145.44 107.362C120.978 94.488 97.9524 78.931 95.5234 77.681ZM125.473 106.381C126.073 105.733 129.109 106.281 129.473 106.321C129.638 106.329 129.799 106.375 129.943 106.454C130.088 106.534 130.212 106.646 130.307 106.781C131.165 107.816 132.346 108.533 133.66 108.816C134.974 109.099 136.345 108.932 137.553 108.342C137.754 108.203 138 108.143 138.242 108.175C139.664 108.612 141.031 109.209 142.318 109.955C146.324 112.469 135.587 111.604 128.211 108.563C127.441 108.242 124.904 106.989 125.473 106.378V106.381ZM140.54 113.855C131.992 113.882 124.726 110.564 124.773 109.631C124.84 108.305 124.811 107.394 125.213 107.768C128.166 110.512 139.568 112.812 143.057 112.059C143.241 112.019 143.277 112.077 143.257 112.21C143.18 112.647 143.072 113.078 142.935 113.5C142.682 113.974 142.167 113.847 140.54 113.852V113.855Z" fill="#51B748"/>
<path d="M166.048 116.173C166.672 117.673 169.306 116.167 170.741 113.792C171.394 112.712 172.036 111.542 171.827 110.464C171.577 109.164 170.085 109.31 169.11 110.043C167.311 111.394 165.435 114.261 166.048 116.173Z" fill="#51B748"/>
<path d="M46.1866 112.617C47.2546 112.617 47.2076 112.677 47.1866 112.317C47.1866 112.317 47.0196 110.645 46.8686 108.594C46.8216 107.956 48.1926 107.335 48.3266 111.107C48.3866 112.807 48.4786 112.707 48.7746 112.714C52.5566 112.794 52.6056 112.606 52.7406 112.93C52.8636 113.23 51.2266 113.689 50.9116 113.748C48.6206 114.174 48.6116 113.748 48.6116 114.384C48.6396 118.627 48.6276 117.774 48.7346 118.646C48.7556 118.813 48.5726 118.809 48.5076 118.759C47.8386 118.246 47.5076 115.823 47.4816 115.241C47.4156 113.917 47.3166 113.997 47.0546 113.977C45.1776 113.833 44.7216 113.872 44.6916 113.444C44.6286 112.564 45.2996 112.617 46.1866 112.617Z" fill="#51B748"/>
<path d="M119.709 23.3681C119.709 25.4681 119.618 25.4281 119.98 25.4291C121.419 25.4291 121.78 25.4761 122.317 25.5071C122.854 25.5381 122.805 25.9181 122.546 26.0771C121.83 26.5091 121.008 26.7341 120.172 26.7271C119.542 26.7881 119.837 26.5751 119.519 29.5041C119.338 31.1791 119.183 31.8461 118.859 31.6131C118.264 31.1851 118.371 28.3431 118.276 27.0211C118.254 26.7031 118.322 26.6731 116.724 26.6761C116.414 26.6761 115.995 26.7131 115.904 26.3351C115.765 25.7571 115.863 25.4741 117.004 25.4351C118.321 25.3871 118.368 25.4801 118.381 25.1871C118.407 23.9225 118.502 22.6602 118.666 21.4061C118.666 21.2687 118.721 21.1369 118.818 21.0398C118.915 20.9427 119.047 20.8881 119.184 20.8881C119.321 20.8881 119.453 20.9427 119.55 21.0398C119.647 21.1369 119.702 21.2687 119.702 21.4061C119.738 22.0595 119.74 22.7144 119.709 23.3681Z" fill="#51B748"/>
<path d="M172.224 58.03C172.488 58.112 171.962 58.5921 171.524 58.7841C171.034 58.9364 170.528 59.0334 170.016 59.0731C169.899 59.0911 169.676 59.0731 169.639 59.2541C169.502 59.9361 169.444 60.9161 169.176 62.5541C168.976 63.7781 168.765 63.8651 168.576 63.8941C168.429 63.9161 168.176 63.7251 168.194 62.6101C168.218 61.3441 168.287 59.6301 168.322 59.4281C168.367 59.1741 167.874 59.2341 166.586 59.3721C166.457 59.3868 166.328 59.3552 166.22 59.283C166.113 59.2108 166.034 59.1026 165.999 58.978C165.964 58.8533 165.975 58.7202 166.029 58.6026C166.083 58.485 166.177 58.3905 166.295 58.336C166.874 58.0469 167.502 57.8676 168.147 57.807C168.262 57.78 168.395 57.859 168.46 57.675C168.691 57.027 168.63 55.4021 168.842 54.5751C169.068 53.6921 169.709 53.952 169.726 54.627C169.837 59.361 169.148 57.074 172.224 58.03Z" fill="#51B748"/>
</svg>