<svg width="24" height="24" viewBox="0 0 24 24" fill="none" xmlns="http://www.w3.org/2000/svg">
<path d="M5.4202 14.4656L4.59745 17.537L1.59033 17.6006C0.691636 15.9338 0.181885 14.0266 0.181885 12C0.181885 10.0403 0.65849 8.1922 1.50331 6.56494H1.50395L4.18114 7.05576L5.35391 9.71689C5.10845 10.4325 4.97467 11.2007 4.97467 12C4.97476 12.8675 5.1319 13.6987 5.4202 14.4656Z" fill="#FBBB00"/>
<path d="M23.6119 9.79224C23.7476 10.5071 23.8184 11.2455 23.8184 12C23.8184 12.8461 23.7294 13.6715 23.5599 14.4676C22.9846 17.1767 21.4814 19.5422 19.3989 21.2163L19.3983 21.2156L16.0262 21.0436L15.549 18.0643C16.9308 17.2539 18.0107 15.9857 18.5795 14.4676H12.26V9.79224H18.6717H23.6119Z" fill="#518EF8"/>
<path d="M19.3981 21.2158L19.3988 21.2164C17.3735 22.8444 14.8007 23.8184 12.0001 23.8184C7.49942 23.8184 3.58645 21.3028 1.59033 17.6009L5.42021 14.4658C6.41824 17.1294 8.98773 19.0256 12.0001 19.0256C13.2949 19.0256 14.5079 18.6755 15.5488 18.0645L19.3981 21.2158Z" fill="#28B446"/>
<path d="M19.5437 2.90265L15.7151 6.03706C14.6379 5.3637 13.3644 4.97471 12.0002 4.97471C8.91965 4.97471 6.30211 6.95781 5.35407 9.71694L1.50406 6.565H1.50342C3.47031 2.77279 7.43264 0.181885 12.0002 0.181885C14.8677 0.181885 17.4969 1.20333 19.5437 2.90265Z" fill="#F14336"/>
</svg>