<svg width="69" height="60" viewBox="0 0 69 60" fill="none" xmlns="http://www.w3.org/2000/svg">
<path d="M36.1364 14.7458L36.2287 14.7733L36.2327 14.7688C36.6703 14.8481 37.1045 14.586 37.2331 14.1519C38.4047 10.2152 42.0958 7.46504 46.2082 7.46504C46.6951 7.46504 47.09 7.07016 47.09 6.5833C47.09 6.09643 46.6951 5.70156 46.2082 5.70156C41.1541 5.70156 36.9069 9.06665 35.5432 13.6493C35.404 14.1162 35.6699 14.6067 36.1364 14.7458Z" fill="#51B748" stroke="white" stroke-width="0.3"/>
<path d="M56.4531 42.4384H52.0628C51.6588 42.4384 51.3311 42.1107 51.3311 41.7067C51.3311 41.3027 51.6588 40.9749 52.0628 40.9749H56.4531C62.505 40.9749 67.4291 36.0509 67.4291 29.999C67.4291 23.9471 62.505 19.023 56.4531 19.023H56.3475C56.1354 19.023 55.9336 18.9311 55.7946 18.7706C55.6555 18.6101 55.5928 18.3974 55.6231 18.1873C55.6885 17.7315 55.7214 17.2737 55.7214 16.8279C55.7214 11.5829 51.4538 7.31531 46.2089 7.31531C44.1684 7.31531 42.2225 7.95296 40.5812 9.15978C40.2206 9.42478 39.7084 9.30718 39.4999 8.91047C34.8518 0.0596993 22.7117 -1.12887 16.4176 6.57053C13.7662 9.81417 12.7244 14.0336 13.5592 18.146C13.6512 18.6002 13.3036 19.0236 12.8421 19.0236H12.5489C6.49697 19.0236 1.57291 23.9477 1.57291 29.9996C1.57291 36.0514 6.49697 40.9755 12.5489 40.9755H16.9392C17.3432 40.9755 17.6709 41.3032 17.6709 41.7072C17.6709 42.1113 17.3432 42.439 16.9392 42.439H12.5489C5.68988 42.439 0.109375 36.8585 0.109375 29.9995C0.109375 23.3329 5.38093 17.8742 11.9744 17.5731C11.3551 13.3066 12.5395 9.00295 15.2844 5.64437C22.0231 -2.5996 34.9374 -1.67556 40.3965 7.51707C42.1381 6.42522 44.1309 5.85244 46.2086 5.85244C52.5632 5.85244 57.5985 11.261 57.1579 17.58C63.6907 17.9463 68.8923 23.3763 68.8923 29.999C68.8923 36.8585 63.3118 42.4384 56.4528 42.4384L56.4531 42.4384Z" fill="#51B748"/>
<path d="M15.9594 41.2935C15.9594 51.4634 24.233 59.737 34.4029 59.737C44.5728 59.737 52.8463 51.4633 52.8463 41.2935C52.8463 31.1235 44.5728 22.85 34.4029 22.85C24.2329 22.85 15.9594 31.1237 15.9594 41.2935ZM17.7232 41.2935C17.7232 32.0966 25.2058 24.6138 34.4029 24.6138C43.5998 24.6138 51.0825 32.0964 51.0825 41.2935C51.0825 50.4904 43.5998 57.9732 34.4029 57.9732C25.206 57.9732 17.7232 50.4905 17.7232 41.2935Z" fill="#51B748" stroke="white" stroke-width="0.3"/>
<path d="M34.0531 48.6577C34.0531 49.0363 34.3602 49.3434 34.7388 49.3434C35.1174 49.3434 35.4245 49.0367 35.4245 48.6577V34.7291C35.4245 34.3504 35.1175 34.0434 34.7388 34.0434C34.3602 34.0434 34.0531 34.3504 34.0531 34.7291V48.6577Z" fill="#51B748" stroke="#51B748" stroke-width="0.3"/>
<path d="M34.7375 35.7001L30.9368 39.5008L34.7375 35.7001ZM34.7375 35.7001L38.5383 39.5009C38.672 39.6346 38.848 39.7017 39.0231 39.7017L34.7375 35.7001ZM29.9669 39.5009C30.2347 39.7687 30.6691 39.7689 30.9367 39.5009L39.0231 39.7017C39.198 39.7017 39.3741 39.6352 39.508 39.5009C39.7759 39.233 39.7759 38.799 39.508 38.5311L35.2223 34.2455C34.9545 33.9777 34.5202 33.9775 34.2526 34.2455C34.2525 34.2455 34.2525 34.2456 34.2525 34.2456L29.9669 38.5311C29.699 38.799 29.699 39.233 29.9669 39.5009Z" fill="#51B748" stroke="#51B748" stroke-width="0.3"/>
</svg>
