<svg width="24" height="24" viewBox="0 0 24 24" fill="none" xmlns="http://www.w3.org/2000/svg">
<path d="M4.89161 9.61399C4.89161 9.21199 5.21461 8.88599 5.61361 8.88599H9.46961C9.86961 8.88599 10.1926 9.21199 10.1926 9.61399C10.193 9.70933 10.1746 9.80381 10.1385 9.89204C10.1024 9.98028 10.0492 10.0605 9.98209 10.1282C9.91495 10.1959 9.83514 10.2497 9.74721 10.2866C9.65928 10.3234 9.56495 10.3426 9.46961 10.343H5.61361C5.42123 10.3419 5.23714 10.2646 5.10177 10.1279C4.9664 9.99119 4.89081 9.80636 4.89161 9.61399Z" fill="#6D6D6D"/>
<path fill-rule="evenodd" clip-rule="evenodd" d="M21.188 10.004C21.126 10 21.058 10 20.988 10H18.215C15.944 10 14 11.736 14 14C14 16.264 15.944 18 18.215 18H20.988C21.058 18 21.126 18 21.188 17.996C22.111 17.94 22.927 17.239 22.996 16.259C23 16.195 23 16.126 23 16.062V11.938C23 11.874 23 11.805 22.996 11.741C22.927 10.761 22.111 10.061 21.188 10.004ZM17.971 15.067C18.555 15.067 19.029 14.589 19.029 14C19.029 13.41 18.555 12.933 17.971 12.933C17.386 12.933 16.911 13.411 16.911 14C16.911 14.59 17.386 15.067 17.971 15.067Z" fill="#6D6D6D"/>
<path opacity="0.5" d="M21.14 10.002C21.14 8.821 21.096 7.554 20.342 6.647C20.2683 6.55815 20.1905 6.47272 20.109 6.391C19.36 5.643 18.411 5.311 17.239 5.153C16.099 5 14.644 5 12.806 5H10.694C8.856 5 7.4 5 6.26 5.153C5.088 5.311 4.139 5.643 3.39 6.391C2.642 7.14 2.31 8.089 2.152 9.261C2 10.401 2 11.856 2 13.694V13.806C2 15.644 2 17.1 2.153 18.239C2.311 19.411 2.643 20.36 3.391 21.109C4.14 21.857 5.089 22.189 6.261 22.347C7.401 22.5 8.856 22.5 10.694 22.5H12.806C14.644 22.5 16.1 22.5 17.239 22.347C18.411 22.189 19.36 21.857 20.109 21.109C20.3082 20.9092 20.4846 20.6878 20.635 20.449C21.085 19.729 21.139 18.847 21.139 17.999L20.989 18H18.215C15.944 18 14 16.264 14 14C14 11.736 15.944 10 18.215 10H20.988C21.04 10 21.092 10 21.14 10.002Z" fill="#6D6D6D"/>
<path d="M10.1006 2.57196L7.9996 3.99196L6.2666 5.15196C7.4046 4.99996 8.8586 4.99996 10.6936 4.99996H12.8056C14.6436 4.99996 16.0996 4.99996 17.2386 5.15296C17.4686 5.18296 17.6886 5.22096 17.9006 5.26696L15.9996 3.99996L13.8866 2.57196C13.3258 2.1989 12.6672 1.99988 11.9936 1.99988C11.32 1.99988 10.6614 2.1989 10.1006 2.57196Z" fill="#6D6D6D"/>
</svg>
