<svg width="139" height="42" viewBox="0 0 139 42" fill="none" xmlns="http://www.w3.org/2000/svg">
<path d="M126.758 12.8502C126.758 12.8502 126.758 12.8548 126.754 12.8594L126.747 12.8502H126.758Z" fill="#51B748"/>
<path d="M26.8481 25.0722L22.3257 17.2415C24.1219 16.5799 25.4884 14.8632 26.4252 13.4558C27.3642 12.0461 27.8326 10.4727 27.8326 8.73559C27.8326 7.16446 27.4665 5.70701 26.7366 4.36779C26.0045 3.03085 24.9154 1.96676 23.4648 1.18233C22.0164 0.393354 20.2702 0 18.2284 0H0.798211V3.10816H0.736816V14.2425H0.798211V28.4828H9.94761V17.2711H13.3422L18.1716 28.0303L18.3899 28.4828H28.6602L26.8458 25.0722H26.8481ZM18.5945 10.6751C18.0466 11.2367 17.3781 11.5163 16.5891 11.5163H9.9817V5.72975H16.5891C17.3781 5.72975 18.0466 6.00259 18.5945 6.55055C19.1402 7.09852 19.4153 7.78063 19.4153 8.59917C19.4153 9.4177 19.1402 10.1112 18.5945 10.6728V10.6751Z" fill="#131A43"/>
<path d="M57.9317 17.3052V10.766H42.1567V6.83247H57.6407V0.0022583H33.0073V28.485H57.9317V21.6548H42.1567V17.3075H57.9317V17.3052Z" fill="#131A43"/>
<path d="M98.6058 0.0022583H89.4541V28.485H98.6058V0.0022583Z" fill="#51B748"/>
<path d="M114.297 0.00227593H102.23L108.169 8.28085H113.485C114.54 7.24859 116.039 6.29817 117.705 5.7684L114.297 0.00227593ZM127.771 19.3766C126.102 21.4138 123.315 22.6871 120.4 22.6871C120.184 22.6871 119.963 22.678 119.743 22.6598L123.201 28.485H134.297L127.776 19.3766H127.771ZM113.483 19.7381H108.492L102.249 28.485H112.517L116.498 21.7799C115.35 21.2546 114.299 20.5361 113.485 19.7403L113.483 19.7381ZM123.117 0.00227593L119.927 5.34776C120.084 5.33867 120.243 5.33185 120.4 5.33185C123.426 5.33185 126.309 6.70289 127.958 8.87428L134.294 0H123.117V0.00227593Z" fill="#51B748"/>
<path d="M124.483 14.7882L125.192 15.7773L122.268 15.7795L120.367 14.0083L122.268 12.2394L125.551 12.2417L124.844 13.2307L124.107 14.263L124.483 14.7882Z" fill="#131A43"/>
<path d="M125.47 18.2465C124.236 19.4584 122.353 20.2201 120.398 20.2201C119.584 20.2201 118.77 20.0359 118.008 19.7426L117.94 19.6244H117.776L117.765 19.6426C116.355 19.0468 115.168 18.0896 114.604 17.2711H70.5762V28.485H61.4268V0.0022583H84.4458V6.83247H70.5762V10.7478H114.604C115.5 9.45179 117.958 7.80108 120.398 7.80108C122.353 7.80108 124.236 8.56049 125.468 9.77465H121.3L116.751 14.0106L121.3 18.2465H125.47Z" fill="#51B748"/>
<path d="M117.937 19.6243L118.005 19.7403C117.923 19.7085 117.842 19.6766 117.76 19.6425L117.771 19.6243H117.935H117.937Z" fill="#51B748"/>
<path d="M0 36.8023H3.68227V37.8234H1.36737V38.4109H3.34764V39.3886H1.36737V40.0386H3.72487V41.0597H0V36.8023Z" fill="#131A43"/>
<path d="M4.46729 36.8023H5.83465V39.9706H8.019V41.0597H4.46729V36.8023Z" fill="#131A43"/>
<path d="M8.59521 36.8023H12.2775V37.8234H9.96327V38.4109H11.9435V39.3886H9.96327V40.0386H12.3208V41.0597H8.59521V36.8023Z" fill="#131A43"/>
<path d="M16.5906 37.2009C16.9575 37.5162 17.1417 37.967 17.1417 38.5531H15.8361C15.8361 38.3057 15.7709 38.1099 15.641 37.9649C15.5111 37.8206 15.3263 37.7485 15.0872 37.7485C14.811 37.7485 14.6076 37.8351 14.4777 38.0082C14.3478 38.1814 14.2826 38.4226 14.2826 38.7324V39.1282C14.2826 39.4333 14.3472 39.6738 14.4777 39.849C14.6076 40.0242 14.8068 40.1122 15.0748 40.1122C15.3428 40.1122 15.5386 40.0442 15.6754 39.9081C15.8114 39.7721 15.8794 39.5803 15.8794 39.3323H17.1417C17.1417 39.9143 16.963 40.3595 16.6064 40.6687C16.2498 40.9779 15.7454 41.1326 15.0934 41.1326C14.3671 41.1326 13.8174 40.947 13.4443 40.576C13.0712 40.2049 12.8843 39.6559 12.8843 38.9296C12.8843 38.2034 13.0712 37.655 13.4443 37.2833C13.8174 36.9123 14.3671 36.7267 15.0934 36.7267C15.7248 36.7267 16.2237 36.8848 16.5906 37.2002V37.2009Z" fill="#131A43"/>
<path d="M20.3286 37.8914V41.0597H18.9613V37.8914H17.563V36.8023H21.7214V37.8914H20.3293H20.3286Z" fill="#131A43"/>
<path d="M26.1759 38.8128C26.0357 39.0231 25.8317 39.1777 25.563 39.2773L26.5098 41.0597H24.9755L24.2204 39.5061H23.7126V41.0597H22.3452V36.8023H24.9501C25.2552 36.8023 25.5163 36.8607 25.7327 36.9789C25.9492 37.0964 26.112 37.2551 26.2213 37.4551C26.3305 37.655 26.3855 37.8728 26.3855 38.1078C26.3855 38.3676 26.3154 38.6032 26.1752 38.8135L26.1759 38.8128ZM24.8827 37.8852C24.8085 37.811 24.7178 37.7739 24.6106 37.7739H23.7133V38.56H24.6106C24.7178 38.56 24.8085 38.5215 24.8827 38.4452C24.957 38.3689 24.9941 38.2748 24.9941 38.1635C24.9941 38.0522 24.957 37.9594 24.8827 37.8852Z" fill="#131A43"/>
<path d="M30.8731 37.2908C31.273 37.666 31.4737 38.213 31.4737 38.9303C31.4737 39.6477 31.2737 40.1946 30.8731 40.5705C30.4732 40.9456 29.9057 41.1339 29.1712 41.1339C28.4366 41.1339 27.8704 40.947 27.4726 40.5739C27.0748 40.2008 26.8755 39.6532 26.8755 38.931C26.8755 38.2088 27.0748 37.6612 27.4726 37.2881C27.8704 36.915 28.4366 36.7281 29.1712 36.7281C29.9057 36.7281 30.4726 36.9157 30.8731 37.2915V37.2908ZM28.5033 38.0151C28.3507 38.1923 28.2745 38.4315 28.2745 38.7331V39.1289C28.2745 39.4298 28.3507 39.6696 28.5033 39.8469C28.6558 40.0242 28.8784 40.1128 29.1718 40.1128C29.4652 40.1128 29.6886 40.0242 29.8432 39.8469C29.9978 39.6696 30.0754 39.4305 30.0754 39.1289V38.7331C30.0754 38.4321 29.9978 38.1923 29.8432 38.0151C29.6886 37.8378 29.4646 37.7491 29.1718 37.7491C28.8791 37.7491 28.6565 37.8378 28.5033 38.0151Z" fill="#131A43"/>
<path d="M35.867 41.0597V39.5254C35.867 39.3357 35.8745 39.1406 35.8889 38.9406C35.9034 38.7407 35.9185 38.5723 35.9357 38.4363C35.9522 38.3002 35.9625 38.2136 35.9666 38.1765H35.9419L35.1558 41.0604H34.0853L33.293 38.1827H33.2683C33.2724 38.2198 33.2834 38.3057 33.3019 38.4397C33.3205 38.5737 33.3384 38.7407 33.3549 38.9406C33.3713 39.1406 33.3796 39.3357 33.3796 39.5254V41.0597H32.1235V36.8023H34.0543L34.6982 39.2588H34.7229L35.3606 36.8023H37.2233V41.0597H35.8683H35.867Z" fill="#131A43"/>
<path d="M38.0513 36.8023H41.7335V37.8234H39.4193V38.4109H41.3996V39.3886H39.4193V40.0386H41.7768V41.0597H38.0513V36.8023Z" fill="#131A43"/>
<path d="M46.0467 37.2009C46.4136 37.5162 46.5977 37.967 46.5977 38.5531H45.2922C45.2922 38.3057 45.2269 38.1099 45.0971 37.9649C44.9672 37.8206 44.7824 37.7485 44.5432 37.7485C44.267 37.7485 44.0636 37.8351 43.9338 38.0082C43.8039 38.1814 43.7386 38.4226 43.7386 38.7324V39.1282C43.7386 39.4333 43.8032 39.6738 43.9338 39.849C44.0636 40.0242 44.2629 40.1122 44.5309 40.1122C44.7988 40.1122 44.9947 40.0442 45.1314 39.9081C45.2675 39.7721 45.3355 39.5803 45.3355 39.3323H46.5977C46.5977 39.9143 46.4191 40.3595 46.0625 40.6687C45.7058 40.9779 45.2015 41.1326 44.5494 41.1326C43.8231 41.1326 43.2734 40.947 42.9003 40.576C42.5272 40.2049 42.3403 39.6559 42.3403 38.9296C42.3403 38.2034 42.5272 37.655 42.9003 37.2833C43.2734 36.9123 43.8231 36.7267 44.5494 36.7267C45.1809 36.7267 45.6797 36.8848 46.0467 37.2002V37.2009Z" fill="#131A43"/>
<path d="M50.2053 41.0597V39.4443H48.7018V41.0597H47.3345V36.8023H48.7018V38.3559H50.2053V36.8023H51.5726V41.0597H50.2053Z" fill="#131A43"/>
<path d="M55.3413 41.0597L55.1619 40.4592H53.6709L53.4915 41.0597H52.0933L53.6461 36.8023H55.2368L56.7904 41.0597H55.3426H55.3413ZM53.9547 39.5061H54.8768L54.4315 37.9903H54.4068L53.9554 39.5061H53.9547Z" fill="#131A43"/>
<path d="M60.3478 41.0597L58.5593 38.9928V41.0597H57.3032V36.8023H58.4974L60.286 38.9001V36.8023H61.5421V41.0597H60.3478Z" fill="#131A43"/>
<path d="M62.5195 41.0597V36.8023H63.8869V41.0597H62.5195Z" fill="#131A43"/>
<path d="M68.3924 37.2009C68.7593 37.5162 68.9434 37.967 68.9434 38.5531H67.6379C67.6379 38.3057 67.5726 38.1099 67.4428 37.9649C67.3129 37.8206 67.1281 37.7485 66.8889 37.7485C66.6127 37.7485 66.4093 37.8351 66.2795 38.0082C66.1496 38.1814 66.0843 38.4226 66.0843 38.7324V39.1282C66.0843 39.4333 66.1489 39.6738 66.2795 39.849C66.4093 40.0242 66.6086 40.1122 66.8766 40.1122C67.1445 40.1122 67.3404 40.0442 67.4771 39.9081C67.6132 39.7721 67.6812 39.5803 67.6812 39.3323H68.9434C68.9434 39.9143 68.7648 40.3595 68.4082 40.6687C68.0515 40.9779 67.5472 41.1326 66.8951 41.1326C66.1688 41.1326 65.6191 40.947 65.246 40.576C64.8729 40.2049 64.686 39.6559 64.686 38.9296C64.686 38.2034 64.8729 37.655 65.246 37.2833C65.6191 36.9123 66.1688 36.7267 66.8951 36.7267C67.5266 36.7267 68.0254 36.8848 68.3924 37.2002V37.2009Z" fill="#131A43"/>
<path d="M72.5312 41.0598L72.3519 40.4592H70.8608L70.6815 41.0598H69.2832L70.8368 36.8024H72.4275L73.9804 41.0598H72.5319H72.5312ZM71.1453 39.5062H72.0674L71.6222 37.9904H71.5974L71.146 39.5062H71.1453Z" fill="#131A43"/>
<path d="M74.4932 36.8024H75.8605V39.9707H78.0449V41.0598H74.4932V36.8024Z" fill="#131A43"/>
<path d="M91.9008 41.0598V39.5254C91.9008 39.3358 91.9077 39.1406 91.9222 38.9407C91.9366 38.7407 91.9517 38.5724 91.9689 38.4363C91.9854 38.3003 91.9957 38.2137 91.9998 38.1766H91.9751L91.189 41.0604H90.1185L89.3262 38.1828H89.3015C89.3056 38.2199 89.3166 38.3058 89.3351 38.4398C89.3537 38.5738 89.3716 38.7407 89.3881 38.9407C89.4045 39.1406 89.4128 39.3358 89.4128 39.5254V41.0598H88.1567V36.8024H90.0875L90.7314 39.2588H90.7561L91.3938 36.8024H93.2565V41.0598H91.9015H91.9008Z" fill="#131A43"/>
<path d="M96.938 41.0598L96.7586 40.4592H95.2676L95.0882 41.0598H93.6899L95.2435 36.8024H96.8342L98.3871 41.0598H96.9386H96.938ZM95.552 39.5062H96.4741L96.0289 37.9904H96.0042L95.5527 39.5062H95.552Z" fill="#131A43"/>
<path d="M98.9614 41.0598V36.8024H100.329V41.0598H98.9614Z" fill="#131A43"/>
<path d="M104.351 41.0598L102.563 38.9929V41.0598H101.307V36.8024H102.501L104.289 38.9001V36.8024H105.545V41.0598H104.351Z" fill="#131A43"/>
<path d="M108.912 37.8914V41.0598H107.544V37.8914H106.146V36.8024H110.304V37.8914H108.912Z" fill="#131A43"/>
<path d="M110.93 36.8024H114.612V37.8234H112.298V38.4109H114.278V39.3887H112.298V40.0387H114.655V41.0598H110.93V36.8024H110.93Z" fill="#131A43"/>
<path d="M118.442 41.0598L116.654 38.9929V41.0598H115.397V36.8024H116.592L118.38 38.9001V36.8024H119.636V41.0598H118.442Z" fill="#131A43"/>
<path d="M123.343 41.0598L123.164 40.4592H121.673L121.493 41.0598H120.095L121.649 36.8024H123.239L124.792 41.0598H123.344H123.343ZM121.957 39.5062H122.879L122.434 37.9904H122.409L121.958 39.5062H121.957Z" fill="#131A43"/>
<path d="M128.35 41.0598L126.561 38.9929V41.0598H125.305V36.8024H126.499L128.288 38.9001V36.8024H129.544V41.0598H128.35Z" fill="#131A43"/>
<path d="M133.987 37.2009C134.354 37.5162 134.538 37.967 134.538 38.5531H133.232C133.232 38.3057 133.168 38.1099 133.037 37.9649C132.907 37.8206 132.722 37.7485 132.483 37.7485C132.207 37.7485 132.004 37.8351 131.874 38.0082C131.744 38.1814 131.679 38.4226 131.679 38.7324V39.1282C131.679 39.4333 131.744 39.6738 131.874 39.849C132.004 40.0242 132.203 40.1122 132.471 40.1122C132.739 40.1122 132.935 40.0442 133.071 39.9081C133.207 39.7721 133.275 39.5803 133.275 39.3323H134.538C134.538 39.9143 134.359 40.3595 134.002 40.6687C133.646 40.9779 133.141 41.1326 132.489 41.1326C131.763 41.1326 131.213 40.947 130.84 40.576C130.467 40.2049 130.28 39.6559 130.28 38.9296C130.28 38.2034 130.467 37.655 130.84 37.2833C131.213 36.9123 131.763 36.7267 132.489 36.7267C133.121 36.7267 133.62 36.8848 133.987 37.2002L133.987 37.2009Z" fill="#131A43"/>
<path d="M135.274 36.8024H138.957V37.8234H136.642V38.4109H138.623V39.3887H136.642V40.0387H139V41.0598H135.275V36.8024H135.274Z" fill="#131A43"/>
<path d="M84.6699 40.5332C84.4477 40.3342 84.2443 40.1505 84.0566 39.9799C84.2026 39.7747 84.3248 39.5433 84.4233 39.2857L83.6418 38.7476C83.5792 38.9734 83.4951 39.1772 83.3901 39.3609C83.1716 39.153 82.9861 38.9679 82.8344 38.8063C82.9968 38.7282 83.1522 38.6419 83.2974 38.5465C83.4534 38.4443 83.5807 38.3221 83.6791 38.1798C83.7776 38.0382 83.8265 37.8682 83.8265 37.6714C83.8265 37.4745 83.7705 37.3156 83.6576 37.1719C83.5447 37.0283 83.3916 36.915 83.1989 36.8321C83.0062 36.7492 82.7804 36.7078 82.5216 36.7078C82.2628 36.7078 82.0327 36.7499 81.8415 36.8349C81.6509 36.9198 81.5021 37.0386 81.395 37.1927C81.2886 37.3467 81.2347 37.5298 81.2347 37.7425C81.2347 37.8883 81.2613 38.0354 81.3145 38.1832C81.3662 38.3262 81.4518 38.4795 81.5704 38.6426C81.4762 38.6944 81.3842 38.7482 81.2958 38.807C81.1354 38.9133 81.0053 39.0418 80.9054 39.191C80.8047 39.3409 80.7544 39.5219 80.7544 39.7346C80.7544 39.9709 80.8198 40.1822 80.9514 40.3674C81.083 40.5525 81.2634 40.6976 81.4928 40.8019C81.7228 40.9062 81.9853 40.9587 82.2808 40.9587C82.5928 40.9587 82.8869 40.891 83.1637 40.7549C83.2679 40.7038 83.3657 40.6423 83.4613 40.5746C83.6418 40.7424 83.8337 40.9214 84.0408 41.1127L84.6684 40.5332H84.6699ZM82.2908 37.4766C82.3505 37.4096 82.431 37.3757 82.5338 37.3757C82.6367 37.3757 82.7114 37.4047 82.7711 37.4614C82.8308 37.5187 82.8602 37.5926 82.8602 37.6831C82.8602 37.813 82.8092 37.9256 82.7064 38.0202C82.618 38.1017 82.508 38.177 82.3793 38.2468C82.3584 38.2136 82.3383 38.1811 82.3217 38.1507C82.2419 38.0009 82.2017 37.8634 82.2017 37.737C82.2017 37.6306 82.2312 37.5436 82.2908 37.4766ZM82.0421 40.0717C81.9558 40.0324 81.8882 39.9764 81.8386 39.9032C81.7897 39.83 81.7645 39.7443 81.7645 39.6462C81.7645 39.5198 81.8149 39.4121 81.9155 39.3209C81.9572 39.2836 82.0047 39.247 82.0557 39.2117C82.0679 39.2249 82.0787 39.2366 82.091 39.2497C82.2894 39.4583 82.536 39.7029 82.8286 39.9792C82.669 40.0786 82.5015 40.1304 82.3253 40.1304C82.2225 40.1304 82.1283 40.1111 82.0421 40.071V40.0717Z" fill="#131A43"/>
</svg>