<svg width="32" height="32" viewBox="0 0 32 32" fill="none" xmlns="http://www.w3.org/2000/svg">
<path d="M23.5 8.0625C23.5213 8.10705 23.5425 8.15161 23.5645 8.19751C23.8997 8.85999 24.3143 9.2178 25 9.5C25.2217 9.56747 25.4413 9.58151 25.6719 9.59766C25.745 9.60289 25.8182 9.60813 25.8936 9.61353C25.9772 9.61921 25.9772 9.61921 26.0625 9.625C26.3384 10.7363 26.597 11.8514 26.8507 12.9679C26.8852 13.1197 26.9197 13.2715 26.9544 13.4232C27.0036 13.639 27.0525 13.8549 27.1013 14.0708C27.1238 14.1694 27.1238 14.1694 27.1468 14.27C27.1673 14.3608 27.1673 14.3608 27.1881 14.4534C27.2001 14.5064 27.2121 14.5593 27.2245 14.6139C27.25 14.75 27.25 14.75 27.25 14.9375C27.2024 14.9512 27.1548 14.9649 27.1057 14.979C26.3968 15.1967 25.9196 15.4582 25.5625 16.125C25.3978 16.4779 25.3986 16.8662 25.375 17.25C25.1056 17.3698 24.83 17.4333 24.543 17.4946C24.4909 17.5059 24.4387 17.5173 24.385 17.529C24.2106 17.5669 24.0361 17.6044 23.8616 17.6418C23.7366 17.6689 23.6116 17.6959 23.4866 17.723C23.1468 17.7965 22.807 17.8695 22.4672 17.9425C22.2535 17.9884 22.0399 18.0343 21.8263 18.0803C18.9513 18.6992 16.0718 19.2955 13.1903 19.8832C12.5419 20.0155 11.8937 20.1486 11.2456 20.2825C10.9814 20.337 10.7172 20.3914 10.4529 20.4457C10.2565 20.486 10.0601 20.5265 9.86382 20.5672C9.65733 20.61 9.45075 20.6524 9.24414 20.6946C9.18569 20.7068 9.12723 20.719 9.067 20.7316C8.78988 20.7878 8.53456 20.8266 8.25 20.8125C8.23107 20.7717 8.21213 20.731 8.19263 20.689C7.93932 20.1605 7.67999 19.7166 7.09741 19.5078C6.69184 19.3878 6.29545 19.3455 5.875 19.3125C5.62727 18.1905 5.38375 17.0675 5.1438 15.9438C5.11572 15.8124 5.0876 15.681 5.05942 15.5496C5.01945 15.3631 4.97967 15.1765 4.93994 14.99C4.92798 14.9343 4.91602 14.8787 4.90369 14.8213C4.84137 14.5274 4.78848 14.2355 4.75 13.9375C4.79222 13.9216 4.83443 13.9058 4.87793 13.8894C4.93368 13.8679 4.98943 13.8464 5.04688 13.8242C5.10198 13.8032 5.15709 13.7822 5.21387 13.7605C5.37071 13.6894 5.48859 13.6035 5.625 13.5C5.66625 13.5 5.7075 13.5 5.75 13.5C5.76748 13.4642 5.78497 13.4285 5.80298 13.3916C5.84904 13.301 5.89753 13.2116 5.94897 13.124C6.21878 12.6432 6.28869 12.1631 6.375 11.625C7.00717 11.4609 7.64023 11.3152 8.2812 11.19C8.42724 11.1615 8.57321 11.1326 8.71916 11.1037C8.92972 11.062 9.1403 11.0204 9.35089 10.9789C9.91549 10.8676 10.4799 10.7552 11.0442 10.6426C11.1012 10.6312 11.1582 10.6198 11.2169 10.6081C12.283 10.3951 13.347 10.173 14.4102 9.94531C14.7407 9.87454 15.0713 9.80379 15.4019 9.73315C15.444 9.72415 15.4861 9.71515 15.5295 9.70587C16.9899 9.39402 18.453 9.09462 19.9156 8.7934C20.1947 8.73593 20.4737 8.67839 20.7527 8.62085C20.8056 8.60993 20.8586 8.59902 20.9132 8.58777C21.6041 8.44529 22.2944 8.30036 22.9829 8.14674C23.3625 8.0625 23.3625 8.0625 23.5 8.0625ZM12.5664 11.7773C11.9271 12.604 11.5921 13.5777 11.6875 14.625C11.8653 15.9165 12.4302 16.9832 13.4375 17.8125C14.3925 18.5092 15.5095 18.7483 16.6709 18.594C17.4334 18.444 18.0765 18.1674 18.6875 17.6875C18.735 17.6517 18.7826 17.616 18.8315 17.5791C19.5798 16.9733 20.0751 15.9947 20.2322 15.0522C20.3619 13.7621 20.0956 12.687 19.3047 11.6406C18.5199 10.7266 17.4262 10.3483 16.2583 10.2322C14.9059 10.1849 13.4491 10.7451 12.5664 11.7773ZM22.3516 12.1953C22.1853 12.4895 22.0999 12.7968 22.1418 13.1362C22.252 13.5016 22.5058 13.7248 22.8125 13.9375C23.126 14.0976 23.4146 14.0795 23.75 14C24.0454 13.8934 24.2508 13.7276 24.3921 13.4407C24.5155 13.0923 24.5571 12.7612 24.4023 12.418C24.2509 12.1591 24.0506 11.9316 23.7568 11.8369C23.2042 11.7346 22.7727 11.8185 22.3516 12.1953ZM7.82422 15.1406C7.59848 15.4244 7.47876 15.6703 7.50391 16.0352C7.5582 16.3784 7.71098 16.5938 7.96484 16.8281C8.30069 17.0575 8.59835 17.1161 9 17.0625C9.36595 16.9491 9.56755 16.7805 9.75 16.4375C9.84642 16.1482 9.84409 15.8646 9.8125 15.5625C9.71352 15.3462 9.71352 15.3462 9.5625 15.1875C9.52512 15.1411 9.48773 15.0947 9.44922 15.0469C8.95112 14.6484 8.29005 14.768 7.82422 15.1406Z" fill="#51B748"/>
<path d="M26.2465 6.55859C26.3469 6.55963 26.3469 6.55963 26.4493 6.56068C26.5365 6.56158 26.5365 6.56158 26.6254 6.5625C26.894 7.30225 27.0743 8.04938 27.2428 8.81714C27.2712 8.94442 27.2995 9.07169 27.328 9.19894C27.4031 9.53592 27.4777 9.87302 27.5521 10.2101C27.6748 10.7651 27.7986 11.3197 27.9222 11.8745C27.9678 12.0793 28.0133 12.2842 28.0589 12.4891C28.2258 13.239 28.395 13.9883 28.57 14.7363C28.5881 14.8141 28.6063 14.8918 28.625 14.9719C28.7046 15.312 28.7849 15.652 28.866 15.9917C28.8931 16.1067 28.9201 16.2217 28.9472 16.3367C28.9592 16.3861 28.9713 16.4354 28.9837 16.4863C29.0489 16.7657 29.0907 17.0237 29.0629 17.3125C28.9231 17.4983 28.777 17.5434 28.5565 17.6017C28.4919 17.6191 28.4273 17.6364 28.3607 17.6543C28.2907 17.6722 28.2208 17.6901 28.1488 17.7086C28.076 17.7277 28.0032 17.7468 27.9282 17.7665C27.1858 17.9588 26.4383 18.1256 25.6886 18.2869C25.5431 18.3185 25.3976 18.3501 25.2521 18.3818C24.8666 18.4656 24.481 18.5489 24.0953 18.632C23.8531 18.6842 23.6108 18.7366 23.3686 18.789C20.8428 19.3357 18.3151 19.872 15.7834 20.3907C15.3114 20.4874 14.8395 20.5845 14.3676 20.6817C13.5064 20.859 12.6452 21.0361 11.784 21.2131C11.5005 21.2714 11.2169 21.3297 10.9334 21.388C10.0577 21.568 9.1819 21.7473 8.30578 21.9252C8.07447 21.9722 7.84322 22.0194 7.61204 22.067C7.38114 22.1146 7.15013 22.1615 6.91897 22.2077C6.80523 22.2306 6.69163 22.2542 6.57804 22.2779C6.13971 22.3645 5.69739 22.427 5.25041 22.375C5.08401 22.2086 5.06812 22.0367 5.02374 21.8137C5.01437 21.7686 5.005 21.7235 4.99535 21.677C4.96413 21.5262 4.93357 21.3753 4.903 21.2244C4.88096 21.1174 4.85887 21.0104 4.83674 20.9034C4.78988 20.6766 4.74327 20.4498 4.69684 20.223C4.6274 19.8841 4.55698 19.5454 4.48622 19.2068C4.4747 19.1517 4.46318 19.0966 4.45131 19.0398C4.42793 18.9279 4.40454 18.8161 4.38116 18.7042C4.32166 18.4196 4.2623 18.1349 4.20293 17.8502C4.19108 17.7934 4.17923 17.7366 4.16702 17.6781C4.1068 17.3895 4.04665 17.1008 3.9866 16.8122C3.91512 16.4686 3.84347 16.125 3.77165 15.7815C3.75435 15.6987 3.75435 15.6987 3.7367 15.6143C3.56506 14.7941 3.38587 13.9759 3.19552 13.1599C3.08707 12.6906 2.98894 12.2342 2.9965 11.75C2.99707 11.7023 2.99763 11.6546 2.99821 11.6055C2.99894 11.5707 2.99966 11.5359 3.00041 11.5C3.75559 11.0771 4.63092 10.9364 5.47063 10.7637C5.57514 10.7419 5.67965 10.7202 5.78415 10.6984C6.73625 10.5007 7.6899 10.3108 8.64381 10.122C10.6452 9.72591 12.6434 9.31646 14.6393 8.89352C14.7868 8.86227 14.9342 8.83102 15.0817 8.79977C15.1817 8.77859 15.2816 8.75741 15.3816 8.73623C16.2644 8.54918 17.1477 8.36476 18.0312 8.18115C18.0969 8.16749 18.1626 8.15383 18.2303 8.13975C18.8172 8.01775 19.4041 7.89578 19.9911 7.77415C20.3522 7.69933 20.7132 7.62439 21.0741 7.54932C21.1323 7.53722 21.1905 7.52512 21.2505 7.51265C22.3224 7.28956 23.3923 7.05785 24.4614 6.82211C24.5196 6.80935 24.5777 6.7966 24.6375 6.78346C24.7454 6.75978 24.8533 6.73597 24.9611 6.71202C25.3909 6.61785 25.805 6.55404 26.2465 6.55859ZM22.8672 7.89693C22.8237 7.90602 22.7803 7.91511 22.7355 7.92447C22.5904 7.95491 22.4454 7.98588 22.3005 8.01685C22.196 8.03885 22.0916 8.06083 21.9872 8.08277C21.7622 8.13013 21.5372 8.17772 21.3122 8.2255C20.954 8.30156 20.5957 8.37712 20.2374 8.45259C19.8608 8.53194 19.4842 8.61131 19.1076 8.69085C18.2015 8.88221 17.2952 9.07219 16.3886 9.26123C16.3253 9.27442 16.2621 9.28761 16.1969 9.3012C15.8211 9.37958 15.4452 9.45791 15.0694 9.53624C14.6039 9.63324 14.1385 9.73027 13.6731 9.8274C13.5628 9.85042 13.4525 9.87344 13.3421 9.89644C12.7942 10.0107 12.2464 10.1255 11.699 10.2426C10.8543 10.4234 10.0093 10.6002 9.1613 10.7649C9.11989 10.7729 9.07848 10.781 9.03581 10.7893C8.66057 10.8622 8.28525 10.9346 7.90985 11.0067C7.74047 11.0392 7.57114 11.0719 7.40184 11.1048C7.24532 11.1353 7.08875 11.1654 6.93211 11.1952C6.86246 11.2088 6.7928 11.2224 6.72104 11.2364C6.66008 11.2481 6.59913 11.2599 6.53633 11.2719C6.38076 11.3112 6.25898 11.3485 6.12541 11.4375C6.09547 11.5963 6.07965 11.7384 6.07072 11.8984C6.01859 12.474 5.84724 12.934 5.46135 13.375C5.15831 13.5546 4.83757 13.6523 4.50041 13.75C4.54076 14.3725 4.68311 14.9705 4.81682 15.5781C4.85484 15.7527 4.89275 15.9273 4.93065 16.102C4.95658 16.2215 4.98256 16.3409 5.00858 16.4604C5.09794 16.8713 5.18547 17.2825 5.27165 17.6941C5.28315 17.749 5.29464 17.8039 5.30649 17.8604C5.35078 18.0721 5.39501 18.2839 5.43909 18.4956C5.4692 18.6403 5.49945 18.7849 5.52971 18.9294C5.53854 18.9721 5.54737 19.0147 5.55646 19.0587C5.59257 19.2309 5.63219 19.3954 5.68791 19.5625C5.74382 19.5648 5.79974 19.5672 5.85734 19.5696C6.51744 19.6055 7.08194 19.6474 7.57829 20.1187C7.76878 20.3469 7.88326 20.6039 8.00041 20.875C8.04177 20.9585 8.08339 21.0418 8.12541 21.125C8.64786 21.0481 9.16627 20.96 9.684 20.8562C9.75568 20.842 9.82735 20.8277 9.9012 20.813C10.1003 20.7734 10.2993 20.7335 10.4984 20.6935C10.6276 20.6675 10.7568 20.6416 10.886 20.6157C14.7598 19.8382 18.6277 19.0311 22.4878 18.1882C22.6872 18.1447 22.8866 18.1013 23.086 18.0578C23.397 17.9901 23.7081 17.922 24.019 17.8536C24.1329 17.8286 24.2469 17.8037 24.3608 17.7788C24.5162 17.7449 24.6715 17.7107 24.8268 17.6763C24.8944 17.6617 24.8944 17.6617 24.9634 17.6468C25.1941 17.5953 25.409 17.5327 25.6254 17.4375C25.6215 17.3602 25.6177 17.2828 25.6137 17.2031C25.6162 16.67 25.7261 16.144 26.0766 15.73C26.4423 15.3851 26.8667 15.2667 27.35 15.1672C27.3996 15.1533 27.4493 15.1394 27.5004 15.125C27.6044 14.9171 27.5071 14.7019 27.4563 14.4839C27.4381 14.4039 27.4381 14.4039 27.4196 14.3222C27.3794 14.1451 27.3386 13.9682 27.2978 13.7913C27.2698 13.6686 27.2418 13.5459 27.2139 13.4232C27.1552 13.1658 27.0962 12.9084 27.037 12.651C26.961 12.3208 26.8855 11.9906 26.8102 11.6603C26.7385 11.3458 26.6666 11.0314 26.5946 10.717C26.5809 10.6568 26.5671 10.5966 26.5529 10.5346C26.514 10.3644 26.4749 10.1943 26.4357 10.0242C26.4184 9.94835 26.4184 9.94835 26.4007 9.87098C26.357 9.68172 26.3119 9.49689 26.2504 9.3125C26.1945 9.31468 26.1386 9.31685 26.081 9.31909C25.3634 9.33516 24.8822 9.2513 24.3129 8.8125C24.2717 8.8125 24.2304 8.8125 24.1879 8.8125C24.1647 8.76223 24.1647 8.76223 24.141 8.71094C24.0619 8.55317 24.0619 8.55317 23.9379 8.38281C23.8171 8.19398 23.7492 8.02701 23.6879 7.8125C23.4012 7.80302 23.1475 7.83759 22.8672 7.89693Z" fill="#51B748"/>
<path d="M18.6199 11.3213C18.6843 11.3788 18.6843 11.3788 18.75 11.4375C18.7923 11.4733 18.8346 11.509 18.8782 11.5459C19.5986 12.2006 19.9531 13.1215 20.0234 14.0769C20.0689 15.1158 19.7948 16.1636 19.1016 16.957C19.0063 17.0558 18.91 17.1535 18.8125 17.25C18.7755 17.2891 18.7385 17.3281 18.7004 17.3684C17.9828 18.0702 16.9549 18.3685 15.9766 18.4023C14.785 18.3739 13.8201 17.91 13 17.0625C12.2815 16.3018 11.9483 15.2783 11.9141 14.2461C11.948 13.1923 12.3178 12.3617 13.0625 11.625C13.0949 11.5905 13.1273 11.556 13.1606 11.5205C14.524 10.1928 17.1882 10.1141 18.6199 11.3213ZM14.875 11.5C14.7981 11.6888 14.7981 11.6888 14.832 11.9023C14.8224 12.0126 14.8224 12.0126 14.8125 12.125C14.6445 12.2539 14.6445 12.2539 14.4375 12.375C14.18 12.6248 14.0205 12.8851 13.979 13.2439C13.9752 13.5356 13.9759 13.7573 14.0938 14.0273C14.6435 14.5908 15.3754 14.7136 16.1237 14.8358C16.627 14.9272 16.627 14.9272 16.8125 15.1875C16.8789 15.3672 16.8789 15.3672 16.875 15.5625C16.7512 15.7803 16.6167 15.9194 16.375 16C16.1807 16.032 16.0055 16.0434 15.8125 16C15.7114 15.8962 15.6467 15.7888 15.5723 15.6648C15.5017 15.5458 15.5017 15.5458 15.332 15.4922C15.0373 15.5033 14.777 15.5906 14.5 15.6875C14.4304 15.8814 14.4147 16.0111 14.4993 16.2017C14.7504 16.6065 15.0483 16.8494 15.5 17C15.6458 17.0025 15.7917 17.0027 15.9375 17C15.9458 17.0354 15.9541 17.0707 15.9626 17.1072C15.9792 17.1759 15.9792 17.1759 15.9961 17.2461C16.007 17.2918 16.0178 17.3375 16.0291 17.3845C16.0524 17.5 16.0524 17.5 16.125 17.5625C16.4422 17.5815 16.6995 17.5397 17 17.4375C17.0206 17.4169 17.0413 17.3962 17.0625 17.375C17.0539 17.2773 17.0446 17.1796 17.0352 17.082C17.0309 16.7852 17.0309 16.7852 17.1626 16.6384C17.2506 16.5766 17.3402 16.517 17.4312 16.4595C17.7342 16.2646 17.922 15.977 18.0347 15.6377C18.1087 15.2715 18.0532 14.9322 17.8672 14.6094C17.5503 14.1599 17.158 13.8835 16.6092 13.788C16.4648 13.7711 16.3207 13.7576 16.1758 13.7461C15.5918 13.6974 15.5918 13.6974 15.3125 13.5625C15.2969 13.3867 15.2969 13.3867 15.3125 13.1875C15.4534 13.0241 15.5676 12.9987 15.7773 12.9453C16.0319 12.9364 16.1148 12.9701 16.3125 13.125C16.3473 13.1714 16.3821 13.2178 16.418 13.2656C16.5939 13.3988 16.6591 13.3889 16.875 13.375C17.0925 13.3445 17.1751 13.3222 17.3516 13.1836C17.3799 13.1436 17.4083 13.1037 17.4375 13.0625C17.3556 12.6631 17.1088 12.3905 16.8125 12.125C16.5918 11.9928 16.3691 11.8957 16.115 11.8516C16.077 11.8387 16.0391 11.8258 16 11.8125C15.8945 11.5937 15.8945 11.5937 15.8125 11.375C15.7498 11.2995 15.7498 11.2995 15.625 11.2969C15.3637 11.3187 15.1103 11.3819 14.875 11.5Z" fill="#51B748"/>
<path d="M3.25 14.625C3.39786 14.7729 3.40663 14.8454 3.44725 15.0477C3.46011 15.1105 3.47298 15.1733 3.48624 15.238C3.49991 15.3072 3.51358 15.3764 3.52766 15.4477C3.5498 15.5567 3.5498 15.5567 3.57238 15.6679C3.61286 15.8675 3.65293 16.0672 3.6929 16.2669C3.7349 16.4758 3.77762 16.6847 3.82033 16.8935C3.96573 17.6051 4.11019 18.3169 4.25322 19.0289C4.33221 19.4221 4.41204 19.8151 4.49282 20.2079C4.53551 20.4158 4.57775 20.6237 4.61891 20.8318C4.66505 21.0641 4.71264 21.2961 4.76057 21.528C4.77386 21.5968 4.78716 21.6657 4.80085 21.7365C4.87874 22.1049 4.93924 22.3368 5.25 22.5625C5.42318 22.6047 5.42318 22.6047 5.60547 22.5898C5.67097 22.5872 5.73647 22.5845 5.80396 22.5818C6.03655 22.5589 6.25983 22.5173 6.48755 22.4656C6.66107 22.4301 6.82363 22.4239 7 22.4375C7.0625 22.5 7.0625 22.5 7.06641 22.6602C7.06512 22.7104 7.06383 22.7607 7.0625 22.8125C14.6817 22.1965 14.6817 22.1965 22.2959 21.5224C22.4002 21.5127 22.5046 21.503 22.6089 21.4934C22.9008 21.4663 23.1928 21.439 23.4846 21.4115C23.5725 21.4032 23.6603 21.395 23.7481 21.3868C23.8683 21.3756 23.9884 21.3642 24.1085 21.3528C24.1754 21.3465 24.2424 21.3402 24.3114 21.3337C24.5008 21.3124 24.6874 21.2831 24.875 21.25C24.8842 21.1707 24.8842 21.1707 24.8936 21.0898C24.9747 20.4741 25.0979 20.0269 25.5603 19.5959C25.9994 19.2647 26.5315 19.1991 27.0625 19.125C27.0419 18.8156 27.0212 18.5062 27 18.1875C27.7188 18 27.7188 18 28 18C28.0687 18.1373 28.0811 18.2362 28.0983 18.3884C28.1045 18.4429 28.1108 18.4974 28.1172 18.5535C28.1237 18.6127 28.1303 18.6718 28.137 18.7327C28.1438 18.7936 28.1507 18.8545 28.1577 18.9173C28.1722 19.0465 28.1865 19.1758 28.2007 19.3052C28.2224 19.5016 28.2447 19.698 28.267 19.8944C28.281 20.0202 28.2949 20.146 28.3088 20.2717C28.3155 20.33 28.3221 20.3882 28.329 20.4482C28.3578 20.7146 28.3816 20.9807 28.3909 21.2486C28.3932 21.3147 28.3932 21.3147 28.3956 21.382C28.3683 21.5384 28.3111 21.591 28.1875 21.6875C27.2728 21.9498 26.2701 21.9706 25.3256 22.0607C25.1804 22.0745 25.0352 22.0885 24.89 22.1026C24.3139 22.1583 23.7377 22.2133 23.1614 22.2677C22.8567 22.2965 22.5519 22.3254 22.2472 22.3546C18.8764 22.6774 15.5018 22.9543 12.1268 23.2284C11.9576 23.2421 11.7884 23.2559 11.6192 23.2697C10.9163 23.3268 10.2134 23.3837 9.51049 23.4404C9.36154 23.4524 9.21259 23.4645 9.06365 23.4765C8.1058 23.5541 7.14786 23.6298 6.18925 23.6975C6.117 23.7027 6.04474 23.7079 5.9703 23.7133C4.33905 23.8258 4.33905 23.8258 4.0625 23.6875C3.9375 23.2023 3.90765 22.6883 3.86693 22.1902C3.86091 22.1197 3.8549 22.0492 3.8487 21.9765C3.8291 21.7457 3.80993 21.5148 3.79077 21.2839C3.77711 21.1219 3.76343 20.9599 3.74972 20.7978C3.7211 20.4591 3.69271 20.1203 3.66447 19.7815C3.62847 19.3494 3.59211 18.9174 3.55563 18.4854C3.5206 18.0706 3.48576 17.6558 3.45093 17.241C3.44436 17.1629 3.4378 17.0849 3.43103 17.0045C3.29786 15.419 3.29786 15.419 3.25 14.625Z" fill="#51B748"/>
<path d="M28.5627 21.75C28.5659 22.216 28.5681 22.6821 28.5696 23.1481C28.5702 23.3066 28.5711 23.4651 28.5722 23.6237C28.5737 23.8516 28.5744 24.0795 28.5749 24.3074C28.5756 24.3782 28.5762 24.4491 28.5769 24.5221C28.5769 24.5883 28.5769 24.6546 28.5769 24.7229C28.5772 24.7811 28.5775 24.8393 28.5778 24.8992C28.5608 25.0834 28.5258 25.2121 28.4377 25.375C28.236 25.5263 28.0379 25.5155 27.792 25.5152C27.6702 25.5155 27.6702 25.5155 27.5459 25.5158C27.4557 25.5153 27.3656 25.5149 27.2754 25.5144C27.1791 25.5143 27.0828 25.5143 26.9865 25.5143C26.781 25.5142 26.5756 25.5137 26.3702 25.5129C26.1232 25.5119 25.8761 25.5116 25.6291 25.5116C21.8148 25.5115 18.001 25.4294 14.1883 25.3287C13.8216 25.3191 13.455 25.3096 13.0883 25.3003C10.9839 25.2469 8.87957 25.1908 6.77563 25.1208C6.66034 25.1171 6.66034 25.1171 6.54272 25.1133C6.32758 25.1062 6.11246 25.0989 5.89733 25.0914C5.80524 25.0884 5.80525 25.0884 5.7113 25.0853C5.40316 25.0743 5.09551 25.0586 4.78792 25.0373C4.72834 25.0332 4.66876 25.0291 4.60737 25.0249C4.42723 24.9985 4.28685 24.959 4.12524 24.875C4.01919 24.5569 4.05539 24.2601 4.12524 23.9375C4.17873 23.939 4.23223 23.9404 4.28735 23.9419C5.25636 23.9555 6.22161 23.879 7.18774 23.8125C7.18774 23.9775 7.18774 24.1425 7.18774 24.3125C8.64214 24.3525 10.0966 24.3914 11.551 24.4297C11.6055 24.4311 11.6599 24.4326 11.716 24.434C15.0241 24.521 18.332 24.5934 21.6409 24.6406C21.6856 24.6413 21.7304 24.6419 21.7765 24.6426C22.8928 24.6585 24.009 24.6736 25.1252 24.6875C25.1291 24.6489 25.1329 24.6104 25.1369 24.5707C25.1422 24.52 25.1475 24.4694 25.1529 24.4173C25.1606 24.342 25.1606 24.342 25.1685 24.2653C25.2323 23.7999 25.5116 23.4504 25.8591 23.1545C26.2247 22.9161 26.5369 22.8457 26.9651 22.832C27.0108 22.8299 27.0565 22.8278 27.1036 22.8256C27.215 22.8205 27.3263 22.8164 27.4377 22.8125C27.4584 22.5444 27.479 22.2763 27.5002 22C27.6711 21.9715 27.842 21.943 28.0129 21.9146C28.2063 21.8708 28.3676 21.75 28.5627 21.75Z" fill="#51B748"/>
<path d="M26.6875 18.25C26.8125 18.375 26.8125 18.375 26.8247 18.5239C26.8225 18.6088 26.8225 18.6088 26.8203 18.6953C26.8192 18.7522 26.8181 18.8091 26.8169 18.8677C26.8147 18.9332 26.8147 18.9332 26.8125 19C26.74 19.0092 26.74 19.0092 26.666 19.0186C26.255 19.0776 25.9156 19.1534 25.5625 19.375C25.5084 19.4085 25.4542 19.442 25.3984 19.4766C24.9554 19.9196 24.771 20.4553 24.6875 21.0625C24.0106 21.1581 23.3336 21.2326 22.6531 21.2964C22.5435 21.3068 22.4339 21.3172 22.3243 21.3275C21.9597 21.362 21.5951 21.3958 21.2305 21.4297C21.1674 21.4356 21.1043 21.4414 21.0393 21.4475C18.4062 21.6926 15.7712 21.914 13.1357 22.1309C12.8799 22.152 12.6241 22.1731 12.3683 22.1942C11.8287 22.2388 11.2892 22.2831 10.7496 22.3271C10.5686 22.3418 10.3876 22.3567 10.2066 22.3716C9.22158 22.4528 8.23773 22.5248 7.25 22.5625C7.27063 22.48 7.29125 22.3975 7.3125 22.3125C7.35812 22.3034 7.40374 22.2944 7.45075 22.285C7.98526 22.1787 8.51973 22.0722 9.05418 21.9656C9.19466 21.9376 9.33514 21.9096 9.47563 21.8816C10.8182 21.6144 10.8182 21.6144 12.1582 21.3347C12.2141 21.3228 12.2699 21.3109 12.3275 21.2986C12.5762 21.2453 12.8247 21.1914 13.073 21.1366C13.1589 21.118 13.2447 21.0994 13.3306 21.0808C13.4019 21.065 13.4733 21.0493 13.5468 21.033C13.9545 20.9668 14.294 21.0172 14.6875 21.125C15.8387 21.4126 16.996 21.2299 18.0197 20.6321C18.1816 20.5251 18.3126 20.3888 18.4514 20.2538C18.9235 19.8363 19.4668 19.7511 20.0701 19.6343C20.1868 19.6099 20.3035 19.5854 20.4202 19.5607C20.7268 19.4962 21.034 19.4344 21.3413 19.3732C21.6456 19.3122 21.9494 19.2488 22.2533 19.1855C22.6115 19.1111 22.9698 19.037 23.3283 18.9644C23.9081 18.8471 24.4869 18.7268 25.0642 18.5977C25.1187 18.5856 25.1731 18.5735 25.2292 18.561C25.4861 18.5039 25.7428 18.4461 25.9992 18.387C26.0893 18.3668 26.1794 18.3467 26.2695 18.3266C26.3476 18.3087 26.4257 18.2908 26.5062 18.2724C26.596 18.2613 26.596 18.2613 26.6875 18.25Z" fill="#51B748"/>
<path d="M27.25 22.0625C27.25 22.2481 27.25 22.4338 27.25 22.625C27.1986 22.6266 27.1472 22.6282 27.0942 22.6299C26.4353 22.6634 25.9122 22.7852 25.4221 23.2466C25.1242 23.5956 24.9971 24.0026 24.875 24.4375C21.5685 24.4589 18.2663 24.4032 14.961 24.3179C14.7409 24.3123 14.5209 24.3067 14.3009 24.3011C13.2742 24.275 12.2475 24.2483 11.2208 24.221C10.9892 24.2149 10.7575 24.2088 10.5258 24.2027C10.1612 24.1932 9.7966 24.1833 9.43202 24.1733C9.29734 24.1696 9.16267 24.166 9.02799 24.1625C8.84285 24.1577 8.65773 24.1525 8.47261 24.1473C8.39226 24.1453 8.39226 24.1453 8.31029 24.1433C7.99469 24.134 7.68772 24.1064 7.375 24.0625C7.375 23.98 7.375 23.8975 7.375 23.8125C7.54518 23.7662 7.7073 23.738 7.88297 23.7235C7.93385 23.7192 7.98474 23.7149 8.03717 23.7105C8.09246 23.706 8.14776 23.7016 8.20473 23.697C8.29274 23.6897 8.29274 23.6897 8.38252 23.6822C8.5767 23.6661 8.77089 23.6503 8.96509 23.6345C9.10041 23.6234 9.23573 23.6123 9.37105 23.6012C9.65501 23.5779 9.93899 23.5547 10.223 23.5317C10.5856 23.5022 10.9481 23.4723 11.3107 23.4423C11.5904 23.4192 11.8701 23.3964 12.1499 23.3737C12.2835 23.3628 12.4171 23.3518 12.5506 23.3407C12.7383 23.3252 12.926 23.31 13.1137 23.2949C13.1681 23.2903 13.2225 23.2858 13.2785 23.281C14.412 23.1915 14.412 23.1915 14.793 23.3984C15.7628 23.8813 16.875 23.8222 17.8867 23.4883C18.1724 23.3815 18.4072 23.2571 18.6562 23.082C18.8959 22.9217 19.0784 22.8442 19.3643 22.8087C19.4417 22.7991 19.519 22.7895 19.5988 22.7796C20.1952 22.7142 20.7925 22.6585 21.3899 22.6033C21.5358 22.5896 21.6818 22.5759 21.8277 22.5622C22.2096 22.5264 22.5915 22.4908 22.9734 22.4553C23.5856 22.3984 24.1978 22.341 24.81 22.2837C25.0229 22.2638 25.2357 22.244 25.4486 22.2242C25.5797 22.2119 25.7108 22.1997 25.8419 22.1875C25.9004 22.1821 25.959 22.1766 26.0193 22.1711C26.3281 22.1422 26.6363 22.1106 26.9443 22.074C27.0625 22.0625 27.0625 22.0625 27.25 22.0625Z" fill="#51B748"/>
<path d="M15.6885 11.5625C15.6949 11.6308 15.7014 11.6991 15.708 11.7695C15.7356 11.8946 15.7356 11.8946 15.8135 12C15.983 12.0709 16.1492 12.1071 16.3286 12.1462C16.7575 12.2489 16.9649 12.5199 17.1885 12.875C17.1885 12.9162 17.1885 12.9575 17.1885 13C17.0005 13.0707 16.8276 13.1208 16.626 13.125C16.4949 13.0449 16.4016 12.9514 16.2935 12.8428C16.1213 12.6906 15.9753 12.6835 15.751 12.6875C15.4315 12.785 15.2332 12.8956 15.0635 13.1875C15.0218 13.3777 15.0218 13.3777 15.0635 13.5625C15.2345 13.7993 15.4129 13.861 15.6885 13.9375C15.9206 13.9694 16.1542 13.986 16.3879 14.0022C16.7943 14.0388 17.1277 14.1522 17.4399 14.4216C17.723 14.7759 17.8538 15.0317 17.8135 15.5C17.6643 15.9476 17.46 16.2429 17.0439 16.4531C16.9114 16.5212 16.9114 16.5212 16.8135 16.625C16.7702 16.8392 16.7834 17.0346 16.8135 17.25C16.535 17.2809 16.535 17.2809 16.251 17.3125C16.2097 17.1475 16.1685 16.9825 16.126 16.8125C16.0776 16.8078 16.0293 16.8032 15.9795 16.7983C15.5199 16.7403 15.205 16.6464 14.876 16.3125C14.7471 16.1445 14.7471 16.1445 14.6885 16C14.7091 15.9381 14.7297 15.8762 14.751 15.8125C15.0603 15.7816 15.0603 15.7816 15.376 15.75C15.4121 15.8093 15.4482 15.8686 15.4853 15.9297C15.6408 16.1523 15.6408 16.1523 15.876 16.25C16.2863 16.3074 16.6042 16.1648 16.9385 15.9375C17.1026 15.7218 17.126 15.6132 17.126 15.3437C17.0528 15.0875 16.9588 14.9145 16.751 14.75C16.4243 14.5777 16.0519 14.5362 15.6924 14.4727C14.7141 14.2984 14.7141 14.2984 14.3682 13.9648C14.2017 13.6596 14.198 13.4028 14.251 13.0625C14.3956 12.6302 14.7324 12.3843 15.126 12.1875C15.126 12.0019 15.126 11.8162 15.126 11.625C15.3258 11.5584 15.4796 11.5579 15.6885 11.5625Z" fill="#51B748"/>
<path d="M23.8717 12.1406C24.1278 12.3579 24.2371 12.5491 24.2702 12.8867C24.2462 13.1789 24.1796 13.3912 24.0006 13.625C23.708 13.8017 23.4645 13.8495 23.1256 13.8125C22.8266 13.7049 22.5774 13.5427 22.4381 13.25C22.3867 12.9714 22.3719 12.699 22.4979 12.4392C22.827 12.0141 23.3903 11.9358 23.8717 12.1406Z" fill="#51B748"/>
<path d="M9.37446 15.25C9.56817 15.45 9.57639 15.6383 9.58539 15.9062C9.57587 16.2438 9.49876 16.4175 9.28071 16.6719C9.07595 16.8425 8.8371 16.8337 8.58369 16.8296C8.30033 16.7966 8.10409 16.6789 7.91474 16.4683C7.74219 16.215 7.71888 15.9962 7.76996 15.6968C7.84276 15.464 7.94301 15.3528 8.12446 15.1875C8.55768 14.9803 8.95961 15.0186 9.37446 15.25Z" fill="#51B748"/>
<path d="M18.3125 20.125C18.0892 20.3706 17.8704 20.5267 17.5664 20.6641C17.5048 20.692 17.5048 20.692 17.442 20.7206C16.5477 21.1106 15.5698 21.1865 14.625 20.9375C14.6456 20.8962 14.6662 20.855 14.6875 20.8125C14.8187 20.7714 14.8187 20.7714 14.9937 20.7352C15.0917 20.7146 15.0917 20.7146 15.1916 20.6935C15.2628 20.6791 15.3339 20.6647 15.4072 20.6499C15.4799 20.6348 15.5526 20.6197 15.6275 20.6042C15.7817 20.5723 15.936 20.5407 16.0903 20.5093C16.3264 20.4613 16.5622 20.4124 16.7981 20.3633C16.9477 20.3325 17.0974 20.3017 17.2471 20.271C17.3177 20.2563 17.3884 20.2417 17.4612 20.2266C17.5603 20.2066 17.5603 20.2066 17.6614 20.1861C17.7194 20.1743 17.7774 20.1625 17.8371 20.1503C17.9984 20.1252 18.1495 20.1204 18.3125 20.125Z" fill="#51B748"/>
<path d="M18.5 22.9375C17.8748 23.4811 16.9827 23.5702 16.1875 23.5625C15.7526 23.5276 15.3489 23.4589 14.9375 23.3125C14.9375 23.2713 14.9375 23.23 14.9375 23.1875C15.3544 23.1516 15.7714 23.116 16.1883 23.0807C16.33 23.0686 16.4717 23.0565 16.6133 23.0443C16.8176 23.0267 17.022 23.0094 17.2263 22.9922C17.289 22.9867 17.3518 22.9813 17.4164 22.9756C17.7791 22.9454 18.136 22.9322 18.5 22.9375Z" fill="#51B748"/>
<path d="M28.5625 17.8125C28.5699 18.4415 28.5549 19.0603 28.5 19.6875C28.4794 19.6875 28.4587 19.6875 28.4375 19.6875C28.3756 19.0894 28.3137 18.4912 28.25 17.875C28.4375 17.8125 28.4375 17.8125 28.5625 17.8125Z" fill="#51B748"/>
</svg>