<svg width="34" height="24" viewBox="0 0 34 24" fill="none" xmlns="http://www.w3.org/2000/svg">
<path d="M0.5 4C0.5 2.067 2.067 0.5 4 0.5H30C31.933 0.5 33.5 2.067 33.5 4V20C33.5 21.933 31.933 23.5 30 23.5H4C2.067 23.5 0.5 21.933 0.5 20V4Z" fill="white"/>
<path d="M0.5 4C0.5 2.067 2.067 0.5 4 0.5H30C31.933 0.5 33.5 2.067 33.5 4V20C33.5 21.933 31.933 23.5 30 23.5H4C2.067 23.5 0.5 21.933 0.5 20V4Z" stroke="#D1D1D1"/>
<path fill-rule="evenodd" clip-rule="evenodd" d="M17.179 16.7995C15.9949 17.7975 14.459 18.4 12.7807 18.4C9.03582 18.4 6 15.4003 6 11.7C6 7.99969 9.03582 5 12.7807 5C14.459 5 15.9949 5.6025 17.179 6.60054C18.363 5.6025 19.8989 5 21.5773 5C25.3221 5 28.358 7.99969 28.358 11.7C28.358 15.4003 25.3221 18.4 21.5773 18.4C19.8989 18.4 18.363 17.7975 17.179 16.7995Z" fill="#ED0006"/>
<path fill-rule="evenodd" clip-rule="evenodd" d="M17.1797 16.7995C18.6376 15.5706 19.5621 13.742 19.5621 11.7C19.5621 9.65804 18.6376 7.82944 17.1797 6.60054C18.3637 5.6025 19.8996 5 21.578 5C25.3228 5 28.3587 7.99969 28.3587 11.7C28.3587 15.4003 25.3228 18.4 21.578 18.4C19.8996 18.4 18.3637 17.7975 17.1797 16.7995Z" fill="#F9A000"/>
<path fill-rule="evenodd" clip-rule="evenodd" d="M17.1793 16.7994C18.6372 15.5705 19.5616 13.7419 19.5616 11.7C19.5616 9.65807 18.6372 7.82947 17.1793 6.60057C15.7213 7.82947 14.7969 9.65807 14.7969 11.7C14.7969 13.7419 15.7213 15.5705 17.1793 16.7994Z" fill="#FF5E00"/>
</svg>