<svg width="34" height="24" viewBox="0 0 34 24" fill="none" xmlns="http://www.w3.org/2000/svg">
<path d="M0 4C0 1.79086 1.79086 0 4 0H30C32.2091 0 34 1.79086 34 4V20C34 22.2091 32.2091 24 30 24H4C1.79086 24 0 22.2091 0 20V4Z" fill="#172B85"/>
<path fill-rule="evenodd" clip-rule="evenodd" d="M10.9503 15.7582H8.89051L7.34596 9.69237C7.27264 9.41334 7.11698 9.16667 6.88801 9.0504C6.31659 8.75823 5.68691 8.5257 5 8.40843V8.1749H8.31808C8.77602 8.1749 9.11948 8.5257 9.17672 8.93313L9.97813 13.3086L12.0369 8.1749H14.0394L10.9503 15.7582ZM15.1842 15.7582H13.239L14.8408 8.1749H16.786L15.1842 15.7582ZM19.3027 10.2757C19.3599 9.86728 19.7034 9.63374 20.1041 9.63374C20.7338 9.57511 21.4197 9.69238 21.9921 9.98354L22.3356 8.35081C21.7631 8.11727 21.1335 8 20.562 8C18.674 8 17.3002 9.05041 17.3002 10.5082C17.3002 11.6173 18.2733 12.1996 18.9602 12.5504C19.7034 12.9002 19.9896 13.1338 19.9324 13.4835C19.9324 14.0082 19.3599 14.2418 18.7885 14.2418C18.1016 14.2418 17.4147 14.0669 16.786 13.7747L16.4426 15.4085C17.1295 15.6996 17.8726 15.8169 18.5595 15.8169C20.6765 15.8745 21.9921 14.8251 21.9921 13.25C21.9921 11.2665 19.3027 11.1502 19.3027 10.2757ZM28.8 15.7582L27.2554 8.1749H25.5964C25.2529 8.1749 24.9095 8.40843 24.795 8.75823L21.9349 15.7582H23.9374L24.3371 14.6502H26.7975L27.0265 15.7582H28.8ZM25.8826 10.2171L26.454 13.0751H24.8523L25.8826 10.2171Z" fill="white"/>
</svg>