<svg width="39" height="40" viewBox="0 0 39 40" fill="none" xmlns="http://www.w3.org/2000/svg">
<g id="Home Screen Icon" clip-path="url(#clip0_3536_1884)">
<path id="Vector" d="M25.7997 5.97501C25.8495 5.99918 25.8992 6.02335 25.9505 6.04825C26.6772 6.4057 27.3314 6.83436 27.9747 7.32501C28.0421 7.37548 28.1095 7.42594 28.1789 7.47794C30.9175 9.61763 32.7396 12.837 33.1977 16.2778C33.2851 17.1602 33.3101 18.0305 33.3082 18.9163C33.3082 19.0538 33.3082 19.1914 33.3082 19.329C33.3082 19.6996 33.3078 20.0702 33.3073 20.4408C33.3068 20.8292 33.3068 21.2175 33.3067 21.6059C33.3064 22.34 33.3058 23.0742 33.3051 23.8083C33.3042 24.6447 33.3038 25.481 33.3035 26.3173C33.3027 28.0366 33.3014 29.7558 33.2997 31.475C33.3624 31.4734 33.4252 31.4719 33.4898 31.4702C33.7252 31.4651 33.9606 31.4614 34.196 31.4585C34.3469 31.4563 34.4979 31.4525 34.6488 31.4486C35.2755 31.4423 35.7452 31.4534 36.214 31.911C36.4504 32.3054 36.5008 32.6176 36.4863 33.0734C36.4858 33.1375 36.4852 33.2016 36.4847 33.2676C36.4826 33.4701 36.4779 33.6725 36.4731 33.875C36.4712 34.0132 36.4695 34.1514 36.468 34.2896C36.4639 34.6264 36.4574 34.9632 36.4497 35.3C36.5333 35.2985 36.5333 35.2985 36.6186 35.297C36.6922 35.2963 36.7658 35.2955 36.8417 35.2947C36.9144 35.2938 36.9872 35.2928 37.0622 35.2918C37.4184 35.3056 37.7198 35.3875 37.9895 35.627C38.4387 36.1336 38.4271 36.6305 38.4278 37.2734C38.4296 37.3562 38.4315 37.4389 38.4334 37.5241C38.4352 38.0447 38.3806 38.3833 38.0997 38.825C37.7246 39.1818 37.4177 39.2111 36.9192 39.2101C36.8292 39.2103 36.8292 39.2103 36.7373 39.2106C36.5345 39.2111 36.3317 39.2111 36.1289 39.211C35.9827 39.2113 35.8365 39.2116 35.6903 39.2119C35.2872 39.2126 34.8841 39.2129 34.481 39.2131C34.0468 39.2134 33.6126 39.2141 33.1784 39.2148C32.1292 39.2163 31.08 39.217 30.0308 39.2177C29.5371 39.218 29.0434 39.2184 28.5497 39.2188C26.9093 39.2201 25.2688 39.2212 23.6284 39.2217C23.5223 39.2217 23.4162 39.2218 23.3101 39.2218C23.2312 39.2218 23.2312 39.2218 23.1507 39.2219C22.8841 39.222 22.6175 39.2221 22.3509 39.2221C22.298 39.2222 22.2451 39.2222 22.1905 39.2222C20.4746 39.2228 18.7586 39.2246 17.0427 39.227C15.2291 39.2296 13.4154 39.231 11.6018 39.2313C10.6129 39.2314 9.62407 39.2321 8.6352 39.234C7.7933 39.2356 6.9514 39.2363 6.10949 39.2355C5.67972 39.2352 5.24996 39.2353 4.82018 39.2368C4.42699 39.2381 4.03383 39.238 3.64064 39.2369C3.49815 39.2367 3.35567 39.237 3.21319 39.2379C3.01991 39.239 2.82672 39.2383 2.63345 39.2371C2.57778 39.2379 2.52211 39.2387 2.46476 39.2395C2.08337 39.2344 1.86806 39.1404 1.57468 38.9C1.17502 38.3707 1.18172 37.9516 1.17624 37.3109C1.17406 37.2276 1.17189 37.1442 1.16965 37.0583C1.16561 36.5337 1.21662 36.1951 1.49968 35.75C1.80099 35.4487 2.1008 35.306 2.52986 35.2945C2.6035 35.2952 2.67713 35.2958 2.753 35.2965C2.82728 35.297 2.90157 35.2975 2.97811 35.298C3.03473 35.2987 3.09134 35.2993 3.14968 35.3C3.14771 35.2145 3.14575 35.1291 3.14373 35.041C3.1369 34.7218 3.13262 34.4026 3.12908 34.0833C3.1272 33.9455 3.12465 33.8077 3.12139 33.67C3.1168 33.4711 3.1147 33.2724 3.11306 33.0734C3.11112 33.0126 3.10919 32.9517 3.10719 32.889C3.10701 32.5029 3.18729 32.2414 3.38534 31.911C3.85418 31.4534 4.32385 31.4423 4.95056 31.4486C5.09862 31.4524 5.09862 31.4524 5.24968 31.4563C5.35173 31.4578 5.45378 31.4591 5.55583 31.4604C5.80383 31.4639 6.05173 31.4688 6.29968 31.475C6.29947 31.4045 6.29926 31.334 6.29905 31.2614C6.29403 29.5377 6.29035 27.8139 6.28802 26.0901C6.28687 25.2565 6.28529 24.4229 6.2827 23.5892C6.28044 22.8617 6.27901 22.1342 6.27851 21.4067C6.27822 21.0223 6.27754 20.6379 6.27589 20.2536C6.25811 15.9557 6.88986 12.0648 9.97468 8.82501C10.0131 8.78457 10.0515 8.74414 10.091 8.70248C12.1987 6.49687 14.917 5.16367 17.9247 4.70001C18.014 4.6856 18.1033 4.6712 18.1954 4.65636C20.8115 4.34908 23.4435 4.82303 25.7997 5.97501Z" fill="#E64C3C"/>
<path id="Vector_2" d="M5.38296 31.4369C5.51236 31.4366 5.64177 31.4361 5.77117 31.4355C6.1261 31.4342 6.48101 31.4349 6.83594 31.4358C7.21898 31.4365 7.60201 31.4354 7.98504 31.4346C8.73514 31.4333 9.48523 31.4336 10.2353 31.4344C10.8449 31.4351 11.4545 31.4352 12.0641 31.4349C12.1509 31.4348 12.2377 31.4348 12.327 31.4347C12.5033 31.4346 12.6795 31.4345 12.8557 31.4344C14.5084 31.4336 16.1611 31.4346 17.8138 31.4362C19.2319 31.4375 20.6501 31.4373 22.0682 31.4359C23.715 31.4343 25.3617 31.4337 27.0084 31.4346C27.184 31.4347 27.3596 31.4348 27.5352 31.4349C27.6648 31.4349 27.6648 31.4349 27.797 31.435C28.4059 31.4353 29.0148 31.4348 29.6237 31.4341C30.3657 31.4333 31.1077 31.4335 31.8497 31.4351C32.2283 31.4359 32.6069 31.4362 32.9855 31.4352C33.3321 31.4343 33.6787 31.4348 34.0253 31.4364C34.1507 31.4367 34.276 31.4366 34.4014 31.4358C35.7199 31.4288 35.7199 31.4288 36.214 31.911C36.4504 32.3054 36.5008 32.6176 36.4863 33.0734C36.4858 33.1375 36.4852 33.2016 36.4847 33.2676C36.4826 33.4701 36.4779 33.6725 36.4731 33.875C36.4712 34.0132 36.4695 34.1514 36.468 34.2896C36.4639 34.6264 36.4574 34.9632 36.4497 35.3C36.5054 35.299 36.5612 35.2981 36.6186 35.297C36.729 35.2959 36.729 35.2959 36.8417 35.2947C36.9508 35.2933 36.9508 35.2933 37.0622 35.2918C37.4184 35.3056 37.7198 35.3875 37.9895 35.627C38.4387 36.1336 38.4271 36.6305 38.4278 37.2734C38.4296 37.3562 38.4315 37.4389 38.4334 37.5241C38.4352 38.0447 38.3806 38.3833 38.0997 38.825C37.7246 39.1818 37.4177 39.2111 36.9192 39.2101C36.8292 39.2103 36.8292 39.2103 36.7373 39.2106C36.5345 39.2111 36.3317 39.2111 36.1289 39.211C35.9827 39.2113 35.8365 39.2116 35.6903 39.2119C35.2872 39.2126 34.8841 39.2129 34.481 39.2131C34.0468 39.2134 33.6126 39.2141 33.1784 39.2148C32.1292 39.2163 31.08 39.217 30.0308 39.2177C29.5371 39.218 29.0434 39.2184 28.5497 39.2188C26.9093 39.2201 25.2688 39.2212 23.6284 39.2217C23.5223 39.2217 23.4162 39.2218 23.3101 39.2218C23.2575 39.2218 23.2049 39.2219 23.1507 39.2219C22.8841 39.222 22.6175 39.2221 22.3509 39.2221C22.298 39.2222 22.2451 39.2222 22.1905 39.2222C20.4746 39.2228 18.7586 39.2246 17.0427 39.227C15.2291 39.2296 13.4154 39.231 11.6018 39.2313C10.6129 39.2314 9.62407 39.2321 8.6352 39.234C7.7933 39.2356 6.9514 39.2363 6.10949 39.2355C5.67972 39.2352 5.24996 39.2353 4.82018 39.2368C4.42699 39.2381 4.03383 39.238 3.64063 39.2369C3.49815 39.2367 3.35567 39.237 3.21319 39.2379C3.01991 39.239 2.82672 39.2383 2.63345 39.2371C2.54994 39.2383 2.54994 39.2383 2.46476 39.2395C2.08337 39.2344 1.86806 39.1404 1.57468 38.9C1.17502 38.3707 1.18172 37.9516 1.17624 37.3109C1.17406 37.2276 1.17189 37.1442 1.16965 37.0583C1.16561 36.5337 1.21662 36.1951 1.49968 35.75C1.80099 35.4487 2.1008 35.306 2.52986 35.2945C2.64032 35.2955 2.64032 35.2955 2.753 35.2965C2.82728 35.297 2.90157 35.2975 2.97811 35.298C3.03473 35.2987 3.09134 35.2993 3.14968 35.3C3.14771 35.2145 3.14575 35.1291 3.14373 35.041C3.1369 34.7218 3.13262 34.4026 3.12908 34.0833C3.1272 33.9455 3.12465 33.8077 3.12139 33.67C3.1168 33.4711 3.1147 33.2723 3.11306 33.0734C3.11112 33.0126 3.10918 32.9517 3.10719 32.8889C3.107 32.5029 3.18729 32.2414 3.38534 31.911C3.94978 31.3601 4.65184 31.4327 5.38296 31.4369Z" fill="#7E8284"/>
<path id="Vector_3" d="M5.38319 31.4369C5.51259 31.4366 5.64199 31.4361 5.77139 31.4355C6.12633 31.4342 6.48124 31.4349 6.83617 31.4358C7.2192 31.4365 7.60223 31.4354 7.98526 31.4346C8.73536 31.4333 9.48545 31.4335 10.2356 31.4344C10.8452 31.4351 11.4548 31.4352 12.0644 31.4349C12.1511 31.4348 12.2379 31.4348 12.3273 31.4347C12.5035 31.4346 12.6797 31.4345 12.856 31.4344C14.5086 31.4336 16.1613 31.4346 17.814 31.4362C19.2321 31.4375 20.6503 31.4373 22.0684 31.4359C23.7152 31.4343 25.3619 31.4337 27.0087 31.4346C27.1843 31.4347 27.3598 31.4348 27.5354 31.4349C27.665 31.4349 27.665 31.4349 27.7972 31.435C28.4061 31.4353 29.015 31.4348 29.6239 31.4341C30.3659 31.4333 31.1079 31.4335 31.8499 31.4351C32.2285 31.4359 32.6071 31.4362 32.9857 31.4352C33.3323 31.4343 33.6789 31.4348 34.0255 31.4364C34.1509 31.4367 34.2762 31.4366 34.4016 31.4358C35.6178 31.4293 35.6178 31.4293 36.0749 31.775C36.4499 32.375 36.4499 32.375 36.4499 35.375C25.4609 35.375 14.4719 35.375 3.1499 35.375C3.1499 32.375 3.1499 32.375 3.5249 31.775C4.07345 31.3602 4.72594 31.4331 5.38319 31.4369Z" fill="#BCC2C6"/>
<path id="Vector_4" d="M12.8632 14.1753C12.9603 14.1731 12.9603 14.1731 13.0592 14.171C13.1632 14.1718 13.1632 14.1718 13.2692 14.1726C13.3421 14.172 13.4149 14.1715 13.49 14.1709C13.6445 14.1703 13.799 14.1707 13.9535 14.172C14.1854 14.1734 14.4168 14.1705 14.6487 14.1671C16.1514 14.1608 17.4152 14.503 18.5394 15.5422C19.1274 16.1563 19.6864 17.0382 19.7394 17.9047C19.7325 17.9766 19.7325 17.9766 19.7254 18.05C19.7749 18.05 19.8244 18.05 19.8754 18.05C19.8754 17.9634 19.8754 17.8767 19.8754 17.7875C19.9995 16.696 20.791 15.7838 21.591 15.1016C22.4186 14.4671 23.398 14.1882 24.431 14.1951C24.5039 14.1949 24.5767 14.1947 24.6518 14.1945C24.8042 14.1943 24.9566 14.1947 25.109 14.1957C25.342 14.1969 25.575 14.1957 25.808 14.1942C25.9568 14.1944 26.1056 14.1947 26.2545 14.1951C26.3584 14.1944 26.3584 14.1944 26.4645 14.1937C26.8276 14.1977 27.083 14.209 27.3754 14.45C27.4634 14.6261 27.4607 14.7323 27.4624 14.9287C27.4636 15.0323 27.4636 15.0323 27.4647 15.1381C27.4651 15.2141 27.4656 15.2901 27.466 15.3684C27.4668 15.4483 27.4675 15.5282 27.4683 15.6105C27.4705 15.8757 27.4721 16.1409 27.4735 16.4061C27.474 16.4966 27.4745 16.587 27.475 16.6801C27.4775 17.1586 27.4793 17.637 27.4808 18.1155C27.4821 18.5121 27.4847 18.9086 27.4884 19.3052C27.4929 19.7834 27.4953 20.2615 27.496 20.7398C27.4966 20.9222 27.498 21.1046 27.5002 21.2871C27.5032 21.5422 27.5032 21.7973 27.5027 22.0525C27.5049 22.1658 27.5049 22.1658 27.5072 22.2815C27.502 22.7764 27.502 22.7764 27.3586 22.9808C27.1444 23.1734 26.9471 23.2719 26.6606 23.2711C26.5975 23.2718 26.5344 23.2725 26.4693 23.2733C26.4023 23.272 26.3353 23.2708 26.2662 23.2695C26.1957 23.2695 26.1252 23.2695 26.0526 23.2695C25.9037 23.2691 25.7548 23.2678 25.606 23.2656C25.3808 23.2625 25.1558 23.2626 24.9306 23.2631C24.1971 23.2607 23.499 23.2508 22.8004 23C22.7503 22.9821 22.7003 22.9641 22.6487 22.9457C21.4217 22.4571 20.5408 21.475 20.0204 20.2771C19.9181 19.9819 19.8907 19.7114 19.8754 19.4C19.8259 19.4 19.7764 19.4 19.7254 19.4C19.7184 19.4998 19.7184 19.4998 19.7113 19.6016C19.5571 20.6332 18.9501 21.5915 18.1504 22.25C17.1948 22.9446 16.2333 23.2504 15.0572 23.2449C14.9874 23.2451 14.9176 23.2452 14.8457 23.2454C14.6996 23.2455 14.5535 23.2452 14.4074 23.2446C14.1838 23.2437 13.9602 23.2446 13.7365 23.2455C13.5939 23.2454 13.4514 23.2452 13.3088 23.2449C13.2421 23.2452 13.1755 23.2455 13.1068 23.2458C13.0136 23.2451 13.0136 23.2451 12.9186 23.2444C12.8642 23.2443 12.8098 23.2442 12.7538 23.244C12.5719 23.2215 12.4553 23.1726 12.3004 23.075C12.1428 22.8386 12.1314 22.7822 12.1298 22.5123C12.1291 22.4431 12.1283 22.3739 12.1275 22.3026C12.1275 22.2269 12.1274 22.1511 12.1274 22.0731C12.1268 21.9932 12.1261 21.9133 12.1255 21.831C12.1237 21.5661 12.123 21.3013 12.1225 21.0365C12.1219 20.8528 12.1212 20.669 12.1205 20.4853C12.1193 20.0998 12.1187 19.7143 12.1185 19.3288C12.1181 18.8346 12.1152 18.3404 12.1118 17.8461C12.1096 17.4665 12.109 17.0869 12.109 16.7073C12.1086 16.5251 12.1077 16.3429 12.1061 16.1606C12.1041 15.9058 12.1045 15.6511 12.1054 15.3963C12.1043 15.3209 12.1032 15.2454 12.1021 15.1677C12.1057 14.8216 12.1123 14.6527 12.3196 14.3658C12.5268 14.224 12.6172 14.1776 12.8632 14.1753Z" fill="#F19B1F"/>
<path id="Vector_5" d="M25.8007 5.97501C25.8505 5.99918 25.9003 6.02335 25.9516 6.04825C26.6783 6.4057 27.3325 6.83436 27.9757 7.32501C28.0431 7.37548 28.1105 7.42594 28.1799 7.47794C30.9186 9.61763 32.7406 12.837 33.1988 16.2778C33.2861 17.1597 33.3115 18.0298 33.3104 18.9151C33.3105 19.0525 33.3107 19.19 33.3108 19.3274C33.3112 19.6977 33.311 20.068 33.3108 20.4383C33.3106 20.8264 33.3108 21.2146 33.3109 21.6027C33.311 22.2533 33.3109 22.9039 33.3105 23.5545C33.3101 24.3075 33.3102 25.0604 33.3106 25.8133C33.311 26.4604 33.311 27.1075 33.3108 27.7546C33.3107 28.1409 33.3107 28.5271 33.311 28.9134C33.3112 29.2756 33.311 29.6378 33.3106 30.0001C33.3105 30.1333 33.3105 30.2666 33.3107 30.3998C33.3109 30.5809 33.3106 30.7619 33.3103 30.943C33.3104 30.9964 33.3106 31.0497 33.3108 31.1048C33.3093 31.4664 33.3093 31.4664 33.2257 31.55C33.0938 31.5572 32.9616 31.5592 32.8295 31.559C32.7436 31.5591 32.6576 31.5592 32.5691 31.5593C32.474 31.5591 32.3789 31.5588 32.2809 31.5585C32.1804 31.5585 32.0799 31.5585 31.9794 31.5586C31.7057 31.5586 31.4321 31.5581 31.1584 31.5576C30.8728 31.5571 30.5871 31.5571 30.3014 31.557C29.7601 31.5568 29.2188 31.5562 28.6774 31.5554C28.0613 31.5546 27.4452 31.5542 26.829 31.5538C25.5613 31.553 24.2935 31.5517 23.0257 31.55C23.0257 31.5253 23.0257 31.5005 23.0257 31.475C25.971 31.475 28.9162 31.475 31.9507 31.475C31.9461 28.9026 31.9461 28.9026 31.9387 26.3302C31.9351 25.2801 31.9317 24.2301 31.9304 23.18C31.9294 22.415 31.9274 21.65 31.9241 20.885C31.9224 20.4806 31.9213 20.0763 31.9213 19.6718C31.9214 19.2898 31.92 18.9078 31.9176 18.5257C31.917 18.3869 31.9169 18.248 31.9173 18.1091C31.9208 16.7867 31.7448 15.4741 31.3085 14.2203C31.2708 14.1097 31.2708 14.1097 31.2322 13.9968C30.8193 12.8372 30.2216 11.7532 29.4757 10.775C29.4255 10.7081 29.3752 10.6412 29.3234 10.5723C27.9604 8.83298 26.2005 7.56251 24.1399 6.77996C24.0083 6.728 23.8794 6.66926 23.7508 6.61017C23.4014 6.47025 23.0506 6.38822 22.6835 6.30782C22.6098 6.29161 22.536 6.2754 22.46 6.25869C22.2487 6.21308 22.0373 6.16873 21.8257 6.12501C21.7349 6.10606 21.644 6.08711 21.5503 6.06759C20.1818 5.82928 18.7561 5.93615 17.4007 6.20001C17.3483 6.20925 17.2958 6.2185 17.2418 6.22802C15.0147 6.62375 12.9658 7.8376 11.3575 9.39707C11.2635 9.48774 11.1676 9.5765 11.0714 9.66495C9.06124 11.5631 7.79286 14.5992 7.69061 17.3457C7.68402 17.6678 7.6838 17.9896 7.68479 18.3117C7.68413 18.4568 7.68334 18.6019 7.68244 18.7469C7.68038 19.1349 7.68009 19.5228 7.68017 19.9107C7.67993 20.3183 7.678 20.7258 7.67627 21.1334C7.67324 21.9026 7.6717 22.6718 7.67072 23.441C7.6693 24.4822 7.66554 25.5235 7.66193 26.5647C7.6563 28.2015 7.65377 29.8382 7.65073 31.475C10.596 31.475 13.5412 31.475 16.5757 31.475C16.5757 31.4998 16.5757 31.5245 16.5757 31.55C15.2471 31.5518 13.9185 31.5531 12.5899 31.5539C11.973 31.5543 11.3562 31.5548 10.7393 31.5557C10.2018 31.5564 9.66438 31.5569 9.12692 31.5571C8.84217 31.5572 8.55741 31.5574 8.27266 31.5579C8.00494 31.5584 7.73723 31.5586 7.46951 31.5585C7.32379 31.5585 7.17808 31.5589 7.03237 31.5593C6.94644 31.5592 6.86051 31.5591 6.77198 31.559C6.69683 31.5591 6.62168 31.5592 6.54426 31.5592C6.37573 31.55 6.37573 31.55 6.30073 31.475C6.29291 31.2982 6.28998 31.1235 6.2902 30.9467C6.28997 30.8907 6.28975 30.8347 6.28952 30.7771C6.28887 30.5881 6.28876 30.399 6.28864 30.21C6.2883 30.075 6.28792 29.9399 6.28752 29.8049C6.28653 29.4365 6.28605 29.068 6.28571 28.6996C6.2855 28.4687 6.28519 28.2378 6.28485 28.007C6.28382 27.2829 6.2831 26.5588 6.28281 25.8347C6.28248 25.0025 6.28117 24.1704 6.27899 23.3382C6.27735 22.6934 6.27661 22.0485 6.27651 21.4036C6.27643 21.0195 6.276 20.6354 6.27465 20.2513C6.26037 15.9545 6.89159 12.0641 9.97573 8.82501C10.0141 8.78457 10.0525 8.74414 10.0921 8.70248C12.1998 6.49687 14.918 5.16367 17.9257 4.70001C18.0151 4.6856 18.1044 4.6712 18.1964 4.65636C20.8125 4.34908 23.4446 4.82303 25.8007 5.97501Z" fill="#FA7A75"/>
<path id="Vector_6" d="M12.8632 14.1753C12.9603 14.1731 12.9603 14.1731 13.0592 14.171C13.1632 14.1718 13.1632 14.1718 13.2692 14.1726C13.3421 14.172 13.4149 14.1715 13.49 14.1709C13.6445 14.1703 13.799 14.1707 13.9535 14.172C14.1854 14.1734 14.4168 14.1705 14.6487 14.1671C16.1514 14.1608 17.4152 14.503 18.5394 15.5422C18.9566 15.9779 19.2353 16.4628 19.5004 17C19.5282 17.056 19.5561 17.112 19.5847 17.1696C19.8189 17.7426 19.7917 18.415 19.8004 19.025C19.8014 19.0958 19.8025 19.1665 19.8036 19.2394C19.7541 20.3327 19.07 21.3968 18.298 22.1284C17.3404 22.9169 16.2839 23.2506 15.0572 23.2449C14.9874 23.2451 14.9176 23.2452 14.8457 23.2454C14.6996 23.2455 14.5535 23.2452 14.4074 23.2446C14.1838 23.2437 13.9602 23.2446 13.7365 23.2455C13.5939 23.2454 13.4514 23.2452 13.3088 23.2449C13.2421 23.2452 13.1755 23.2455 13.1068 23.2458C13.0136 23.2451 13.0136 23.2451 12.9186 23.2444C12.8642 23.2443 12.8098 23.2442 12.7538 23.244C12.5719 23.2215 12.4553 23.1726 12.3004 23.075C12.1428 22.8386 12.1314 22.7822 12.1298 22.5123C12.1291 22.4431 12.1283 22.3739 12.1275 22.3026C12.1275 22.2269 12.1274 22.1511 12.1274 22.0731C12.1268 21.9932 12.1261 21.9133 12.1255 21.831C12.1237 21.5661 12.123 21.3013 12.1225 21.0365C12.1219 20.8528 12.1212 20.669 12.1205 20.4853C12.1193 20.0998 12.1187 19.7143 12.1185 19.3288C12.1181 18.8346 12.1152 18.3404 12.1118 17.8461C12.1096 17.4665 12.109 17.0869 12.109 16.7073C12.1086 16.5251 12.1077 16.3429 12.1061 16.1606C12.1041 15.9058 12.1045 15.6511 12.1054 15.3963C12.1043 15.3209 12.1032 15.2454 12.1021 15.1677C12.1057 14.8216 12.1123 14.6527 12.3196 14.3658C12.5268 14.224 12.6172 14.1776 12.8632 14.1753Z" fill="#EFC319"/>
<path id="Vector_7" d="M19.7252 19.4C19.7747 19.4 19.8242 19.4 19.8752 19.4C19.887 19.45 19.8989 19.5 19.9112 19.5515C19.9374 19.6552 19.9374 19.6552 19.9642 19.7609C19.9807 19.8279 19.9973 19.8949 20.0143 19.964C20.0877 20.2142 20.0877 20.2142 20.1893 20.3872C20.5281 21.0177 20.524 21.6015 20.5118 22.2954C20.5111 22.4136 20.5105 22.5318 20.5102 22.65C20.5087 22.9584 20.5051 23.2668 20.5009 23.5751C20.497 23.8909 20.4953 24.2066 20.4935 24.5224C20.4895 25.14 20.4831 25.7575 20.4752 26.375C20.5719 26.3724 20.6687 26.3698 20.7684 26.3671C20.8972 26.365 21.026 26.3629 21.1548 26.3609C21.2184 26.3591 21.282 26.3572 21.3475 26.3552C21.8691 26.3492 22.2219 26.4291 22.6314 26.7734C23.0615 27.2872 23.0557 27.7256 23.0471 28.3713C23.0469 28.4519 23.0467 28.5326 23.0464 28.6156C23.0453 28.9156 23.0421 29.2156 23.0392 29.5156C23.0346 30.187 23.0299 30.8583 23.0252 31.55C20.8967 31.55 18.7682 31.55 16.5752 31.55C16.5674 30.8694 16.5597 30.1888 16.5517 29.4875C16.5483 29.2737 16.5449 29.0599 16.5414 28.8396C16.5403 28.6689 16.5393 28.4981 16.5385 28.3273C16.5366 28.2397 16.5347 28.1521 16.5327 28.0618C16.5324 27.5315 16.5733 27.1434 16.9502 26.75C17.3241 26.4068 17.6629 26.3333 18.1627 26.342C18.2328 26.3452 18.3029 26.3483 18.3752 26.3516C18.4476 26.3533 18.52 26.3549 18.5946 26.3567C18.7716 26.3611 18.9483 26.3672 19.1252 26.375C19.1239 26.276 19.1239 26.276 19.1226 26.175C19.1151 25.5506 19.1094 24.9261 19.1057 24.3016C19.1038 23.9806 19.1011 23.6597 19.0969 23.3387C19.0928 23.0285 19.0905 22.7182 19.0896 22.4079C19.0889 22.2901 19.0875 22.1722 19.0855 22.0544C19.0739 21.3553 19.1245 20.835 19.5002 20.225C19.5867 19.9812 19.5867 19.9812 19.6361 19.7656C19.6536 19.6958 19.6711 19.626 19.6891 19.5541C19.707 19.4778 19.707 19.4778 19.7252 19.4Z" fill="#C03A2B"/>
<path id="Vector_8" d="M22.2905 7.44921C22.4888 7.50024 22.6813 7.56023 22.8755 7.62499C22.9687 7.654 23.0619 7.683 23.158 7.71288C24.8407 8.25522 26.2624 9.17791 27.5255 10.4C27.5816 10.4539 27.6377 10.5079 27.6955 10.5635C28.1143 10.9738 28.1143 10.9738 28.149 11.2859C28.1193 11.5889 28.0514 11.6973 27.8255 11.9C27.5818 11.9937 27.5818 11.9937 27.3005 11.975C27.0232 11.7981 26.8065 11.5606 26.5801 11.3243C25.8721 10.5918 25.048 10.0459 24.1505 9.57499C24.0856 9.54048 24.0206 9.50596 23.9537 9.4704C22.7556 8.88071 21.4041 8.59409 20.0805 8.52236C19.5492 8.4837 19.5492 8.4837 19.3031 8.31318C19.1463 8.06359 19.14 7.83028 19.2005 7.54999C19.6859 6.71803 21.4999 7.28705 22.2905 7.44921Z" fill="#FEFBFB"/>
<path id="Vector_9" d="M19.725 19.4C19.7745 19.4 19.824 19.4 19.875 19.4C19.8942 19.4776 19.8942 19.4776 19.9137 19.5567C19.941 19.6625 19.941 19.6625 19.9688 19.7703C19.9862 19.8391 20.0036 19.9078 20.0215 19.9786C20.0861 20.2108 20.0861 20.2108 20.1723 20.3523C20.4875 20.9242 20.4379 21.5313 20.4293 22.1636C20.4288 22.2854 20.4283 22.4071 20.428 22.5289C20.4269 22.8474 20.4239 23.1659 20.4206 23.4844C20.4175 23.8102 20.4162 24.136 20.4147 24.4618C20.4115 25.0995 20.4062 25.7373 20.4 26.375C20.004 26.375 19.608 26.375 19.2 26.375C19.1898 25.6806 19.1816 24.9862 19.1767 24.2917C19.1744 23.9691 19.1712 23.6466 19.1661 23.324C19.1611 23.0118 19.1585 22.6997 19.1573 22.3874C19.1565 22.2692 19.1549 22.1511 19.1524 22.0329C19.1374 21.2769 19.2289 20.7024 19.5458 20.0117C19.6377 19.803 19.6915 19.6244 19.725 19.4Z" fill="#802F33"/>
<path id="Vector_10" d="M36.75 9.72501C36.9788 9.87443 37.0946 9.97527 37.1604 10.2453C37.1825 10.5434 37.1669 10.6514 36.9641 10.8868C36.7313 11.0915 36.5716 11.1584 36.2751 11.2402C36.1389 11.2785 36.1389 11.2785 35.9999 11.3176C35.8584 11.3553 35.8584 11.3553 35.7141 11.3938C35.6206 11.4201 35.5272 11.4464 35.4309 11.4734C34.2506 11.799 34.2506 11.799 33.8391 11.6984C33.6436 11.5812 33.5546 11.5037 33.45 11.3C33.4125 11.0422 33.4125 11.0422 33.45 10.775C33.7107 10.4577 33.9402 10.3323 34.3301 10.2157C34.3779 10.2013 34.4257 10.1868 34.475 10.1719C34.5756 10.1418 34.6765 10.1123 34.7775 10.0833C34.9303 10.0394 35.0822 9.99316 35.2342 9.94664C35.7469 9.79334 36.2129 9.66944 36.75 9.72501Z" fill="#FB7A75"/>
<path id="Vector_11" d="M4.68121 9.86212C4.73126 9.87639 4.7813 9.89066 4.83287 9.90537C4.93759 9.93548 5.04221 9.96601 5.1467 9.99692C5.30613 10.0439 5.46602 10.0888 5.62604 10.1337C5.72832 10.1634 5.83056 10.1932 5.93278 10.2231C6.0708 10.2631 6.0708 10.2631 6.21161 10.304C6.4584 10.4036 6.58392 10.4942 6.74957 10.7C6.80467 10.9301 6.79099 11.1427 6.74957 11.375C6.63239 11.5625 6.63239 11.5625 6.44957 11.675C6.04854 11.7633 5.76957 11.7332 5.37789 11.6176C5.32792 11.603 5.27795 11.5885 5.22646 11.5735C5.12156 11.5427 5.01682 11.5114 4.91222 11.4796C4.75294 11.4313 4.59322 11.3847 4.43336 11.3384C3.55035 11.0773 3.55035 11.0773 3.22457 10.85C3.09415 10.5892 3.1061 10.3096 3.14957 10.025C3.53243 9.53448 4.15611 9.71219 4.68121 9.86212Z" fill="#FB7A75"/>
<path id="Vector_12" d="M13.7257 1.40001C14.1274 1.82316 14.4423 2.3008 14.7617 2.78751C14.8127 2.86302 14.8637 2.93853 14.9162 3.01632C15.3793 3.72093 15.3793 3.72093 15.3757 4.17501C15.2845 4.39102 15.203 4.50894 15.0195 4.65314C14.7541 4.72685 14.5905 4.70261 14.3257 4.62501C13.9217 4.20482 13.6088 3.72367 13.2898 3.23751C13.2388 3.162 13.1878 3.0865 13.1352 3.0087C12.6727 2.305 12.6727 2.305 12.6757 1.85001C12.7732 1.60641 12.8489 1.50581 13.0742 1.37189C13.3348 1.31127 13.4708 1.31157 13.7257 1.40001Z" fill="#FB7A75"/>
<path id="Vector_13" d="M8.0251 4.02499C8.28074 4.16945 8.50719 4.34515 8.7376 4.52656C8.79783 4.57253 8.85806 4.6185 8.92012 4.66586C9.03965 4.75721 9.1587 4.84918 9.27725 4.9418C9.49037 5.10603 9.709 5.26203 9.92925 5.41654C10.0705 5.54329 10.1332 5.64785 10.2001 5.82499C10.19 6.10643 10.1608 6.29205 10.0126 6.53281C9.72828 6.71051 9.47701 6.71013 9.1501 6.64999C8.88763 6.51641 8.66646 6.34205 8.4376 6.15781C8.3487 6.08928 8.3487 6.08928 8.25801 6.01938C8.13912 5.92744 8.02085 5.83471 7.90322 5.74117C7.66483 5.55223 7.42244 5.36862 7.18003 5.18488C6.98423 5.01929 6.97617 4.9364 6.95166 4.67656C6.97875 4.35684 7.05159 4.2485 7.2751 4.02499C7.52655 3.89927 7.76509 3.94903 8.0251 4.02499Z" fill="#FB7A75"/>
<path id="Vector_14" d="M32.9994 4.02501C33.2313 4.26251 33.2941 4.40242 33.3182 4.73282C33.1076 5.33287 32.3823 5.71511 31.8838 6.07814C31.7878 6.14876 31.7878 6.14876 31.6899 6.22081C31.2832 6.51872 31.0521 6.68293 30.5394 6.6755C30.3744 6.65001 30.3744 6.65001 30.1822 6.49532C30.0454 6.21565 30.0258 6.05819 30.0744 5.75001C30.326 5.40381 30.5994 5.16897 30.951 4.9297C30.9968 4.8978 31.0426 4.8659 31.0898 4.83304C31.1822 4.76874 31.2748 4.70469 31.3676 4.6409C31.5564 4.51071 31.7434 4.37781 31.9307 4.24532C32.2998 3.98559 32.5461 3.88104 32.9994 4.02501Z" fill="#FB7A75"/>
<path id="Vector_15" d="M26.9244 1.44981C27.182 1.4929 27.29 1.56997 27.45 1.775C27.5648 2.42709 27.2513 2.84143 26.8938 3.35374C26.7983 3.49079 26.7054 3.62936 26.6128 3.76836C26.0971 4.52775 26.0971 4.52775 25.725 4.7C25.4086 4.7 25.2573 4.67496 25.0172 4.46563C24.8683 4.19169 24.872 4.03467 24.9 3.725C25.0203 3.48308 25.0203 3.48308 25.1874 3.23868C25.2168 3.19501 25.2463 3.15133 25.2766 3.10634C25.3702 2.96801 25.4656 2.83092 25.5609 2.69375C25.6242 2.60056 25.6873 2.5073 25.7503 2.41397C26.4227 1.42574 26.4227 1.42574 26.9244 1.44981Z" fill="#FB7A75"/>
</g>
<defs>
<clipPath id="clip0_3536_1884">
<rect width="38.4" height="38.4" fill="white" transform="translate(0.600098 0.800003)"/>
</clipPath>
</defs>
</svg>
