<svg width="64" height="64" viewBox="0 0 64 64" fill="none" xmlns="http://www.w3.org/2000/svg">
<g id="cryptocurrency:chat" clip-path="url(#clip0_3475_1182)">
<path id="Vector" fill-rule="evenodd" clip-rule="evenodd" d="M32 64C14.326 64 0 49.674 0 32C0 14.326 14.326 0 32 0C49.674 0 64 14.326 64 32C64 49.674 49.674 64 32 64ZM32.56 46.65C34.616 48.072 37.224 48.918 40.048 48.918C40.7507 48.918 41.4433 48.8667 42.126 48.764C42.36 48.86 42.586 48.978 42.864 49.138C43.464 49.49 44.264 50.03 45.264 50.758C46.082 51.356 47.24 50.778 47.24 49.772V46.85C47.66 46.578 48.0567 46.2833 48.43 45.966C50.69 44.05 52 41.43 52 38.62C52 36.77 51.44 35.04 50.456 33.546C50.1448 34.6066 49.7246 35.632 49.202 36.606C49.4113 37.2527 49.5173 37.924 49.52 38.62C49.52 40.688 48.544 42.64 46.816 44.104C46.37 44.4805 45.8899 44.8146 45.382 45.102C45.1935 45.208 45.0366 45.3622 44.9273 45.5488C44.818 45.7354 44.7602 45.9477 44.76 46.164V47.412C43.574 46.652 42.76 46.294 42.14 46.294C42.0704 46.2964 42.001 46.3024 41.932 46.312C40.1944 46.6023 38.4131 46.4859 36.728 45.972C35.3631 46.3259 33.9686 46.5535 32.562 46.652L32.56 46.65ZM17.628 40.806C18.2864 41.3654 18.9842 41.8768 19.716 42.336V47.32C19.716 48.58 21.166 49.3 22.188 48.552C25.008 46.492 26.968 45.328 27.458 45.212C28.5913 45.392 29.7433 45.482 30.914 45.482C41.314 45.482 49.83 38.268 49.83 29.242C49.83 20.214 41.312 13 30.914 13C20.516 13 12 20.214 12 29.24C12 33.66 14.06 37.782 17.628 40.806ZM27.526 42.138C26.52 42.138 25.05 42.848 22.818 44.346V41.472C22.816 41.2017 22.7429 40.9366 22.6059 40.7035C22.469 40.4704 22.2731 40.2774 22.038 40.144C21.1916 39.6626 20.391 39.105 19.646 38.478C16.74 36.02 15.1 32.732 15.1 29.24C15.1 22.02 22.132 16.064 30.914 16.064C39.698 16.064 46.728 22.02 46.728 29.24C46.728 36.46 39.698 42.418 30.914 42.418C29.8527 42.418 28.81 42.3313 27.786 42.158C27.6999 42.1457 27.613 42.139 27.526 42.138ZM22.852 32.306C24.222 32.306 25.332 31.206 25.332 29.854C25.332 28.5 24.222 27.402 22.852 27.402C21.482 27.402 20.372 28.5 20.372 29.854C20.372 31.208 21.482 32.306 22.852 32.306ZM30.914 32.306C32.284 32.306 33.394 31.206 33.394 29.854C33.394 28.5 32.284 27.402 30.914 27.402C29.544 27.402 28.434 28.5 28.434 29.854C28.434 31.208 29.544 32.306 30.914 32.306ZM38.976 32.306C40.346 32.306 41.456 31.206 41.456 29.854C41.456 28.5 40.346 27.402 38.976 27.402C37.606 27.402 36.496 28.5 36.496 29.854C36.496 31.208 37.606 32.306 38.976 32.306Z" fill="#51B748"/>
</g>
<defs>
<clipPath id="clip0_3475_1182">
<rect width="64" height="64" fill="white"/>
</clipPath>
</defs>
</svg>
