<svg width="49" height="48" viewBox="0 0 49 48" fill="none" xmlns="http://www.w3.org/2000/svg">
<g id="Home Screen Icon" clip-path="url(#clip0_3475_1149)">
<path id="Vector" d="M27.1465 0.281234C27.2585 0.31205 27.3705 0.342867 27.4859 0.374618C30.131 1.17005 32.3826 3.02057 33.7295 5.42613C34.3066 6.50388 34.768 7.67521 34.834 8.90623C34.9099 8.92908 34.9858 8.95193 35.064 8.97547C35.4642 9.11783 35.8361 9.29778 36.2164 9.48595C36.2951 9.5245 36.3737 9.56305 36.4548 9.60276C36.6226 9.68507 36.7904 9.76754 36.9581 9.85015C37.3961 10.0659 37.8346 10.2804 38.273 10.4952C38.3587 10.5372 38.4443 10.5792 38.5325 10.6225C39.1418 10.9211 39.7524 11.2165 40.3652 11.5078C41.294 11.9497 42.2195 12.3984 43.1447 12.8478C43.9884 13.2575 44.8331 13.6648 45.6797 14.0683C45.9279 14.1872 46.176 14.3062 46.4242 14.4252C46.6346 14.5256 46.8455 14.6246 47.0566 14.7235C47.1758 14.7804 47.2949 14.8374 47.414 14.8945C47.512 14.9407 47.6101 14.9868 47.711 15.0344C48.0205 15.2255 48.1472 15.3385 48.334 15.6562C48.392 16.0473 48.3887 16.4359 48.3871 16.8307C48.3876 16.9452 48.3882 17.0597 48.3888 17.1777C48.3895 17.4197 48.3892 17.6617 48.388 17.9037C48.3867 18.2737 48.3899 18.6435 48.3935 19.0135C48.3936 19.2488 48.3934 19.4841 48.3929 19.7193C48.3942 19.8298 48.3954 19.9403 48.3967 20.0541C48.387 20.9096 48.387 20.9096 48.1076 21.2558C47.7231 21.5936 47.4548 21.6085 46.9531 21.6039C46.3581 21.5236 45.8429 21.2264 45.3164 20.9531C45.1992 20.8942 45.082 20.8355 44.9646 20.777C44.6805 20.6344 44.3975 20.4899 44.1152 20.3437C44.1156 20.4246 44.1161 20.5054 44.1165 20.5887C44.1269 22.5541 44.1346 24.5195 44.1395 26.4849C44.1419 27.4354 44.1452 28.3859 44.1506 29.3363C44.1552 30.1646 44.1583 30.9929 44.1593 31.8212C44.1599 32.2599 44.1614 32.6986 44.1648 33.1373C44.1679 33.55 44.1689 33.9627 44.1682 34.3755C44.1684 34.5271 44.1693 34.6788 44.1711 34.8304C44.1734 35.0372 44.1729 35.2439 44.1716 35.4507C44.172 35.5665 44.1724 35.6823 44.1729 35.8016C44.1152 36.0937 44.1152 36.0937 43.889 36.3214C43.6465 36.4687 43.6465 36.4687 43.459 36.4687C43.459 36.9019 43.459 37.335 43.459 37.7812C43.6136 37.8122 43.7683 37.8431 43.9277 37.875C44.1444 38.2 44.1381 38.3215 44.1365 38.7045C44.1365 38.8171 44.1365 38.9297 44.1365 39.0457C44.1355 39.1673 44.1345 39.2889 44.1335 39.4142C44.1332 39.5399 44.1329 39.6656 44.1327 39.7913C44.132 40.1219 44.1302 40.4525 44.1281 40.7831C44.1262 41.1205 44.1253 41.458 44.1244 41.7955C44.1224 42.4574 44.1192 43.1193 44.1152 43.7812C44.2178 43.7798 44.3205 43.7783 44.4262 43.7768C44.8079 43.7717 45.1897 43.7684 45.5715 43.7658C45.7365 43.7644 45.9016 43.7625 46.0666 43.76C46.3042 43.7566 46.5418 43.755 46.7794 43.7538C46.8528 43.7523 46.9263 43.7509 47.002 43.7494C47.4332 43.7492 47.7177 43.783 48.0527 44.0625C48.3366 44.4232 48.37 44.7025 48.3713 45.1553C48.3717 45.2743 48.372 45.3933 48.3724 45.516C48.3708 45.7014 48.3708 45.7014 48.3691 45.8906C48.3702 46.0142 48.3713 46.1379 48.3724 46.2652C48.3721 46.3843 48.3717 46.5033 48.3713 46.626C48.371 46.7344 48.3707 46.8429 48.3704 46.9546C48.3293 47.2879 48.2597 47.4557 48.0527 47.7187C47.6532 48.0281 47.2884 48.0398 46.8014 48.0354C46.7225 48.0358 46.6436 48.0362 46.5623 48.0366C46.2966 48.0376 46.0311 48.0367 45.7654 48.0357C45.5736 48.036 45.3817 48.0365 45.1898 48.037C44.6616 48.0382 44.1334 48.0376 43.6052 48.0368C43.0359 48.0361 42.4666 48.0371 41.8973 48.0379C40.8463 48.0391 39.7952 48.0389 38.7441 48.0382C37.7732 48.0375 36.8022 48.0373 35.8313 48.0376C35.7347 48.0377 35.7347 48.0376 35.6362 48.0377C35.375 48.0378 35.1137 48.0379 34.8524 48.038C32.4007 48.0388 29.949 48.038 27.4974 48.0365C25.3184 48.0352 23.1395 48.0353 20.9605 48.0367C18.5133 48.0382 16.0662 48.0387 13.619 48.0379C13.3582 48.0378 13.0974 48.0377 12.8366 48.0376C12.7403 48.0376 12.7403 48.0376 12.642 48.0376C11.6716 48.0372 10.7012 48.0376 9.7308 48.0383C8.62757 48.0391 7.52434 48.0389 6.42112 48.0374C5.8579 48.0367 5.2947 48.0364 4.73148 48.0373C4.21636 48.0381 3.70125 48.0377 3.18613 48.0362C2.99933 48.0359 2.81253 48.036 2.62573 48.0367C2.37264 48.0376 2.11962 48.0367 1.86653 48.0354C1.75668 48.0364 1.75668 48.0364 1.6446 48.0374C1.22193 48.033 0.951647 47.9793 0.615205 47.7187C0.331356 47.3581 0.297926 47.0787 0.296601 46.626C0.296239 46.5069 0.295876 46.3879 0.295503 46.2652C0.29659 46.1416 0.297678 46.018 0.298799 45.8906C0.297711 45.767 0.296623 45.6434 0.295503 45.516C0.295865 45.3969 0.296228 45.2779 0.296601 45.1553C0.296919 45.0468 0.297236 44.9383 0.297563 44.8266C0.338627 44.4933 0.408196 44.3255 0.615205 44.0625C1.74353 43.3855 3.23686 43.7812 4.55271 43.7812C4.55271 36.0469 4.55271 28.3125 4.55271 20.3437C3.71739 20.7459 2.88208 21.1481 2.02145 21.5625C0.990205 21.5625 0.990205 21.5625 0.650361 21.3398C0.345676 21.0031 0.32184 20.8542 0.317361 20.4105C0.316158 20.3069 0.314953 20.2033 0.313713 20.0966C0.313021 19.9842 0.312329 19.8718 0.311616 19.756C0.310859 19.6408 0.310101 19.5257 0.309321 19.407C0.308023 19.1629 0.30702 18.9189 0.306283 18.6748C0.305043 18.3013 0.300555 17.9279 0.296418 17.5545C0.295469 17.3176 0.29467 17.0807 0.294038 16.8439C0.292396 16.732 0.290754 16.6202 0.289062 16.505C0.291075 15.7385 0.291076 15.7385 0.483689 15.3689C0.7562 15.1494 1.03741 14.9925 1.35312 14.8465C1.48848 14.7814 1.62384 14.7163 1.7592 14.6512C1.83182 14.6168 1.90444 14.5824 1.97927 14.5469C2.3024 14.393 2.6233 14.2345 2.9444 14.0764C3.38823 13.8579 3.83283 13.641 4.27731 13.4238C4.37082 13.3781 4.46433 13.3324 4.56066 13.2853C6.84166 12.1706 6.84166 12.1706 7.85027 11.6936C8.26106 11.4992 8.66994 11.3018 9.07661 11.0989C9.30841 10.9834 9.54068 10.8689 9.77297 10.7544C9.93832 10.6724 10.103 10.589 10.2677 10.5056C11.2273 10.0336 11.2273 10.0336 11.7715 10.125C11.9107 10.2178 11.9107 10.2178 12.0527 10.3125C12.4219 10.2785 12.7229 10.1374 13.0547 9.9785C13.5331 9.74998 13.5331 9.74998 13.7402 9.74998C13.7325 9.64364 13.7247 9.53729 13.7168 9.42772C13.7248 6.8724 15.3081 4.48434 17.048 2.75135C18.2911 1.55641 19.8712 0.742255 21.5215 0.281234C21.6212 0.251263 21.7209 0.221292 21.8236 0.190414C23.4509 -0.220698 25.5402 -0.200827 27.1465 0.281234Z" fill="#010101"/>
<path id="Vector_2" d="M14.6772 15.2812C14.925 15.5145 15.0868 15.7652 15.2594 16.0587C15.7553 16.8995 16.3262 17.5985 17.021 18.2813C17.0912 18.3513 17.1614 18.4214 17.2338 18.4937C19.2426 20.3869 22.0311 21.288 24.7557 21.223C27.3495 21.0916 29.753 20.0303 31.646 18.2813C31.715 18.2199 31.784 18.1585 31.8551 18.0952C32.6971 17.3087 33.3316 16.2769 33.896 15.2812C35.482 16.0308 37.0667 16.7829 38.6443 17.5499C38.751 17.6018 38.751 17.6018 38.8599 17.6547C39.2125 17.8262 39.565 17.9979 39.9174 18.1697C40.0507 18.2346 40.1839 18.2995 40.3171 18.3644C40.3738 18.3921 40.4305 18.4198 40.489 18.4484C40.9705 18.6827 41.455 18.9106 41.9396 19.1384C42.0136 19.1732 42.0876 19.208 42.1638 19.2439C42.3454 19.3293 42.5269 19.4146 42.7085 19.5C42.7087 19.5842 42.7089 19.6684 42.7092 19.7552C42.7147 21.8028 42.7218 23.8503 42.7306 25.8979C42.7348 26.8881 42.7385 27.8783 42.741 28.8685C42.7431 29.7314 42.7463 30.5943 42.7506 31.4571C42.7528 31.9142 42.7546 32.3712 42.7551 32.8282C42.7557 33.2582 42.7576 33.6882 42.7605 34.1182C42.7613 34.2762 42.7616 34.4341 42.7615 34.5921C42.7613 34.8075 42.7629 35.0229 42.7649 35.2383C42.7653 35.359 42.7657 35.4796 42.7662 35.6039C42.8048 35.9275 42.8474 36.0599 43.0835 36.2813C43.2072 36.3122 43.331 36.3431 43.4585 36.375C43.4585 36.8391 43.4585 37.3031 43.4585 37.7813C43.2729 37.8741 43.0872 37.9669 42.896 38.0625C42.043 39.7684 42.7408 41.8743 42.7085 43.7813C36.8922 43.7813 31.076 43.7813 25.0835 43.7813C25.0835 42.0488 25.0835 40.3163 25.0835 38.5313C25.4547 38.4384 25.826 38.3456 26.2085 38.25C27.4206 37.7965 28.4799 36.8888 29.0649 35.7264C29.509 34.7079 29.6131 33.7989 29.615 32.6971C29.6156 32.5694 29.6162 32.4416 29.6169 32.3139C29.618 32.0476 29.6184 31.7814 29.6182 31.5151C29.6182 31.175 29.6208 30.8349 29.624 30.4948C29.6261 30.2316 29.6265 29.9683 29.6264 29.7051C29.6267 29.5191 29.6287 29.333 29.6308 29.147C29.634 28.3239 29.634 28.3239 29.2085 27.6563C28.8127 27.4158 28.3653 27.4283 27.9136 27.4102C27.8027 27.4047 27.8027 27.4047 27.6896 27.3992C27.5085 27.3904 27.3272 27.3826 27.146 27.375C27.1447 27.2544 27.1447 27.2544 27.1433 27.1314C27.1392 26.8322 27.1334 26.5331 27.1265 26.234C27.1239 26.1047 27.1219 25.9754 27.1206 25.8461C27.1186 25.6599 27.114 25.4738 27.1094 25.2876C27.1074 25.1757 27.1054 25.0637 27.1034 24.9484C27.0428 24.6021 26.9605 24.4851 26.6772 24.2813C26.3373 24.2729 26.3373 24.2729 26.021 24.375C25.797 24.711 25.8052 24.8787 25.7947 25.2784C25.7913 25.3881 25.788 25.4978 25.7846 25.6108C25.7798 25.8199 25.7798 25.8199 25.7749 26.0332C25.7575 26.6974 25.7575 26.6974 25.7397 27.375C24.8116 27.375 23.8835 27.375 22.9272 27.375C22.9038 26.0391 22.9038 26.0391 22.8993 25.6193C22.8965 25.5098 22.8936 25.4004 22.8906 25.2876C22.8887 25.1757 22.8867 25.0637 22.8847 24.9484C22.824 24.6021 22.7417 24.4851 22.4585 24.2813C22.1185 24.2729 22.1185 24.2729 21.8022 24.375C21.5782 24.711 21.5864 24.8787 21.5759 25.2784C21.5705 25.4611 21.5705 25.4611 21.5649 25.6474C21.562 25.776 21.5591 25.9046 21.5562 26.0332C21.5526 26.1629 21.5489 26.2926 21.5452 26.4223C21.5363 26.7399 21.5283 27.0574 21.521 27.375C21.3481 27.3786 21.3481 27.3786 21.1716 27.3823C21.0186 27.3876 20.8655 27.393 20.7124 27.3984C20.6366 27.3998 20.5609 27.4011 20.4828 27.4025C19.9779 27.423 19.6662 27.5008 19.271 27.8438C19.07 28.1546 19.0593 28.4111 19.0577 28.777C19.0569 28.8898 19.056 29.0025 19.055 29.1186C19.0551 29.2403 19.0552 29.3619 19.0553 29.4873C19.0549 29.6144 19.0545 29.7415 19.0541 29.8686C19.0534 30.1353 19.0534 30.4019 19.0539 30.6686C19.0544 31.0073 19.0529 31.346 19.0507 31.6847C19.0493 31.9476 19.0492 32.2104 19.0495 32.4733C19.0494 32.6579 19.0481 32.8426 19.0468 33.0272C19.0546 34.5635 19.4735 35.8855 20.5509 37.0078C21.4726 37.8911 22.3259 38.2797 23.5835 38.5313C23.5835 40.2638 23.5835 41.9963 23.5835 43.7813C17.7672 43.7813 11.951 43.7813 5.9585 43.7813C5.9585 35.7684 5.9585 27.7556 5.9585 19.5C10.6693 17.1969 10.6693 17.1969 12.0788 16.5275C12.5999 16.2794 13.1199 16.0292 13.6401 15.7793C13.7437 15.7296 13.8473 15.6798 13.9541 15.6286C14.1951 15.5128 14.4362 15.397 14.6772 15.2812Z" fill="#F4F4F6"/>
<path id="Vector_3" d="M30.1479 3.42444C31.9173 4.89237 33.2705 7.00662 33.5041 9.33053C33.7248 12.3491 32.9665 14.7889 30.9965 17.0859C30.1098 18.0297 28.9754 18.6971 27.8024 19.2188C27.7191 19.2562 27.6358 19.2937 27.55 19.3323C25.3826 20.2125 22.912 20.0506 20.777 19.1895C19.7133 18.7373 18.8283 18.1015 17.9586 17.3438C17.9 17.2931 17.8414 17.2425 17.781 17.1903C16.3694 15.8779 15.2349 13.6796 15.1325 11.7424C15.1088 8.64197 15.724 6.21719 17.9117 3.94922C19.0451 2.85542 20.4569 2.0569 21.9899 1.6875C22.1043 1.65958 22.2187 1.63167 22.3367 1.60291C25.1227 0.977546 27.9031 1.68494 30.1479 3.42444Z" fill="#FCDD2F"/>
<path id="Vector_4" d="M40.646 18.5625C40.8844 18.6658 41.1226 18.7694 41.3608 18.873C41.4277 18.902 41.4945 18.9309 41.5634 18.9608C41.6292 18.9895 41.6951 19.0182 41.7629 19.0477C41.8228 19.0737 41.8827 19.0998 41.9444 19.1266C42.2025 19.2446 42.4553 19.3721 42.7085 19.5C42.7087 19.5842 42.7089 19.6684 42.7092 19.7552C42.7147 21.8028 42.7218 23.8503 42.7306 25.8979C42.7348 26.8881 42.7385 27.8783 42.741 28.8685C42.7431 29.7314 42.7463 30.5943 42.7506 31.4571C42.7528 31.9142 42.7546 32.3712 42.7551 32.8282C42.7557 33.2582 42.7576 33.6882 42.7605 34.1182C42.7613 34.2762 42.7616 34.4341 42.7615 34.5921C42.7613 34.8075 42.7629 35.0229 42.7649 35.2383C42.7653 35.359 42.7657 35.4796 42.7662 35.6039C42.8048 35.9275 42.8474 36.0599 43.0835 36.2813C43.2072 36.3122 43.331 36.3431 43.4585 36.375C43.4585 36.8391 43.4585 37.3031 43.4585 37.7813C43.2729 37.8741 43.0872 37.9669 42.896 38.0625C42.772 38.3104 42.7871 38.5014 42.783 38.779C42.7811 38.8913 42.7792 39.0036 42.7773 39.1193C42.7757 39.2377 42.7742 39.3562 42.7726 39.4783C42.7708 39.5868 42.7691 39.6954 42.7673 39.8072C42.7609 40.2139 42.7552 40.6206 42.7495 41.0273C42.736 41.9361 42.7224 42.8449 42.7085 43.7813C39.8313 43.7813 36.9541 43.7813 33.9897 43.7813C34.5957 43.0743 34.5957 43.0743 34.9331 42.7617C35.5689 42.1324 36.0892 41.4089 36.6147 40.6875C36.6565 40.6307 36.6982 40.574 36.7411 40.5155C39.7247 36.4091 40.5475 31.6553 40.5819 26.7015C40.5838 26.466 40.5858 26.2305 40.5878 25.995C40.5924 25.4423 40.5967 24.8895 40.6008 24.3367C40.6059 23.6443 40.6116 22.952 40.6172 22.2596C40.6273 21.0272 40.6368 19.7949 40.646 18.5625Z" fill="#E4E0E4"/>
<path id="Vector_5" d="M26.6771 3.18747C27.1116 3.41542 27.4191 3.67181 27.6146 4.12497C27.7985 4.99918 27.35 5.81129 27.0111 6.59176C26.9247 6.79444 26.8387 6.99731 26.7532 7.20037C26.7002 7.32584 26.6466 7.45107 26.5923 7.57601C26.4569 7.89243 26.3546 8.19062 26.3021 8.53122C26.3668 8.56852 26.4316 8.60583 26.4983 8.64426C26.7944 8.81522 27.0903 8.98669 27.3861 9.15817C27.4879 9.21684 27.5897 9.27552 27.6946 9.33597C29.2945 10.2648 29.2945 10.2648 29.4896 10.7812C29.5565 11.3423 29.5404 11.8083 29.2084 12.2812C28.7768 12.7567 28.3045 13.1817 27.8175 13.5988C27.5687 13.8225 27.3338 14.0588 27.099 14.2968C26.7551 14.6454 26.4023 14.9753 26.0297 15.2929C25.7828 15.514 25.5504 15.7485 25.3177 15.9843C24.9694 16.337 24.6148 16.6761 24.2371 16.9973C24.1008 17.1144 23.9671 17.2345 23.835 17.3562C23.7249 17.4573 23.7249 17.4573 23.6127 17.5605C23.5466 17.622 23.4805 17.6835 23.4124 17.7469C22.9951 18.0728 22.6067 18.1558 22.0834 18.0937C21.6868 17.9236 21.4038 17.7196 21.1459 17.373C20.9197 16.6238 21.0559 15.9763 21.3597 15.2746C21.391 15.199 21.4222 15.1233 21.4543 15.0453C21.5531 14.8069 21.6541 14.5695 21.7552 14.332C21.8231 14.1692 21.8909 14.0064 21.9585 13.8435C22.1234 13.447 22.2903 13.0514 22.4584 12.6562C22.3756 12.6307 22.2928 12.6053 22.2075 12.579C21.7244 12.408 21.3042 12.1434 20.8646 11.8828C20.7279 11.8039 20.7279 11.8039 20.5885 11.7235C19.3782 11.0095 19.3782 11.0095 19.1771 10.4062C19.1548 10.1934 19.1548 10.1934 19.1478 9.95505C19.1443 9.8771 19.1408 9.79915 19.1372 9.71884C19.229 9.14389 19.6901 8.74046 20.0912 8.34958C20.1412 8.30022 20.1911 8.25086 20.2426 8.2C20.5627 7.8861 20.8926 7.58789 21.2341 7.29745C21.5276 7.03519 21.8009 6.75313 22.0772 6.47309C22.3772 6.17059 22.6881 5.88941 23.0121 5.61325C23.259 5.39214 23.4913 5.15766 23.724 4.92184C24.1299 4.51103 24.5464 4.12031 24.9896 3.74997C25.0747 3.67842 25.1598 3.60688 25.2474 3.53317C25.7058 3.18941 26.1092 3.07965 26.6771 3.18747Z" fill="#040300"/>
<path id="Vector_6" d="M1.73975 45.1875C16.6516 45.1875 31.5635 45.1875 46.9272 45.1875C46.9272 45.6516 46.9272 46.1156 46.9272 46.5938C32.0154 46.5938 17.1035 46.5938 1.73975 46.5938C1.73975 46.1297 1.73975 45.6656 1.73975 45.1875Z" fill="#9A8D98"/>
<path id="Vector_7" d="M20.396 28.7812C22.9948 28.7812 25.5935 28.7812 28.271 28.7812C28.2788 29.6088 28.2865 30.4364 28.2945 31.2891C28.2979 31.548 28.3013 31.807 28.3048 32.0738C28.3059 32.2824 28.3069 32.4911 28.3076 32.6997C28.3096 32.8053 28.3115 32.9109 28.3135 33.0196C28.314 34.2159 27.9569 35.2222 27.1493 36.1084C26.2927 36.9387 25.2517 37.2484 24.0854 37.2551C22.954 37.2324 22.0475 36.6487 21.2749 35.8594C20.1892 34.4861 20.3287 33.05 20.3609 31.3711C20.3725 30.5164 20.3841 29.6618 20.396 28.7812Z" fill="#5FB6FE"/>
<path id="Vector_8" d="M13.7397 9.75C13.7418 9.83194 13.7418 9.83194 13.7439 9.91553C13.7729 10.9574 13.827 11.9634 14.0474 12.9836C14.121 13.3432 14.1668 13.698 14.2085 14.0625C14.1517 14.0897 14.095 14.1169 14.0365 14.1449C11.9537 15.1435 9.87331 16.1469 7.79511 17.1549C3.55923 19.2096 3.55923 19.2096 2.47217 19.7227C2.31645 19.7963 2.31645 19.7963 2.15759 19.8713C1.92725 19.9688 1.92725 19.9688 1.73975 19.9688C1.73975 18.7622 1.73975 17.5556 1.73975 16.3125C3.47032 15.4472 3.47032 15.4472 4.23328 15.0743C4.31898 15.0324 4.40469 14.9905 4.49299 14.9472C4.76466 14.8144 5.03637 14.6816 5.30811 14.5488C5.40155 14.5032 5.49499 14.4575 5.59127 14.4104C6.61057 13.9123 7.63014 13.4149 8.65381 12.9258C8.73281 12.8876 8.81182 12.8493 8.89322 12.81C9.34363 12.5931 9.79763 12.3887 10.2567 12.1908C10.4198 12.1182 10.4198 12.1182 10.5862 12.0442C10.7958 11.951 11.0067 11.8606 11.2188 11.7735C11.4948 11.649 11.7257 11.5377 11.9585 11.3438C12.0457 11.0982 12.0725 10.8787 12.0972 10.62C12.146 10.4062 12.146 10.4062 12.2862 10.2695C12.4706 10.1682 12.6513 10.0913 12.8491 10.0195C12.9138 9.99246 12.9784 9.96539 13.045 9.9375C13.5031 9.75 13.5031 9.75 13.7397 9.75Z" fill="#D57E49"/>
<path id="Vector_9" d="M34.9272 10.5938C35.3163 10.7161 35.6774 10.8619 36.0438 11.0405C36.1507 11.0924 36.2575 11.1442 36.3676 11.1977C36.4832 11.2542 36.5988 11.3107 36.7144 11.3672C36.8354 11.426 36.9565 11.4849 37.0775 11.5437C37.3292 11.6659 37.5808 11.7882 37.8323 11.9107C38.3614 12.1683 38.8914 12.4241 39.4214 12.6798C39.5924 12.7623 39.7634 12.8448 39.9344 12.9274C40.6476 13.2718 41.3615 13.6148 42.0757 13.957C43.0281 14.4136 43.9789 14.8733 44.9292 15.334C44.9969 15.3668 45.0646 15.3996 45.1343 15.4334C45.328 15.5273 45.5218 15.6212 45.7155 15.7152C45.7728 15.743 45.8301 15.7708 45.8892 15.7994C46.2365 15.968 46.5819 16.1398 46.9272 16.3125C46.9272 17.5191 46.9272 18.7256 46.9272 19.9688C46.5605 19.8465 46.2473 19.735 45.9059 19.5696C45.8179 19.5272 45.7299 19.4847 45.6393 19.441C45.5442 19.3948 45.4491 19.3485 45.3511 19.3008C45.2498 19.2518 45.1485 19.2029 45.0442 19.1525C44.7632 19.0166 44.4824 18.8804 44.2017 18.744C43.8882 18.5918 43.5747 18.4398 43.2611 18.2878C42.865 18.0958 42.469 17.9038 42.073 17.7115C41.2143 17.2948 40.3545 16.8807 39.4935 16.4687C38.9077 16.188 38.3231 15.905 37.739 15.6207C37.6655 15.585 37.5921 15.5492 37.5164 15.5124C37.1521 15.3351 36.7879 15.1576 36.4238 14.9799C35.7733 14.6628 35.1229 14.3498 34.4585 14.0625C34.5051 13.5966 34.5867 13.1535 34.6929 12.6973C34.8489 11.995 34.8981 11.3109 34.9272 10.5938Z" fill="#D57E49"/>
<path id="Vector_10" d="M29.2085 2.8125C31.2101 3.91561 32.6308 5.93377 33.2808 8.10352C33.9331 10.4875 33.5233 13.0042 32.4136 15.1699C31.3373 17.0354 29.7554 18.3502 27.8022 19.2188C27.719 19.2562 27.6357 19.2937 27.5499 19.3323C25.4091 20.2017 22.9809 20.0476 20.8647 19.2188C20.8647 19.1878 20.8647 19.1569 20.8647 19.125C20.9194 19.1241 20.974 19.1232 21.0303 19.1223C22.2147 19.0986 23.2955 19.0199 24.4272 18.6563C24.4888 18.6368 24.5504 18.6173 24.6138 18.5973C27.044 17.8133 29.0273 16.1716 30.2339 13.916C31.3976 11.6408 31.815 8.94213 31.024 6.47044C30.6271 5.28484 30.1214 4.19756 29.3528 3.20435C29.2085 3 29.2085 3 29.2085 2.8125Z" fill="#F7C400"/>
<path id="Vector_11" d="M26.1147 4.59375C26.2518 5.005 26.0581 5.28193 25.8895 5.65869C25.8209 5.81713 25.7522 5.97558 25.6835 6.13403C25.5742 6.38331 25.4645 6.63241 25.3545 6.88138C25.2486 7.12183 25.1442 7.36287 25.0399 7.604C25.0068 7.67766 24.9737 7.75132 24.9396 7.8272C24.7525 8.26122 24.6376 8.6127 24.7085 9.09375C24.9524 9.42473 25.2791 9.59956 25.6335 9.7998C25.7398 9.86035 25.846 9.9209 25.9554 9.98328C26.0671 10.0462 26.1788 10.109 26.2905 10.1719C26.5092 10.2956 26.7276 10.4197 26.946 10.5439C27.0428 10.5985 27.1396 10.6531 27.2393 10.7093C27.529 10.8797 27.8057 11.0611 28.0835 11.25C27.9378 11.6216 27.6796 11.8431 27.3862 12.0996C26.9893 12.4543 26.6058 12.8163 26.2319 13.1953C25.8948 13.5363 25.5507 13.8571 25.186 14.168C24.892 14.4312 24.6178 14.7138 24.3408 14.9946C24.0311 15.3068 23.7107 15.5994 23.3759 15.884C23.206 16.0335 23.0492 16.1908 22.8921 16.3535C22.646 16.5938 22.646 16.5938 22.4585 16.5938C22.6049 16.0259 22.8023 15.487 23.0338 14.9487C23.0606 14.8864 23.0874 14.8241 23.115 14.7598C23.227 14.5004 23.3396 14.2413 23.4532 13.9826C23.537 13.7914 23.6195 13.5996 23.7018 13.4077C23.7511 13.2949 23.8003 13.182 23.8511 13.0658C23.9631 12.7364 24.0162 12.5307 23.9585 12.1875C23.6714 11.8305 23.3504 11.6164 22.9511 11.399C22.8494 11.343 22.7477 11.287 22.6429 11.2293C22.5376 11.1723 22.4322 11.1153 22.3237 11.0566C21.0473 10.3593 21.0473 10.3593 20.5835 10.0312C20.7162 9.729 20.8754 9.52906 21.1108 9.29883C21.1701 9.24022 21.2293 9.1816 21.2903 9.12122C21.4818 8.94275 21.6765 8.77131 21.8748 8.60046C22.2758 8.25147 22.6489 7.87935 23.021 7.5C23.4513 7.06128 23.8883 6.64099 24.354 6.23987C24.5601 6.05954 24.7522 5.86838 24.9429 5.67188C25.3173 5.29226 25.7081 4.93836 26.1147 4.59375Z" fill="#F99437"/>
<path id="Vector_12" d="M13.7397 9.75C13.7418 9.83194 13.7418 9.83194 13.7439 9.91553C13.7729 10.9574 13.827 11.9634 14.0474 12.9836C14.121 13.3432 14.1668 13.698 14.2085 14.0625C14.1517 14.0897 14.095 14.1169 14.0365 14.1449C11.9537 15.1435 9.87331 16.1469 7.79511 17.1549C3.55923 19.2096 3.55923 19.2096 2.47217 19.7227C2.31645 19.7963 2.31645 19.7963 2.15759 19.8713C1.92725 19.9688 1.92725 19.9688 1.73975 19.9688C1.73975 19.4428 1.73975 18.9169 1.73975 18.375C3.0553 17.7354 4.3716 17.0993 5.70068 16.4883C6.75733 16.0001 7.80916 15.502 8.85739 14.996C9.02843 14.9136 9.19964 14.8316 9.37102 14.7499C10.8884 14.0259 11.9877 13.4055 12.6499 11.7773C12.8433 11.2064 12.8769 10.6304 12.896 10.0312C13.5288 9.75 13.5288 9.75 13.7397 9.75Z" fill="#C66C35"/>
<path id="Vector_13" d="M26.2085 28.7812C26.8891 28.7812 27.5697 28.7812 28.271 28.7812C28.2803 29.495 28.2871 30.2087 28.2916 30.9224C28.2935 31.1648 28.296 31.4073 28.2993 31.6496C28.3039 31.9997 28.306 32.3497 28.3076 32.6997C28.3096 32.8067 28.3115 32.9137 28.3135 33.0239C28.3138 34.2184 27.9555 35.2237 27.1493 36.1084C26.4382 36.7976 25.4954 37.2377 24.4976 37.2246C24.3721 37.2233 24.3721 37.2233 24.2441 37.222C24.1808 37.221 24.1175 37.2199 24.0522 37.2188C24.2559 37.0072 24.4535 36.8245 24.6909 36.6504C25.4656 36.0111 25.9466 34.9115 26.1147 33.9375C26.1251 33.7622 26.1312 33.5866 26.134 33.411C26.1359 33.3078 26.1377 33.2046 26.1397 33.0982C26.1412 32.9879 26.1428 32.8775 26.1444 32.7638C26.1464 32.65 26.1483 32.5362 26.1503 32.419C26.1564 32.056 26.162 31.6931 26.1675 31.3301C26.1715 31.0838 26.1756 30.8375 26.1797 30.5912C26.1898 29.9879 26.1993 29.3846 26.2085 28.7812Z" fill="#26A5FD"/>
<path id="Vector_14" d="M34.9272 10.5938C35.3163 10.7161 35.6774 10.8619 36.0438 11.0405C36.1507 11.0924 36.2575 11.1442 36.3676 11.1977C36.4832 11.2542 36.5988 11.3107 36.7144 11.3672C36.8354 11.426 36.9565 11.4849 37.0775 11.5437C37.3292 11.6659 37.5808 11.7882 37.8323 11.9107C38.3614 12.1683 38.8914 12.4241 39.4214 12.6798C39.5924 12.7623 39.7634 12.8448 39.9344 12.9274C40.6476 13.2718 41.3615 13.6148 42.0757 13.957C43.028 14.4136 43.9789 14.8733 44.9292 15.334C44.9969 15.3668 45.0646 15.3996 45.1343 15.4334C45.328 15.5273 45.5218 15.6212 45.7155 15.7152C45.7728 15.743 45.8301 15.7708 45.8892 15.7994C46.2365 15.968 46.5819 16.1398 46.9272 16.3125C46.9272 17.5191 46.9272 18.7256 46.9272 19.9688C46.5822 19.8537 46.2827 19.7522 45.9612 19.5989C45.8911 19.5656 45.821 19.5324 45.7488 19.4982C45.6775 19.464 45.6062 19.4298 45.5327 19.3945C45.4592 19.3596 45.3858 19.3247 45.3101 19.2887C45.1302 19.2032 44.9506 19.1172 44.771 19.0312C44.7753 18.936 44.7797 18.8408 44.7842 18.7427C44.8208 17.6013 44.6713 16.6905 43.9525 15.7625C43.3897 15.2336 42.6987 14.8819 42.0076 14.5507C41.9251 14.5105 41.8426 14.4704 41.7576 14.429C41.4928 14.3004 41.2276 14.1726 40.9624 14.0449C40.7793 13.9562 40.5962 13.8674 40.4131 13.7786C39.8974 13.5286 39.3811 13.2798 38.8647 13.0312C38.7414 12.9718 38.618 12.9123 38.4946 12.8529C37.9001 12.5666 37.3047 12.2825 36.7085 12C36.5338 11.9171 36.3591 11.8342 36.1844 11.7513C35.7655 11.5527 35.3464 11.3544 34.9272 11.1562C34.9272 10.9706 34.9272 10.785 34.9272 10.5938Z" fill="#C56B35"/>
<path id="Vector_15" d="M22.7397 7.78125C22.8016 7.81219 22.8635 7.84313 22.9272 7.875C22.8963 7.93688 22.8654 7.99875 22.8335 8.0625C22.7953 8.44216 22.7953 8.44216 22.8335 8.8125C23.1064 9.12745 23.4022 9.3149 23.7651 9.51526C23.8722 9.57538 23.9793 9.6355 24.0896 9.69745C24.2585 9.79136 24.4276 9.88496 24.5969 9.97817C24.7615 10.0691 24.9254 10.1613 25.0894 10.2535C25.1871 10.3076 25.2849 10.3617 25.3856 10.4174C25.6642 10.606 25.8353 10.7829 26.021 11.0625C26.0492 11.42 25.9977 11.6263 25.7792 11.9129C25.5819 12.1265 25.3767 12.3275 25.1655 12.5273C25.0954 12.5965 25.0253 12.6656 24.9531 12.7368C24.551 13.1277 24.1428 13.4688 23.6772 13.7812C23.7168 13.4977 23.7582 13.2487 23.8706 12.9844C23.9807 12.6907 24.0039 12.4989 23.9585 12.1875C23.6571 11.8435 23.351 11.6167 22.9511 11.399C22.7985 11.315 22.7985 11.315 22.6429 11.2293C22.5376 11.1723 22.4322 11.1153 22.3237 11.0566C21.0473 10.3593 21.0473 10.3593 20.5835 10.0312C20.882 9.3513 21.5473 8.87554 22.0992 8.40088C22.3235 8.20384 22.532 7.99552 22.7397 7.78125Z" fill="#FBA75A"/>
<path id="Vector_16" d="M44.8647 45.1875C45.5454 45.1875 46.226 45.1875 46.9272 45.1875C46.9272 45.6516 46.9272 46.1156 46.9272 46.5938C46.2466 46.5938 45.566 46.5938 44.8647 46.5938C44.8647 46.1297 44.8647 45.6656 44.8647 45.1875Z" fill="#918291"/>
</g>
<defs>
<clipPath id="clip0_3475_1149">
<rect width="48" height="48" fill="white" transform="translate(0.333496)"/>
</clipPath>
</defs>
</svg>
