<svg width="48" height="48" viewBox="0 0 48 48" fill="none" xmlns="http://www.w3.org/2000/svg">
<g id="Home Screen Icon" clip-path="url(#clip0_3519_1682)">
<path id="Vector" d="M11.842 1.00197C12.448 1.4947 12.7334 2.07184 12.9377 2.81251C13.0535 2.81055 13.1692 2.80858 13.2885 2.80656C13.7233 2.79971 14.1582 2.79544 14.5931 2.79191C14.7803 2.79004 14.9675 2.7875 15.1547 2.78422C16.7814 2.75652 18.0615 2.8612 19.3124 4.01661C20.0845 4.82688 20.3062 5.737 20.4225 6.81968C20.503 7.50542 20.6937 8.06292 21.1936 8.5547C21.9958 9.18086 23.1235 9.3336 24.094 9.56251C24.1017 9.49097 24.1095 9.41943 24.1174 9.34572C24.2045 9.03364 24.287 8.97466 24.5627 8.81251C25.3294 8.71198 26.1444 8.8429 26.9091 8.92567C27.0208 8.93749 27.1325 8.94931 27.2477 8.96148C27.4818 8.98647 27.7158 9.01178 27.9499 9.03739C28.3081 9.07631 28.6664 9.11337 29.0248 9.15034C29.2532 9.17495 29.4815 9.19966 29.7098 9.2245C29.8701 9.24078 29.8701 9.24078 30.0336 9.25739C30.1829 9.27425 30.1829 9.27425 30.3353 9.29145C30.4225 9.30082 30.5096 9.31018 30.5994 9.31984C30.9544 9.39992 31.2302 9.53454 31.4368 9.83912C31.6603 10.5157 31.2956 11.444 31.1396 12.1197C31.0957 12.3115 31.0538 12.5037 31.0119 12.696C30.9838 12.8191 30.9555 12.9422 30.9271 13.0653C30.9022 13.1758 30.8773 13.2863 30.8516 13.4002C30.7354 13.7296 30.6694 13.8717 30.3752 14.0625C29.6306 14.1581 29.0112 13.9243 28.3138 13.6795C28.1994 13.6404 28.0849 13.6013 27.967 13.561C27.7262 13.4787 27.4857 13.3956 27.2454 13.3118C26.938 13.2046 26.6302 13.0987 26.3221 12.9934C25.8119 12.8189 25.3019 12.6434 24.7926 12.4661C24.6578 12.4192 24.6578 12.4192 24.5202 12.3714C23.9474 12.1551 23.9474 12.1551 23.719 11.8125C23.7073 11.5137 23.7073 11.5137 23.719 11.25C23.5989 11.2396 23.4787 11.2292 23.355 11.2185C21.9132 11.0567 20.386 10.5493 19.453 9.39039C18.9104 8.60559 18.6816 7.83285 18.6213 6.89064C18.5818 6.37746 18.425 5.9833 18.1877 5.53126C18.1562 5.46359 18.1247 5.39591 18.0922 5.32618C17.9704 5.10116 17.8598 5.0665 17.6252 4.96876C17.5344 4.92042 17.4435 4.87208 17.3499 4.82228C16.8258 4.57631 16.3173 4.57559 15.7484 4.5641C15.6277 4.56118 15.6277 4.56118 15.5045 4.5582C15.2485 4.55209 14.9926 4.54655 14.7366 4.54103C14.5626 4.53698 14.3885 4.53289 14.2145 4.52876C13.7889 4.51875 13.3634 4.50924 12.9377 4.50001C12.9319 4.56189 12.9261 4.62376 12.9202 4.68751C12.8462 4.96068 12.7665 5.09124 12.6068 5.31783C12.3274 5.74788 12.3123 6.0995 12.3262 6.60243C12.3266 6.68394 12.3271 6.76544 12.3275 6.84942C12.3295 7.10738 12.3348 7.36515 12.3401 7.62306C12.3416 7.79792 12.343 7.97279 12.3441 8.14766C12.3245 8.96112 12.3245 8.96112 12.469 9.75001C12.6543 9.81877 12.8424 9.88002 13.0315 9.93751C14.9598 10.8188 16.5363 12.2741 17.3358 14.2767C17.6479 15.123 17.9174 15.9404 17.9191 16.8513C17.9195 16.9572 17.9199 17.0631 17.9203 17.1722C17.9203 17.2875 17.9203 17.4029 17.9203 17.5218C17.9206 17.6451 17.921 17.7684 17.9213 17.8954C17.9223 18.237 17.9226 18.5787 17.9229 18.9203C17.9232 19.289 17.9241 19.6577 17.925 20.0264C17.9268 20.9162 17.9278 21.8059 17.9286 22.6957C17.929 23.1149 17.9295 23.534 17.93 23.9531C17.9316 25.3462 17.9329 26.7394 17.9336 28.1326C17.9338 28.4939 17.934 28.8551 17.9342 29.2164C17.9342 29.3062 17.9343 29.396 17.9343 29.4885C17.9351 30.9442 17.9375 32.3999 17.9405 33.8556C17.9436 35.3503 17.9453 36.845 17.9456 38.3397C17.9458 39.1789 17.9466 40.0181 17.949 40.8572C17.951 41.5716 17.9518 42.2859 17.9509 43.0003C17.9505 43.3647 17.9506 43.7291 17.9525 44.0936C17.9544 44.4887 17.9535 44.8837 17.9522 45.2789C17.9532 45.394 17.9543 45.5092 17.9553 45.6278C17.9499 46.3477 17.88 46.7815 17.3785 47.3208C16.7703 47.7264 16.1341 47.6906 15.426 47.6842C15.2894 47.6847 15.1529 47.6853 15.0164 47.6862C14.6474 47.6879 14.2785 47.6867 13.9095 47.6849C13.5223 47.6834 13.1352 47.6842 12.748 47.6847C12.098 47.6851 11.448 47.6836 10.798 47.681C10.0478 47.678 9.29756 47.678 8.54731 47.6796C7.82399 47.6811 7.10069 47.6804 6.37737 47.6788C6.07026 47.6782 5.76318 47.6783 5.45607 47.679C5.09408 47.6797 4.73214 47.6786 4.37015 47.676C4.23773 47.6754 4.10531 47.6754 3.97289 47.676C3.23682 47.6794 2.68522 47.6635 2.06274 47.25C1.70951 46.8062 1.5824 46.4687 1.58167 45.9085C1.58131 45.8047 1.58095 45.7008 1.58058 45.5938C1.58066 45.4792 1.58074 45.3646 1.58083 45.2466C1.58055 45.1252 1.58027 45.0038 1.57998 44.8788C1.57923 44.5411 1.57906 44.2035 1.57899 43.8659C1.57882 43.502 1.57811 43.1381 1.57748 42.7742C1.5762 41.9778 1.57564 41.1815 1.57523 40.3851C1.57497 39.8876 1.57457 39.3901 1.57415 38.8925C1.573 37.5144 1.57204 36.1363 1.57172 34.7582C1.5717 34.6699 1.57168 34.5817 1.57166 34.4907C1.57164 34.4023 1.57162 34.3138 1.5716 34.2227C1.57156 34.0435 1.57151 33.8642 1.57147 33.685C1.57145 33.5961 1.57143 33.5071 1.57141 33.4155C1.57104 31.977 1.56941 30.5385 1.56722 29.0999C1.56499 27.6222 1.56383 26.1444 1.56372 24.6667C1.56363 23.8373 1.5631 23.008 1.56139 22.1786C1.55994 21.4719 1.55947 20.7651 1.56024 20.0584C1.56061 19.6982 1.56053 19.338 1.55921 18.9779C1.55778 18.5861 1.55857 18.1944 1.55954 17.8026C1.55879 17.6905 1.55803 17.5784 1.55725 17.463C1.57024 15.2173 2.39326 13.3356 3.93774 11.7188C4.0137 11.6323 4.0137 11.6323 4.09119 11.5441C4.81668 10.7491 5.84201 10.2186 6.81323 9.78627C7.07491 9.6304 7.11589 9.56529 7.21899 9.28126C7.24145 9.02288 7.25419 8.77413 7.25708 8.51552C7.25868 8.40382 7.25868 8.40382 7.26032 8.28988C7.26209 8.13236 7.26331 7.97484 7.26404 7.81731C7.26585 7.57855 7.27167 7.34009 7.27759 7.10139C7.28861 6.23938 7.27109 5.63195 6.65649 4.96876C6.62556 4.90689 6.59462 4.84501 6.56274 4.78126C6.52134 4.81562 6.47993 4.84998 6.43727 4.88538C5.52063 5.64522 4.6016 6.40071 3.65649 7.12501C3.56743 7.19414 3.47836 7.26326 3.3866 7.33449C3.26496 7.42512 3.26496 7.42512 3.14087 7.51759C3.07223 7.56919 3.00358 7.6208 2.93286 7.67396C2.65651 7.81261 2.46194 7.81218 2.15649 7.78126C1.90338 7.61252 1.73069 7.49216 1.59399 7.21876C1.56024 6.86101 1.54041 6.64295 1.74304 6.33876C2.01078 6.04846 2.29956 5.81611 2.61353 5.57814C2.72663 5.49131 2.83966 5.40439 2.95264 5.3174C3.00229 5.27963 3.05194 5.24186 3.1031 5.20295C3.35447 5.00506 3.59878 4.79923 3.84399 4.59376C3.69432 4.59318 3.69432 4.59318 3.54162 4.5926C3.1703 4.59055 2.79907 4.58546 2.42779 4.57946C2.2673 4.57729 2.10681 4.57594 1.94631 4.57543C1.71514 4.57456 1.48418 4.57071 1.25305 4.5663C1.18165 4.56667 1.11024 4.56703 1.03667 4.56741C0.657854 4.55708 0.487638 4.51512 0.189507 4.27358C0.00595553 4.03857 -0.0642228 3.94757 -0.0583496 3.65626C-0.0595581 3.59632 -0.0607666 3.53638 -0.0620117 3.47462C0.0374725 3.16564 0.223288 3.01877 0.468994 2.81251C0.756706 2.75614 0.756706 2.75614 1.0816 2.7593C1.26455 2.75935 1.26455 2.75935 1.45119 2.7594C1.58339 2.7618 1.71558 2.76424 1.84778 2.76674C1.98373 2.76761 2.11968 2.76828 2.25564 2.76875C2.61247 2.77053 2.96921 2.77513 3.32601 2.78033C3.69049 2.78513 4.05499 2.78726 4.41949 2.78962C5.13395 2.79464 5.84834 2.80264 6.56274 2.81251C6.58089 2.75475 6.59904 2.69698 6.61774 2.63747C6.65438 2.52367 6.65438 2.52367 6.69176 2.40757C6.71571 2.33241 6.73966 2.25724 6.76434 2.1798C7.03431 1.46455 7.76185 0.884968 8.43774 0.562512C9.56068 0.0908809 10.8584 0.334399 11.842 1.00197Z" fill="#E54C3C"/>
<path id="Vector_2" d="M35.85 14.9952C36.1819 15.1293 36.3299 15.3543 36.5275 15.6387C37.6135 17.1201 38.9502 18.2942 40.378 19.4402C41.5098 20.3537 42.3717 21.2729 42.8439 22.6875C42.8669 22.7553 42.8898 22.8231 42.9135 22.8929C43.4753 24.9207 42.5878 26.961 41.7704 28.7789C41.2963 29.8546 40.9542 30.9591 40.9396 32.1387C40.9369 32.2108 40.9342 32.2828 40.9314 32.3571C40.9254 32.8975 41.0436 33.298 41.3439 33.75C41.8989 34.2908 42.4606 34.3511 43.2035 34.3464C43.9762 34.326 44.5441 34.1268 45.1232 33.6035C45.5188 33.1752 45.7318 32.6963 45.9377 32.1563C45.9665 32.0806 45.9954 32.0049 46.0252 31.927C46.0901 31.7536 46.1546 31.5799 46.2189 31.4063C46.3127 31.3125 46.3127 31.3125 46.5998 31.3066C46.6907 31.3086 46.7815 31.3105 46.8752 31.3125C47.9801 33.2461 48.0348 35.7616 48.047 37.9336C48.048 38.0121 48.049 38.0907 48.05 38.1716C48.0633 39.5317 47.9413 40.913 47.2736 42.1289C47.2414 42.1901 47.2092 42.2513 47.176 42.3144C45.8741 44.7264 43.5416 46.1924 40.9689 46.9688C40.288 47.156 39.6 47.3054 38.9064 47.4375C38.8078 47.4564 38.8078 47.4564 38.7072 47.4756C34.9984 48.1414 30.4837 47.5681 27.3059 45.4541C25.4339 44.1447 24.0769 42.3972 23.6369 40.1309C23.2007 37.5337 23.3653 33.7501 24.6564 31.4063C24.7502 31.3125 24.7502 31.3125 25.0373 31.3066C25.1282 31.3086 25.219 31.3105 25.3127 31.3125C25.3513 31.4014 25.39 31.4904 25.4299 31.582C25.456 31.642 25.4821 31.7019 25.509 31.7637C25.5674 31.9048 25.6219 32.0475 25.673 32.1914C25.9912 33.0692 26.4279 33.7055 27.2708 34.1367C27.9581 34.4213 28.8722 34.4216 29.5926 34.255C30.0824 34.0416 30.3451 33.6655 30.5627 33.1875C31.1542 31.3714 30.0218 29.1567 29.2903 27.5306C28.5809 25.9316 28.2465 24.0613 28.8631 22.377C28.898 22.2938 28.9329 22.2107 28.9689 22.125C28.9971 22.0554 29.0252 21.9858 29.0542 21.9141C29.5499 20.8155 30.4789 20.0081 31.3973 19.2678C31.8899 18.8665 32.3705 18.4512 32.8509 18.0353C32.9829 17.9212 33.1155 17.8076 33.2481 17.6942C33.9914 17.0497 34.5753 16.3198 35.1549 15.5284C35.2173 15.4469 35.2797 15.3653 35.3439 15.2813C35.3889 15.2219 35.4338 15.1626 35.4801 15.1014C35.6252 15 35.6252 15 35.85 14.9952Z" fill="#F29C1E"/>
<path id="Vector_3" d="M5.73129 17.4717C5.8054 17.4704 5.87952 17.4691 5.95588 17.4677C6.03586 17.4687 6.11585 17.4696 6.19825 17.4706C6.28352 17.4698 6.36879 17.4689 6.45664 17.4681C6.73799 17.466 7.0192 17.4674 7.30055 17.469C7.49633 17.4687 7.69212 17.4682 7.8879 17.4676C8.29803 17.4669 8.70811 17.4679 9.11823 17.4701C9.64379 17.4728 10.1692 17.4713 10.6948 17.4685C11.099 17.4668 11.5032 17.4673 11.9074 17.4685C12.1012 17.4688 12.295 17.4684 12.4887 17.4674C12.7597 17.4662 13.0304 17.468 13.3013 17.4706C13.4213 17.4692 13.4213 17.4692 13.5436 17.4677C13.6178 17.469 13.6919 17.4704 13.7682 17.4717C13.8642 17.472 13.8642 17.472 13.962 17.4723C14.2772 17.5681 14.4223 17.7461 14.6248 18C14.6838 18.2818 14.6838 18.2818 14.6843 18.6013C14.6856 18.7228 14.6869 18.8442 14.6883 18.9693C14.6874 19.1032 14.6864 19.2372 14.6854 19.3711C14.6861 19.5126 14.6869 19.6542 14.6879 19.7957C14.69 20.1797 14.6892 20.5635 14.6877 20.9474C14.6865 21.3494 14.6876 21.7513 14.6884 22.1532C14.6892 22.8281 14.6881 23.503 14.6859 24.178C14.6833 24.9581 14.6842 25.7382 14.6867 26.5183C14.6889 27.1883 14.6892 27.8583 14.6879 28.5283C14.6872 28.9284 14.6871 29.3284 14.6887 29.7285C14.69 30.1046 14.6891 30.4807 14.6864 30.8569C14.6857 30.9949 14.6859 31.1328 14.687 31.2708C14.6882 31.4593 14.6863 31.6477 14.6843 31.8362C14.684 31.9943 14.684 31.9943 14.6838 32.1556C14.6052 32.531 14.454 32.6719 14.156 32.9062C13.9618 32.9647 13.9618 32.9647 13.7676 32.9645C13.6934 32.9656 13.6191 32.9666 13.5426 32.9677C13.4625 32.9664 13.3823 32.9652 13.2998 32.9639C13.2144 32.9644 13.129 32.965 13.0409 32.9655C12.7591 32.9666 12.4775 32.9643 12.1957 32.9619C11.9997 32.9617 11.8037 32.9618 11.6077 32.9619C11.1971 32.9618 10.7867 32.96 10.3761 32.9571C9.84976 32.9533 9.32344 32.9529 8.79705 32.9536C8.39243 32.9539 7.98782 32.9528 7.58319 32.9512C7.38909 32.9505 7.19498 32.9502 7.00087 32.9503C6.72976 32.9501 6.45871 32.9481 6.18761 32.9456C6.10729 32.9459 6.02697 32.9462 5.94422 32.9464C5.61724 32.9417 5.4007 32.9369 5.10912 32.7807C4.83441 32.4764 4.86228 32.1587 4.86034 31.7685C4.85953 31.6481 4.85872 31.5277 4.85789 31.4037C4.85748 31.27 4.85707 31.1363 4.85668 31.0025C4.85594 30.8619 4.85517 30.7213 4.85436 30.5807C4.8519 30.1189 4.85047 29.657 4.84913 29.1951C4.84863 29.0361 4.84812 28.8771 4.84762 28.7181C4.84559 28.0568 4.84383 27.3956 4.84278 26.7343C4.84125 25.7865 4.83814 24.8387 4.8328 23.8908C4.82918 23.2244 4.82734 22.558 4.82685 21.8916C4.8265 21.4935 4.82538 21.0954 4.82234 20.6974C4.81952 20.3229 4.81892 19.9485 4.82003 19.5741C4.82005 19.4367 4.81927 19.2993 4.81762 19.1619C4.8155 18.9743 4.81655 18.7867 4.81776 18.599C4.81745 18.494 4.81714 18.3891 4.81682 18.2809C4.91523 17.8038 5.23096 17.4731 5.73129 17.4717Z" fill="#BDC2C6"/>
<path id="Vector_4" d="M11.842 1.00197C12.448 1.4947 12.7334 2.07184 12.9377 2.81251C13.0535 2.81055 13.1692 2.80858 13.2885 2.80656C13.7233 2.79971 14.1582 2.79544 14.5931 2.79191C14.7803 2.79004 14.9675 2.7875 15.1547 2.78422C16.7814 2.75652 18.0615 2.8612 19.3124 4.01661C20.0845 4.82688 20.3062 5.737 20.4225 6.81968C20.503 7.50542 20.6937 8.06292 21.1936 8.5547C21.9958 9.18086 23.1235 9.3336 24.094 9.56251C24.1017 9.49097 24.1095 9.41943 24.1174 9.34571C24.2045 9.03364 24.287 8.97466 24.5627 8.81251C25.3294 8.71198 26.1444 8.8429 26.9091 8.92567C27.0208 8.93749 27.1325 8.94931 27.2477 8.96148C27.4818 8.98647 27.7158 9.01178 27.9499 9.03739C28.3081 9.07631 28.6664 9.11336 29.0248 9.15034C29.2532 9.17495 29.4815 9.19966 29.7098 9.2245C29.8701 9.24078 29.8701 9.24078 30.0336 9.25739C30.1829 9.27425 30.1829 9.27425 30.3353 9.29145C30.4225 9.30082 30.5096 9.31018 30.5994 9.31984C30.9544 9.39992 31.2302 9.53454 31.4368 9.83912C31.6603 10.5157 31.2956 11.444 31.1396 12.1197C31.0957 12.3115 31.0538 12.5037 31.0119 12.696C30.9838 12.8191 30.9555 12.9422 30.9271 13.0653C30.9022 13.1758 30.8773 13.2863 30.8516 13.4002C30.7354 13.7296 30.6694 13.8717 30.3752 14.0625C29.6306 14.1581 29.0112 13.9243 28.3138 13.6795C28.1994 13.6404 28.0849 13.6013 27.967 13.561C27.7262 13.4787 27.4857 13.3956 27.2454 13.3118C26.938 13.2046 26.6302 13.0987 26.3221 12.9934C25.8119 12.8189 25.3019 12.6434 24.7926 12.4661C24.6578 12.4192 24.6578 12.4192 24.5202 12.3714C23.9474 12.1551 23.9474 12.1551 23.719 11.8125C23.7073 11.5137 23.7073 11.5137 23.719 11.25C23.5989 11.2396 23.4787 11.2292 23.355 11.2185C21.9132 11.0567 20.386 10.5493 19.453 9.39039C18.9104 8.60559 18.6816 7.83285 18.6213 6.89064C18.5818 6.37746 18.425 5.9833 18.1877 5.53126C18.1562 5.46359 18.1247 5.39591 18.0922 5.32618C17.9704 5.10116 17.8598 5.0665 17.6252 4.96876C17.5344 4.92042 17.4435 4.87208 17.3499 4.82228C16.8258 4.57631 16.3173 4.57559 15.7484 4.5641C15.6277 4.56118 15.6277 4.56118 15.5045 4.5582C15.2485 4.55209 14.9926 4.54655 14.7366 4.54103C14.5626 4.53698 14.3885 4.53289 14.2145 4.52876C13.7889 4.51875 13.3634 4.50924 12.9377 4.50001C12.924 4.57357 12.9102 4.64713 12.896 4.72292C12.7363 5.47779 12.132 6.02911 11.5315 6.46876C10.7202 6.92576 9.84489 7.07449 8.92773 6.88331C7.90368 6.56055 7.1557 5.89343 6.64954 4.95668C6.60657 4.86985 6.60657 4.86985 6.56274 4.78126C6.52134 4.81562 6.47993 4.84998 6.43727 4.88538C5.52063 5.64522 4.6016 6.40071 3.65649 7.12501C3.56743 7.19414 3.47836 7.26326 3.3866 7.33448C3.26496 7.42512 3.26496 7.42512 3.14087 7.51759C3.07223 7.56919 3.00358 7.6208 2.93286 7.67396C2.65651 7.81261 2.46194 7.81218 2.15649 7.78126C1.90338 7.61252 1.73069 7.49216 1.59399 7.21876C1.56024 6.86101 1.54041 6.64295 1.74304 6.33876C2.01078 6.04846 2.29956 5.81611 2.61353 5.57814C2.72663 5.49131 2.83966 5.40439 2.95264 5.3174C3.00229 5.27963 3.05194 5.24186 3.1031 5.20295C3.35447 5.00506 3.59878 4.79923 3.84399 4.59376C3.69432 4.59318 3.69432 4.59318 3.54162 4.5926C3.1703 4.59055 2.79907 4.58546 2.42779 4.57946C2.2673 4.57729 2.10681 4.57593 1.94631 4.57543C1.71514 4.57456 1.48418 4.57071 1.25305 4.5663C1.18165 4.56667 1.11024 4.56703 1.03667 4.56741C0.657854 4.55708 0.487638 4.51512 0.189507 4.27358C0.00595553 4.03857 -0.0642228 3.94757 -0.0583496 3.65626C-0.0595581 3.59632 -0.0607666 3.53638 -0.0620117 3.47462C0.0374725 3.16564 0.223288 3.01877 0.468994 2.81251C0.756706 2.75614 0.756706 2.75614 1.0816 2.7593C1.26455 2.75935 1.26455 2.75935 1.45119 2.7594C1.58339 2.7618 1.71558 2.76424 1.84778 2.76674C1.98373 2.76761 2.11968 2.76828 2.25564 2.76875C2.61247 2.77053 2.96921 2.77513 3.32601 2.78033C3.69049 2.78513 4.05499 2.78726 4.41949 2.78962C5.13395 2.79464 5.84834 2.80264 6.56274 2.81251C6.58089 2.75475 6.59904 2.69698 6.61774 2.63747C6.65438 2.52367 6.65438 2.52367 6.69176 2.40757C6.71571 2.33241 6.73966 2.25724 6.76434 2.1798C7.03431 1.46455 7.76185 0.884968 8.43774 0.562512C9.56068 0.0908809 10.8584 0.334399 11.842 1.00197Z" fill="#BCC2C6"/>
<path id="Vector_5" d="M36.8441 35.4375C38.3696 35.9992 39.4405 37.0181 40.1546 38.4726C40.8897 40.1791 40.9258 42.1452 40.2649 43.8874C39.6697 45.3609 38.7411 46.7065 37.2462 47.3613C36.2692 47.7306 35.3382 47.7701 34.3656 47.3686C33.9762 47.1763 33.6275 46.9492 33.2816 46.6875C33.2238 46.6452 33.166 46.6029 33.1065 46.5593C31.9618 45.6587 31.2267 44.0514 30.9799 42.6427C30.8558 41.5772 30.7197 40.2275 31.3128 39.2812C31.6618 39.0486 31.9398 39.0535 32.3441 39.0937C32.435 39.1247 32.5258 39.1556 32.6195 39.1875C33.2616 39.3972 33.8464 39.3124 34.4597 39.0436C34.948 38.7496 35.323 38.3262 35.5503 37.8043C35.6583 37.3661 35.6557 36.9362 35.6537 36.4865C35.6641 36.1097 35.695 35.9408 35.9165 35.6224C36.2625 35.3866 36.4317 35.3804 36.8441 35.4375Z" fill="#F0C319"/>
<path id="Vector_6" d="M1.59443 42.75C6.97756 42.75 12.3607 42.75 17.9069 42.75C17.9069 46.753 17.9069 46.753 17.3789 47.3208C16.7707 47.7264 16.1345 47.6905 15.4264 47.6842C15.2899 47.6846 15.1534 47.6853 15.0169 47.6862C14.6478 47.6879 14.2789 47.6867 13.9099 47.6849C13.5227 47.6833 13.1356 47.6842 12.7485 47.6846C12.0984 47.6851 11.4485 47.6836 10.7985 47.681C10.0482 47.678 9.298 47.678 8.54775 47.6796C7.82443 47.6811 7.10113 47.6804 6.3778 47.6788C6.0707 47.6782 5.76361 47.6783 5.45651 47.679C5.09452 47.6797 4.73257 47.6785 4.37059 47.676C4.23817 47.6753 4.10575 47.6753 3.97333 47.676C3.23725 47.6793 2.68566 47.6635 2.06318 47.25C1.01472 45.9327 1.59443 44.6709 1.59443 42.75Z" fill="#C0392B"/>
<path id="Vector_7" d="M12.1875 5.8125C12.2184 5.8125 12.2494 5.8125 12.2813 5.8125C12.2836 5.92179 12.2859 6.03107 12.2884 6.14367C12.2972 6.54885 12.3066 6.95401 12.3162 7.35917C12.3202 7.53458 12.3241 7.71 12.3279 7.88541C12.3333 8.13745 12.3393 8.38946 12.3453 8.64148C12.3469 8.72 12.3485 8.79853 12.3501 8.87943C12.358 9.19094 12.3696 9.45258 12.4688 9.75C12.654 9.81876 12.8422 9.88001 13.0313 9.9375C14.2796 10.5081 15.5199 11.3188 16.3125 12.4688C16.3125 12.5306 16.3125 12.5925 16.3125 12.6563C12.0122 12.6563 7.71187 12.6563 3.28125 12.6563C3.39122 12.2164 3.59643 12.0094 3.9082 11.7012C3.98958 11.6205 3.98958 11.6205 4.07261 11.5382C4.87417 10.7679 5.79952 10.2374 6.81299 9.78626C7.07493 9.63023 7.11569 9.5657 7.21875 9.28125C7.24089 9.02022 7.25363 8.76763 7.25757 8.50635C7.25938 8.43197 7.2612 8.35759 7.26307 8.28095C7.26866 8.04408 7.27302 7.80721 7.27734 7.57031C7.28092 7.40942 7.28459 7.24853 7.28833 7.08765C7.29732 6.69386 7.3052 6.30007 7.3125 5.90625C7.57248 6.06215 7.83229 6.21832 8.0918 6.375C8.94919 6.8544 9.7309 6.99089 10.6992 6.73828C11.263 6.55004 11.7673 6.2327 12.1875 5.8125Z" fill="#C03A2B"/>
<path id="Vector_8" d="M26.909 8.92566C27.0208 8.93748 27.1325 8.9493 27.2476 8.96147C27.4817 8.98646 27.7158 9.01177 27.9498 9.03738C28.308 9.0763 28.6664 9.11335 29.0248 9.15033C29.2532 9.17494 29.4815 9.19965 29.7098 9.22449C29.8166 9.23534 29.9235 9.24619 30.0336 9.25738C30.1331 9.26862 30.2327 9.27986 30.3353 9.29144C30.4224 9.30081 30.5096 9.31017 30.5994 9.31983C30.9544 9.39991 31.2301 9.53453 31.4367 9.83911C31.6602 10.5157 31.2956 11.4439 31.1396 12.1197C31.0957 12.3115 31.0538 12.5037 31.0119 12.696C30.9837 12.8191 30.9555 12.9422 30.9271 13.0653C30.9022 13.1758 30.8772 13.2863 30.8515 13.4001C30.7354 13.7296 30.6694 13.8717 30.3752 14.0625C29.6306 14.1581 29.0112 13.9243 28.3138 13.6794C28.1994 13.6404 28.0849 13.6013 27.967 13.561C27.7262 13.4787 27.4857 13.3956 27.2454 13.3118C26.938 13.2046 26.6301 13.0987 26.3221 12.9934C25.8118 12.8189 25.3019 12.6434 24.7926 12.4661C24.7027 12.4348 24.6128 12.4036 24.5202 12.3714C23.9473 12.155 23.9473 12.155 23.719 11.8125C23.6673 11.2444 23.7775 10.7643 23.9266 10.2166C24.0095 9.90225 24.068 9.58696 24.12 9.26624C24.4671 8.38242 26.1881 8.84762 26.909 8.92566Z" fill="#55585D"/>
<path id="Vector_9" d="M12.9375 2.81249C13.4894 2.80382 14.041 2.79637 14.5929 2.79189C14.7801 2.79002 14.9673 2.78747 15.1545 2.7842C16.7811 2.7565 18.0613 2.86118 19.3121 4.01659C20.0842 4.82685 20.306 5.73698 20.4222 6.81966C20.5027 7.5054 20.6934 8.0629 21.1934 8.55468C21.9955 9.18084 23.1233 9.33357 24.0938 9.56249C24.0458 10.1671 23.9275 10.6819 23.7188 11.25C22.2259 11.1208 20.6623 10.6952 19.6055 9.58007C18.9553 8.77243 18.6863 7.91021 18.6211 6.89062C18.5815 6.37744 18.4247 5.98328 18.1875 5.53124C18.156 5.46357 18.1244 5.39589 18.0919 5.32616C17.9702 5.10114 17.8596 5.06648 17.625 4.96874C17.5341 4.9204 17.4432 4.87206 17.3496 4.82226C16.8256 4.57628 16.3171 4.57557 15.7482 4.56408C15.6677 4.56213 15.5872 4.56018 15.5043 4.55817C15.2483 4.55207 14.9923 4.54653 14.7363 4.54101C14.5623 4.53696 14.3883 4.53287 14.2143 4.52874C13.7887 4.51866 13.3631 4.50934 12.9375 4.49999C12.9375 3.94312 12.9375 3.38624 12.9375 2.81249Z" fill="#7E8C8D"/>
<path id="Vector_10" d="M1.0816 2.75927C1.26455 2.75932 1.26455 2.75932 1.45119 2.75938C1.58339 2.76177 1.71558 2.76422 1.84778 2.76671C1.98373 2.76758 2.11968 2.76825 2.25564 2.76872C2.61247 2.7705 2.96921 2.7751 3.32601 2.7803C3.69049 2.78511 4.05499 2.78724 4.41949 2.7896C5.13395 2.79462 5.84834 2.80261 6.56274 2.81249C6.59383 3.11285 6.61856 3.41343 6.64221 3.71446C6.65105 3.79913 6.65989 3.8838 6.669 3.97103C6.71315 4.58929 6.71315 4.58929 6.55298 4.86689C6.33242 5.11337 6.078 5.32021 5.7948 5.49022C5.49457 5.67927 5.21959 5.88541 4.94402 6.10859C4.67456 6.32682 4.39941 6.53771 4.12524 6.74999C4.06802 6.79447 4.0108 6.83896 3.95184 6.8848C3.78325 7.01586 3.61445 7.14666 3.44556 7.27733C3.36833 7.33725 3.36833 7.33725 3.28955 7.39839C2.88652 7.70878 2.67498 7.83207 2.15649 7.78124C1.90338 7.61249 1.73069 7.49213 1.59399 7.21874C1.56024 6.86099 1.54041 6.64293 1.74304 6.33873C2.01078 6.04843 2.29956 5.81609 2.61353 5.57811C2.72663 5.49128 2.83966 5.40437 2.95264 5.31737C3.00229 5.2796 3.05194 5.24184 3.1031 5.20293C3.35447 5.00503 3.59878 4.79921 3.84399 4.59374C3.69432 4.59316 3.69432 4.59316 3.54162 4.59257C3.1703 4.59052 2.79907 4.58543 2.42779 4.57943C2.2673 4.57726 2.10681 4.57591 1.94631 4.5754C1.71514 4.57453 1.48418 4.57068 1.25305 4.56627C1.18165 4.56664 1.11024 4.56701 1.03667 4.56739C0.657854 4.55706 0.487638 4.51509 0.189507 4.27355C0.00595553 4.03855 -0.0642228 3.94755 -0.0583496 3.65624C-0.0595581 3.59629 -0.0607666 3.53635 -0.0620117 3.4746C0.119936 2.90949 0.533034 2.75395 1.0816 2.75927Z" fill="#7E8284"/>
<path id="Vector_11" d="M5.672 35.2846C5.76993 35.2839 5.86786 35.2832 5.96877 35.2825C6.29176 35.281 6.61463 35.2828 6.93762 35.2848C7.16248 35.2847 7.38733 35.2845 7.61218 35.2841C8.08315 35.2838 8.55407 35.2852 9.02502 35.2878C9.62843 35.291 10.2318 35.2904 10.8352 35.2887C11.2994 35.2877 11.7636 35.2885 12.2278 35.2899C12.4503 35.2904 12.6728 35.2903 12.8952 35.2898C13.2063 35.2892 13.5172 35.2912 13.8282 35.2937C13.92 35.2931 14.0118 35.2925 14.1063 35.2919C14.6501 35.2995 14.9601 35.3579 15.3751 35.7187C15.5089 35.9862 15.498 36.172 15.4689 36.4687C15.2672 36.7816 15.1685 36.9126 14.8126 37.0312C14.6733 37.0405 14.5336 37.0447 14.394 37.0457C14.2655 37.0469 14.2655 37.0469 14.1343 37.0481C13.9936 37.0487 13.9936 37.0487 13.8501 37.0493C13.7511 37.0501 13.6522 37.0509 13.5502 37.0516C13.2222 37.054 12.8943 37.0555 12.5663 37.0569C12.4544 37.0574 12.3425 37.0579 12.2272 37.0584C11.6352 37.0609 11.0432 37.0627 10.4512 37.0641C9.83909 37.0656 9.227 37.0698 8.61488 37.0746C8.14471 37.0777 7.67456 37.0788 7.20438 37.0794C6.97868 37.08 6.75299 37.0814 6.52731 37.0837C6.21172 37.0866 5.89627 37.0866 5.58067 37.0859C5.48725 37.0875 5.39382 37.089 5.29756 37.0906C4.85683 37.0866 4.65993 37.0823 4.30192 36.8055C4.13273 36.5729 4.05896 36.4699 4.06067 36.1875C4.05837 36.1275 4.05608 36.0676 4.05371 36.0058C4.3254 35.2702 5.00666 35.2766 5.672 35.2846Z" fill="#D1CFCB"/>
<path id="Vector_12" d="M5.34417 4.46486C5.52018 4.46866 5.52018 4.46866 5.69976 4.47255C5.98765 4.47914 6.2752 4.48836 6.56292 4.50001C6.56292 4.78126 6.56292 4.78126 6.43744 4.91731C6.34982 4.98773 6.34982 4.98773 6.26043 5.05958C6.19524 5.11263 6.13005 5.16567 6.06288 5.22033C5.99199 5.27653 5.92111 5.33273 5.84807 5.39064C5.77592 5.44883 5.70376 5.50703 5.62942 5.56699C5.41004 5.74347 5.18969 5.9187 4.96917 6.09376C4.84745 6.19127 4.72574 6.28881 4.60406 6.38636C4.29097 6.63622 3.9746 6.88135 3.65667 7.12501C3.5676 7.19414 3.47854 7.26326 3.38677 7.33448C3.30568 7.39491 3.22459 7.45533 3.14104 7.51759C3.03808 7.59499 3.03808 7.59499 2.93303 7.67396C2.65668 7.81261 2.46211 7.81218 2.15667 7.78126C1.90355 7.61252 1.73087 7.49216 1.59417 7.21876C1.56036 6.86042 1.54052 6.64279 1.74395 6.33839C2.00837 6.05118 2.29218 5.82002 2.60198 5.584C2.6566 5.54164 2.71123 5.49928 2.76751 5.45564C2.8801 5.3686 2.9936 5.28271 3.1079 5.19792C3.28492 5.06471 3.28492 5.06471 3.44518 4.90586C4.02291 4.38505 4.59667 4.43407 5.34417 4.46486Z" fill="#55585D"/>
</g>
<defs>
<clipPath id="clip0_3519_1682">
<rect width="48" height="48" fill="white"/>
</clipPath>
</defs>
</svg>
