<svg width="49" height="48" viewBox="0 0 49 48" fill="none" xmlns="http://www.w3.org/2000/svg">
<g id="Home Screen Icon">
<path id="Vector" d="M10.7275 2.18552C11.7249 2.93676 12.4187 3.81443 12.6669 5.06248C12.8065 6.44805 12.6667 7.65305 11.8085 8.78941C11.0016 9.77241 10.1641 10.2389 8.91693 10.5C8.91693 10.995 8.91693 11.49 8.91693 12C9.30391 11.9994 9.69021 11.9949 10.0771 11.9883C10.2397 11.9886 10.2397 11.9886 10.4056 11.989C11.0896 11.9735 11.5332 11.871 12.0951 11.473C12.6605 11.1015 13.5142 11.186 14.1669 11.25C14.5771 11.3533 14.9482 11.4871 15.2681 11.7694C15.5404 11.9457 15.7265 11.9463 16.0493 11.9542C16.2124 11.9592 16.2124 11.9592 16.3788 11.9643C16.492 11.9664 16.6051 11.9685 16.7216 11.9707C16.8362 11.9739 16.9508 11.9771 17.0688 11.9804C17.3515 11.9881 17.6342 11.9942 17.9169 12C17.9169 11.505 17.9169 11.01 17.9169 10.5C17.7971 10.4787 17.6772 10.4574 17.5537 10.4355C16.3221 10.1541 15.3597 9.36149 14.68 8.30894C14.0625 7.20663 14.0036 5.9538 14.2288 4.72483C14.5909 3.51167 15.4551 2.51306 16.5513 1.90208C17.6427 1.35391 19.0548 1.29464 20.2255 1.64646C21.4277 2.128 22.3458 3.01469 22.904 4.16929C23.3478 5.27271 23.3597 6.71171 22.9164 7.81821C22.3836 8.86362 21.6148 9.72077 20.5419 10.2187C20.168 10.3361 19.8014 10.4195 19.4169 10.5C19.4169 10.995 19.4169 11.49 19.4169 12C19.5479 11.9956 19.6789 11.9913 19.8139 11.9868C19.9863 11.9833 20.1586 11.9799 20.331 11.9765C20.4173 11.9734 20.5036 11.9703 20.5925 11.967C21.2239 11.9579 21.2239 11.9579 21.538 12.1523C21.7837 12.5766 21.6877 13.022 21.6669 13.5C22.1619 13.5 22.6569 13.5 23.1669 13.5C23.1669 13.995 23.1669 14.49 23.1669 15C22.6719 15 22.1769 15 21.6669 15C21.6747 15.1779 21.6824 15.3558 21.6904 15.539C21.7132 16.0644 21.7132 16.0644 21.5124 16.3274C21.2317 16.5471 21.0815 16.5458 20.7277 16.5437C20.6138 16.5441 20.4999 16.5444 20.3825 16.5447C20.2596 16.5434 20.1368 16.542 20.0102 16.5406C19.8822 16.5408 19.7542 16.5413 19.6262 16.542C19.152 16.544 18.6778 16.5424 18.2035 16.5399C17.8029 16.5379 17.4024 16.5378 17.0018 16.5402C16.8149 16.5406 16.6279 16.5383 16.441 16.5359C15.7224 16.5399 15.2956 16.6216 14.7294 17.0625C14.5753 17.1299 14.4198 17.1953 14.2607 17.25C14.3605 17.6005 14.3605 17.6005 14.631 17.826C15.0431 17.9416 15.439 17.9352 15.8652 17.9361C15.9603 17.9371 16.0555 17.938 16.1535 17.939C16.4675 17.9419 16.7815 17.9435 17.0955 17.945C17.3134 17.9468 17.5314 17.9486 17.7493 17.9505C18.3225 17.9554 18.8957 17.9591 19.4688 17.9626C20.0539 17.9663 20.639 17.9711 21.224 17.9758C22.3716 17.9849 23.5193 17.9928 24.6669 18C24.6653 17.9034 24.6637 17.8067 24.662 17.7072C24.6607 17.5792 24.6594 17.4512 24.6581 17.3232C24.6564 17.2279 24.6564 17.2279 24.6546 17.1307C24.6499 16.4893 24.7797 16.1185 25.2173 15.6599C25.7838 15.1352 26.2167 14.9689 26.9931 14.9883C27.0581 14.9891 27.123 14.9899 27.1899 14.9908C27.349 14.993 27.5079 14.9964 27.6669 15C27.665 14.9451 27.663 14.8903 27.661 14.8338C27.6532 14.5845 27.6483 14.3353 27.6435 14.0859C27.6388 13.9565 27.6388 13.9565 27.634 13.8244C27.6328 13.7411 27.6316 13.6577 27.6303 13.5718C27.6283 13.4952 27.6264 13.4186 27.6244 13.3397C27.6839 13.0396 27.8053 12.9403 28.0419 12.75C28.3006 12.7049 28.3006 12.7049 28.6009 12.7074C28.7135 12.7074 28.826 12.7075 28.942 12.7075C29.0631 12.7094 29.1842 12.7114 29.309 12.7134C29.4346 12.7141 29.5602 12.7146 29.6858 12.715C30.0156 12.7164 30.3454 12.7201 30.6752 12.7242C31.012 12.7281 31.3489 12.7298 31.6857 12.7317C32.3462 12.7357 33.0065 12.7423 33.6669 12.75C33.6669 12.255 33.6669 11.76 33.6669 11.25C32.4294 11.25 31.1919 11.25 29.9169 11.25C29.9169 10.755 29.9169 10.26 29.9169 9.74998C30.6043 9.74071 31.2917 9.7339 31.9792 9.72938C32.2131 9.72749 32.4469 9.72493 32.6808 9.72169C33.0169 9.71714 33.3528 9.71501 33.6889 9.71336C33.7936 9.71142 33.8983 9.70949 34.0062 9.70749C34.1038 9.70746 34.2013 9.70743 34.3019 9.70741C34.3876 9.70657 34.4734 9.70574 34.5618 9.70488C34.8718 9.76562 34.9804 9.873 35.1669 10.125C35.212 10.3551 35.212 10.3551 35.2095 10.6151C35.2095 10.7614 35.2095 10.7614 35.2094 10.9107C35.2075 11.0154 35.2055 11.1201 35.2036 11.228C35.203 11.3357 35.2025 11.4434 35.2019 11.5543C35.1998 11.8982 35.1951 12.242 35.1904 12.5859C35.1885 12.8191 35.1868 13.0522 35.1852 13.2854C35.1811 13.8569 35.1748 14.4285 35.1669 15C35.2636 14.9983 35.3602 14.9967 35.4597 14.995C35.5877 14.9937 35.7157 14.9924 35.8437 14.9912C35.9072 14.99 35.9708 14.9888 36.0362 14.9876C36.6776 14.9829 37.0484 15.1128 37.507 15.5504C38.0296 16.1146 38.1979 16.5522 38.1787 17.3261C38.1778 17.3911 38.177 17.4561 38.1761 17.523C38.1739 17.682 38.1705 17.841 38.1669 18C38.2581 17.9991 38.3492 17.9983 38.4431 17.9975C39.3037 17.9898 40.1644 17.9842 41.025 17.9805C41.4675 17.9786 41.9099 17.9759 42.3523 17.9717C42.7796 17.9676 43.207 17.9654 43.6343 17.9644C43.797 17.9637 43.9596 17.9624 44.1223 17.9603C44.3509 17.9576 44.5795 17.9572 44.8082 17.9574C44.908 17.9554 44.908 17.9554 45.0099 17.9533C45.6113 17.9582 46.0861 18.1672 46.5334 18.5592C46.5839 18.6202 46.6344 18.6812 46.6865 18.7441C46.7384 18.8049 46.7904 18.8657 46.8439 18.9283C47.1649 19.3942 47.1942 19.8251 47.192 20.3782C47.1924 20.457 47.1929 20.5357 47.1933 20.6168C47.1945 20.8805 47.1943 21.1442 47.1942 21.4079C47.1947 21.597 47.1954 21.7861 47.1961 21.9752C47.1977 22.4889 47.1982 23.0026 47.1983 23.5163C47.1985 23.9452 47.1992 24.3741 47.1998 24.803C47.2014 25.815 47.2018 26.8271 47.2017 27.8391C47.2016 28.8828 47.2035 29.9265 47.2065 30.9702C47.209 31.8665 47.21 32.7627 47.2098 33.659C47.2098 34.1942 47.2103 34.7294 47.2123 35.2647C47.2141 35.7681 47.2141 36.2716 47.2128 36.7751C47.2126 36.9597 47.213 37.1442 47.2142 37.3288C47.2156 37.5813 47.2147 37.8336 47.2133 38.086C47.2143 38.1587 47.2152 38.2313 47.2162 38.3061C47.2085 38.9203 47.0135 39.4034 46.6077 39.8664C46.5467 39.9169 46.4857 39.9675 46.4228 40.0195C46.362 40.0715 46.3012 40.1234 46.2386 40.177C45.7966 40.4815 45.4235 40.5227 44.8917 40.5183C44.7959 40.5179 44.7959 40.5179 44.6982 40.5175C44.4957 40.5164 44.2932 40.5141 44.0908 40.5117C43.9529 40.5108 43.815 40.5099 43.6771 40.5091C43.3404 40.5071 43.0037 40.5038 42.6669 40.5C42.6689 40.5775 42.6709 40.6551 42.6729 40.735C42.6807 41.0863 42.6856 41.4376 42.6904 41.789C42.6935 41.9111 42.6967 42.0332 42.6999 42.1589C42.7011 42.2761 42.7023 42.3934 42.7036 42.5141C42.7055 42.6221 42.7075 42.7302 42.7095 42.8414C42.6669 43.125 42.6669 43.125 42.5166 43.3484C42.2164 43.551 42.021 43.5429 41.6606 43.5366C41.5391 43.5354 41.4177 43.5342 41.2925 43.5329C41.1647 43.5298 41.0369 43.5266 40.9091 43.5234C40.7799 43.5215 40.6506 43.5198 40.5213 43.5183C40.2052 43.5139 39.8892 43.5077 39.5732 43.5C39.5451 43.5889 39.517 43.6778 39.4881 43.7694C39.322 44.2447 38.987 44.5572 38.5635 44.8227C38.1477 45.0217 37.9059 45 37.4169 45C37.4169 45.495 37.4169 45.99 37.4169 46.5C36.9219 46.5 36.4269 46.5 35.9169 46.5C35.9169 46.005 35.9169 45.51 35.9169 45C27.9969 45 20.0769 45 11.9169 45C11.9169 45.495 11.9169 45.99 11.9169 46.5C11.4219 46.5 10.9269 46.5 10.4169 46.5C10.4169 46.005 10.4169 45.51 10.4169 45C10.2004 45 9.98381 45 9.76068 45C9.14325 44.8324 8.70949 44.3903 8.35443 43.875C8.14472 43.4632 8.14007 43.074 8.14186 42.6217C8.14144 42.543 8.14101 42.4643 8.14057 42.3831C8.13939 42.1194 8.13954 41.8558 8.1397 41.5921C8.13914 41.403 8.1385 41.2138 8.13779 41.0247C8.13613 40.511 8.13569 39.9973 8.13557 39.4836C8.13539 39.0547 8.1347 38.6258 8.13404 38.1969C8.13251 37.1849 8.13206 36.1729 8.13219 35.1609C8.1323 34.1172 8.13032 33.0735 8.12736 32.0297C8.12491 31.1335 8.1239 30.2372 8.12402 29.3409C8.12407 28.8057 8.12354 28.2705 8.12155 27.7353C8.11974 27.2318 8.11972 26.7283 8.12109 26.2249C8.12128 26.0403 8.12084 25.8557 8.11971 25.6711C8.11826 25.4187 8.11913 25.1664 8.12058 24.9139C8.11961 24.8413 8.11865 24.7687 8.11765 24.6938C8.12539 24.0796 8.32037 23.5966 8.72614 23.1335C8.78717 23.083 8.8482 23.0325 8.91107 22.9804C8.97186 22.9285 9.03265 22.8765 9.09528 22.823C9.53564 22.5196 9.9101 22.4767 10.4399 22.4774C10.5073 22.4773 10.5747 22.4771 10.6441 22.4769C10.8694 22.4766 11.0947 22.4777 11.3199 22.4787C11.4816 22.4787 11.6434 22.4787 11.8051 22.4786C12.2437 22.4786 12.6824 22.4797 13.1211 22.481C13.5797 22.4821 14.0382 22.4822 14.4968 22.4825C15.365 22.4831 16.2333 22.4846 17.1015 22.4865C18.09 22.4886 19.0785 22.4896 20.067 22.4905C22.1003 22.4925 24.1336 22.4958 26.1669 22.5C26.1669 21.974 26.1669 21.4481 26.1669 20.9062C25.8885 20.8134 25.8885 20.8134 25.6044 20.7187C25.4125 20.5766 25.4125 20.5766 25.2529 20.414C25.1724 20.335 25.1724 20.335 25.0903 20.2544C24.9147 20.0173 24.8489 19.7798 24.7607 19.5C24.7073 19.5003 24.6538 19.5007 24.5988 19.501C23.2967 19.5093 21.9946 19.5155 20.6925 19.5194C20.0627 19.5213 19.433 19.524 18.8033 19.5283C18.1955 19.5323 17.5876 19.5346 16.9798 19.5356C16.748 19.5362 16.5163 19.5376 16.2845 19.5396C15.9596 19.5424 15.6347 19.5427 15.3097 19.5425C15.2142 19.5439 15.1187 19.5452 15.0203 19.5466C14.3287 19.5426 13.8257 19.401 13.3005 18.9408C12.7943 18.3292 12.64 17.9496 12.6669 17.1562C12.5896 17.1504 12.5122 17.1446 12.4326 17.1386C12.1145 17.0648 12.0344 17.0165 11.7921 16.8267C11.2415 16.4751 10.6565 16.5326 10.0229 16.5406C9.89454 16.5403 9.76619 16.5398 9.63785 16.539C9.23346 16.5371 8.82913 16.5389 8.42475 16.541C7.95451 16.543 7.48435 16.5434 7.01412 16.5409C6.82654 16.5406 6.63896 16.5427 6.45139 16.5447C6.33747 16.5444 6.22355 16.5441 6.10617 16.5437C5.95593 16.5446 5.95593 16.5446 5.80265 16.5455C5.47623 16.4885 5.36582 16.3855 5.16693 16.125C5.11756 15.7438 5.15015 15.3861 5.16693 15C4.67193 15 4.17693 15 3.66693 15C3.66693 14.505 3.66693 14.01 3.66693 13.5C4.16193 13.5 4.65693 13.5 5.16693 13.5C5.1592 13.3221 5.15146 13.1442 5.1435 12.9609C5.12914 12.6307 5.12936 12.4399 5.29584 12.1523C5.6823 11.9131 6.0586 11.9604 6.50287 11.9765C6.59061 11.9782 6.67834 11.9799 6.76874 11.9817C6.98485 11.9861 7.2009 11.9928 7.41693 12C7.41693 11.505 7.41693 11.01 7.41693 10.5C7.29705 10.4787 7.17717 10.4574 7.05365 10.4355C5.82205 10.1541 4.85974 9.36149 4.17999 8.30894C3.5625 7.20663 3.50356 5.9538 3.72882 4.72483C4.09089 3.51167 4.95515 2.51306 6.05133 1.90208C7.5042 1.17233 9.37896 1.29054 10.7275 2.18552ZM29.1669 14.25C29.1669 14.4975 29.1669 14.745 29.1669 15C30.6519 15 32.1369 15 33.6669 15C33.6669 14.7525 33.6669 14.505 33.6669 14.25C32.1819 14.25 30.6969 14.25 29.1669 14.25ZM37.885 19.6629C37.7572 19.8572 37.7572 19.8572 37.6814 20.0624C37.5034 20.4963 37.069 20.7052 36.6669 20.9062C36.6669 21.4322 36.6669 21.9581 36.6669 22.5C36.8835 22.5077 37.1001 22.5154 37.3232 22.5234C38.1 22.5683 38.6095 22.7103 39.1396 23.291C39.4589 23.6754 39.596 24.0571 39.5993 24.5558C39.6003 24.6464 39.6014 24.737 39.6025 24.8303C39.6027 24.9285 39.6029 25.0268 39.6031 25.128C39.604 25.2323 39.605 25.3366 39.6059 25.4441C39.6088 25.7885 39.6104 26.133 39.612 26.4774C39.6138 26.7163 39.6156 26.9553 39.6175 27.1942C39.6218 27.7587 39.6253 28.3231 39.6284 28.8875C39.632 29.5303 39.6367 30.173 39.6414 30.8158C39.6511 32.1376 39.6594 33.4594 39.6669 34.7812C39.7516 34.8228 39.8363 34.8645 39.9236 34.9073C40.2372 35.0616 40.5503 35.2165 40.8634 35.3717C40.9991 35.4389 41.1349 35.5058 41.2707 35.5725C41.4658 35.6683 41.6604 35.7649 41.855 35.8615C41.9161 35.8913 41.9771 35.9211 42.04 35.9518C42.4688 36.1661 42.4688 36.1661 42.5732 36.375C42.5877 36.5722 42.5966 36.7698 42.6028 36.9675C42.6068 37.0853 42.6107 37.2032 42.6147 37.3246C42.6184 37.4482 42.6221 37.5718 42.6259 37.6992C42.63 37.8248 42.6341 37.9504 42.6382 38.076C42.6482 38.384 42.6577 38.692 42.6669 39C43.0302 39.0082 43.3934 39.0132 43.7568 39.0176C43.8594 39.0199 43.962 39.0223 44.0677 39.0247C44.8188 39.0416 44.8188 39.0416 45.4794 38.7187C45.6888 38.3259 45.6936 37.949 45.6914 37.514C45.6917 37.4405 45.6921 37.367 45.6925 37.2913C45.6934 37.0453 45.6931 36.7993 45.6927 36.5533C45.6931 36.3769 45.6936 36.2004 45.6941 36.0239C45.6954 35.5447 45.6954 35.0655 45.6952 34.5862C45.6951 34.1862 45.6956 33.7862 45.696 33.3862C45.6971 32.4425 45.6971 31.4988 45.6965 30.5551C45.696 29.5814 45.6971 28.6078 45.6991 27.6342C45.7008 26.7983 45.7013 25.9624 45.701 25.1264C45.7009 24.6272 45.7011 24.1279 45.7024 23.6286C45.7036 23.1592 45.7034 22.6897 45.7022 22.2202C45.702 22.048 45.7022 21.8757 45.703 21.7035C45.704 21.4682 45.7032 21.2331 45.702 20.9978C45.7031 20.8957 45.7031 20.8957 45.7041 20.7915C45.6995 20.3561 45.6165 20.0568 45.3857 19.6875C45.0211 19.4671 44.662 19.4733 44.2429 19.4668C44.1438 19.4649 44.1438 19.4649 44.0427 19.4631C43.8253 19.4594 43.608 19.4572 43.3906 19.4553C43.2788 19.4542 43.2788 19.4542 43.1648 19.453C42.771 19.4491 42.3772 19.4464 41.9834 19.4446C41.5769 19.4426 41.1707 19.4361 40.7643 19.4287C40.4513 19.4238 40.1383 19.4222 39.8253 19.4215C39.6755 19.4206 39.5256 19.4184 39.3759 19.4149C38.5785 19.3608 38.5785 19.3608 37.885 19.6629ZM27.6669 21C27.6669 21.495 27.6669 21.99 27.6669 22.5C30.1419 22.5 32.6169 22.5 35.1669 22.5C35.1669 22.005 35.1669 21.51 35.1669 21C32.6919 21 30.2169 21 27.6669 21Z" fill="#333333"/>
<path id="Vector_2" d="M11.2317 23.9417C11.3439 23.9411 11.4562 23.9405 11.5718 23.9399C11.8831 23.9387 12.1942 23.9397 12.5055 23.9415C12.8412 23.9429 13.177 23.9417 13.5128 23.9408C14.1704 23.9394 14.828 23.9405 15.4857 23.9425C16.2514 23.9448 17.0171 23.9446 17.7828 23.9444C19.1489 23.944 20.5151 23.946 21.8812 23.9492C23.2071 23.9523 24.533 23.9536 25.8589 23.953C27.3024 23.9524 28.7459 23.9526 30.1894 23.9545C30.3038 23.9546 30.3038 23.9546 30.4206 23.9548C30.5739 23.955 30.7272 23.9552 30.8805 23.9554C31.4144 23.956 31.9482 23.9561 32.4821 23.9559C33.1326 23.9558 33.7831 23.9567 34.4336 23.9589C34.7655 23.9601 35.0975 23.9607 35.4294 23.9602C35.7891 23.9596 36.1487 23.9612 36.5084 23.963C36.6136 23.9625 36.7188 23.962 36.8271 23.9615C36.9235 23.9624 37.0198 23.9632 37.119 23.9641C37.2021 23.9642 37.2851 23.9644 37.3706 23.9645C37.6591 24.0083 37.8371 24.1125 38.0732 24.2813C38.2174 24.5697 38.1804 24.8727 38.1801 25.1893C38.1805 25.3022 38.1805 25.3022 38.1809 25.4173C38.1817 25.6709 38.1819 25.9244 38.182 26.178C38.1824 26.3592 38.1829 26.5404 38.1834 26.7216C38.1846 27.215 38.1853 27.7084 38.1857 28.2017C38.1859 28.5097 38.1863 28.8178 38.1867 29.1258C38.188 30.0889 38.1889 31.0521 38.1893 32.0152C38.1897 33.1281 38.1914 34.241 38.1941 35.3539C38.1961 36.2134 38.1971 37.0728 38.1972 37.9323C38.1973 38.446 38.1978 38.9597 38.1995 39.4733C38.201 39.9565 38.2013 40.4397 38.2004 40.9228C38.2004 41.1003 38.2008 41.2777 38.2017 41.4551C38.2029 41.6972 38.2023 41.9392 38.2014 42.1813C38.2025 42.2868 38.2025 42.2868 38.2036 42.3945C38.1997 42.8086 38.1487 43.081 37.8857 43.4063C37.609 43.4985 37.4303 43.5119 37.1418 43.5123C37.0458 43.5127 36.9498 43.5131 36.8509 43.5134C36.6922 43.5133 36.6922 43.5133 36.5303 43.5132C36.4181 43.5135 36.306 43.5137 36.1904 43.514C35.8786 43.5147 35.5668 43.5149 35.255 43.515C34.9189 43.5152 34.5828 43.5159 34.2467 43.5165C33.5116 43.5178 32.7766 43.5184 32.0415 43.5188C31.5827 43.519 31.124 43.5194 30.6652 43.5199C29.3956 43.521 28.1259 43.522 26.8563 43.5223C26.775 43.5223 26.6937 43.5223 26.61 43.5223C26.5285 43.5224 26.4471 43.5224 26.3631 43.5224C26.198 43.5224 26.033 43.5225 25.8679 43.5225C25.786 43.5226 25.7041 43.5226 25.6197 43.5226C24.292 43.523 22.9643 43.5246 21.6366 43.5268C20.2743 43.529 18.9119 43.5302 17.5495 43.5303C16.7843 43.5304 16.019 43.5309 15.2538 43.5326C14.6024 43.534 13.9509 43.5345 13.2995 43.5338C12.967 43.5334 12.6345 43.5335 12.302 43.5348C11.9419 43.5362 11.5818 43.5354 11.2217 43.5345C11.1161 43.5352 11.0105 43.536 10.9017 43.5367C10.8054 43.5361 10.7092 43.5355 10.61 43.5349C10.5268 43.5349 10.4437 43.535 10.358 43.535C10.086 43.4922 9.95886 43.4077 9.76065 43.2188C9.6466 42.8766 9.65271 42.562 9.65247 42.2057C9.65206 42.1304 9.65165 42.055 9.65123 41.9774C9.64997 41.7242 9.64939 41.4709 9.64882 41.2176C9.64808 41.0364 9.6473 40.8552 9.6465 40.6739C9.64404 40.0781 9.6426 39.4823 9.64127 38.8865C9.64076 38.6815 9.64026 38.4766 9.63975 38.2716C9.63773 37.4193 9.63597 36.5669 9.63491 35.7146C9.63339 34.4922 9.63028 33.2698 9.62494 32.0474C9.62132 31.1883 9.61948 30.3292 9.61898 29.4701C9.61864 28.9568 9.61751 28.4434 9.61447 27.9301C9.61166 27.4473 9.61106 26.9645 9.61217 26.4817C9.61219 26.3044 9.6114 26.1272 9.60976 25.9499C9.60764 25.708 9.60841 25.4663 9.6099 25.2244C9.6086 25.1541 9.6073 25.0838 9.60596 25.0113C9.61103 24.6779 9.66215 24.4765 9.83634 24.1908C10.2903 23.9014 10.7036 23.9359 11.2317 23.9417Z" fill="#F1F1F1"/>
<path id="Vector_3" d="M21.8548 25.7813C21.9152 25.8014 21.9756 25.8215 22.0379 25.8422C24.1828 26.5789 25.8518 28.1213 26.8465 30.1492C27.8398 32.3063 27.7959 34.5832 26.9938 36.7973C26.2275 38.7738 24.6706 40.2884 22.774 41.1966C20.7488 42.0722 18.4934 42.2185 16.4173 41.4375C15.397 41.0308 14.5309 40.4611 13.6985 39.75C13.6353 39.6964 13.5721 39.6427 13.507 39.5874C12.0228 38.2153 11.1468 36.065 11.0479 34.0679C10.9826 31.7401 11.7239 29.7939 13.2298 28.0313C13.2835 27.9681 13.3371 27.9049 13.3924 27.8397C15.4842 25.5771 18.9797 24.8214 21.8548 25.7813Z" fill="#343435"/>
<path id="Vector_4" d="M9.85487 3.46875C10.5109 3.89607 11.0044 4.57341 11.1674 5.34375C11.2649 6.36293 11.0537 7.27709 10.402 8.08264C9.78639 8.68121 8.99357 9.02471 8.13807 9.03515C7.56441 9.02472 7.15571 8.92209 6.66737 8.625C6.56912 8.56699 6.56912 8.56699 6.46888 8.50781C5.84135 8.09103 5.43911 7.47671 5.22596 6.75586C5.04375 5.81444 5.17169 5.1129 5.66285 4.30078C6.65326 2.84413 8.37175 2.64334 9.85487 3.46875Z" fill="#FCCE51"/>
<path id="Vector_5" d="M20.3542 3.46879C21.0103 3.89612 21.5038 4.57346 21.6667 5.34379C21.7642 6.362 21.5541 7.27902 20.9006 8.08268C20.2307 8.73686 19.4449 8.99463 18.532 9.0352C17.7184 9.01722 16.9927 8.63 16.4167 8.06254C15.7897 7.23395 15.5486 6.37768 15.6667 5.34379C15.9172 4.46137 16.4694 3.7947 17.2282 3.30253C18.2715 2.75657 19.353 2.91159 20.3542 3.46879Z" fill="#FC7074"/>
<path id="Vector_6" d="M32.2523 26.9444C32.4151 26.9444 32.4151 26.9444 32.5811 26.9444C32.8103 26.9449 33.0394 26.9465 33.2686 26.9492C33.6192 26.9531 33.9696 26.9531 34.3203 26.9524C34.5431 26.9534 34.7658 26.9546 34.9886 26.9561C35.0934 26.9561 35.1982 26.9561 35.3062 26.9561C35.4531 26.9584 35.4531 26.9584 35.6029 26.9607C35.7317 26.9619 35.7317 26.9619 35.863 26.9631C36.1555 27.0078 36.3344 27.1097 36.5736 27.2813C36.7226 27.5794 36.6846 27.9019 36.6864 28.2294C36.6869 28.305 36.6874 28.3806 36.688 28.4585C36.6889 28.6188 36.6895 28.779 36.6899 28.9392C36.6908 29.1836 36.6937 29.428 36.6966 29.6725C36.6972 29.8282 36.6977 29.9839 36.6981 30.1396C36.6992 30.2124 36.7004 30.2853 36.7016 30.3604C36.6999 30.7867 36.6602 31.0724 36.3861 31.4063C36.1054 31.4998 35.916 31.513 35.6227 31.5151C35.5245 31.516 35.4262 31.5169 35.325 31.5179C35.219 31.5183 35.1129 31.5187 35.0036 31.5191C34.8946 31.5196 34.7856 31.5201 34.6733 31.5207C34.4427 31.5216 34.212 31.5222 33.9813 31.5226C33.628 31.5235 33.2748 31.5264 32.9215 31.5293C32.6976 31.5299 32.4737 31.5304 32.2497 31.5308C32.1439 31.532 32.038 31.5331 31.9289 31.5343C31.8304 31.534 31.7318 31.5337 31.6303 31.5335C31.5004 31.534 31.5004 31.534 31.3679 31.5345C31.0893 31.4931 30.963 31.4128 30.7611 31.2188C30.5775 30.668 30.6385 30.038 30.6345 29.4601C30.633 29.2969 30.6304 29.1338 30.6268 28.9707C30.6217 28.7349 30.6196 28.4993 30.6183 28.2635C30.6161 28.1909 30.614 28.1183 30.6118 28.0435C30.6132 27.6995 30.6579 27.4846 30.835 27.1882C31.2947 26.9009 31.7206 26.9366 32.2523 26.9444Z" fill="#333333"/>
<path id="Vector_7" d="M29.167 16.5C30.652 16.5 32.137 16.5 33.667 16.5C33.667 17.49 33.667 18.48 33.667 19.5C32.182 19.5 30.697 19.5 29.167 19.5C29.167 18.51 29.167 17.52 29.167 16.5Z" fill="#329FE4"/>
<path id="Vector_8" d="M30.667 39C32.647 39 34.627 39 36.667 39C36.667 39.495 36.667 39.99 36.667 40.5C34.687 40.5 32.707 40.5 30.667 40.5C30.667 40.005 30.667 39.51 30.667 39Z" fill="#333333"/>
<path id="Vector_9" d="M30.667 36C32.647 36 34.627 36 36.667 36C36.667 36.495 36.667 36.99 36.667 37.5C34.687 37.5 32.707 37.5 30.667 37.5C30.667 37.005 30.667 36.51 30.667 36Z" fill="#333333"/>
<path id="Vector_10" d="M30.667 33C32.647 33 34.627 33 36.667 33C36.667 33.495 36.667 33.99 36.667 34.5C34.687 34.5 32.707 34.5 30.667 34.5C30.667 34.005 30.667 33.51 30.667 33Z" fill="#333333"/>
<path id="Vector_11" d="M39.667 36.4688C40.4095 36.84 40.4095 36.84 41.167 37.2188C41.167 38.7966 41.167 40.3744 41.167 42C40.672 42 40.177 42 39.667 42C39.667 40.1747 39.667 38.3494 39.667 36.4688Z" fill="#CBCBCB"/>
<path id="Vector_12" d="M20.8232 36.2812C21.2074 37.0711 21.25 37.9208 21.0122 38.7653C20.8147 39.2534 20.582 39.7074 20.2607 40.125C20.227 40.1754 20.1933 40.2258 20.1586 40.2777C19.8651 40.4884 19.5362 40.4475 19.1885 40.4414C19.0757 40.4404 19.0757 40.4404 18.9607 40.4393C18.3461 40.4252 17.7412 40.359 17.167 40.125C17.1361 40.0631 17.1051 40.0013 17.0732 39.9375C17.1686 39.8913 17.1686 39.8913 17.2659 39.8441C18.2371 39.3477 19.1113 38.685 19.6045 37.6875C19.6681 37.4892 19.7286 37.2899 19.7861 37.0898C19.9337 36.6003 19.9337 36.6003 20.1417 36.4285C20.3672 36.3308 20.5771 36.2812 20.8232 36.2812Z" fill="#329CDF"/>
<path id="Vector_13" d="M16.3233 27.5625C16.4385 27.9079 16.378 28.0468 16.2823 28.3945C16.0415 29.3931 16.0402 30.3469 16.4171 31.3125C16.4886 31.4275 16.5626 31.541 16.6397 31.6523C16.8132 32.0127 16.7953 32.0698 16.6749 32.4316C16.6227 32.5597 16.5689 32.687 16.5108 32.8125C15.8366 32.7094 15.3069 32.3307 14.8878 31.7988C14.4096 31.1047 13.9803 30.2 14.0733 29.3438C14.6459 28.5474 15.4795 28.0307 16.3233 27.5625Z" fill="#329CDF"/>
<path id="Vector_14" d="M12.9486 31.4062C13.1662 31.686 13.3511 31.9763 13.5346 32.2793C14.0842 33.1398 14.8602 33.938 15.8966 34.1781C15.9621 34.1876 16.0276 34.1972 16.0951 34.207C16.4174 34.3125 16.4174 34.3125 16.5254 34.5103C16.5977 34.7248 16.6548 34.9343 16.6986 35.1563C15.8564 35.5688 14.8805 35.581 13.9916 35.291C13.4531 35.0669 12.9857 34.7246 12.5736 34.3125C12.5103 33.3435 12.5831 32.4366 12.8549 31.5C12.8858 31.4691 12.9168 31.4381 12.9486 31.4062Z" fill="#329CE0"/>
<path id="Vector_15" d="M25.4203 32.4518C25.5481 32.535 25.6707 32.6262 25.792 32.7188C25.8848 32.7806 25.9776 32.8425 26.0732 32.9063C26.105 33.1729 26.1175 33.4129 26.1143 33.6797C26.114 33.7547 26.1137 33.8298 26.1133 33.9071C26.097 34.6162 25.9389 35.2381 25.6982 35.9063C25.4807 35.6265 25.2957 35.3362 25.1123 35.0332C24.5191 34.0993 23.8384 33.5 22.7627 33.2109C22.2686 33.0614 22.2686 33.0614 22.0951 32.7891C22.0258 32.5768 21.9766 32.3775 21.9482 32.1563C23.0451 31.5142 24.3783 31.8618 25.4203 32.4518Z" fill="#329CE0"/>
<path id="Vector_16" d="M19.3999 26.8652C19.4701 26.8655 19.5403 26.8658 19.6127 26.8661C20.3061 26.8831 20.92 27.0491 21.5738 27.2812C21.294 27.4988 21.0037 27.6837 20.7007 27.8672C19.8752 28.393 19.138 29.0904 18.881 30.071C18.8628 30.1539 18.8445 30.2368 18.8257 30.3223C18.7664 30.5555 18.7664 30.5555 18.6675 30.75C18.397 30.9105 18.1327 30.9807 17.8238 31.0312C17.443 30.2539 17.3955 29.3866 17.6348 28.5538C17.8328 28.0632 18.0635 27.6071 18.3863 27.1875C18.4212 27.1372 18.4561 27.0869 18.4921 27.0351C18.7698 26.8311 19.0685 26.8608 19.3999 26.8652Z" fill="#329CE0"/>
<path id="Vector_17" d="M23.9448 28.6714C24.5621 29.2808 24.9932 29.9011 25.417 30.6563C25.0739 30.7706 24.9469 30.7124 24.6025 30.6152C23.5468 30.3607 22.4549 30.2958 21.4795 30.8438C21.4002 30.9037 21.3209 30.9636 21.2393 31.0254C20.8991 31.1737 20.6701 31.0447 20.3351 30.9152C20.2796 30.8916 20.2241 30.868 20.167 30.8438C20.2705 30.1669 20.6498 29.6378 21.1865 29.2207C21.3136 29.134 21.4425 29.0499 21.5732 28.9688C21.6321 28.9321 21.6909 28.8955 21.7516 28.8578C22.3928 28.4998 23.3178 28.1724 23.9448 28.6714Z" fill="#329CDF"/>
<path id="Vector_18" d="M22.1357 34.5C22.9822 34.7188 23.4784 35.0597 23.9404 35.8066C24.0282 35.9639 24.1143 36.122 24.1982 36.2812C24.2543 36.3876 24.3104 36.4939 24.3682 36.6035C24.6652 37.4945 24.6652 37.4945 24.5732 37.9688C24.0257 38.7801 23.1629 39.2841 22.3232 39.75C22.2063 39.3993 22.2806 39.3333 22.417 39C22.6218 37.8003 22.648 36.4871 21.9482 35.4375C21.9779 35.1054 22.0303 34.8163 22.1357 34.5Z" fill="#329CE0"/>
<path id="Vector_19" d="M17.542 36.2812C17.8923 36.3202 18.1736 36.386 18.4795 36.5625C18.1607 37.5721 17.6253 38.0424 16.6982 38.5313C16.5919 38.5873 16.4855 38.6434 16.376 38.7012C15.485 38.9982 15.485 38.9982 15.0107 38.9063C14.1993 38.3587 13.6954 37.4959 13.2295 36.6563C13.554 36.5481 13.589 36.5772 13.8916 36.6973C15.0949 37.0749 16.3244 36.9048 17.4482 36.375C17.4792 36.3441 17.5101 36.3131 17.542 36.2812Z" fill="#329DE0"/>
<path id="Vector_20" d="M13.7926 12.75C14.3247 12.9341 14.6658 13.2776 14.9176 13.7812C14.9548 14.3292 14.9138 14.6974 14.6364 15.1875C14.2712 15.5736 13.9206 15.7618 13.3884 15.7793C12.8792 15.771 12.6074 15.5954 12.248 15.2369C11.9187 14.8478 11.8505 14.5076 11.8781 14.0028C11.9747 13.4617 12.3309 13.1496 12.7614 12.8437C13.0859 12.6815 13.4373 12.7176 13.7926 12.75Z" fill="#329CDF"/>
<path id="Vector_21" d="M19.792 32.1562C20.2595 32.39 20.5886 32.7181 20.8232 33.1875C20.8604 33.7354 20.8194 34.1036 20.542 34.5937C20.1768 34.9798 19.8262 35.1681 19.2939 35.1855C18.8559 35.1777 18.6232 35.0823 18.292 34.7812C18.0011 34.4333 17.7958 34.1057 17.7764 33.6445C17.8439 33.1209 17.9923 32.7968 18.3916 32.455C18.856 32.1092 19.222 32.0931 19.792 32.1562Z" fill="#FA6F73"/>
<path id="Vector_22" d="M16.3232 13.5C17.5917 13.5 18.8601 13.5 20.167 13.5C20.167 13.995 20.167 14.49 20.167 15C18.8986 15 17.6301 15 16.3232 15C16.3232 14.505 16.3232 14.01 16.3232 13.5Z" fill="#CBCBCB"/>
<path id="Vector_23" d="M6.66699 13.5C7.93543 13.5 9.20387 13.5 10.5107 13.5C10.5107 13.995 10.5107 14.49 10.5107 15C9.2423 15 7.97387 15 6.66699 15C6.66699 14.505 6.66699 14.01 6.66699 13.5Z" fill="#CBCBCB"/>
<path id="Vector_24" d="M32.167 28.5C33.157 28.5 34.147 28.5 35.167 28.5C35.167 28.995 35.167 29.49 35.167 30C34.177 30 33.187 30 32.167 30C32.167 29.505 32.167 29.01 32.167 28.5Z" fill="#CCCCCC"/>
<path id="Vector_25" d="M27.6667 16.5C27.6667 17.49 27.6667 18.48 27.6667 19.5C26.6355 19.5 26.6355 19.5 26.2605 19.2188C26.1223 18.8043 26.138 18.3991 26.1316 17.9648C26.1281 17.8761 26.1246 17.7874 26.121 17.696C26.1157 17.2832 26.1287 17.0343 26.3389 16.6721C26.6355 16.5 26.6355 16.5 27.6667 16.5Z" fill="#329EE2"/>
<path id="Vector_26" d="M35.167 16.5C36.2379 16.5 36.2379 16.5 36.5732 16.7812C36.7482 17.1312 36.6884 17.5504 36.6904 17.9355C36.6924 18.0247 36.6943 18.1138 36.6963 18.2056C36.701 19.049 36.701 19.049 36.3857 19.4062C36.1045 19.5 36.1045 19.5 35.167 19.5C35.167 18.51 35.167 17.52 35.167 16.5Z" fill="#329EE2"/>
<path id="Vector_27" d="M8.07294 3.84375C8.13482 3.84375 8.19669 3.84375 8.26044 3.84375C8.37445 4.13966 8.48473 4.43684 8.59442 4.73438C8.62651 4.81752 8.6586 4.90066 8.69165 4.98633C8.88946 5.52981 8.95698 5.90195 8.82294 6.46875C8.61193 6.71883 8.49065 6.74466 8.16669 6.78516C7.84273 6.74466 7.72145 6.71883 7.51044 6.46875C7.35412 5.80772 7.49849 5.3575 7.73896 4.73438C7.77068 4.64833 7.8024 4.56229 7.83509 4.47363C7.91294 4.26309 7.99224 4.05322 8.07294 3.84375Z" fill="#3B3934"/>
<path id="Vector_28" d="M17.2607 4.59375C17.6808 4.72885 18.0893 4.88208 18.4971 5.05078C18.6673 5.12003 18.6673 5.12003 18.8409 5.19067C19.1326 5.34213 19.2594 5.43538 19.417 5.71875C19.4639 5.99414 19.4639 5.99414 19.417 6.28125C19.1867 6.59276 19.049 6.72902 18.667 6.80859C18.2849 6.72899 18.1705 6.57665 17.917 6.28125C17.7774 6.03322 17.6674 5.77681 17.5596 5.51367C17.5304 5.44581 17.5012 5.37796 17.4711 5.30804C17.2607 4.81097 17.2607 4.81097 17.2607 4.59375Z" fill="#3A3535"/>
</g>
</svg>
