<svg width="41" height="42" viewBox="0 0 41 42" fill="none" xmlns="http://www.w3.org/2000/svg">
<g id="Home Screen Icon" clip-path="url(#clip0_3475_1155)">
<path id="Vector" d="M3.54127 0.568584C3.66276 0.568194 3.78425 0.5677 3.90573 0.567113C4.23862 0.565808 4.57149 0.56599 4.90438 0.566425C5.26377 0.566638 5.62316 0.56548 5.98255 0.564505C6.68632 0.562828 7.39008 0.562466 8.09384 0.562608C8.66603 0.562712 9.2382 0.562409 9.81038 0.561817C9.97528 0.56165 10.1402 0.561482 10.3051 0.561315C10.3871 0.561232 10.4692 0.561149 10.5538 0.561063C12.1058 0.559557 13.6577 0.559641 15.2097 0.560184C16.6287 0.560629 18.0476 0.55897 19.4666 0.556331C20.9243 0.553641 22.382 0.552434 23.8398 0.552802C24.6579 0.552981 25.476 0.552565 26.2941 0.550579C26.9906 0.548903 27.6872 0.54862 28.3838 0.550125C28.739 0.550854 29.0941 0.550949 29.4493 0.5493C29.7749 0.547804 30.1005 0.548173 30.4261 0.549981C30.5435 0.550313 30.6608 0.549984 30.7781 0.548897C31.7156 0.540814 32.4775 0.686205 33.1858 1.33214C33.789 1.98685 34.0029 2.63972 33.9888 3.51234C33.9873 3.65491 33.9858 3.79749 33.9843 3.94006C33.9834 4.01569 33.9825 4.09132 33.9816 4.16924C33.9767 4.65969 33.9767 5.15017 33.9758 5.64064C33.9748 6.06885 33.972 6.49692 33.9655 6.92509C33.9359 8.96398 33.9519 10.6834 35.0236 12.4735C35.0978 12.4525 35.172 12.4316 35.2485 12.41C35.4012 12.367 35.5538 12.324 35.7064 12.281C35.9207 12.2207 36.135 12.1602 36.3489 12.0985C37.2524 11.8379 38.1758 11.6354 39.0652 12.0498C39.6747 12.4015 40.0438 12.8454 40.283 13.5094C40.3539 13.8602 40.3725 14.1927 40.3722 14.5502C40.3723 14.6324 40.3723 14.6324 40.3724 14.7161C40.3726 14.8986 40.3721 15.081 40.3717 15.2634C40.3717 15.3946 40.3717 15.5258 40.3717 15.6569C40.3717 16.0124 40.3713 16.3678 40.3707 16.7232C40.3702 17.0949 40.3702 17.4666 40.3701 17.8383C40.3698 18.5419 40.3692 19.2455 40.3684 19.949C40.3675 20.7501 40.3671 21.5512 40.3666 22.3523C40.3658 24 40.3644 25.6477 40.3626 27.2953C40.4235 27.3019 40.4843 27.3085 40.5469 27.3152C40.7611 27.375 40.7611 27.375 40.9036 27.5053C41.0338 27.7594 41.0305 27.9529 41.031 28.2382C41.0317 28.3203 41.0317 28.3203 41.0323 28.404C41.0335 28.5873 41.0329 28.7705 41.0323 28.9538C41.0328 29.0852 41.0333 29.2167 41.034 29.3481C41.0354 29.705 41.0353 30.062 41.0349 30.4189C41.0346 30.7168 41.0351 31.0146 41.0356 31.3125C41.0367 32.015 41.0366 32.7175 41.0357 33.4201C41.0348 34.1452 41.0359 34.8704 41.038 35.5955C41.0398 36.2179 41.0403 36.8402 41.0399 37.4626C41.0396 37.8344 41.0398 38.2062 41.0412 38.578C41.0424 38.9275 41.0421 39.2771 41.0406 39.6266C41.0403 39.755 41.0405 39.8833 41.0414 40.0117C41.0424 40.1868 41.0415 40.3618 41.0401 40.5368C41.0401 40.6349 41.0401 40.7329 41.04 40.8339C40.9926 41.128 40.9154 41.2216 40.6814 41.4C40.5042 41.4425 40.5042 41.4425 40.3122 41.4451C40.2418 41.4462 40.1713 41.4473 40.0987 41.4484C40.0247 41.4472 39.9508 41.446 39.8746 41.4448C39.7991 41.444 39.7236 41.4432 39.6459 41.4424C39.0032 41.4228 38.546 41.312 38.0666 40.8677C37.4486 40.1992 37.4018 39.5088 37.4064 38.639C37.4066 38.5179 37.4066 38.5179 37.4068 38.3945C37.4072 38.1379 37.4082 37.8814 37.4092 37.6248C37.4096 37.4504 37.41 37.276 37.4103 37.1016C37.4112 36.675 37.4125 36.2484 37.4142 35.8219C36.8599 35.8212 36.3056 35.8242 35.7513 35.8297C35.5629 35.8311 35.3746 35.8317 35.1862 35.8315C34.9146 35.8312 34.6431 35.8341 34.3714 35.8375C34.2463 35.8364 34.2463 35.8364 34.1186 35.8353C33.5943 35.8455 33.2807 35.9433 32.8646 36.2667C32.4896 36.5456 32.0487 36.5774 31.597 36.5391C30.9503 36.4304 30.515 36.1536 30.083 35.6625C29.794 35.2498 29.743 34.8791 29.6845 34.3875C29.6272 34.3876 29.5698 34.3878 29.5108 34.3879C26.1117 34.395 22.7127 34.4005 19.3136 34.4038C18.9054 34.4042 18.4971 34.4046 18.0889 34.405C18.0076 34.4051 17.9263 34.4052 17.8426 34.4053C16.5271 34.4067 15.2116 34.4092 13.8961 34.4121C12.546 34.4151 11.196 34.4169 9.84586 34.4175C9.01296 34.4179 8.18008 34.4193 7.34719 34.4219C6.77583 34.4236 6.20448 34.4241 5.63311 34.4237C5.3036 34.4235 4.97411 34.4238 4.64461 34.4255C4.34251 34.4271 4.04045 34.4271 3.73835 34.426C3.57818 34.4258 3.41801 34.4272 3.25784 34.4287C2.30464 34.4224 1.62 34.2071 0.930404 33.5405C0.441068 33.0044 0.18057 32.4542 0.179642 31.7189C0.179128 31.6157 0.178614 31.5125 0.178085 31.4062C0.178319 31.2923 0.178569 31.1784 0.178832 31.0645C0.178534 30.943 0.178168 30.8216 0.177738 30.7001C0.176763 30.3665 0.176784 30.033 0.176972 29.6994C0.177005 29.3396 0.176125 28.9798 0.175369 28.62C0.174045 27.9151 0.173608 27.2102 0.173519 26.5053C0.173443 25.9322 0.173115 25.3592 0.17261 24.7862C0.171207 23.1615 0.170472 21.5367 0.170591 19.912C0.170597 19.8244 0.170604 19.7368 0.17061 19.6466C0.170617 19.5589 0.170623 19.4712 0.17063 19.3808C0.170695 17.9597 0.16917 16.5385 0.166923 15.1174C0.164633 13.658 0.163533 12.1987 0.16367 10.7394C0.163723 9.92011 0.163286 9.10086 0.16157 8.2816C0.160119 7.58403 0.159772 6.88647 0.160854 6.1889C0.161375 5.8331 0.161384 5.47731 0.160001 5.1215C0.158747 4.79549 0.158976 4.46951 0.160365 4.1435C0.16061 4.02585 0.160321 3.9082 0.159431 3.79054C0.152648 2.82941 0.309089 2.02648 0.997018 1.3172C1.79998 0.660227 2.53054 0.564569 3.54127 0.568584ZM37.3358 13.3818C37.2481 13.4068 37.1605 13.4319 37.0702 13.4577C36.9799 13.4846 36.8897 13.5115 36.7966 13.5393C36.6593 13.5787 36.6593 13.5787 36.5193 13.619C36.0805 13.7376 36.0805 13.7376 35.6611 13.9078C35.7915 14.3196 35.9366 14.7093 36.1143 15.1031C36.3169 15.5868 36.3967 15.9621 36.2485 16.4703C36.0251 17.0072 35.6157 17.2148 35.1033 17.439C35.0244 17.4661 35.0244 17.4661 34.9439 17.4938C35.0014 17.8807 35.1451 18.2245 35.29 18.5851C35.3163 18.6512 35.3425 18.7173 35.3695 18.7854C35.4531 18.9958 35.5372 19.206 35.6212 19.4162C35.7052 19.6271 35.7891 19.8379 35.873 20.0488C35.9251 20.1798 35.9773 20.3108 36.0297 20.4418C36.0652 20.5308 36.0652 20.5308 36.1014 20.6215C36.1222 20.6736 36.143 20.7257 36.1645 20.7793C36.35 21.2602 36.3853 21.7297 36.189 22.2152C35.7903 22.9133 34.6261 23.1352 33.9876 23.3906C33.9876 26.5463 33.9876 29.7019 33.9876 32.9531C35.1184 32.9531 36.2492 32.9531 37.4142 32.9531C37.4172 32.692 37.4202 32.4309 37.4232 32.1619C37.4269 31.9068 37.431 31.6518 37.4351 31.3967C37.4378 31.2205 37.44 31.0443 37.4418 30.8681C37.4445 30.6137 37.4487 30.3593 37.4531 30.1049C37.4536 30.0271 37.4541 29.9493 37.4547 29.8691C37.47 29.1404 37.5949 28.3864 38.1314 27.8531C38.2531 27.7771 38.3776 27.7055 38.5043 27.638C38.601 27.586 38.601 27.586 38.6997 27.5329C38.7489 27.5071 38.798 27.4813 38.8486 27.4547C38.8542 25.7057 38.8584 23.9567 38.861 22.2076C38.8622 21.3955 38.8639 20.5835 38.8666 19.7714C38.869 19.0636 38.8705 18.3559 38.8711 17.6481C38.8714 17.2733 38.8721 16.8985 38.8739 16.5237C38.8755 16.171 38.876 15.8182 38.8756 15.4655C38.8757 15.336 38.8762 15.2065 38.8771 15.077C38.8783 14.9002 38.878 14.7235 38.8773 14.5467C38.8777 14.3983 38.8777 14.3983 38.878 14.2469C38.8384 13.8981 38.7151 13.691 38.4651 13.4496C38.0832 13.2314 37.7456 13.2624 37.3358 13.3818Z" fill="#EBEFF0"/>
<path id="Vector_2" d="M39.4238 12.272C39.9866 12.7162 40.2661 13.2847 40.3626 13.9875C40.3695 14.175 40.3723 14.3626 40.3722 14.5502C40.3723 14.6323 40.3723 14.6323 40.3724 14.7161C40.3725 14.8986 40.3721 15.081 40.3716 15.2634C40.3716 15.3946 40.3716 15.5258 40.3717 15.6569C40.3717 16.0124 40.3712 16.3678 40.3707 16.7232C40.3702 17.0949 40.3701 17.4666 40.37 17.8383C40.3698 18.5419 40.3691 19.2454 40.3683 19.949C40.3674 20.7501 40.367 21.5512 40.3666 22.3523C40.3658 24 40.3644 25.6477 40.3626 27.2953C40.4234 27.3019 40.4842 27.3085 40.5469 27.3152C40.761 27.375 40.761 27.375 40.9035 27.5053C41.0337 27.7594 41.0304 27.9529 41.031 28.2382C41.0316 28.3203 41.0316 28.3203 41.0323 28.404C41.0334 28.5873 41.0329 28.7705 41.0323 28.9538C41.0327 29.0852 41.0333 29.2167 41.034 29.3481C41.0354 29.705 41.0353 30.062 41.0348 30.4189C41.0346 30.7168 41.0351 31.0146 41.0356 31.3125C41.0367 32.015 41.0365 32.7175 41.0356 33.4201C41.0347 34.1452 41.0358 34.8704 41.038 35.5955C41.0397 36.2179 41.0403 36.8402 41.0398 37.4626C41.0395 37.8344 41.0397 38.2062 41.0411 38.578C41.0423 38.9275 41.042 39.277 41.0405 39.6266C41.0402 39.755 41.0405 39.8833 41.0413 40.0117C41.0424 40.1868 41.0415 40.3617 41.04 40.5368C41.04 40.6348 41.04 40.7329 41.04 40.8338C40.9926 41.128 40.9154 41.2216 40.6813 41.4C40.5042 41.4425 40.5042 41.4425 40.3122 41.4451C40.2417 41.4462 40.1712 41.4473 40.0987 41.4484C40.0247 41.4472 39.9507 41.446 39.8745 41.4448C39.7991 41.444 39.7236 41.4432 39.6459 41.4424C39.0032 41.4228 38.546 41.312 38.0666 40.8677C37.4485 40.1991 37.4018 39.5088 37.4064 38.639C37.4065 38.5179 37.4065 38.5179 37.4067 38.3945C37.4072 38.1379 37.4082 37.8814 37.4092 37.6248C37.4096 37.4504 37.4099 37.276 37.4103 37.1016C37.4111 36.675 37.4125 36.2484 37.4142 35.8219C36.8598 35.8212 36.3056 35.8242 35.7512 35.8297C35.5629 35.8311 35.3745 35.8317 35.1862 35.8315C34.9145 35.8312 34.643 35.8341 34.3714 35.8374C34.2462 35.8364 34.2462 35.8364 34.1185 35.8353C33.5943 35.8455 33.2806 35.9433 32.8646 36.2667C32.4895 36.5456 32.0487 36.5773 31.597 36.5391C30.9503 36.4304 30.5149 36.1536 30.0829 35.6625C29.7471 35.183 29.6714 34.6995 29.6957 34.1191C29.6836 33.8068 29.6204 33.6273 29.4853 33.3475C29.4415 33.2554 29.3977 33.1633 29.3526 33.0685C29.3039 32.9686 29.2551 32.8687 29.2063 32.7689C29.1558 32.6633 29.1054 32.5578 29.0551 32.4521C28.9485 32.2287 28.8413 32.0055 28.7338 31.7825C28.4894 31.2747 28.2505 30.7643 28.011 30.2541C27.9315 30.0846 27.8518 29.9153 27.772 29.746C27.2376 28.6118 26.7075 27.4756 26.1782 26.3391C24.8701 26.7842 23.5786 27.2716 22.2866 27.761C21.6761 27.9923 21.0652 28.2228 20.4544 28.4533C20.3946 28.4759 20.3348 28.4984 20.2732 28.5217C19.2647 28.9023 18.255 29.2793 17.2433 29.6511C17.1506 29.6852 17.1506 29.6852 17.056 29.7199C15.5301 30.2805 15.5301 30.2805 15.0942 30.0919C14.7266 29.8779 14.5016 29.6647 14.3048 29.2875C14.3048 29.2086 14.3048 29.1297 14.3048 29.0484C14.0972 29.1078 13.8896 29.1676 13.6822 29.2277C13.6202 29.2456 13.5582 29.2635 13.4943 29.282C13.149 29.3832 12.8156 29.4956 12.4819 29.6312C12.0523 29.7914 11.6515 29.8369 11.197 29.7656C10.7029 29.5277 10.3656 29.137 10.1816 28.6252C10.139 28.4934 10.0975 28.3611 10.0571 28.2285C10.0342 28.1569 10.0113 28.0853 9.98775 28.0116C9.91497 27.7831 9.84371 27.5542 9.77256 27.3252C9.67853 27.0269 9.5839 26.7287 9.48929 26.4306C9.4662 26.3573 9.4431 26.284 9.4193 26.2085C9.23087 25.6139 9.02772 25.0252 8.81643 24.4384C8.64697 23.9645 8.64697 23.9645 8.64697 23.7891C8.77295 23.7475 8.77295 23.7475 8.90146 23.7051C9.21506 23.6015 9.52854 23.4976 9.84199 23.3936C9.97729 23.3488 10.1126 23.3041 10.248 23.2594C10.4433 23.195 10.6385 23.1302 10.8337 23.0653C10.8936 23.0457 10.9535 23.026 11.0151 23.0057C11.2823 22.9167 11.5394 22.8226 11.7981 22.7104C12.0936 22.5853 12.3921 22.494 12.7005 22.4079C13.345 22.2231 13.9805 22.0167 14.6155 21.802C14.925 21.6975 15.2348 21.5943 15.5446 21.4909C15.9158 21.3668 16.287 21.2425 16.6578 21.1173C16.9407 21.0219 17.2239 20.9274 17.5074 20.8338C17.6122 20.799 17.7168 20.7637 17.8213 20.7281C18.5945 20.4649 19.1962 20.3356 19.9925 20.5567C20.0406 20.5699 20.0887 20.583 20.1383 20.5965C20.4967 20.6981 20.8476 20.8183 21.199 20.9418C21.2921 20.9742 21.3853 21.0065 21.4812 21.0399C21.6666 21.1048 21.8515 21.1712 22.0358 21.2392C23.2352 21.6601 24.0753 21.4509 25.2194 21.0121C25.5762 20.8766 25.9354 20.7477 26.2945 20.6181C26.6008 20.5076 26.9068 20.396 27.2127 20.2842C27.2651 20.265 27.3174 20.2459 27.3714 20.2262C27.4787 20.1869 27.586 20.1477 27.6933 20.1085C27.8585 20.0481 28.0236 19.9877 28.1888 19.9274C29.6134 19.4069 31.0371 18.8841 32.4586 18.3554C32.5633 18.3165 32.5633 18.3165 32.6701 18.2768C32.8658 18.204 33.0614 18.1311 33.257 18.0581C33.3157 18.0362 33.3743 18.0143 33.4347 17.9918C33.8124 17.8502 34.1868 17.7021 34.5581 17.5444C34.7048 17.4938 34.7048 17.4938 34.9438 17.4938C35.1354 17.9773 35.3269 18.461 35.5183 18.9446C35.5834 19.1092 35.6486 19.2737 35.7137 19.4383C35.8074 19.6746 35.9009 19.911 35.9944 20.1474C36.0236 20.2211 36.0529 20.2948 36.083 20.3708C36.1101 20.4394 36.1372 20.508 36.1651 20.5786C36.201 20.6691 36.201 20.6691 36.2375 20.7615C36.4264 21.2531 36.4713 21.7216 36.2587 22.2152C35.8471 22.9284 34.8833 23.1455 34.147 23.3906C34.0944 23.3906 34.0418 23.3906 33.9876 23.3906C33.9876 26.5463 33.9876 29.7019 33.9876 32.9531C35.1184 32.9531 36.2491 32.9531 37.4142 32.9531C37.4114 32.692 37.4086 32.4309 37.4058 32.1619C37.4039 31.9068 37.4024 31.6518 37.401 31.3967C37.3998 31.2205 37.3982 31.0443 37.3961 30.8681C37.3932 30.6137 37.3919 30.3593 37.3908 30.1049C37.3896 30.0271 37.3883 29.9493 37.3871 29.8691C37.3869 29.0693 37.5527 28.3548 38.1313 27.7734C38.3508 27.6116 38.5672 27.4547 38.8485 27.4547C38.8437 25.7057 38.8375 23.9566 38.8298 22.2076C38.8262 21.3955 38.823 20.5835 38.8209 19.7714C38.8191 19.0636 38.8164 18.3559 38.8128 17.6481C38.8109 17.2733 38.8094 16.8985 38.8089 16.5237C38.8084 16.171 38.8068 15.8182 38.8044 15.4655C38.8037 15.336 38.8034 15.2065 38.8035 15.077C38.8036 14.9002 38.8023 14.7235 38.8006 14.5467C38.8003 14.4477 38.7999 14.3488 38.7995 14.2469C38.766 13.9637 38.6996 13.8157 38.5298 13.5891C38.3186 13.4294 38.1636 13.3449 37.8938 13.3572C37.5547 13.4185 37.2264 13.5173 36.8956 13.6124C36.7999 13.6397 36.7999 13.6397 36.7023 13.6675C36.574 13.7045 36.4459 13.7423 36.3181 13.7811C36.2584 13.7986 36.1988 13.8161 36.1373 13.834C36.0573 13.8582 36.0573 13.8582 35.9756 13.8828C35.7893 13.9128 35.6767 13.8986 35.5017 13.8281C35.3965 13.6433 35.3156 13.476 35.2377 13.2803C35.2046 13.204 35.2046 13.204 35.1709 13.1262C35.0128 12.7447 35.0128 12.7447 35.1032 12.4734C35.4059 12.3468 35.7231 12.2685 36.0397 12.183C36.1955 12.1407 36.3505 12.0959 36.5055 12.0509C37.5406 11.766 38.4963 11.6565 39.4238 12.272Z" fill="#95A5A5"/>
<path id="Vector_3" d="M33.3447 9.41544C33.6049 9.61718 33.7533 9.7929 33.9075 10.0828C33.9075 10.1617 33.9075 10.2406 33.9075 10.3219C33.9601 10.3219 34.0127 10.3219 34.0669 10.3219C34.215 10.6521 34.3627 10.9825 34.5102 11.313C34.5431 11.3867 34.5431 11.3867 34.5766 11.4619C34.8356 12.0429 35.09 12.6251 35.327 13.2155C35.4937 13.6307 35.6764 14.0322 35.8798 14.4308C36.4843 15.6207 36.4843 15.6207 36.3778 16.2984C36.2388 16.7209 36.0422 17.0151 35.6607 17.2547C35.3244 17.4228 34.9861 17.5305 34.626 17.6376C34.1048 17.7971 33.5986 17.9837 33.0907 18.1811C32.8869 18.2593 32.683 18.3374 32.4791 18.4151C32.4235 18.4363 32.3679 18.4575 32.3107 18.4794C31.5058 18.7853 30.6968 19.0802 29.8883 19.3764C29.5527 19.4993 29.2172 19.6223 28.8816 19.7452C28.7973 19.7761 28.7131 19.807 28.6263 19.8388C28.0157 20.0627 27.4058 20.288 26.796 20.5141C26.7112 20.5455 26.6264 20.577 26.539 20.6093C26.2104 20.7312 25.8817 20.853 25.5531 20.9752C25.3293 21.0584 25.1053 21.1414 24.8814 21.2244C24.8152 21.2491 24.7491 21.2738 24.6809 21.2992C24.62 21.3217 24.5591 21.3443 24.4964 21.3675C24.4437 21.3871 24.3911 21.4066 24.3369 21.4268C23.279 21.7861 22.3206 21.4341 21.3169 21.0847C21.1178 21.0169 20.9185 20.9497 20.7191 20.8825C20.5962 20.8409 20.4733 20.7989 20.3506 20.7564C19.4567 20.449 18.7985 20.4756 17.9065 20.7728C17.8253 20.7989 17.744 20.8251 17.6603 20.8521C17.398 20.9369 17.1361 21.0232 16.8743 21.1096C16.6941 21.1682 16.5138 21.2268 16.3335 21.2854C15.1183 21.681 13.9064 22.0864 12.7019 22.5137C12.4494 22.6015 12.1959 22.6861 11.9422 22.7704C11.7642 22.8295 11.5864 22.8892 11.4086 22.949C11.0936 23.0549 10.7781 23.1595 10.4625 23.2638C10.327 23.3087 10.1916 23.354 10.0563 23.3997C9.85938 23.466 9.66206 23.5312 9.46463 23.5961C9.40444 23.6167 9.34425 23.6372 9.28224 23.6584C8.96234 23.7622 8.72929 23.8246 8.40752 23.7094C8.22043 23.5866 8.04613 23.4623 7.86963 23.3259C7.76285 23.2455 7.65597 23.1652 7.54901 23.085C7.49367 23.0433 7.43833 23.0016 7.38131 22.9587C7.1061 22.7539 6.82562 22.5567 6.54483 22.3597C6.48904 22.3205 6.43326 22.2812 6.37578 22.2408C6.26163 22.1606 6.14747 22.0804 6.03328 22.0002C5.85109 21.872 5.66921 21.7435 5.48741 21.6148C5.42679 21.5719 5.36617 21.529 5.30372 21.4848C5.18833 21.4031 5.07298 21.3215 4.95765 21.2397C4.71953 21.0714 4.48124 20.9063 4.23669 20.7473C3.94142 20.5443 3.74615 20.3285 3.67545 19.9678C3.65218 19.5614 3.75954 19.3246 4.02471 19.0078C4.32432 18.7278 4.69754 18.6319 5.07901 18.5057C5.15276 18.4808 5.2265 18.4559 5.30249 18.4302C5.54543 18.3483 5.78863 18.2672 6.03184 18.186C6.20234 18.1287 6.37281 18.0712 6.54327 18.0138C6.89145 17.8964 7.23971 17.7792 7.58804 17.6623C8.23483 17.4449 8.88049 17.2242 9.52604 17.0032C9.85871 16.8893 10.1915 16.7756 10.5242 16.662C10.6247 16.6277 10.6247 16.6277 10.7272 16.5927C11.6404 16.2809 12.554 15.9702 13.4676 15.6593C14.5569 15.2886 15.646 14.9173 16.7349 14.5453C17.8934 14.1495 19.0522 13.7544 20.2112 13.36C20.2892 13.3334 20.3671 13.3069 20.4474 13.2796C21.0825 13.0634 21.7177 12.8473 22.3528 12.6312C24.7415 11.8185 24.7415 11.8185 27.1296 11.004C27.3987 10.9121 27.6678 10.8204 27.937 10.729C28.546 10.5218 29.1541 10.3129 29.7602 10.0974C30.037 9.99905 30.3141 9.90167 30.5913 9.80435C30.7215 9.75832 30.8515 9.7118 30.9814 9.66475C32.6403 9.06373 32.6403 9.06373 33.3447 9.41544Z" fill="#BDC3C7"/>
<path id="Vector_4" d="M3.54133 0.568584C3.66281 0.568194 3.7843 0.5677 3.90578 0.567113C4.23867 0.565808 4.57154 0.56599 4.90443 0.566425C5.26382 0.566638 5.62321 0.56548 5.9826 0.564505C6.68637 0.562828 7.39013 0.562466 8.0939 0.562608C8.66608 0.562712 9.23826 0.562409 9.81044 0.561817C9.97533 0.56165 10.1402 0.561482 10.3051 0.561315C10.3872 0.561232 10.4693 0.561149 10.5538 0.561063C12.1058 0.559557 13.6578 0.559641 15.2098 0.560184C16.6287 0.560629 18.0477 0.55897 19.4667 0.556331C20.9244 0.553641 22.3821 0.552434 23.8398 0.552802C24.6579 0.552981 25.476 0.552565 26.2941 0.550579C26.9907 0.548903 27.6873 0.54862 28.3838 0.550125C28.739 0.550854 29.0942 0.550949 29.4494 0.5493C29.775 0.547804 30.1006 0.548173 30.4262 0.549981C30.5435 0.550313 30.6608 0.549984 30.7782 0.548897C31.7157 0.540814 32.4776 0.686205 33.1858 1.33214C34.4721 2.72809 33.9877 4.32153 33.9877 6.25783C22.8378 6.25783 11.6879 6.25783 0.200195 6.25783C0.200195 2.13881 0.200195 2.13881 0.99707 1.3172C1.80004 0.660227 2.5306 0.564569 3.54133 0.568584Z" fill="#3C97D3"/>
<path id="Vector_5" d="M39.4241 12.272C39.987 12.7162 40.2665 13.2847 40.3629 13.9875C40.3698 14.175 40.3727 14.3626 40.3725 14.5502C40.3726 14.605 40.3727 14.6597 40.3727 14.7161C40.3729 14.8986 40.3724 15.081 40.372 15.2634C40.372 15.3946 40.372 15.5258 40.372 15.6569C40.3721 16.0124 40.3716 16.3678 40.371 16.7232C40.3705 17.0949 40.3705 17.4666 40.3704 17.8383C40.3701 18.5419 40.3695 19.2454 40.3687 19.949C40.3678 20.7501 40.3674 21.5512 40.367 22.3523C40.3661 24 40.3647 25.6477 40.3629 27.2953C40.4238 27.3019 40.4846 27.3085 40.5472 27.3152C40.7614 27.375 40.7614 27.375 40.9039 27.5053C41.0341 27.7594 41.0308 27.9529 41.0313 28.2382C41.0318 28.2929 41.0322 28.3476 41.0326 28.404C41.0338 28.5873 41.0332 28.7705 41.0326 28.9538C41.0331 29.0852 41.0337 29.2167 41.0343 29.3481C41.0357 29.705 41.0356 30.062 41.0352 30.4189C41.0349 30.7168 41.0354 31.0146 41.0359 31.3125C41.037 32.015 41.0369 32.7175 41.036 33.4201C41.0351 34.1452 41.0362 34.8704 41.0383 35.5955C41.0401 36.2179 41.0406 36.8402 41.0402 37.4626C41.0399 37.8344 41.0401 38.2062 41.0415 38.578C41.0427 38.9275 41.0424 39.277 41.0409 39.6266C41.0406 39.755 41.0408 39.8833 41.0417 40.0117C41.0427 40.1868 41.0418 40.3617 41.0404 40.5368C41.0404 40.6839 41.0404 40.6839 41.0403 40.8338C40.9929 41.128 40.9157 41.2216 40.6817 41.4C40.5045 41.4425 40.5045 41.4425 40.3125 41.4451C40.2421 41.4462 40.1716 41.4473 40.099 41.4484C40.025 41.4472 39.9511 41.446 39.8749 41.4448C39.7994 41.444 39.724 41.4432 39.6462 41.4424C39.0035 41.4228 38.5463 41.312 38.067 40.8677C37.5697 40.3299 37.4056 39.7686 37.4033 39.0451C37.4029 38.9591 37.4024 38.8731 37.4019 38.7845C37.4019 38.6914 37.4018 38.5982 37.4017 38.5022C37.4013 38.4032 37.4009 38.3041 37.4005 38.2021C37.3995 37.9312 37.3989 37.6604 37.3986 37.3895C37.3983 37.2199 37.398 37.0504 37.3976 36.8808C37.3966 36.3493 37.3958 35.8178 37.3955 35.2863C37.3951 34.6746 37.3937 34.0629 37.3914 33.4512C37.3897 32.9771 37.3889 32.503 37.3888 32.0289C37.3887 31.7464 37.3882 31.4638 37.3868 31.1812C37.3852 30.8656 37.3856 30.55 37.3861 30.2343C37.3854 30.1418 37.3846 30.0493 37.3839 29.954C37.3881 29.1201 37.5248 28.3831 38.1317 27.7734C38.3511 27.6116 38.5676 27.4547 38.8489 27.4547C38.8441 25.7057 38.8379 23.9566 38.8301 22.2076C38.8265 21.3955 38.8234 20.5835 38.8213 19.7714C38.8194 19.0636 38.8168 18.3559 38.8131 17.6481C38.8112 17.2733 38.8097 16.8985 38.8092 16.5237C38.8088 16.171 38.8072 15.8182 38.8047 15.4655C38.804 15.336 38.8037 15.2065 38.8039 15.077C38.804 14.9002 38.8027 14.7235 38.801 14.5467C38.8006 14.4477 38.8002 14.3488 38.7999 14.2469C38.7664 13.9637 38.6999 13.8157 38.5301 13.5891C38.3189 13.4294 38.164 13.3449 37.8942 13.3572C37.5551 13.4185 37.2267 13.5173 36.8959 13.6124C36.8003 13.6397 36.8003 13.6397 36.7027 13.6675C36.5743 13.7045 36.4462 13.7423 36.3184 13.7811C36.2588 13.7986 36.1991 13.8161 36.1376 13.834C36.0576 13.8582 36.0576 13.8582 35.976 13.8828C35.7896 13.9128 35.677 13.8986 35.502 13.8281C35.3968 13.6433 35.316 13.476 35.238 13.2803C35.216 13.2294 35.194 13.1786 35.1713 13.1262C35.0132 12.7447 35.0132 12.7447 35.1036 12.4734C35.4062 12.3468 35.7235 12.2685 36.04 12.183C36.1958 12.1407 36.3508 12.0959 36.5059 12.0509C37.5409 11.766 38.4967 11.6565 39.4241 12.272Z" fill="#BCC3C7"/>
<path id="Vector_6" d="M33.9877 23.3906C33.9877 26.5462 33.9877 29.7019 33.9877 32.9531C33.3502 32.9531 33.3502 32.9531 33.1946 32.8716C33.1605 32.836 33.1263 32.8005 33.0912 32.7639C32.8304 32.5149 32.6831 32.4015 32.3224 32.3844C32.0752 32.3156 32.0752 32.3156 31.9203 32.0933C31.8737 31.9942 31.829 31.8943 31.786 31.7936C31.7612 31.7396 31.7364 31.6857 31.7108 31.6301C31.6297 31.4526 31.5512 31.2741 31.4726 31.0954C31.4165 30.9716 31.3602 30.8478 31.3038 30.7241C31.1893 30.4725 31.0757 30.2205 30.9628 29.9682C30.7747 29.5482 30.5804 29.1313 30.3853 28.7145C30.2589 28.4442 30.1335 28.1735 30.0083 27.9026C29.8414 27.5414 29.6736 27.1806 29.5053 26.82C29.4239 26.6447 29.3426 26.4695 29.2612 26.2942C29.2234 26.2136 29.1856 26.1329 29.1466 26.0498C29.1124 25.9759 29.0782 25.902 29.043 25.8258C29.0129 25.7611 28.9828 25.6964 28.9517 25.6298C28.8877 25.4625 28.8877 25.4625 28.8877 25.2234C29.5172 24.984 30.1468 24.745 30.7767 24.5065C31.0691 24.3958 31.3615 24.2849 31.6538 24.1737C31.9358 24.0664 32.2179 23.9595 32.5001 23.8528C32.6078 23.812 32.7155 23.7711 32.8231 23.7301C32.9737 23.6726 33.1245 23.6157 33.2753 23.5589C33.3611 23.5263 33.4469 23.4938 33.5353 23.4602C33.7486 23.3906 33.7486 23.3906 33.9877 23.3906Z" fill="#EBEFF0"/>
<path id="Vector_7" d="M39.4241 12.272C39.987 12.7163 40.2664 13.2846 40.3629 13.9875C40.37 14.1748 40.373 14.3623 40.3731 14.5497C40.3733 14.6317 40.3733 14.6317 40.3734 14.7154C40.3738 14.8977 40.3735 15.0799 40.3733 15.2621C40.3734 15.3932 40.3735 15.5242 40.3737 15.6553C40.374 16.0104 40.3739 16.3655 40.3737 16.7206C40.3735 17.092 40.3736 17.4635 40.3738 17.835C40.3739 18.4583 40.3737 19.0816 40.3733 19.7049C40.3729 20.4265 40.373 21.148 40.3735 21.8695C40.3738 22.4887 40.3739 23.1079 40.3737 23.727C40.3736 24.097 40.3735 24.467 40.3738 24.837C40.374 25.1843 40.3739 25.5317 40.3734 25.8791C40.3733 26.0069 40.3733 26.1347 40.3735 26.2626C40.3737 26.4363 40.3735 26.61 40.3731 26.7837C40.373 26.9299 40.373 26.9299 40.373 27.079C40.3629 27.2953 40.3629 27.2953 40.2833 27.375C40.1765 27.3874 40.0691 27.395 39.9617 27.4002C39.865 27.4052 39.865 27.4052 39.7664 27.4103C39.6986 27.4135 39.6309 27.4166 39.5611 27.4198C39.493 27.4233 39.425 27.4267 39.3549 27.4303C39.1862 27.4387 39.0176 27.4468 38.8489 27.4547C38.8487 27.3857 38.8485 27.3166 38.8483 27.2455C38.8436 25.5662 38.8376 23.8869 38.8301 22.2076C38.8265 21.3955 38.8234 20.5835 38.8213 19.7714C38.8194 19.0636 38.8168 18.3559 38.8131 17.6481C38.8112 17.2733 38.8097 16.8985 38.8092 16.5237C38.8088 16.171 38.8072 15.8182 38.8047 15.4655C38.804 15.336 38.8037 15.2065 38.8039 15.077C38.804 14.9002 38.8027 14.7235 38.801 14.5467C38.8006 14.4477 38.8002 14.3488 38.7999 14.2469C38.7664 13.9637 38.6999 13.8157 38.5301 13.5891C38.3189 13.4294 38.164 13.3449 37.8942 13.3572C37.5551 13.4185 37.2267 13.5173 36.8959 13.6124C36.8003 13.6397 36.8003 13.6397 36.7027 13.6675C36.5743 13.7045 36.4462 13.7423 36.3184 13.7811C36.2588 13.7986 36.1991 13.8161 36.1376 13.834C36.0576 13.8582 36.0576 13.8582 35.976 13.8828C35.7896 13.9128 35.677 13.8986 35.502 13.8281C35.3968 13.6433 35.316 13.476 35.238 13.2803C35.216 13.2294 35.194 13.1786 35.1713 13.1262C35.0132 12.7447 35.0132 12.7447 35.1036 12.4734C35.4062 12.3468 35.7235 12.2685 36.04 12.183C36.1958 12.1407 36.3508 12.0959 36.5059 12.0509C37.5409 11.766 38.4967 11.6565 39.4241 12.272Z" fill="#464F5D"/>
<path id="Vector_8" d="M32.9816 32.5547C33.1908 32.7141 33.1908 32.7141 33.3502 32.8734C33.5337 32.8998 33.5337 32.8998 33.7486 32.8988C33.8731 32.9012 33.8731 32.9012 34 32.9036C34.1347 32.905 34.1347 32.905 34.2722 32.9064C34.3639 32.908 34.4557 32.9095 34.5502 32.9111C34.8441 32.9159 35.1381 32.9196 35.432 32.9232C35.6309 32.9263 35.8298 32.9294 36.0287 32.9326C36.5171 32.9404 37.0055 32.9467 37.4939 32.9531C37.4939 33.8998 37.4939 34.8465 37.4939 35.8219C37.2089 35.8221 36.9238 35.8223 36.6301 35.8225C36.3524 35.8243 36.0747 35.8269 35.797 35.8297C35.6047 35.8311 35.4125 35.8317 35.2203 35.8314C34.9431 35.8312 34.6661 35.834 34.3889 35.8374C34.2611 35.8364 34.2611 35.8364 34.1307 35.8352C33.6017 35.8454 33.2837 35.9395 32.864 36.2667C32.4898 36.5461 32.0482 36.5773 31.597 36.5391C30.9503 36.4304 30.515 36.1536 30.083 35.6625C29.7597 35.2009 29.6385 34.7148 29.7169 34.1572C29.8612 33.4734 30.1226 32.9905 30.6806 32.5646C31.4022 32.0957 32.2527 32.1227 32.9816 32.5547Z" fill="#BCC2C6"/>
<path id="Vector_9" d="M12.2329 22.6734C12.4105 23.2236 12.5879 23.7738 12.7651 24.324C12.8474 24.5797 12.9298 24.8354 13.0124 25.0911C13.4284 26.3802 13.8362 27.6712 14.2251 28.9688C14.0994 29.0191 13.9738 29.0694 13.8481 29.1197C13.7781 29.1477 13.7082 29.1757 13.6361 29.2045C11.882 29.9048 11.882 29.9048 11.197 29.7656C10.7029 29.5277 10.3656 29.137 10.1816 28.6252C10.139 28.4934 10.0975 28.3611 10.0571 28.2285C10.0342 28.1569 10.0113 28.0853 9.98775 28.0116C9.91497 27.7831 9.84371 27.5542 9.77256 27.3252C9.67853 27.0269 9.5839 26.7287 9.48929 26.4306C9.4662 26.3573 9.4431 26.284 9.4193 26.2085C9.23087 25.6139 9.02772 25.0252 8.81643 24.4384C8.64697 23.9645 8.64697 23.9645 8.64697 23.7891C11.1981 22.9387 11.1981 22.9387 11.3626 22.8842C11.5028 22.8371 11.6424 22.7882 11.782 22.7391C11.9938 22.6734 11.9938 22.6734 12.2329 22.6734Z" fill="#464F5D"/>
<path id="Vector_10" d="M28.8245 25.3394C29.0349 25.5203 29.1303 25.744 29.2413 25.9923C29.2788 26.0731 29.2788 26.0731 29.3171 26.1555C29.3991 26.3325 29.4797 26.5101 29.5603 26.6877C29.6172 26.811 29.6741 26.9343 29.7311 27.0576C29.8469 27.3083 29.9622 27.5593 30.0771 27.8106C30.2262 28.1365 30.377 28.4616 30.5287 28.7863C30.9369 29.6605 31.3412 30.5364 31.7418 31.4142C31.7758 31.4886 31.8098 31.563 31.8449 31.6396C31.8755 31.7069 31.9061 31.7741 31.9376 31.8434C31.9644 31.9022 31.9911 31.9611 32.0187 32.0217C32.0755 32.1563 32.0755 32.1563 32.0755 32.2359C32.0205 32.2428 31.9655 32.2497 31.9089 32.2568C31.2128 32.3609 30.6561 32.5412 30.2078 33.1075C30.0332 33.3624 29.9197 33.6075 29.8442 33.9094C29.624 33.7164 29.5204 33.5195 29.4 33.2541C29.3606 33.1682 29.3212 33.0823 29.2806 32.9937C29.2382 32.8998 29.1957 32.8059 29.1519 32.7091C29.0829 32.5582 29.0138 32.4074 28.9446 32.2566C28.8957 32.1501 28.8469 32.0436 28.7981 31.937C28.5405 31.3745 28.2767 30.8149 28.0124 30.2555C27.9318 30.0845 27.8513 29.9134 27.7709 29.7422C27.5344 29.2387 27.2974 28.7355 27.0571 28.2338C26.958 28.0266 26.8596 27.819 26.7613 27.6113C26.6931 27.4679 26.624 27.325 26.5548 27.182C26.4941 27.0535 26.4941 27.0535 26.4323 26.9224C26.3966 26.8478 26.3609 26.7733 26.3241 26.6965C26.2583 26.4984 26.2583 26.4984 26.2559 26.3268C26.3895 26.0872 26.5888 26.0472 26.8401 25.9512C26.9157 25.9221 26.9157 25.9221 26.9929 25.8925C27.0996 25.8518 27.2066 25.8118 27.3138 25.7724C27.4777 25.7118 27.6405 25.6486 27.8033 25.5851C27.9072 25.546 28.0111 25.507 28.1151 25.4681C28.2097 25.4326 28.3043 25.397 28.4018 25.3604C28.6489 25.3031 28.6489 25.3031 28.8245 25.3394Z" fill="#7F8C8D"/>
<path id="Vector_11" d="M20.2013 15.8203C20.4808 16.0143 20.5817 16.1226 20.6445 16.4578C20.5871 16.7642 20.502 16.8741 20.281 17.0953C20.0536 17.2105 19.8168 17.2853 19.574 17.3618C19.5037 17.3851 19.4334 17.4085 19.3609 17.4325C19.2118 17.482 19.0625 17.531 18.913 17.5795C18.6237 17.6738 18.3359 17.7722 18.048 17.8708C17.8286 17.9459 17.609 18.0204 17.3893 18.0948C16.0349 18.5537 14.6819 19.0167 13.3322 19.4893C12.786 19.6805 12.2396 19.8709 11.6932 20.0614C11.5257 20.1198 11.3582 20.1784 11.1908 20.237C10.9208 20.3312 10.6504 20.4243 10.3798 20.5169C10.3063 20.5427 10.2329 20.5686 10.1572 20.5952C9.77588 20.7241 9.45338 20.8024 9.04502 20.7609C8.78145 20.5529 8.66118 20.3923 8.6167 20.0587C8.65733 19.7133 8.78192 19.6286 9.04502 19.4063C9.24411 19.3144 9.42787 19.2409 9.63458 19.1731C9.6947 19.1523 9.75482 19.1316 9.81675 19.1102C10.0207 19.04 10.2251 18.9717 10.4296 18.9032C10.5766 18.8531 10.7237 18.8028 10.8706 18.7524C11.3018 18.6051 11.7334 18.4595 12.1652 18.3142C12.4988 18.2018 12.8322 18.089 13.1656 17.9761C13.2259 17.9557 13.2862 17.9352 13.3483 17.9142C13.4725 17.8721 13.5967 17.8301 13.721 17.788C14.5377 17.5114 15.3546 17.2351 16.1719 16.96C16.2915 16.9197 16.4111 16.8794 16.5307 16.8391C16.7605 16.7616 16.9904 16.6844 17.2203 16.6073C17.6733 16.455 18.1256 16.3021 18.5735 16.1354C18.6358 16.1123 18.698 16.0893 18.7622 16.0655C18.9128 16.0091 19.0627 15.9511 19.2126 15.8929C19.5434 15.8044 19.8607 15.7719 20.2013 15.8203Z" fill="#EBEFF0"/>
<path id="Vector_12" d="M14.1129 2.65905C14.2192 2.65846 14.2192 2.65846 14.3277 2.65786C14.563 2.65669 14.7982 2.65615 15.0334 2.65571C15.1966 2.65525 15.3598 2.65479 15.523 2.65433C15.8655 2.65349 16.208 2.65303 16.5505 2.65275C16.9895 2.65231 17.4284 2.6504 17.8673 2.64813C18.2045 2.64665 18.5418 2.64623 18.879 2.64611C19.0408 2.64587 19.2026 2.64523 19.3644 2.64418C19.5909 2.64282 19.8173 2.64297 20.0437 2.64349C20.144 2.64239 20.144 2.64239 20.2463 2.64127C20.6169 2.64392 20.855 2.67359 21.1578 2.91096C21.3241 3.12253 21.3171 3.23509 21.3122 3.50861C21.2197 3.85407 21.1431 3.92341 20.8391 4.10627C20.5961 4.1513 20.3578 4.14823 20.1113 4.14499C20.0387 4.14529 19.9661 4.14559 19.8913 4.1459C19.6518 4.14649 19.4123 4.14479 19.1728 4.143C19.0062 4.14281 18.8396 4.14274 18.673 4.14278C18.324 4.14253 17.9751 4.14121 17.6262 4.13907C17.1788 4.13636 16.7314 4.13575 16.284 4.13588C15.94 4.13583 15.5961 4.13496 15.2522 4.1338C15.0872 4.1333 14.9222 4.13298 14.7572 4.13286C14.5268 4.13252 14.2964 4.13112 14.0659 4.12942C13.9977 4.12949 13.9294 4.12957 13.8591 4.12964C13.7647 4.12862 13.7647 4.12862 13.6685 4.12758C13.6141 4.12731 13.5596 4.12705 13.5036 4.12677C13.3176 4.10218 13.1902 4.04287 13.0297 3.9469C12.8465 3.69034 12.8262 3.45876 12.8703 3.15002C13.2658 2.68177 13.5269 2.65983 14.1129 2.65905Z" fill="#2980BA"/>
<path id="Vector_13" d="M33.4297 32.9531C34.7708 32.9531 36.112 32.9531 37.4938 32.9531C37.4938 33.8998 37.4938 34.8465 37.4938 35.8219C36.1526 35.8219 34.8115 35.8219 33.4297 35.8219C33.5875 35.48 33.7452 35.1382 33.9078 34.7859C33.9913 34.0811 33.7907 33.5547 33.4297 32.9531Z" fill="#7F8C8D"/>
<path id="Vector_14" d="M16.1375 21.3985C16.1668 21.4892 16.1961 21.5799 16.2263 21.6734C16.3367 22.0153 16.4474 22.3572 16.5582 22.699C16.6058 22.846 16.6533 22.993 16.7008 23.14C16.7697 23.3533 16.8388 23.5665 16.9079 23.7797C16.9304 23.8494 16.9528 23.919 16.976 23.9908C17.0775 24.3029 17.1814 24.6128 17.2991 24.9193C17.3362 25.0162 17.3733 25.113 17.4116 25.2129C17.4446 25.2949 17.4776 25.377 17.5116 25.4616C17.5852 25.7548 17.5571 25.9658 17.4922 26.2594C17.3677 26.4536 17.3677 26.4536 17.1734 26.5781C16.8835 26.6305 16.6426 26.6367 16.3806 26.4929C16.1564 26.2819 16.0856 26.0418 15.9937 25.7561C15.9742 25.6983 15.9547 25.6406 15.9346 25.581C15.8717 25.3941 15.8103 25.2067 15.749 25.0193C15.7064 24.8914 15.6638 24.7636 15.621 24.6359C15.5376 24.3861 15.4547 24.1362 15.3723 23.8861C15.2812 23.6101 15.1876 23.335 15.0922 23.0604C15.0695 22.9945 15.0468 22.9287 15.0234 22.8609C14.984 22.7469 14.9443 22.633 14.9042 22.5192C14.8107 22.2431 14.7628 22.009 14.7828 21.7172C14.9336 21.6633 15.0848 21.6104 15.236 21.5578C15.3202 21.5283 15.4043 21.4987 15.491 21.4682C15.724 21.4027 15.8983 21.3928 16.1375 21.3985Z" fill="#7F8C8D"/>
<path id="Vector_15" d="M31.6769 13.1109C32.029 13.4671 32.2462 13.7261 32.2646 14.2365C32.2586 14.6996 32.1605 15.007 31.8363 15.3422C31.4627 15.6346 31.0672 15.7181 30.5981 15.6964C30.2042 15.6251 29.9226 15.4344 29.6543 15.1426C29.3803 14.7452 29.3767 14.2938 29.4457 13.8281C29.6411 13.4223 29.9716 13.069 30.392 12.8868C30.8959 12.8423 31.245 12.8198 31.6769 13.1109Z" fill="#EBEFF0"/>
<path id="Vector_16" d="M25.62 15.0234C26.0722 15.1742 26.3632 15.4739 26.5762 15.9C26.6163 16.3384 26.637 16.7278 26.4467 17.1302C25.8458 17.7785 25.8458 17.7785 25.4606 17.8125C25.3636 17.824 25.2667 17.8355 25.1668 17.8474C24.73 17.8408 24.424 17.6169 24.1059 17.3344C23.814 17.0057 23.739 16.6589 23.7623 16.2293C23.8329 15.7475 24.0951 15.4935 24.4549 15.1987C24.8045 14.9401 25.2017 14.9915 25.62 15.0234Z" fill="#EBEFF0"/>
<path id="Vector_17" d="M8.96531 2.75157C9.23085 2.92179 9.27555 3.04105 9.36375 3.34425C9.36375 3.62813 9.36375 3.62813 9.21932 3.85724C9.00038 4.06992 8.927 4.10079 8.62166 4.14112C8.32781 4.10626 8.32781 4.10626 8.09373 3.89708C7.91438 3.6036 7.85812 3.48494 7.92938 3.15001C8.23046 2.71721 8.47134 2.681 8.96531 2.75157Z" fill="#63DAB9"/>
<path id="Vector_18" d="M6.00727 2.7189C6.17692 2.75159 6.17692 2.75159 6.38112 2.87112C6.5416 3.15022 6.56544 3.39877 6.49567 3.70784C6.33132 3.9469 6.33132 3.9469 6.09723 4.10628C5.81833 4.15608 5.81833 4.15608 5.53942 4.10628C5.30534 3.94192 5.30534 3.94192 5.14098 3.70784C5.08869 3.38246 5.11088 3.21155 5.25553 2.91594C5.51558 2.70664 5.68052 2.69791 6.00727 2.7189Z" fill="#EED35D"/>
<path id="Vector_19" d="M3.30819 2.75156C3.54725 2.9209 3.54725 2.9209 3.70662 3.15C3.75073 3.45874 3.73051 3.69031 3.54725 3.94687C3.29069 4.13013 3.05912 4.15035 2.75037 4.10625C2.52169 3.94717 2.37966 3.82955 2.31614 3.55061C2.30168 3.28391 2.3342 3.09988 2.47147 2.87109C2.74926 2.70442 2.99758 2.68083 3.30819 2.75156Z" fill="#FB5466"/>
</g>
<defs>
<clipPath id="clip0_3475_1155">
<rect width="40.8" height="40.8" fill="white" transform="translate(0.200195 0.600006)"/>
</clipPath>
</defs>
</svg>
