<svg width="48" height="48" viewBox="0 0 48 48" fill="none" xmlns="http://www.w3.org/2000/svg">
<g id="Home Screen Icon" clip-path="url(#clip0_3475_1141)">
<path id="Vector" d="M39.7332 -0.0591944C39.7966 -0.0598652 39.8601 -0.060536 39.9255 -0.0612271C40.1348 -0.0628093 40.3438 -0.0609922 40.5531 -0.0589884C40.6988 -0.0590661 40.8445 -0.0592967 40.9902 -0.0596736C41.2954 -0.0599415 41.6005 -0.0585641 41.9056 -0.05599C42.2966 -0.0527947 42.6874 -0.053359 43.0783 -0.0551146C43.3791 -0.056106 43.6799 -0.0552673 43.9807 -0.0538598C44.1248 -0.0533743 44.269 -0.0534189 44.4131 -0.0540046C44.6147 -0.0545163 44.8161 -0.0526043 45.0176 -0.0500391C45.1322 -0.049458 45.2468 -0.0488769 45.3649 -0.0482781C45.7118 0.00908832 45.8238 0.0960508 46.0316 0.374972C46.0742 0.649904 46.0742 0.649905 46.0683 0.965304C46.0664 1.1348 46.0664 1.1348 46.0646 1.30771C46.0599 1.48409 46.0599 1.48409 46.0551 1.66403C46.0534 1.78307 46.0517 1.90211 46.0499 2.02475C46.0455 2.31865 46.0394 2.6124 46.0316 2.90622C46.2182 2.90374 46.4047 2.90126 46.5913 2.89878C46.8456 2.90872 47.0288 2.96992 47.2504 3.09372C47.4746 3.43 47.4681 3.6772 47.4694 4.06601C47.47 4.13339 47.4706 4.20078 47.4713 4.2702C47.4722 4.41259 47.4727 4.55499 47.4726 4.69738C47.473 4.91491 47.4764 5.13227 47.48 5.34976C47.4805 5.48825 47.4809 5.62674 47.4811 5.76523C47.4824 5.83009 47.4838 5.89494 47.4852 5.96176C47.4822 6.27649 47.4588 6.44135 47.2653 6.69433C46.9731 6.91001 46.742 6.94912 46.3891 6.94333C46.2711 6.9414 46.1532 6.93946 46.0316 6.93747C46.032 6.99719 46.0323 7.05691 46.0327 7.11844C46.041 8.57973 46.0472 10.041 46.0511 11.5023C46.053 12.209 46.0556 12.9157 46.0599 13.6224C46.0637 14.2393 46.0661 14.8561 46.0669 15.473C46.0674 15.7988 46.0685 16.1246 46.0713 16.4504C46.0981 19.7379 45.4122 22.2734 43.1019 24.7148C41.0861 26.668 38.4293 27.4133 35.6851 27.3933C35.5418 27.3929 35.3985 27.3927 35.2552 27.3925C34.8824 27.3918 34.5096 27.3899 34.1368 27.3878C33.7546 27.3859 33.3725 27.3851 32.9903 27.3841C32.2437 27.3821 31.497 27.3789 30.7504 27.375C30.7558 27.4643 30.7613 27.5536 30.7669 27.6456C30.8014 28.6043 30.8014 28.6043 30.5589 29C30.2155 29.1935 29.9898 29.2167 29.5961 29.2185C29.4989 29.2192 29.4989 29.2192 29.3997 29.2198C29.2632 29.2202 29.1267 29.2193 28.9903 29.2173C28.7821 29.2148 28.5745 29.2173 28.3664 29.2203C28.2333 29.22 28.1002 29.2194 27.9672 29.2185C27.7868 29.2177 27.7868 29.2177 27.6028 29.2169C27.2816 29.1562 27.2816 29.1562 27.0044 29C26.8129 28.6875 26.8129 28.6875 26.8129 27.375C25.2351 27.375 23.6573 27.375 22.0316 27.375C22.0316 27.7462 22.0316 28.1175 22.0316 28.5C21.8441 28.9687 21.8441 28.9687 21.5629 29.1562C21.138 29.1948 20.7121 29.1911 20.2857 29.191C20.076 29.1914 19.8664 29.1948 19.6568 29.1983C19.5228 29.1989 19.3889 29.1993 19.255 29.1994C19.1336 29.2002 19.0121 29.201 18.887 29.2018C18.5083 29.1486 18.3551 29.0571 18.0941 28.7812C17.9869 28.477 17.9907 28.1875 17.9945 27.8672C17.9954 27.7748 17.9962 27.6825 17.9971 27.5874C17.9982 27.5173 17.9993 27.4472 18.0004 27.375C17.1365 27.3764 16.2726 27.3803 15.4087 27.3874C15.0075 27.3906 14.6063 27.3929 14.205 27.3933C13.8172 27.3937 13.4294 27.3964 13.0416 27.4006C12.8942 27.4018 12.7469 27.4022 12.5996 27.4018C11.6834 27.3998 10.8982 27.4482 10.163 28.0627C9.53122 28.7299 9.52124 29.635 9.52235 30.498C9.52139 30.6106 9.52044 30.7232 9.51945 30.8392C9.51712 31.1454 9.516 31.4516 9.51544 31.7578C9.51455 32.0787 9.5121 32.3996 9.50981 32.7206C9.50573 33.3271 9.50305 33.9337 9.50088 34.5403C9.49833 35.2314 9.49422 35.9224 9.48997 36.6135C9.48129 38.034 9.47456 39.4545 9.46914 40.875C9.58733 40.8735 9.70552 40.8721 9.82729 40.8706C10.1567 40.8665 10.3973 40.8916 10.6879 41.0625C11.0044 41.5297 10.9103 42.1395 10.9101 42.6817C10.9105 42.8838 10.9139 43.0857 10.9175 43.2878C10.918 43.417 10.9184 43.5462 10.9186 43.6754C10.9194 43.7923 10.9201 43.9092 10.9209 44.0297C10.8676 44.3977 10.7593 44.551 10.5004 44.8125C10.1763 44.9577 9.81887 44.9074 9.46914 44.9062C9.4711 44.9809 9.47306 45.0557 9.47509 45.1326C9.48288 45.4712 9.48776 45.8098 9.49257 46.1484C9.49572 46.266 9.49886 46.3836 9.50209 46.5047C9.50391 46.6742 9.50391 46.6742 9.50576 46.8471C9.5087 47.0033 9.5087 47.0033 9.51171 47.1625C9.45772 47.5112 9.37146 47.5986 9.09414 47.8125C8.80243 47.8601 8.80243 47.8601 8.4551 47.861C8.35991 47.862 8.35991 47.862 8.26279 47.863C8.05354 47.8646 7.84441 47.8635 7.63515 47.8623C7.48945 47.8625 7.34375 47.8629 7.19806 47.8634C6.8929 47.8639 6.58779 47.8631 6.28264 47.8614C5.89171 47.8592 5.50087 47.8605 5.10993 47.8627C4.80913 47.8641 4.50836 47.8636 4.20756 47.8627C4.06343 47.8624 3.9193 47.8627 3.77517 47.8636C3.57362 47.8645 3.37222 47.8631 3.17067 47.861C3.05606 47.8607 2.94144 47.8604 2.82335 47.8601C2.4762 47.8034 2.36456 47.7166 2.15664 47.4375C2.11406 47.1625 2.11406 47.1625 2.12001 46.8471C2.12122 46.7341 2.12243 46.6212 2.12368 46.5047C2.12682 46.3871 2.12996 46.2696 2.1332 46.1484C2.13489 46.0294 2.13658 45.9103 2.13832 45.7877C2.14274 45.4938 2.14891 45.2001 2.15664 44.9062C2.09885 44.9071 2.04107 44.908 1.98154 44.9089C1.86772 44.9099 1.86772 44.9099 1.75161 44.911C1.67642 44.9119 1.60124 44.9128 1.52378 44.9137C1.19146 44.9019 0.96306 44.8012 0.6936 44.6143C0.49501 44.3456 0.520875 44.068 0.522236 43.7464C0.521744 43.6791 0.521252 43.6117 0.520745 43.5422C0.520144 43.3999 0.52027 43.2575 0.521069 43.1151C0.521866 42.8975 0.519171 42.6802 0.516193 42.4627C0.516042 42.3242 0.516096 42.1857 0.516376 42.0472C0.515323 41.9824 0.514269 41.9175 0.513184 41.8507C0.517716 41.5363 0.542251 41.3707 0.735714 41.1181C1.05866 40.8795 1.31608 40.8641 1.70546 40.8691C1.78994 40.87 1.87441 40.8708 1.96144 40.8717C2.05806 40.8733 2.05806 40.8733 2.15664 40.875C2.1558 40.8218 2.15497 40.7686 2.15411 40.7138C2.14582 40.1602 2.14016 39.6067 2.13604 39.0531C2.13415 38.8465 2.13159 38.6399 2.12835 38.4333C2.1238 38.1363 2.12167 37.8394 2.12001 37.5425C2.11808 37.4501 2.11614 37.3577 2.11415 37.2625C2.11394 36.6227 2.11394 36.6227 2.32885 36.3196C2.53164 36.1875 2.53164 36.1875 2.81289 36.0937C2.84382 35.3203 2.87476 34.5468 2.90664 33.75C2.72101 33.6881 2.53539 33.6262 2.34414 33.5625C2.14461 33.2632 2.13252 33.1841 2.1294 32.8401C2.1282 32.7505 2.12701 32.6608 2.12577 32.5685C2.12556 32.4712 2.12536 32.374 2.12514 32.2738C2.12452 32.1725 2.12389 32.0712 2.12325 31.9669C2.1223 31.7513 2.12186 31.5358 2.12189 31.3202C2.12149 30.997 2.1181 30.6739 2.11452 30.3506C2.10624 28.7583 2.20728 27.1639 2.87734 25.6933C2.9253 25.5842 2.9253 25.5842 2.97422 25.4729C3.4604 24.4067 4.16208 23.5325 4.96914 22.6875C5.02533 22.6243 5.08153 22.5611 5.13942 22.4959C6.50303 21.0204 8.62456 20.114 10.5941 19.875C10.8465 19.8671 11.0963 19.8631 11.3485 19.8643C11.457 19.8643 11.457 19.8643 11.5677 19.8643C11.8046 19.8644 12.0415 19.8651 12.2783 19.8658C12.4435 19.866 12.6086 19.8661 12.7737 19.8662C13.2066 19.8666 13.6395 19.8675 14.0725 19.8685C14.5149 19.8695 14.9573 19.8699 15.3997 19.8704C16.2666 19.8714 17.1335 19.873 18.0004 19.875C17.9991 19.7977 17.9978 19.7204 17.9965 19.6408C17.9955 19.5395 17.9945 19.4381 17.9934 19.3337C17.9921 19.2332 17.9908 19.1328 17.9895 19.0293C18.0031 18.6803 18.0692 18.4658 18.2816 18.1875C18.8303 17.9091 19.4093 17.9691 20.0102 17.9707C20.181 17.9684 20.181 17.9684 20.3553 17.9661C20.4656 17.966 20.5759 17.966 20.6895 17.9659C20.7896 17.9656 20.8897 17.9654 20.9929 17.9651C21.3284 18.0056 21.5543 18.1102 21.8441 18.2812C22.1782 18.7126 22.0418 19.365 22.0316 19.875C22.5576 19.875 23.0835 19.875 23.6254 19.875C23.6254 18.1425 23.6254 16.41 23.6254 14.625C23.3779 14.625 23.1304 14.625 22.8754 14.625C22.8599 14.7159 22.8444 14.8067 22.8285 14.9004C22.6561 15.502 22.1482 16.0143 21.6332 16.3535C20.9633 16.6846 20.1691 16.7658 19.4484 16.5827C18.6974 16.3116 18.1015 15.898 17.7191 15.1875C17.3413 14.2982 17.3302 13.518 17.6895 12.6229C18.017 11.9649 18.4806 11.5412 19.1499 11.2415C19.9509 10.9753 20.6973 11.0112 21.4691 11.3437C22.1409 11.6994 22.5964 12.24 22.8754 12.9375C24.4068 12.9839 24.4068 12.9839 25.9691 13.0312C26.0001 12.8765 26.031 12.7218 26.0629 12.5625C26.4141 11.9115 26.9788 11.4388 27.6669 11.1738C28.5378 10.9307 29.3265 11.0862 30.1117 11.5019C30.6754 11.9654 31.178 12.4806 31.3129 13.2187C31.4109 14.2535 31.2839 14.9734 30.6273 15.7793C30.0137 16.4304 29.3829 16.631 28.5004 16.6875C27.7904 16.656 27.1727 16.3869 26.6254 15.9375C26.3056 15.5636 26.0316 15.1875 25.8754 14.7187C25.6588 14.6878 25.4423 14.6568 25.2191 14.625C25.2191 16.3575 25.2191 18.09 25.2191 19.875C25.7451 19.875 26.271 19.875 26.8129 19.875C26.7981 19.429 26.7981 19.429 26.7791 18.9832C26.7739 18.6688 26.7917 18.4978 26.9784 18.2417C27.4973 17.8752 28.1677 17.9827 28.7758 17.9824C28.8864 17.9812 28.9971 17.9801 29.111 17.9789C29.2712 17.9786 29.2712 17.9786 29.4346 17.9784C29.5319 17.978 29.6291 17.9776 29.7294 17.9772C30.0976 18.0081 30.3564 18.0753 30.6222 18.3397C30.8002 18.649 30.7778 18.8882 30.768 19.2422C30.7654 19.3606 30.7629 19.479 30.7603 19.601C30.757 19.6914 30.7537 19.7818 30.7504 19.875C31.4798 19.867 32.2093 19.8581 32.9387 19.848C33.2775 19.8434 33.6163 19.839 33.9551 19.8354C34.2828 19.8319 34.6104 19.8276 34.938 19.8227C35.1223 19.8201 35.3067 19.8184 35.491 19.8168C36.5016 19.8003 37.4147 19.7835 38.1566 19.0312C38.5235 18.5388 38.6369 18.0862 38.6372 17.4829C38.6377 17.3276 38.6377 17.3276 38.6383 17.1691C38.6384 17.0019 38.6384 17.0019 38.6386 16.8314C38.6403 16.5955 38.6421 16.3596 38.6441 16.1237C38.6468 15.7517 38.6488 15.3798 38.6489 15.0078C38.6492 14.6488 38.6524 14.29 38.6561 13.931C38.6555 13.8198 38.6548 13.7085 38.6541 13.5939C38.6669 12.7348 38.6669 12.7348 38.9399 12.4418C39.1879 12.2812 39.1879 12.2812 39.4691 12.2812C39.4691 11.4768 39.4691 10.6725 39.4691 9.84372C39.3144 9.81279 39.1598 9.78185 39.0004 9.74997C38.7758 9.53937 38.724 9.41517 38.6872 9.10865C38.6887 9.00849 38.6902 8.90834 38.6917 8.80515C38.6926 8.69638 38.6935 8.58762 38.6944 8.47556C38.6968 8.36244 38.6991 8.24933 38.7016 8.13278C38.7028 8.01822 38.7041 7.90365 38.7054 7.78562C38.7087 7.50286 38.7133 7.22019 38.7191 6.93747C38.6225 6.93961 38.6225 6.93961 38.5239 6.9418C38.4395 6.94291 38.355 6.94402 38.268 6.94516C38.1423 6.9473 38.1423 6.9473 38.0142 6.94949C37.7123 6.93389 37.5428 6.85023 37.3129 6.65622C37.0096 6.20125 37.0905 5.67026 37.0906 5.13782C37.0902 4.93489 37.0868 4.73216 37.0833 4.52927C37.0827 4.39963 37.0823 4.26999 37.0822 4.14035C37.0814 4.02284 37.0806 3.90533 37.0798 3.78426C37.1334 3.41315 37.2348 3.26014 37.5004 2.99997C37.783 2.90576 37.9731 2.89653 38.268 2.90036C38.3524 2.90121 38.4369 2.90205 38.5239 2.90293C38.5884 2.90401 38.6528 2.9051 38.7191 2.90622C38.7172 2.83484 38.7152 2.76345 38.7132 2.68991C38.7054 2.36554 38.7005 2.04119 38.6957 1.71677C38.6926 1.60444 38.6894 1.49211 38.6862 1.37638C38.685 1.26791 38.6838 1.15945 38.6825 1.0477C38.6805 0.948038 38.6786 0.848375 38.6766 0.745692C38.7756 0.101262 39.1224 -0.0587139 39.7332 -0.0591944Z" fill="#010000"/>
<path id="Vector_2" d="M25.0316 29.8125C25.2097 30.0142 25.35 30.1935 25.4945 30.416C25.5337 30.4739 25.5729 30.5318 25.6133 30.5915C25.6937 30.7105 25.7735 30.83 25.8526 30.9499C25.9631 31.116 26.0769 31.2792 26.1925 31.4418C26.7815 32.2852 26.7815 32.2852 26.8129 32.8125C26.7549 32.8957 26.6969 32.9788 26.6371 33.0645C26.4921 33.3714 26.4921 33.3714 26.6587 33.6332C26.78 33.8188 26.9052 34.002 27.0344 34.1822C27.1879 34.4063 27.1879 34.4063 27.1879 34.5938C27.2381 34.5744 27.2884 34.5551 27.3402 34.5352C27.6551 34.4855 27.837 34.5553 28.1254 34.6875C29.6606 36.306 31.0101 39.5305 30.9822 41.7735C30.9178 43.298 30.3541 44.6984 29.3441 45.8438C29.2826 45.9141 29.2211 45.9844 29.1577 46.0569C28.1748 47.1099 26.7303 47.9108 25.2715 48.0166C23.1362 48.0679 21.4099 47.7158 19.7816 46.2188C18.5263 44.9792 17.8419 43.3615 17.8066 41.5943C17.949 37.8163 20.8588 33.9031 22.9691 30.9375C23.006 30.8854 23.0429 30.8334 23.0809 30.7797C23.845 29.7027 23.845 29.7027 24.1644 29.543C24.4922 29.5248 24.7558 29.6474 25.0316 29.8125Z" fill="#61C8CB"/>
<path id="Vector_3" d="M11.5164 21.3644C11.6235 21.3644 11.6235 21.3644 11.7328 21.3644C11.9671 21.3644 12.2014 21.3651 12.4358 21.3659C12.5989 21.3661 12.7621 21.3662 12.9252 21.3663C13.3534 21.3666 13.7815 21.3676 14.2097 21.3686C14.724 21.3697 15.2384 21.3702 15.7528 21.3707C16.5331 21.3716 17.3134 21.3734 18.0938 21.375C18.0938 22.86 18.0938 24.345 18.0938 25.875C17.3251 25.8803 17.3251 25.8803 16.541 25.8857C16.2155 25.8885 15.8899 25.8914 15.5643 25.8946C15.0481 25.8997 14.532 25.9045 14.0158 25.9075C13.5994 25.91 13.183 25.9138 12.7666 25.9185C12.6081 25.92 12.4497 25.9211 12.2912 25.9217C12.0684 25.9226 11.8456 25.9252 11.6228 25.9283C11.558 25.9281 11.4932 25.928 11.4264 25.9278C10.5372 25.9448 9.76406 26.3651 9.11719 26.9532C8.2747 27.8893 7.99148 28.7769 8.00068 30.0278C7.9997 30.1468 7.99871 30.2659 7.9977 30.3885C7.99509 30.7111 7.99529 31.0337 7.99604 31.3564C7.99634 31.695 7.99398 32.0335 7.99192 32.3721C7.98842 33.0115 7.98727 33.651 7.98699 34.2904C7.98655 35.0191 7.98345 35.7478 7.98015 36.4765C7.97343 37.9739 7.97034 39.4713 7.96875 40.9688C6.54563 40.9688 5.1225 40.9688 3.65625 40.9688C3.65262 40.4966 3.65262 40.4966 3.64893 40.0148C3.64533 39.7104 3.64109 39.4061 3.6368 39.1017C3.63415 38.8899 3.63216 38.6781 3.63084 38.4663C3.62884 38.1621 3.62447 37.858 3.61963 37.5539C3.61951 37.4589 3.6194 37.364 3.61928 37.2662C3.61743 37.178 3.61558 37.0898 3.61368 36.9989C3.61285 36.9213 3.61201 36.8436 3.61115 36.7636C3.57838 36.5477 3.57838 36.5477 3.38938 36.4005C3.18202 36.2685 3.18202 36.2685 2.90625 36.1875C2.90625 35.3522 2.90625 34.5169 2.90625 33.6563C3.13828 33.5635 3.13828 33.5635 3.375 33.4688C3.6077 33.2361 3.58668 33.1654 3.58942 32.8446C3.59067 32.7538 3.59193 32.663 3.59323 32.5694C3.59372 32.4708 3.59422 32.3722 3.59473 32.2705C3.59678 32.1182 3.59678 32.1182 3.59888 31.9628C3.60325 31.6367 3.60645 31.3106 3.60938 30.9844C3.61325 30.5576 3.6183 30.1309 3.62402 29.7041C3.62477 29.5585 3.62477 29.5585 3.62552 29.4099C3.65598 27.1533 4.64155 25.2187 6.17578 23.6075C7.56714 22.2671 9.5788 21.3546 11.5164 21.3644Z" fill="#F4CE49"/>
<path id="Vector_4" d="M40.2188 6.84375C41.6419 6.84375 43.065 6.84375 44.5313 6.84375C44.5376 8.3474 44.5428 9.85104 44.5458 11.3547C44.5473 12.053 44.5492 12.7513 44.5525 13.4496C44.5553 14.0589 44.5571 14.6682 44.5577 15.2775C44.5581 15.5995 44.5589 15.9215 44.561 16.2436C44.5791 19.4111 44.5791 19.4111 43.8984 20.8359C43.8656 20.9069 43.8327 20.9778 43.7988 21.0509C42.741 23.2853 41.008 24.6844 38.7246 25.5352C37.1066 26.0066 35.3831 25.8983 33.7152 25.8879C33.3694 25.8859 33.0237 25.8851 32.6779 25.8842C32.004 25.8823 31.3302 25.8786 30.6562 25.875C30.6562 24.39 30.6562 22.905 30.6562 21.375C31.1034 21.3726 31.5505 21.3702 32.0112 21.3677C32.2966 21.3653 32.582 21.3628 32.8674 21.36C33.3192 21.3555 33.7709 21.3513 34.2227 21.3496C34.5874 21.3482 34.9521 21.3449 35.3169 21.3405C35.4551 21.3391 35.5934 21.3383 35.7317 21.3383C36.991 21.3368 38.1454 21.1286 39.1022 20.2595C39.8774 19.4598 40.1779 18.5799 40.1805 17.4766C40.1784 17.3582 40.1763 17.2398 40.1741 17.1178C40.1734 16.9919 40.173 16.8659 40.1727 16.74C40.1715 16.4123 40.1674 16.0846 40.1627 15.7569C40.1593 15.4885 40.1581 15.2201 40.157 14.9517C40.1546 14.3975 40.1506 13.8432 40.1431 13.289C40.1419 13.1915 40.1407 13.0939 40.1394 12.9934C40.1349 12.7392 40.1349 12.7392 40.0313 12.4688C39.8456 12.4378 39.66 12.4069 39.4688 12.375C39.4688 11.5397 39.4688 10.7044 39.4688 9.84375C39.6544 9.75094 39.84 9.65812 40.0313 9.5625C40.1595 9.30593 40.1453 9.08975 40.1547 8.80298C40.1582 8.70066 40.1618 8.59835 40.1655 8.49294C40.1695 8.36249 40.1736 8.23205 40.1777 8.09766C40.1913 7.68387 40.2048 7.27008 40.2188 6.84375Z" fill="#F4CE49"/>
<path id="Vector_5" d="M25.0316 29.8125C25.2097 30.0142 25.35 30.1935 25.4945 30.416C25.5337 30.4739 25.5729 30.5318 25.6133 30.5915C25.6937 30.7105 25.7735 30.83 25.8526 30.9499C25.9631 31.116 26.0769 31.2792 26.1925 31.4418C26.7743 32.2749 26.7743 32.2749 26.8129 32.8125C26.6131 33.2405 26.6131 33.2405 26.3441 33.375C25.8776 33.4541 25.8776 33.4541 25.5941 33.375C25.3222 33.1287 25.1337 32.8398 24.9379 32.5313C24.8661 32.4209 24.8661 32.4209 24.7928 32.3083C24.682 32.1342 24.5742 31.9589 24.4691 31.7813C24.0738 32.1309 23.8138 32.5595 23.5316 33C23.4784 33.0827 23.4251 33.1653 23.3702 33.2504C22.8105 34.124 22.2749 35.0112 21.7504 35.9063C21.7127 35.97 21.675 36.0337 21.6362 36.0993C19.7654 39.1927 19.7654 39.1927 19.5707 42.6914C19.6094 42.8036 19.648 42.9157 19.6879 43.0313C19.7223 43.14 19.7223 43.14 19.7574 43.251C20.1715 44.4383 21.1179 45.3941 22.2191 45.9727C23.5443 46.5854 24.9289 46.5704 26.2903 46.0774C26.7311 45.8934 27.0979 45.6736 27.4691 45.375C27.5677 45.3015 27.6663 45.2281 27.7679 45.1524C28.7301 44.2544 29.3087 42.9879 29.3734 41.6778C29.3434 39.8479 28.2498 38.0855 27.4146 36.52C27.3753 36.4462 27.3361 36.3723 27.2957 36.2962C27.2033 36.1227 27.1101 35.9496 27.0168 35.7766C26.863 35.4342 26.8947 35.2316 27.0004 34.875C27.1996 34.6348 27.1996 34.6348 27.4691 34.5C27.8298 34.5443 28.0427 34.6011 28.2968 34.8666C29.7779 36.9738 31.3007 39.9259 30.9085 42.5734C30.6827 43.8119 30.1782 44.8979 29.3441 45.8438C29.2826 45.9141 29.2211 45.9844 29.1577 46.0569C28.1748 47.1099 26.7303 47.9108 25.2715 48.0166C23.1362 48.0679 21.4099 47.7158 19.7816 46.2188C18.5263 44.9792 17.8419 43.3615 17.8066 41.5943C17.949 37.8163 20.8588 33.9031 22.9691 30.9375C23.006 30.8854 23.0429 30.8334 23.0809 30.7797C23.845 29.7027 23.845 29.7027 24.1644 29.543C24.4922 29.5248 24.7558 29.6474 25.0316 29.8125Z" fill="#000001"/>
<path id="Vector_6" d="M21.9375 21.375C23.5462 21.375 25.155 21.375 26.8125 21.375C26.8125 22.86 26.8125 24.345 26.8125 25.875C25.2038 25.875 23.595 25.875 21.9375 25.875C21.9375 24.39 21.9375 22.905 21.9375 21.375Z" fill="#F3CD49"/>
<path id="Vector_7" d="M22.9685 33.75C23.0149 33.8428 23.0149 33.8428 23.0623 33.9375C22.9513 34.1506 22.8347 34.3533 22.7107 34.5586C21.5411 36.57 20.2605 38.9225 20.8181 41.3145C21.3198 42.8572 22.1854 44.1149 23.6248 44.9063C24.5938 45.3873 25.5033 45.5813 26.5779 45.5684C26.646 45.5679 26.7142 45.5675 26.7844 45.5671C26.95 45.566 27.1155 45.5643 27.281 45.5625C26.2371 46.4488 24.9434 46.583 23.6248 46.5C23.2631 46.4422 22.9353 46.3494 22.5935 46.2188C22.4788 46.1758 22.4788 46.1758 22.3617 46.132C21.1525 45.605 20.1587 44.4909 19.6521 43.2891C19.4372 42.7321 19.3864 42.178 19.3708 41.584C19.3663 41.4662 19.3617 41.3483 19.3569 41.2269C19.4169 40.1403 20.0035 39.0326 20.4724 38.0742C20.5002 38.017 20.5279 37.9597 20.5565 37.9007C21.2571 36.4597 22.0672 35.0751 22.9685 33.75Z" fill="#4FA7A7"/>
<path id="Vector_8" d="M25.9448 42.0058C26.4391 42.3006 26.7833 42.6576 26.9467 43.2187C27.0577 43.8054 26.9415 44.3096 26.6245 44.8125C26.1677 45.2494 25.807 45.4728 25.1772 45.498C24.6522 45.4841 24.332 45.3122 23.935 44.9707C23.4976 44.4623 23.3773 44.0457 23.3989 43.3828C23.4728 42.8826 23.7021 42.5601 24.0709 42.2248C24.6684 41.7909 25.2546 41.8103 25.9448 42.0058Z" fill="#D2F1E7"/>
<path id="Vector_9" d="M28.3125 19.5938C28.6219 19.5938 28.9313 19.5938 29.25 19.5938C29.25 22.2544 29.25 24.915 29.25 27.6562C28.9406 27.6562 28.6313 27.6562 28.3125 27.6562C28.3125 24.9956 28.3125 22.335 28.3125 19.5938Z" fill="#DC6335"/>
<path id="Vector_10" d="M19.5938 19.5938C19.8722 19.5938 20.1506 19.5938 20.4375 19.5938C20.4375 22.2544 20.4375 24.915 20.4375 27.6562C20.1591 27.6562 19.8806 27.6562 19.5938 27.6562C19.5938 24.9956 19.5938 22.335 19.5938 19.5938Z" fill="#EB6836"/>
<path id="Vector_11" d="M3.65625 44.8125C5.07938 44.8125 6.5025 44.8125 7.96875 44.8125C7.96875 45.3075 7.96875 45.8025 7.96875 46.3125C6.54562 46.3125 5.1225 46.3125 3.65625 46.3125C3.65625 45.8175 3.65625 45.3225 3.65625 44.8125Z" fill="#F3CC48"/>
<path id="Vector_12" d="M40.2188 1.5C41.6419 1.5 43.065 1.5 44.5312 1.5C44.5312 1.995 44.5312 2.49 44.5312 3C43.1081 3 41.685 3 40.2188 3C40.2188 2.505 40.2188 2.01 40.2188 1.5Z" fill="#F1CB48"/>
<path id="Vector_13" d="M38.625 4.5C41.0381 4.5 43.4513 4.5 45.9375 4.5C45.9375 4.77844 45.9375 5.05688 45.9375 5.34375C43.5244 5.34375 41.1113 5.34375 38.625 5.34375C38.625 5.06531 38.625 4.78688 38.625 4.5Z" fill="#EB6836"/>
<path id="Vector_14" d="M2.0625 42.4688C4.44469 42.4688 6.82688 42.4688 9.28125 42.4688C9.28125 42.7472 9.28125 43.0256 9.28125 43.3125C6.89906 43.3125 4.51688 43.3125 2.0625 43.3125C2.0625 43.0341 2.0625 42.7556 2.0625 42.4688Z" fill="#EB6836"/>
<path id="Vector_15" d="M20.6251 12.6563C21.0364 12.8619 21.2901 13.073 21.4688 13.5C21.5293 13.9662 21.4615 14.2823 21.2118 14.6708C20.9213 15.0198 20.5962 15.0845 20.1622 15.1465C19.7552 15.1332 19.5395 14.9443 19.2514 14.6726C18.9693 14.357 19.0059 14.0436 19.0112 13.6384C19.0469 13.2268 19.2056 13.0288 19.5118 12.7676C19.8908 12.6111 20.2209 12.5921 20.6251 12.6563Z" fill="#E66635"/>
<path id="Vector_16" d="M28.9688 12.6563C29.3801 12.8619 29.6338 13.073 29.8125 13.5C29.8729 13.9663 29.8051 14.2823 29.5554 14.6708C29.318 14.9562 29.0513 15.0624 28.6919 15.1264C28.3234 15.1538 28.099 15.1115 27.8086 14.877C27.4799 14.5404 27.3478 14.352 27.3457 13.8867C27.3549 13.4939 27.3888 13.2419 27.6563 12.9375C28.0513 12.6006 28.4716 12.5774 28.9688 12.6563Z" fill="#E76635"/>
<path id="Vector_17" d="M27.0937 38.5312C27.4912 38.6813 27.7152 38.8269 27.9374 39.1875C28.0072 39.6079 27.9843 40.0027 27.832 40.4004C27.5175 40.7462 27.1797 40.8892 26.7187 40.9219C26.2774 40.9058 26.0836 40.7158 25.7812 40.4062C25.5296 40.0289 25.518 39.7248 25.5937 39.2812C25.9325 38.6636 26.41 38.4471 27.0937 38.5312Z" fill="#D1F1E7"/>
<path id="Vector_18" d="M2.0625 42.4688C2.49562 42.4688 2.92875 42.4688 3.375 42.4688C3.375 42.7472 3.375 43.0256 3.375 43.3125C2.94187 43.3125 2.50875 43.3125 2.0625 43.3125C2.0625 43.0341 2.0625 42.7556 2.0625 42.4688Z" fill="#F79879"/>
<path id="Vector_19" d="M19.5938 26.3438C19.8722 26.3438 20.1506 26.3438 20.4375 26.3438C20.4375 26.7769 20.4375 27.21 20.4375 27.6562C20.1591 27.6562 19.8806 27.6562 19.5938 27.6562C19.5938 27.2231 19.5938 26.79 19.5938 26.3438Z" fill="#F69778"/>
<path id="Vector_20" d="M44.625 4.5C45.0581 4.5 45.4912 4.5 45.9375 4.5C45.9375 4.77844 45.9375 5.05688 45.9375 5.34375C45.5044 5.34375 45.0713 5.34375 44.625 5.34375C44.625 5.06531 44.625 4.78688 44.625 4.5Z" fill="#F79879"/>
<path id="Vector_21" d="M38.625 4.5C39.0581 4.5 39.4912 4.5 39.9375 4.5C39.9375 4.77844 39.9375 5.05688 39.9375 5.34375C39.5044 5.34375 39.0713 5.34375 38.625 5.34375C38.625 5.06531 38.625 4.78688 38.625 4.5Z" fill="#F69778"/>
<path id="Vector_22" d="M8.0625 42.4688C8.46469 42.4688 8.86687 42.4688 9.28125 42.4688C9.28125 42.7472 9.28125 43.0256 9.28125 43.3125C8.87906 43.3125 8.47688 43.3125 8.0625 43.3125C8.0625 43.0341 8.0625 42.7556 8.0625 42.4688Z" fill="#FC9B7B"/>
<path id="Vector_23" d="M28.3125 26.3438C28.5909 26.3438 28.8694 26.3438 29.1563 26.3438C29.1563 26.7459 29.1563 27.1481 29.1563 27.5625C28.8778 27.5625 28.5994 27.5625 28.3125 27.5625C28.3125 27.1603 28.3125 26.7581 28.3125 26.3438Z" fill="#F89979"/>
<path id="Vector_24" d="M28.3125 19.5938C28.5909 19.5938 28.8694 19.5938 29.1563 19.5938C29.1563 19.9959 29.1563 20.3981 29.1563 20.8125C28.8778 20.8125 28.5994 20.8125 28.3125 20.8125C28.3125 20.4103 28.3125 20.0081 28.3125 19.5938Z" fill="#F99A7C"/>
<path id="Vector_25" d="M19.5938 19.5938C19.8722 19.5938 20.1506 19.5938 20.4375 19.5938C20.4375 19.9959 20.4375 20.3981 20.4375 20.8125C20.1591 20.8125 19.8806 20.8125 19.5938 20.8125C19.5938 20.4103 19.5938 20.0081 19.5938 19.5938Z" fill="#FD9D7E"/>
<path id="Vector_26" d="M22.9688 33.75C22.9997 33.8119 23.0306 33.8738 23.0625 33.9375C22.9384 34.1824 22.8093 34.4163 22.6699 34.6523C22.5942 34.7824 22.5186 34.9125 22.4432 35.0427C22.4055 35.1074 22.3677 35.1721 22.3288 35.2387C22.186 35.4966 22.0646 35.7627 21.9465 36.0327C21.8167 36.2283 21.6828 36.2867 21.4688 36.375C21.6284 35.9221 21.8685 35.5259 22.1133 35.1152C22.154 35.046 22.1947 34.9769 22.2367 34.9056C22.4696 34.5121 22.7113 34.1278 22.9688 33.75Z" fill="#4B9FA0"/>
</g>
<defs>
<clipPath id="clip0_3475_1141">
<rect width="48" height="48" fill="white"/>
</clipPath>
</defs>
</svg>
