<svg width="24" height="24" viewBox="0 0 24 24" fill="none" xmlns="http://www.w3.org/2000/svg">
<path opacity="0.4" d="M12 21C17.76 21 21 17.76 21 12C21 6.24 17.76 3 12 3C6.24 3 3 6.24 3 12C3 17.76 6.24 21 12 21Z" fill="#6D6D6D"/>
<path fill-rule="evenodd" clip-rule="evenodd" d="M15.029 9.77438C15.029 11.7132 13.9387 12.8035 11.9999 12.8035C10.061 12.8035 8.97071 11.7132 8.97071 9.77438C8.97071 7.83553 10.061 6.74524 11.9999 6.74524C13.9387 6.74524 15.029 7.83553 15.029 9.77438ZM11.9999 21C14.3887 21 16.3456 20.4432 17.8151 19.38C17.4187 18.1495 16.6421 17.0764 15.5971 16.3153C14.5521 15.5541 13.2927 15.144 11.9999 15.144C10.7071 15.144 9.44758 15.5541 8.40261 16.3153C7.35765 17.0764 6.58106 18.1495 6.18457 19.38C7.65414 20.4407 9.611 21 11.9999 21Z" fill="#6D6D6D"/>
</svg>