<svg width="24" height="24" viewBox="0 0 24 24" fill="none" xmlns="http://www.w3.org/2000/svg">
<path fill-rule="evenodd" clip-rule="evenodd" d="M8.35719 1H15.6428C16.7266 0.999991 17.6008 0.999984 18.3086 1.05782C19.0375 1.11737 19.6777 1.24318 20.27 1.54497C21.2108 2.02434 21.9757 2.78924 22.455 3.73005C22.7568 4.32234 22.8826 4.96253 22.9422 5.69138C23 6.39923 23 7.27334 23 8.35707V13.2547C22.396 12.8334 21.7224 12.5049 21 12.2899V9H3V15.6C3 16.7366 3.00078 17.5289 3.05118 18.1458C3.10062 18.7509 3.1928 19.0986 3.32698 19.362C3.6146 19.9265 4.07354 20.3854 4.63803 20.673C4.90139 20.8072 5.24907 20.8994 5.85424 20.9488C6.47108 20.9992 7.2634 21 8.4 21H12.2899C12.5049 21.7224 12.8334 22.396 13.2547 23H8.35717C7.27344 23 6.39923 23 5.69138 22.9422C4.96253 22.8826 4.32234 22.7568 3.73005 22.455C2.78924 21.9757 2.02434 21.2108 1.54497 20.27C1.24318 19.6777 1.11737 19.0375 1.05782 18.3086C0.999984 17.6008 0.999991 16.7266 1 15.6428V8.35719C0.999991 7.27342 0.999984 6.39925 1.05782 5.69138C1.11737 4.96253 1.24318 4.32234 1.54497 3.73005C2.02434 2.78924 2.78924 2.02434 3.73005 1.54497C4.32234 1.24318 4.96253 1.11737 5.69138 1.05782C6.39925 0.999984 7.27342 0.999991 8.35719 1ZM5.85424 3.05118C5.24907 3.10062 4.90139 3.1928 4.63803 3.32698C4.07354 3.6146 3.6146 4.07354 3.32698 4.63803C3.1928 4.90139 3.10062 5.24907 3.05118 5.85424C3.02462 6.17923 3.01185 6.55292 3.0057 7H20.9943C20.9882 6.55292 20.9754 6.17923 20.9488 5.85424C20.8994 5.24907 20.8072 4.90139 20.673 4.63803C20.3854 4.07354 19.9265 3.6146 19.362 3.32698C19.0986 3.1928 18.7509 3.10062 18.1458 3.05118C17.5289 3.00078 16.7366 3 15.6 3H8.4C7.2634 3 6.47108 3.00078 5.85424 3.05118Z" fill="#6D6D6D"/>
<path d="M15 13C15 13.0984 14.9858 13.1935 14.9593 13.2833C14.6565 13.4977 14.3714 13.7356 14.1068 13.9944C14.0717 13.9981 14.0361 14 14 14C13.4477 14 13 13.5523 13 13C13 12.4477 13.4477 12 14 12C14.5523 12 15 12.4477 15 13Z" fill="#6D6D6D"/>
<path d="M7 13C7 13.5523 6.55229 14 6 14C5.44772 14 5 13.5523 5 13C5 12.4477 5.44772 12 6 12C6.55229 12 7 12.4477 7 13Z" fill="#6D6D6D"/>
<path d="M11 13C11 13.5523 10.5523 14 10 14C9.44772 14 9 13.5523 9 13C9 12.4477 9.44772 12 10 12C10.5523 12 11 12.4477 11 13Z" fill="#6D6D6D"/>
<path d="M6 18C6.55229 18 7 17.5523 7 17C7 16.4477 6.55229 16 6 16C5.44772 16 5 16.4477 5 17C5 17.5523 5.44772 18 6 18Z" fill="#6D6D6D"/>
<path d="M10 18C10.5523 18 11 17.5523 11 17C11 16.4477 10.5523 16 10 16C9.44772 16 9 16.4477 9 17C9 17.5523 9.44772 18 10 18Z" fill="#6D6D6D"/>
<path fill-rule="evenodd" clip-rule="evenodd" d="M19 24C21.7614 24 24 21.7614 24 19C24 16.2386 21.7614 14 19 14C16.2386 14 14 16.2386 14 19C14 21.7614 16.2386 24 19 24ZM21.1467 16.5194C21.5783 16.766 21.7282 17.3157 21.4816 17.7473L19.4816 21.2473C19.329 21.5144 19.0505 21.6851 18.7432 21.6998C18.4358 21.7145 18.1423 21.5711 17.9649 21.3198L16.4649 19.1948C16.1783 18.7887 16.2751 18.2272 16.6812 17.9405C17.0872 17.6539 17.6488 17.7507 17.9355 18.1568L18.6202 19.1268L19.9188 16.8543C20.1654 16.4227 20.7151 16.2728 21.1467 16.5194Z" fill="#6D6D6D"/>
</svg>
