<svg width="24" height="24" viewBox="0 0 24 24" fill="none" xmlns="http://www.w3.org/2000/svg">
<path opacity="0.25" d="M4 12C4 9.87827 4.84285 7.84344 6.34315 6.34315C7.84344 4.84285 9.87827 4 12 4C14.1217 4 16.1566 4.84285 17.6569 6.34315C19.1571 7.84344 20 9.87827 20 12V18.667C20 18.977 20 19.132 19.966 19.259C19.9206 19.4285 19.8313 19.5831 19.7072 19.7072C19.5831 19.8313 19.4285 19.9206 19.259 19.966C19.132 20 18.977 20 18.667 20H12C9.87827 20 7.84344 19.1571 6.34315 17.6569C4.84285 16.1566 4 14.1217 4 12Z" fill="#6D6D6D"/>
<path d="M8.5 10.5H15.5M8.5 13.5H13.5" stroke="#6D6D6D" stroke-linecap="round" stroke-linejoin="round"/>
</svg>
