<svg width="32" height="32" viewBox="0 0 32 32" fill="none" xmlns="http://www.w3.org/2000/svg">
<g id="bxs:offer">
<path id="Vector" d="M27.6652 16L29.1372 13.456C29.3141 13.1499 29.3622 12.7861 29.2709 12.4446C29.1797 12.103 28.9565 11.8117 28.6505 11.6347L26.1038 10.1627V7.22933C26.1038 6.87571 25.9634 6.53657 25.7133 6.28653C25.4633 6.03648 25.1241 5.896 24.7705 5.896H21.8385L20.3678 3.35067C20.1911 3.04444 19.9 2.82095 19.5585 2.72933C19.3893 2.684 19.2129 2.67245 19.0392 2.69532C18.8656 2.7182 18.6982 2.77507 18.5465 2.86267L15.9998 4.33467L13.4532 2.86133C13.1469 2.68453 12.783 2.63662 12.4414 2.72814C12.0999 2.81965 11.8087 3.0431 11.6318 3.34934L10.1598 5.896H7.22785C6.87422 5.896 6.53509 6.03648 6.28504 6.28653C6.03499 6.53657 5.89451 6.87571 5.89451 7.22933V10.1613L3.34785 11.6333C3.19615 11.721 3.06322 11.8377 2.95665 11.9768C2.85008 12.1158 2.77197 12.2745 2.72677 12.4438C2.68157 12.6131 2.67018 12.7896 2.69324 12.9633C2.71631 13.137 2.77337 13.3044 2.86118 13.456L4.33318 16L2.86118 18.544C2.68516 18.8504 2.63741 19.2139 2.72832 19.5553C2.81924 19.8968 3.04145 20.1884 3.34651 20.3667L5.89318 21.8387V24.7707C5.89318 25.1243 6.03365 25.4634 6.2837 25.7135C6.53375 25.9635 6.87289 26.104 7.22651 26.104H10.1598L11.6318 28.6507C11.7499 28.8525 11.9184 29.02 12.1209 29.1369C12.3233 29.2538 12.5527 29.316 12.7865 29.3173C13.0185 29.3173 13.2492 29.256 13.4545 29.1373L15.9985 27.6653L18.5452 29.1373C18.8513 29.3142 19.2151 29.3624 19.5566 29.2711C19.8982 29.1798 20.1895 28.9567 20.3665 28.6507L21.8372 26.104H24.7692C25.1228 26.104 25.4619 25.9635 25.712 25.7135C25.962 25.4634 26.1025 25.1243 26.1025 24.7707V21.8387L28.6492 20.3667C28.8009 20.279 28.9338 20.1623 29.0404 20.0232C29.1469 19.8842 29.2251 19.7255 29.2703 19.5562C29.3154 19.3869 29.3268 19.2104 29.3038 19.0367C29.2807 18.863 29.2236 18.6956 29.1358 18.544L27.6652 16ZM12.6652 9.32C13.1958 9.32018 13.7046 9.53113 14.0797 9.90645C14.4547 10.2818 14.6654 10.7907 14.6652 11.3213C14.665 11.8519 14.454 12.3608 14.0787 12.7358C13.7034 13.1109 13.1945 13.3215 12.6638 13.3213C12.1332 13.3212 11.6244 13.1102 11.2494 12.7349C10.8743 12.3596 10.6637 11.8506 10.6638 11.32C10.664 10.7894 10.875 10.2806 11.2503 9.90551C11.6256 9.53044 12.1346 9.31982 12.6652 9.32ZM13.0652 22.12L10.9318 20.5213L18.9318 9.85467L21.0652 11.4533L13.0652 22.12ZM19.3318 22.6533C19.0691 22.6532 18.809 22.6014 18.5663 22.5008C18.3236 22.4002 18.1031 22.2527 17.9174 22.0669C17.7316 21.881 17.5843 21.6604 17.4839 21.4177C17.3834 21.1749 17.3318 20.9147 17.3318 20.652C17.3319 20.3893 17.3838 20.1291 17.4844 19.8864C17.585 19.6437 17.7325 19.4232 17.9183 19.2375C18.1041 19.0518 18.3247 18.9045 18.5675 18.804C18.8103 18.7036 19.0704 18.6519 19.3332 18.652C19.8638 18.6522 20.3726 18.8631 20.7477 19.2385C21.1227 19.6138 21.3334 20.1227 21.3332 20.6533C21.333 21.1839 21.122 21.6928 20.7467 22.0678C20.3714 22.4429 19.8625 22.6535 19.3318 22.6533Z" fill="#51B748"/>
</g>
</svg>
