<svg width="389" height="333" viewBox="0 0 389 333" fill="none" xmlns="http://www.w3.org/2000/svg">
<path d="M282.468 88.149C251.642 55.2716 204.896 35.918 160.756 51.3425C124.039 64.1552 93.6762 95.8949 77.1665 131.264C65.5513 156.156 59.115 188.405 66.1874 215.535C72.3243 239.064 91.9325 249.527 114.355 251.203C149.814 253.86 185.4 250.013 220.882 250.694C246.066 251.173 284.496 260.491 306.948 245.538C328.166 231.408 326.841 200.634 324.513 178.055C321.056 144.369 305.13 112.33 282.468 88.149Z" fill="#B0B0B0"/>
<path opacity="0.7" d="M282.468 88.149C251.642 55.2716 204.896 35.918 160.756 51.3425C124.039 64.1552 93.6762 95.8949 77.1665 131.264C65.5513 156.156 59.115 188.405 66.1874 215.535C72.3243 239.064 91.9325 249.527 114.355 251.203C149.814 253.86 185.4 250.013 220.882 250.694C246.066 251.173 284.496 260.491 306.948 245.538C328.166 231.408 326.841 200.634 324.513 178.055C321.056 144.369 305.13 112.33 282.468 88.149Z" fill="white"/>
<path d="M95.9896 197.281H79.5247C79.4255 197.281 79.3303 197.242 79.2601 197.171C79.1899 197.101 79.1505 197.006 79.1505 196.907V171.686H74.2634C74.1931 171.687 74.124 171.667 74.0643 171.63C74.0046 171.593 73.9568 171.54 73.9267 171.476C73.8903 171.416 73.8711 171.348 73.8711 171.278C73.8711 171.208 73.8903 171.139 73.9267 171.079L87.3979 154.076C87.4337 154.033 87.4784 153.999 87.5288 153.976C87.5793 153.952 87.6342 153.94 87.6898 153.94C87.7454 153.94 87.8003 153.952 87.8507 153.976C87.9012 153.999 87.9458 154.033 87.9817 154.076L101.453 171.079C101.496 171.134 101.524 171.201 101.531 171.27C101.539 171.34 101.527 171.411 101.496 171.474C101.466 171.537 101.418 171.59 101.359 171.628C101.3 171.665 101.231 171.685 101.161 171.686H96.2515V196.907C96.2553 196.989 96.2316 197.071 96.1843 197.138C96.1369 197.206 96.0684 197.256 95.9896 197.281ZM79.9139 196.533H95.6303V171.311C95.6303 171.212 95.6698 171.117 95.7399 171.047C95.8101 170.977 95.9053 170.937 96.0045 170.937H100.495L87.7721 154.914L75.0493 170.937H79.5397C79.6389 170.937 79.7341 170.977 79.8043 171.047C79.8745 171.117 79.9139 171.212 79.9139 171.311V196.533Z" fill="#B0B0B0"/>
<path d="M261.267 197.281H244.802C244.702 197.281 244.607 197.242 244.537 197.171C244.467 197.101 244.427 197.006 244.427 196.907V171.686H239.518C239.448 171.685 239.379 171.665 239.32 171.628C239.261 171.59 239.213 171.537 239.183 171.474C239.152 171.411 239.14 171.34 239.148 171.27C239.155 171.201 239.183 171.134 239.226 171.079L252.735 154.076C252.771 154.033 252.815 153.999 252.866 153.976C252.916 153.952 252.971 153.94 253.027 153.94C253.082 153.94 253.137 153.952 253.188 153.976C253.238 153.999 253.283 154.033 253.319 154.076L266.827 171.079C266.871 171.134 266.898 171.201 266.906 171.27C266.913 171.34 266.901 171.411 266.871 171.474C266.84 171.537 266.793 171.59 266.733 171.628C266.674 171.665 266.605 171.685 266.535 171.686H261.626V196.907C261.626 197.003 261.588 197.096 261.522 197.166C261.455 197.236 261.363 197.277 261.267 197.281ZM245.191 196.533H260.907V171.311C260.907 171.212 260.947 171.117 261.017 171.047C261.087 170.977 261.182 170.937 261.282 170.937H265.772L253.049 154.914L240.326 170.937H244.817C244.916 170.937 245.011 170.977 245.081 171.047C245.151 171.117 245.191 171.212 245.191 171.311V196.533Z" fill="#B0B0B0"/>
<path d="M302.968 239.154H286.503C286.404 239.154 286.308 239.115 286.238 239.044C286.168 238.974 286.129 238.879 286.129 238.78V213.559H281.242C281.171 213.558 281.103 213.538 281.043 213.501C280.984 213.463 280.937 213.41 280.906 213.347C280.876 213.284 280.864 213.213 280.871 213.143C280.879 213.074 280.906 213.008 280.95 212.953L294.421 195.956C294.457 195.914 294.501 195.88 294.552 195.856C294.602 195.833 294.657 195.821 294.713 195.821C294.768 195.821 294.823 195.833 294.874 195.856C294.924 195.88 294.969 195.914 295.005 195.956L308.476 212.953C308.519 213.008 308.547 213.074 308.554 213.143C308.562 213.213 308.55 213.284 308.52 213.347C308.489 213.41 308.442 213.463 308.382 213.501C308.323 213.538 308.254 213.558 308.184 213.559H303.275V238.78C303.276 238.868 303.246 238.955 303.19 239.023C303.134 239.092 303.055 239.138 302.968 239.154ZM286.9 238.406H302.616V213.185C302.616 213.085 302.655 212.99 302.726 212.92C302.796 212.85 302.891 212.81 302.99 212.81H307.481L294.758 196.787L282.035 212.81H286.525C286.624 212.812 286.718 212.852 286.788 212.922C286.858 212.992 286.898 213.086 286.9 213.185V238.406Z" fill="#B0B0B0"/>
<path d="M285.882 141.353H269.417C269.318 141.353 269.223 141.313 269.153 141.243C269.082 141.173 269.043 141.078 269.043 140.979V115.758H264.133C264.062 115.758 263.993 115.738 263.933 115.699C263.873 115.661 263.826 115.605 263.797 115.54C263.767 115.477 263.755 115.406 263.763 115.336C263.771 115.266 263.798 115.199 263.842 115.144L277.313 98.1476C277.349 98.1049 277.395 98.0707 277.446 98.0472C277.497 98.0237 277.552 98.0116 277.608 98.0116C277.665 98.0116 277.72 98.0237 277.771 98.0472C277.822 98.0707 277.868 98.1049 277.904 98.1476L291.375 115.144C291.418 115.2 291.445 115.266 291.452 115.336C291.459 115.406 291.447 115.476 291.417 115.54C291.387 115.603 291.34 115.657 291.281 115.696C291.222 115.734 291.154 115.755 291.083 115.758H286.174V140.979C286.176 141.065 286.148 141.15 286.095 141.218C286.042 141.286 285.966 141.334 285.882 141.353ZM269.814 140.604H285.53V115.383C285.53 115.284 285.57 115.189 285.64 115.119C285.71 115.049 285.805 115.009 285.905 115.009H290.395L277.672 98.9783L264.949 115.009H269.44C269.539 115.009 269.634 115.049 269.704 115.119C269.774 115.189 269.814 115.284 269.814 115.383V140.604Z" fill="#B0B0B0"/>
<path d="M130.334 144.294H113.869C113.77 144.294 113.675 144.255 113.605 144.185C113.534 144.114 113.495 144.019 113.495 143.92V118.699H108.593C108.522 118.7 108.452 118.681 108.392 118.644C108.332 118.607 108.283 118.554 108.252 118.49C108.22 118.427 108.208 118.356 108.215 118.285C108.222 118.215 108.25 118.148 108.294 118.093L121.802 101.089C121.838 101.046 121.883 101.012 121.933 100.989C121.984 100.965 122.038 100.953 122.094 100.953C122.15 100.953 122.205 100.965 122.255 100.989C122.305 101.012 122.35 101.046 122.386 101.089L135.895 118.093C135.938 118.148 135.965 118.214 135.973 118.283C135.981 118.353 135.969 118.424 135.938 118.487C135.908 118.55 135.86 118.603 135.801 118.641C135.742 118.678 135.673 118.698 135.603 118.699H130.693V143.92C130.693 144.017 130.656 144.11 130.589 144.179C130.522 144.249 130.431 144.29 130.334 144.294ZM114.258 143.546H129.975V118.325C129.975 118.225 130.014 118.13 130.084 118.06C130.155 117.99 130.25 117.95 130.349 117.95H134.839L122.117 101.927L109.394 117.95H113.884C113.983 117.95 114.079 117.99 114.149 118.06C114.219 118.13 114.258 118.225 114.258 118.325V143.546Z" fill="#B0B0B0"/>
<path d="M156.528 239.154H140.063C139.964 239.154 139.869 239.115 139.799 239.044C139.729 238.974 139.689 238.879 139.689 238.78V213.559H134.78C134.71 213.558 134.641 213.538 134.582 213.501C134.522 213.463 134.475 213.41 134.444 213.347C134.414 213.284 134.402 213.213 134.409 213.143C134.417 213.074 134.444 213.008 134.488 212.953L147.996 195.956C148.032 195.914 148.077 195.88 148.127 195.856C148.178 195.833 148.233 195.821 148.288 195.821C148.344 195.821 148.399 195.833 148.449 195.856C148.5 195.88 148.544 195.914 148.58 195.956L162.089 212.953C162.133 213.008 162.16 213.075 162.167 213.145C162.175 213.216 162.162 213.287 162.131 213.35C162.1 213.414 162.051 213.467 161.99 213.504C161.93 213.541 161.86 213.56 161.79 213.559H156.888V238.78C156.888 238.877 156.85 238.97 156.783 239.039C156.716 239.109 156.625 239.15 156.528 239.154ZM140.453 238.406H156.169V213.185C156.169 213.085 156.208 212.99 156.279 212.92C156.349 212.85 156.444 212.81 156.543 212.81H161.034L148.311 196.787L135.588 212.81H140.078C140.178 212.81 140.273 212.85 140.343 212.92C140.413 212.99 140.453 213.085 140.453 213.185V238.406Z" fill="#B0B0B0"/>
<path d="M245.67 63.5415C246.694 58.0881 246.085 52.4538 243.919 47.3451C241.754 42.2364 238.128 37.8807 233.497 34.8243C228.866 31.7679 223.436 30.1468 217.887 30.1642C212.339 30.1817 206.919 31.837 202.307 34.9226C198.958 26.7806 192.886 20.0535 185.13 15.8894C177.373 11.7252 168.411 10.3823 159.774 12.0897C151.137 13.7971 143.361 18.449 137.772 25.2515C132.183 32.0539 129.128 40.5852 129.128 49.3892C129.128 49.8607 129.128 50.3247 129.128 50.7887C123.668 52.3448 118.909 55.7309 115.649 60.3793C112.389 65.0276 110.826 70.6554 111.223 76.3192C111.619 81.9829 113.951 87.3381 117.827 91.4868C121.703 95.6355 126.887 98.3254 132.511 99.1056V99.3675H244.457C249.005 99.2097 253.324 97.3315 256.541 94.1121C259.757 90.8928 261.632 86.5725 261.786 82.0243C261.94 77.476 260.362 73.0388 257.37 69.6094C254.379 66.1799 250.197 64.0139 245.67 63.549V63.5415Z" fill="#B0B0B0" stroke="#B0B0B0" stroke-linecap="round" stroke-linejoin="round"/>
<path d="M245.67 60.1737C246.694 54.7203 246.085 49.086 243.919 43.9773C241.754 38.8686 238.128 34.5129 233.497 31.4565C228.866 28.4001 223.436 26.779 217.887 26.7964C212.339 26.8139 206.919 28.4692 202.307 31.5548C198.958 23.4134 192.887 16.6867 185.131 12.5225C177.375 8.35825 168.414 7.01472 159.778 8.72115C151.141 10.4276 143.365 15.0782 137.775 21.8793C132.186 28.6805 129.13 37.2106 129.128 46.0139C129.128 46.4854 129.128 46.9494 129.128 47.4134C123.668 48.9695 118.909 52.3557 115.649 57.004C112.389 61.6523 110.826 67.2802 111.223 72.9439C111.619 78.6076 113.951 83.9629 117.827 88.1115C121.703 92.2603 126.887 94.9502 132.511 95.7303V95.9922H244.457C249.005 95.8345 253.324 93.9562 256.541 90.7369C259.757 87.5176 261.632 83.1973 261.786 78.649C261.94 74.1007 260.362 69.6635 257.37 66.2341C254.379 62.8047 250.197 60.6386 245.67 60.1737Z" fill="#B0B0B0" stroke="#B0B0B0" stroke-linecap="round" stroke-linejoin="round"/>
<path d="M217.627 158.626L214.82 161.171L220.882 168.348L224.497 166.956L217.627 158.626Z" fill="#B0B0B0" stroke="#B0B0B0" stroke-linecap="round" stroke-linejoin="round"/>
<path d="M214.843 74.3185L195.13 49.509L175.425 74.3185H183.133V111.671H207.135V74.3185H214.843Z" fill="#B0B0B0" stroke="#B0B0B0" stroke-linecap="round" stroke-linejoin="round"/>
<path d="M214.843 72.7094L195.13 47.8999L175.425 72.7094H183.133V110.062H207.135V72.7094H214.843Z" fill="white" stroke="#B0B0B0" stroke-linecap="round" stroke-linejoin="round"/>
<path d="M233.575 105.849H153.414V186.01H233.575V105.849Z" fill="white" stroke="#B0B0B0" stroke-linecap="round" stroke-linejoin="round"/>
<path d="M229.848 109.576H157.141V182.283H229.848V109.576Z" fill="#B0B0B0" stroke="#B0B0B0" stroke-linecap="round" stroke-linejoin="round"/>
<path d="M212.986 134.056L196.028 151.778L182.826 148.081C182.175 147.9 181.492 147.867 180.827 147.987C180.163 148.106 179.533 148.373 178.986 148.77L157.141 164.643V182.313H229.848V144.893L219.445 134.048C219.026 133.616 218.524 133.271 217.969 133.037C217.414 132.802 216.817 132.681 216.214 132.682C215.611 132.683 215.015 132.805 214.461 133.041C213.906 133.277 213.405 133.622 212.986 134.056Z" fill="white" stroke="#B0B0B0" stroke-linecap="round" stroke-linejoin="round"/>
<path d="M192.587 132.62C194.511 127.932 192.271 122.572 187.583 120.647C182.895 118.723 177.535 120.963 175.611 125.65C173.686 130.338 175.926 135.698 180.614 137.623C185.302 139.548 190.662 137.307 192.587 132.62Z" fill="white" stroke="#B0B0B0" stroke-linecap="round" stroke-linejoin="round"/>
</svg>
