<svg width="24" height="23" viewBox="0 0 24 23" fill="none" xmlns="http://www.w3.org/2000/svg">
<path fill-rule="evenodd" clip-rule="evenodd" d="M7.60719 2.33594e-07H14.8928C15.9766 -9.02966e-06 16.8508 -1.64993e-05 17.5586 0.057819C18.2875 0.117368 18.9277 0.243181 19.52 0.544969C20.4608 1.02434 21.2257 1.78924 21.705 2.73005C22.0068 3.32234 22.1326 3.96253 22.1922 4.69138C22.25 5.39923 22.25 6.27334 22.25 7.35707V12.2547C21.646 11.8334 20.9724 11.5049 20.25 11.2899V8H2.25V14.6C2.25 15.7366 2.25078 16.5289 2.30118 17.1458C2.35062 17.7509 2.4428 18.0986 2.57698 18.362C2.8646 18.9265 3.32354 19.3854 3.88803 19.673C4.15139 19.8072 4.49907 19.8994 5.10424 19.9488C5.72108 19.9992 6.5134 20 7.65 20H11.5399C11.7549 20.7224 12.0834 21.396 12.5047 22H7.60717C6.52344 22 5.64923 22 4.94138 21.9422C4.21253 21.8826 3.57234 21.7568 2.98005 21.455C2.03924 20.9757 1.27434 20.2108 0.794969 19.27C0.493181 18.6777 0.367368 18.0375 0.307819 17.3086C0.249984 16.6008 0.249991 15.7266 0.25 14.6428V7.35719C0.249991 6.27342 0.249984 5.39925 0.307819 4.69138C0.367368 3.96253 0.493181 3.32234 0.794969 2.73005C1.27434 1.78924 2.03924 1.02434 2.98005 0.544969C3.57234 0.243181 4.21253 0.117368 4.94138 0.057819C5.64925 -1.64993e-05 6.52342 -9.02966e-06 7.60719 2.33594e-07ZM5.10424 2.05118C4.49907 2.10062 4.15139 2.1928 3.88803 2.32698C3.32354 2.6146 2.8646 3.07354 2.57698 3.63803C2.4428 3.90139 2.35062 4.24907 2.30118 4.85424C2.27462 5.17923 2.26185 5.55292 2.2557 6H20.2443C20.2382 5.55292 20.2254 5.17923 20.1988 4.85424C20.1494 4.24907 20.0572 3.90139 19.923 3.63803C19.6354 3.07354 19.1765 2.6146 18.612 2.32698C18.3486 2.1928 18.0009 2.10062 17.3958 2.05118C16.7789 2.00078 15.9866 2 14.85 2H7.65C6.5134 2 5.72108 2.00078 5.10424 2.05118Z" fill="#888888"/>
<path d="M14.25 12C14.25 12.0984 14.2358 12.1935 14.2093 12.2833C13.9065 12.4977 13.6214 12.7356 13.3568 12.9944C13.3217 12.9981 13.2861 13 13.25 13C12.6977 13 12.25 12.5523 12.25 12C12.25 11.4477 12.6977 11 13.25 11C13.8023 11 14.25 11.4477 14.25 12Z" fill="#888888"/>
<path d="M6.25 12C6.25 12.5523 5.80229 13 5.25 13C4.69772 13 4.25 12.5523 4.25 12C4.25 11.4477 4.69772 11 5.25 11C5.80229 11 6.25 11.4477 6.25 12Z" fill="#888888"/>
<path d="M10.25 12C10.25 12.5523 9.80229 13 9.25 13C8.69772 13 8.25 12.5523 8.25 12C8.25 11.4477 8.69772 11 9.25 11C9.80229 11 10.25 11.4477 10.25 12Z" fill="#888888"/>
<path d="M5.25 17C5.80229 17 6.25 16.5523 6.25 16C6.25 15.4477 5.80229 15 5.25 15C4.69772 15 4.25 15.4477 4.25 16C4.25 16.5523 4.69772 17 5.25 17Z" fill="#888888"/>
<path d="M9.25 17C9.80229 17 10.25 16.5523 10.25 16C10.25 15.4477 9.80229 15 9.25 15C8.69772 15 8.25 15.4477 8.25 16C8.25 16.5523 8.69772 17 9.25 17Z" fill="#888888"/>
<path fill-rule="evenodd" clip-rule="evenodd" d="M18.25 23C21.0114 23 23.25 20.7614 23.25 18C23.25 15.2386 21.0114 13 18.25 13C15.4886 13 13.25 15.2386 13.25 18C13.25 20.7614 15.4886 23 18.25 23ZM20.3967 15.5194C20.8283 15.766 20.9782 16.3157 20.7316 16.7473L18.7316 20.2473C18.579 20.5144 18.3005 20.6851 17.9932 20.6998C17.6858 20.7145 17.3923 20.5711 17.2149 20.3198L15.7149 18.1948C15.4283 17.7887 15.5251 17.2272 15.9312 16.9405C16.3372 16.6539 16.8988 16.7507 17.1855 17.1568L17.8702 18.1268L19.1688 15.8543C19.4154 15.4227 19.9651 15.2728 20.3967 15.5194Z" fill="#888888"/>
</svg>