<svg width="206" height="236" viewBox="0 0 206 236" fill="none" xmlns="http://www.w3.org/2000/svg">
<path d="M38.1967 150.058L32.7872 150.186L30.0432 150.242C29.1286 150.242 28.2057 150.242 27.287 150.266H27.1016V150.054V144.777V144.536H27.3117L32.7666 144.564C34.5835 144.564 36.4004 144.616 38.2214 144.64H38.3162V144.767C38.3162 145.659 38.2791 146.551 38.2626 147.434L38.1967 150.058ZM38.1967 150.058L38.1349 147.387C38.1349 146.509 38.0896 145.64 38.0814 144.777L38.1967 144.904C36.3757 144.928 34.5588 144.98 32.7418 144.98L27.287 145.008L27.493 144.777L27.4682 150.054L27.287 149.846C28.1851 149.846 29.0792 149.846 29.9814 149.846L32.6924 149.902L38.1967 150.058Z" fill="#E7E7E7"/>
<path d="M32.1069 156.704L26.7014 156.836L23.9575 156.893C23.0388 156.893 22.12 156.893 21.1971 156.916H21.0117V156.704V151.436V151.196H21.2177L26.6726 151.224C28.4936 151.224 30.3106 151.276 32.1275 151.3H32.2428V151.427C32.2428 152.319 32.2058 153.211 32.1893 154.094L32.1069 156.704ZM32.1069 156.704L32.0492 154.037C32.0492 153.159 32.0039 152.291 31.9956 151.427L32.1069 151.554C30.29 151.578 28.473 151.63 26.652 151.63L21.1971 151.658L21.4031 151.427L21.3825 156.704L21.1971 156.496C22.0994 156.496 22.9934 156.496 23.8957 156.52L26.6067 156.577L32.1069 156.704Z" fill="#E7E7E7"/>
<path d="M44.5619 156.704L39.14 156.846L36.3961 156.902C35.4773 156.902 34.5586 156.902 33.6357 156.926H33.4544V156.704L33.4297 151.427V151.186H33.6357L39.0906 151.215C40.9116 151.215 42.7285 151.267 44.5454 151.29H44.6608V151.418C44.6608 152.31 44.6237 153.202 44.6072 154.084L44.5619 156.704ZM44.5619 156.704L44.5042 154.037C44.5042 153.159 44.4589 152.291 44.4507 151.427L44.5619 151.554C42.745 151.578 40.9281 151.63 39.107 151.63L33.6522 151.658L33.8582 151.427L33.8376 156.704L33.6522 156.496C34.5544 156.496 35.4485 156.496 36.3508 156.52L39.0617 156.577L44.5619 156.704Z" fill="#E7E7E7"/>
<path d="M153.408 107.087L148.002 107.22L145.258 107.271C144.34 107.271 143.417 107.271 142.498 107.271H142.317V107.059L142.292 101.777V101.541H142.498L147.953 101.57C149.77 101.57 151.591 101.622 153.408 101.65H153.523V101.777C153.523 102.674 153.49 103.566 153.47 104.444L153.408 107.087ZM153.408 107.087L153.35 104.421C153.35 103.538 153.305 102.669 153.297 101.806L153.408 101.933C151.591 101.933 149.77 102.009 147.953 102.013L142.498 102.042L142.704 101.806L142.683 107.087L142.498 106.875C143.396 106.875 144.294 106.875 145.197 106.903L147.908 106.955L153.408 107.087Z" fill="#E7E7E7"/>
<path d="M184.893 156.704L179.488 156.836L176.744 156.893C175.825 156.893 174.902 156.893 173.983 156.916H173.802V156.704L173.777 151.427V151.186H173.983L179.438 151.215C181.259 151.215 183.076 151.267 184.893 151.29H185.008V151.418C185.008 152.31 184.976 153.202 184.955 154.084L184.893 156.704ZM184.893 156.704L184.835 154.037C184.815 153.159 184.79 152.291 184.782 151.427L184.893 151.554C183.076 151.578 181.259 151.63 179.438 151.63L173.983 151.658L174.189 151.427L174.169 156.704L173.983 156.496C174.882 156.496 175.78 156.496 176.682 156.52L179.393 156.577L184.893 156.704Z" fill="#E7E7E7"/>
<path d="M178.808 30.3024L173.402 30.4346L170.654 30.4865C169.739 30.4865 168.817 30.4865 167.898 30.5148H167.717V30.3024L167.684 25.016V24.78H167.89L173.344 24.8083C175.161 24.8083 176.982 24.865 178.799 24.8886H178.915V25.016C178.915 25.9128 178.882 26.8049 178.861 27.6828L178.808 30.3024ZM178.808 30.3024L178.75 27.6356C178.729 26.753 178.705 25.8845 178.696 25.0207L178.808 25.1482C176.991 25.1482 175.17 25.2237 173.353 25.2284L167.898 25.2567L168.104 25.0207V30.3024L167.918 30.09C168.817 30.09 169.715 30.09 170.617 30.1183L173.324 30.1703L178.808 30.3024Z" fill="#E7E7E7"/>
<path d="M184.893 36.9623L179.487 37.0945L176.748 37.1464C175.829 37.1464 174.906 37.1464 173.987 37.1747H173.806V36.9623L173.781 31.6806V31.4446H173.987L179.442 31.473C181.263 31.473 183.08 31.5296 184.897 31.5532H185.012V31.6806C185.012 32.5774 184.979 33.4695 184.959 34.3474L184.893 36.9623ZM184.893 36.9623L184.835 34.2955C184.815 33.4129 184.79 32.5444 184.782 31.6806L184.893 31.8081C183.076 31.8081 181.259 31.8836 179.438 31.8883L173.983 31.9166L174.189 31.6806L174.169 36.9623L173.983 36.7499C174.881 36.7499 175.779 36.7499 176.682 36.7782L179.393 36.8302L184.893 36.9623Z" fill="#E7E7E7"/>
<path d="M79.4214 70.951L74.016 71.0832L71.2721 71.1351C70.3533 71.1351 69.4345 71.1351 68.5117 71.1634H68.3304V70.951L68.3057 65.6693V65.4333H68.5117L73.9665 65.4664C75.7876 65.4664 77.6045 65.5183 79.4214 65.5419H79.5368V65.6693C79.5368 66.5661 79.4997 67.4582 79.4832 68.3409L79.4214 70.951ZM79.4214 70.951L79.3637 68.2842C79.3637 67.4063 79.3184 66.5378 79.3102 65.6693L79.4214 65.8015C77.6045 65.8251 75.7876 65.877 73.9665 65.877L68.5117 65.9053L68.7177 65.6693V70.951L68.5323 70.7433C69.4345 70.7433 70.3286 70.7433 71.2309 70.7669L73.9418 70.8189L79.4214 70.951Z" fill="#E7E7E7"/>
<path d="M85.5103 77.6109L80.1007 77.7431L77.3568 77.795C76.438 77.8186 75.5193 77.795 74.6005 77.8233H74.4151V77.6109L74.3945 72.3293V72.0933H74.6046L80.0595 72.1263C81.8765 72.1263 83.6934 72.1782 85.5144 72.2018H85.6256V72.3293C85.6256 73.2261 85.5886 74.1181 85.5721 75.0008L85.5103 77.6109ZM85.5103 77.6109L85.4485 74.9441C85.4485 74.0662 85.4032 73.193 85.3949 72.3293L85.5103 72.4614C83.6892 72.4614 81.8723 72.5369 80.0554 72.5369L74.6005 72.5653L74.8065 72.3293L74.7818 77.6109L74.6005 77.4033C75.4987 77.4033 76.3927 77.4033 77.295 77.4033L80.006 77.4552L85.5103 77.6109Z" fill="#E7E7E7"/>
<path d="M32.1069 30.3024L26.7014 30.4346L23.9575 30.4865C23.0388 30.4865 22.12 30.4865 21.1971 30.5148H21.0117V30.3024V25.016V24.78H21.2177L26.6726 24.8083C28.4936 24.8083 30.3106 24.865 32.1275 24.8886H32.2428V25.016C32.2428 25.9128 32.2058 26.8049 32.1893 27.6828L32.1069 30.3024ZM32.1069 30.3024L32.0492 27.6356C32.0492 26.753 32.0039 25.8845 31.9956 25.0207L32.1069 25.1482C30.29 25.1482 28.473 25.2237 26.652 25.2284L21.1971 25.2567L21.4237 25.016L21.3825 30.3024L21.1971 30.09C22.0994 30.09 22.9934 30.09 23.8957 30.1183L26.6067 30.1703L32.1069 30.3024Z" fill="#E7E7E7"/>
<path d="M34.9419 0H34.6123V44.2642H34.9419V0Z" fill="#888888"/>
<path d="M48.352 59.2596L47.2602 62.0114H22.2889L21.2012 59.2596L31.8308 50.8297H37.7224L48.352 59.2596Z" fill="#E7E7E7"/>
<path d="M38.4603 42.7065L37.7228 50.8297H31.8312L31.0938 42.7065H38.4603Z" fill="#B0B0B0"/>
<path d="M48.3522 59.2596L47.2604 62.0113H22.2891L21.1973 59.2596H48.3522Z" fill="#B0B0B0"/>
<path d="M64.0952 0H63.7656V35.3953H64.0952V0Z" fill="#888888"/>
<path d="M77.5055 50.386L76.4137 53.1377H51.4424L50.3506 50.386L60.9843 41.9561H66.8718L77.5055 50.386Z" fill="#E7E7E7"/>
<path d="M67.6095 33.8329L66.872 41.9561H60.9846L60.2471 33.8329H67.6095Z" fill="#B0B0B0"/>
<path d="M77.5014 50.386L76.4096 53.1377H51.4383L50.3506 50.386H77.5014Z" fill="#B0B0B0"/>
<path d="M35.4605 90.4305C19.4708 90.4305 19.4461 116.475 35.4605 116.475C51.475 116.475 51.475 90.4305 35.4605 90.4305Z" fill="#E7E7E7"/>
<path d="M45.1839 105.893C44.331 110.372 41.0886 114.262 35.4565 114.262C22.1696 114.262 22.1902 92.6442 35.4565 92.6442H35.7202C23.2325 92.9038 23.2943 113.379 35.9633 113.379C41.1339 113.384 44.2115 109.976 45.1839 105.893Z" fill="#B0B0B0"/>
<path d="M35.5559 95.4951C35.6597 95.4947 35.7598 95.5392 35.8362 95.6197C35.9125 95.7002 35.9596 95.8108 35.9679 95.9293V96.6515C37.077 96.7382 38.1428 97.1779 39.0455 97.9211C39.2021 98.0486 39.2886 98.1571 39.2886 98.3412C39.2888 98.4069 39.2771 98.472 39.2541 98.5322C39.2311 98.5924 39.1974 98.6465 39.1551 98.6909C39.1129 98.7354 39.063 98.7692 39.0086 98.7903C38.9543 98.8113 38.8967 98.8191 38.8395 98.8132C38.7248 98.8182 38.6127 98.7726 38.5264 98.6858C37.7722 98.027 36.8742 97.6187 35.9308 97.5058V102.566C38.5635 103.146 39.6677 104.18 39.6677 105.955C39.6677 107.876 38.1309 109.259 35.9597 109.31V110.726C35.9597 110.852 35.9162 110.972 35.839 111.06C35.7617 111.149 35.6569 111.198 35.5477 111.198C35.4384 111.198 35.3336 111.149 35.2563 111.06C35.1791 110.972 35.1357 110.852 35.1357 110.726V109.31C33.71 109.206 32.3493 108.59 31.2464 107.55C31.1899 107.51 31.1427 107.454 31.109 107.388C31.0753 107.323 31.056 107.249 31.0527 107.172C31.059 107.045 31.1072 106.926 31.1876 106.838C31.2679 106.751 31.3744 106.701 31.4853 106.7C31.6 106.696 31.7119 106.741 31.7985 106.828C32.7398 107.777 33.9229 108.355 35.1727 108.475V103.307C32.5771 102.712 31.5059 101.711 31.5059 99.8988C31.5059 98.0863 33.0262 96.6703 35.1357 96.5948V95.9057C35.1489 95.7898 35.1992 95.6836 35.2768 95.6078C35.3544 95.5319 35.4539 95.4917 35.5559 95.4951ZM35.1769 102.382V97.435C33.4959 97.468 32.3917 98.5206 32.3917 99.828C32.3917 101.06 32.9603 101.82 35.1769 102.382ZM35.9349 103.491V108.494C37.6653 108.456 38.7901 107.404 38.7901 106.03C38.7901 104.784 38.1845 104.015 35.9349 103.491Z" fill="#B0B0B0"/>
<path d="M168.779 28.2398C154.384 31.1992 158.187 55.6158 172.607 52.6658C187.027 49.7158 183.199 25.2756 168.779 28.2398Z" fill="#B0B0B0"/>
<path d="M170.131 27.9613C156.412 30.7933 160.214 55.2145 173.959 52.3873C187.703 49.56 183.876 25.134 170.131 27.9613Z" fill="#E7E7E7"/>
<path d="M180.748 40.7478C180.674 45.1043 178.462 49.3193 173.633 50.3105C162.229 52.6705 159.069 32.3745 170.457 30.0381L170.679 29.9956C160.004 32.4453 163.065 51.6368 173.938 49.3995C178.371 48.4886 180.514 44.7314 180.748 40.7478Z" fill="#B0B0B0"/>
<path d="M172.871 32.6813C172.967 32.6966 173.054 32.7546 173.114 32.8429C173.173 32.9312 173.2 33.0427 173.188 33.1533L173.118 33.8377C174.082 34.0574 174.967 34.6013 175.66 35.4C175.718 35.448 175.764 35.5123 175.794 35.5868C175.823 35.6613 175.835 35.7433 175.829 35.8248C175.814 35.9349 175.763 36.0344 175.687 36.1035C175.61 36.1725 175.514 36.2062 175.417 36.1977C175.367 36.1941 175.317 36.1784 175.273 36.1516C175.228 36.1247 175.189 36.0874 175.157 36.0419C174.585 35.34 173.844 34.8474 173.027 34.6259L172.533 39.4309C174.754 40.2852 175.611 41.3897 175.442 43.0747C175.252 44.8919 173.794 46.0011 171.911 45.8171L171.771 47.1528C171.752 47.2536 171.701 47.3426 171.628 47.4027C171.554 47.4627 171.464 47.4894 171.375 47.4776C171.286 47.4659 171.203 47.4164 171.144 47.339C171.085 47.2615 171.052 47.1615 171.054 47.0584L171.19 45.7038C169.948 45.4243 168.823 44.6786 167.993 43.5845C167.931 43.5237 167.888 43.442 167.871 43.3512C167.853 43.2605 167.861 43.1656 167.894 43.0805C167.926 42.9955 167.982 42.9247 168.053 42.8786C168.123 42.8325 168.205 42.8136 168.285 42.8246C168.37 42.8368 168.448 42.8818 168.508 42.952C169.206 43.9449 170.18 44.6343 171.268 44.9061L171.804 40.0351C169.616 39.1666 168.784 38.0951 168.961 36.3818C169.138 34.6684 170.609 33.5026 172.422 33.7008L172.492 33.0447C172.504 32.9409 172.55 32.8461 172.62 32.7788C172.69 32.7116 172.779 32.6768 172.871 32.6813ZM171.874 39.176L172.352 34.456C170.897 34.2955 169.834 35.1593 169.711 36.3959C169.591 37.5807 169.995 38.3689 171.874 39.176ZM172.422 40.3135L171.936 45.0335C173.439 45.2035 174.515 44.3397 174.647 43.037C174.77 41.8475 174.321 41.064 172.422 40.2947V40.3135Z" fill="#B0B0B0"/>
<path d="M180.979 146.58C180.957 147.096 180.814 147.596 180.567 148.029C180.567 147.929 180.534 147.83 180.514 147.727C180.493 147.623 180.468 147.519 180.44 147.415C180.222 146.701 179.888 146.041 179.455 145.47L179.307 145.277L179.27 145.225C179.244 145.197 179.221 145.167 179.199 145.135C175.215 139.353 171.421 148.722 171.343 148.94C171.343 148.94 171.124 139.594 175.463 139.334C178.886 139.136 181.181 143.691 180.979 146.58Z" fill="#E7E7E7"/>
<path d="M180.575 148.029C180.476 148.192 180.355 148.337 180.217 148.458C178.157 150.28 171.763 149.025 171.367 148.93C177.362 149.591 179.006 147.089 179.294 145.211L179.331 145.263L179.479 145.456C179.909 146.029 180.243 146.689 180.464 147.401C180.493 147.505 180.518 147.613 180.538 147.712C180.559 147.812 180.563 147.93 180.575 148.029Z" fill="#E7E7E7"/>
<path opacity="0.2" d="M180.575 148.029C180.476 148.192 180.355 148.337 180.217 148.458C178.157 150.28 171.763 149.025 171.367 148.93C177.362 149.591 179.006 147.089 179.294 145.211L179.331 145.263L179.479 145.456C179.909 146.029 180.243 146.689 180.464 147.401C180.493 147.505 180.518 147.613 180.538 147.712C180.559 147.812 180.563 147.93 180.575 148.029Z" fill="#050606"/>
<path d="M161.566 147.642C161.627 148.159 161.807 148.647 162.089 149.058C162.089 148.958 162.089 148.855 162.118 148.751C162.129 148.644 162.145 148.539 162.167 148.435C162.324 147.699 162.604 147.005 162.991 146.391L163.119 146.178C163.129 146.16 163.14 146.143 163.152 146.126L163.214 146.032C166.699 139.839 171.256 148.751 171.351 148.958C171.351 148.958 170.79 139.632 166.44 139.849C163.032 140.005 161.125 144.791 161.566 147.642Z" fill="#E7E7E7"/>
<path d="M162.089 149.039C162.201 149.191 162.333 149.322 162.481 149.426C164.697 151.012 170.943 149.072 171.331 148.954C165.414 150.266 163.573 147.958 163.128 146.122C163.115 146.138 163.104 146.155 163.095 146.174L162.967 146.386C162.582 147.001 162.302 147.695 162.143 148.43C162.122 148.538 162.106 148.642 162.094 148.746C162.081 148.85 162.094 148.94 162.089 149.039Z" fill="#E7E7E7"/>
<path opacity="0.2" d="M162.089 149.039C162.201 149.191 162.333 149.322 162.481 149.426C164.697 151.012 170.943 149.072 171.331 148.954C165.414 150.266 163.573 147.958 163.128 146.122C163.115 146.138 163.104 146.155 163.095 146.174L162.967 146.386C162.582 147.001 162.302 147.695 162.143 148.43C162.122 148.538 162.106 148.642 162.094 148.746C162.081 148.85 162.094 148.94 162.089 149.039Z" fill="#050606"/>
<path d="M183.01 180.007H159.827L161.743 150.049L180.695 150.979L183.01 180.007Z" fill="#B0B0B0"/>
<path d="M188.362 180.007H181.165L180.155 150.979L187.077 151.668L188.362 180.007Z" fill="white"/>
<path d="M159.514 150.049V155.897L180.155 155.175V148.477L159.514 150.049Z" fill="#888888"/>
<path d="M187.921 155.897L180.155 155.175V148.477L188.362 150.049L187.921 155.897Z" fill="#B0B0B0"/>
<path d="M173.123 180.007H168.273L167.783 149.421L173.514 148.982L173.123 180.007Z" fill="#E7E7E7"/>
<path d="M184.139 180.007H185.787L185.639 149.53L183.336 149.086L184.139 180.007Z" fill="#E7E7E7"/>
<path d="M162.868 160.055C162.797 160.534 162.617 160.982 162.344 161.353C162.344 161.259 162.344 161.164 162.344 161.065C162.344 160.966 162.32 160.867 162.303 160.763C162.172 160.069 161.926 159.411 161.578 158.823L161.463 158.625L161.43 158.573L161.372 158.483C158.232 152.579 153.775 160.815 153.676 161.004C153.676 161.004 154.393 152.272 158.471 152.593C161.648 152.848 163.337 157.393 162.868 160.055Z" fill="#B0B0B0"/>
<path d="M162.328 161.353C162.219 161.492 162.093 161.612 161.953 161.707C159.839 163.123 154.022 161.141 153.659 161.018C159.18 162.411 160.96 160.296 161.413 158.583L161.446 158.634L161.561 158.833C161.906 159.423 162.151 160.08 162.286 160.773C162.286 160.876 162.315 160.976 162.328 161.075C162.34 161.174 162.328 161.259 162.328 161.353Z" fill="white"/>
<path d="M144.669 158.531C144.681 159.014 144.801 159.486 145.019 159.899C145.019 159.805 145.052 159.711 145.077 159.616C145.098 159.519 145.124 159.422 145.155 159.328C145.372 158.663 145.7 158.053 146.119 157.53L146.26 157.351L146.297 157.303L146.367 157.223C150.223 151.904 153.585 160.801 153.655 160.999C153.655 160.999 154.067 152.239 149.98 151.875C146.791 151.602 144.542 155.812 144.669 158.531Z" fill="#B0B0B0"/>
<path d="M145.024 159.899C145.115 160.054 145.225 160.192 145.35 160.31C147.262 162.075 153.273 161.075 153.643 161.013C148.003 161.485 146.512 159.078 146.281 157.308L146.244 157.355L146.104 157.535C145.686 158.059 145.359 158.669 145.14 159.333C145.109 159.427 145.083 159.523 145.061 159.621C145.053 159.711 145.024 159.805 145.024 159.899Z" fill="white"/>
<path d="M143.112 179.941H164.594L163.807 162.514L145.259 161.754L143.112 179.941Z" fill="#E7E7E7"/>
<path opacity="0.6" d="M143.112 179.941H164.594L163.807 162.514L145.259 161.754L143.112 179.941Z" fill="white"/>
<path d="M138.721 179.941H144.827L145.762 161.754L139.466 163.1L138.721 179.941Z" fill="#E7E7E7"/>
<path d="M164.887 161.821V167.905L145.762 167.149V160.192L164.887 161.821Z" fill="#E7E7E7"/>
<path opacity="0.4" d="M164.887 161.821V167.905L145.762 167.149V160.192L164.887 161.821Z" fill="white"/>
<path d="M138.568 167.905L145.762 167.149V160.192L138.156 161.821L138.568 167.905Z" fill="#E7E7E7"/>
<path opacity="0.1" d="M138.568 167.905L145.762 167.149V160.192L138.156 161.821L138.568 167.905Z" fill="#050606"/>
<path d="M158.723 161.297L158.538 179.941H153.466L153.384 160.843L158.723 161.297Z" fill="#B0B0B0"/>
<path d="M142.729 160.843L140.821 161.249V179.941H142.416L142.729 160.843Z" fill="#B0B0B0"/>
<path d="M42.3456 160.055C42.2751 160.533 42.096 160.98 41.8265 161.353C41.8265 161.259 41.8265 161.164 41.8265 161.065C41.8184 160.964 41.8047 160.863 41.7853 160.763C41.6539 160.069 41.4077 159.411 41.0602 158.823C41.0231 158.757 40.986 158.691 40.9448 158.625C40.9352 158.607 40.9242 158.589 40.9118 158.573C40.9118 158.54 40.8747 158.512 40.8583 158.483C37.7147 152.579 33.2569 160.815 33.1621 161.004C33.1621 161.004 33.8831 152.272 37.9619 152.593C41.1302 152.848 42.8194 157.393 42.3456 160.055Z" fill="#B0B0B0"/>
<path d="M41.8267 161.353C41.7173 161.491 41.591 161.611 41.4518 161.707C39.3382 163.123 33.5166 161.141 33.1582 161.018C38.679 162.411 40.4588 160.296 40.912 158.583C40.9244 158.599 40.9354 158.616 40.945 158.634C40.9862 158.701 41.0233 158.767 41.0604 158.833C41.408 159.42 41.6541 160.079 41.7855 160.773C41.8049 160.872 41.8187 160.973 41.8267 161.075C41.8184 161.164 41.8226 161.259 41.8267 161.353Z" fill="white"/>
<path d="M24.1517 158.531C24.1631 159.014 24.2837 159.486 24.5019 159.899C24.5019 159.805 24.5348 159.711 24.5554 159.616C24.576 159.522 24.6049 159.427 24.6337 159.328C24.8524 158.663 25.1811 158.052 25.6019 157.53L25.742 157.351L25.7791 157.303L25.845 157.223C29.7054 151.904 33.0673 160.801 33.1374 160.999C33.1374 160.999 33.5494 152.239 29.4665 151.875C26.2735 151.602 24.0239 155.812 24.1517 158.531Z" fill="#B0B0B0"/>
<path d="M24.502 159.899C24.5915 160.055 24.7012 160.193 24.8274 160.31C26.7391 162.075 32.7461 161.075 33.121 161.013C27.4848 161.485 25.9934 159.078 25.7627 157.308L25.7256 157.355L25.5855 157.535C25.1672 158.059 24.8387 158.669 24.6173 159.333C24.5885 159.432 24.5638 159.527 24.539 159.621C24.5143 159.715 24.5143 159.805 24.502 159.899Z" fill="white"/>
<path d="M22.5938 179.941H44.0754L43.2885 162.514L24.7403 161.754L22.5938 179.941Z" fill="#E7E7E7"/>
<path opacity="0.6" d="M22.5938 179.941H44.0754L43.2885 162.514L24.7403 161.754L22.5938 179.941Z" fill="white"/>
<path d="M18.2021 179.941H24.3039L25.2391 161.754L18.9437 163.1L18.2021 179.941Z" fill="#E7E7E7"/>
<path d="M44.3684 161.821V167.905L25.2393 167.149V160.192L44.3684 161.821Z" fill="#E7E7E7"/>
<path opacity="0.4" d="M44.3684 161.821V167.905L25.2393 167.149V160.192L44.3684 161.821Z" fill="white"/>
<path d="M18.0456 167.905L25.2391 167.149V160.192L17.6377 161.821L18.0456 167.905Z" fill="#E7E7E7"/>
<path opacity="0.1" d="M18.0456 167.905L25.2391 167.149V160.192L17.6377 161.821L18.0456 167.905Z" fill="#050606"/>
<path d="M38.2048 161.297L38.0152 179.941H32.9476L32.8652 160.843L38.2048 161.297Z" fill="#B0B0B0"/>
<path d="M22.2113 160.843L20.3037 161.249V179.941H21.8982L22.2113 160.843Z" fill="#B0B0B0"/>
<path d="M17.0771 179.983L38.5588 179.87L60.0405 179.827L103 179.752L145.959 179.827L167.441 179.87L188.922 179.983L167.441 180.101L145.959 180.144L103 180.219L60.0405 180.144L38.5588 180.101L17.0771 179.983Z" fill="#050606"/>
<path d="M103 210.229C142.201 210.229 173.979 206.879 173.979 202.748C173.979 198.616 142.201 195.266 103 195.266C63.7991 195.266 32.0205 198.616 32.0205 202.748C32.0205 206.879 63.7991 210.229 103 210.229Z" fill="#E7E7E7"/>
<path d="M33.0297 136.687C33.1288 134.753 33.3672 132.831 33.7425 130.942C34.0387 129.203 34.6492 127.553 35.5347 126.1C35.9456 125.436 36.4675 124.873 37.0701 124.443C37.6727 124.012 38.344 123.724 39.0449 123.593C40.421 123.4 41.7106 124.103 42.7529 125.094C44.026 126.321 45.0025 127.95 45.9171 129.531C46.9227 131.296 47.8362 133.127 48.6528 135.016C48.6588 135.028 48.6602 135.043 48.6567 135.057C48.6533 135.07 48.6452 135.082 48.6342 135.089C48.6233 135.096 48.6104 135.097 48.5985 135.093C48.5865 135.089 48.5764 135.08 48.5704 135.068C47.8623 133.465 47.044 131.929 46.1231 130.475C45.2861 129.082 44.3446 127.776 43.3091 126.572C42.3657 125.514 41.1626 124.528 39.7948 124.476C39.1238 124.485 38.4638 124.673 37.8674 125.025C37.2709 125.378 36.7544 125.885 36.3587 126.505C35.4441 127.846 34.9785 129.526 34.6283 131.159C34.2679 132.959 34.0323 134.788 33.9238 136.63C33.656 140.406 33.5818 144.22 33.5118 148.015C33.4706 150.162 33.4459 152.31 33.4253 154.457C33.4253 155.543 33.4253 156.633 33.4253 157.719C33.4605 158.77 33.4233 159.823 33.314 160.867C33.2852 161.079 32.9803 161.061 32.9515 160.867C32.8388 159.878 32.7961 158.881 32.8237 157.884C32.8237 156.855 32.8237 155.821 32.7949 154.792C32.7784 152.788 32.7715 150.782 32.7743 148.774C32.7455 144.744 32.7908 140.703 33.0297 136.687Z" fill="#050606"/>
<path d="M37.7473 133.836C37.9245 132.764 38.2376 131.367 38.7691 130.532C39.729 129.04 40.759 129.691 39.8032 131.339C39.0986 132.564 38.6412 133.954 38.4642 135.407C38.4642 135.407 40.071 138.036 42.0115 139.33C41.9291 138.32 41.6778 136.767 41.8508 135.266C42.2216 132.014 43.9397 132.198 43.4988 134.794C43.1838 136.509 43.0455 138.262 43.0868 140.014C43.7308 140.494 44.4223 140.883 45.1468 141.175C45.0356 140.802 44.9161 140.349 44.7843 139.802C44.0962 136.889 45.7937 135.978 45.8472 137.616C45.9571 139.015 46.1777 140.399 46.5064 141.751C47.4375 142.11 48.208 142.355 48.6818 142.544C49.9036 143.063 50.9957 143.917 51.8624 145.031C52.7435 144.115 53.4771 143.029 54.0295 141.822C53.4363 141.237 52.4969 140.368 51.1991 139.316C48.7601 137.343 49.6088 134.855 51.5411 136.403C52.9377 137.517 54.0131 139.589 54.5075 140.651C55.1675 138.801 55.5425 136.833 55.6157 134.836C53.6999 132.778 48.9619 129.909 50.3916 129.909C51.677 129.909 54.5487 132.066 55.6034 132.896C55.5781 132.33 55.5245 131.766 55.4427 131.207C53.6381 129.852 47.7795 127.747 48.7106 127.138C49.7365 126.472 53.8277 128.644 55.0637 129.328C54.8304 128.409 54.4641 127.541 53.9801 126.76C51.4875 122.937 46.9761 121.62 45.0315 122.347C43.6471 122.862 44.0509 126.897 43.7543 126.76C38.2335 124.183 35.6997 126.024 37.7473 133.836ZM51.4092 133.392C51.8212 132.844 53.634 134.454 53.1067 135.337C52.5793 136.219 50.9025 134.095 51.4092 133.392ZM41.8549 129.951C42.3329 130.305 41.6242 132.339 40.8826 131.726C40.2481 131.216 41.3688 129.597 41.8549 129.951Z" fill="#51B748"/>
<path opacity="0.1" d="M37.7473 133.836C37.9245 132.764 38.2376 131.367 38.7691 130.532C39.729 129.04 40.759 129.691 39.8032 131.339C39.0986 132.564 38.6412 133.954 38.4642 135.407C38.4642 135.407 40.071 138.036 42.0115 139.33C41.9291 138.32 41.6778 136.767 41.8508 135.266C42.2216 132.014 43.9397 132.198 43.4988 134.794C43.1838 136.509 43.0455 138.262 43.0868 140.014C43.7308 140.494 44.4223 140.883 45.1468 141.175C45.0356 140.802 44.9161 140.349 44.7843 139.802C44.0962 136.889 45.7937 135.978 45.8472 137.616C45.9571 139.015 46.1777 140.399 46.5064 141.751C47.4375 142.11 48.208 142.355 48.6818 142.544C49.9036 143.063 50.9957 143.917 51.8624 145.031C52.7435 144.115 53.4771 143.029 54.0295 141.822C53.4363 141.237 52.4969 140.368 51.1991 139.316C48.7601 137.343 49.6088 134.855 51.5411 136.403C52.9377 137.517 54.0131 139.589 54.5075 140.651C55.1675 138.801 55.5425 136.833 55.6157 134.836C53.6999 132.778 48.9619 129.909 50.3916 129.909C51.677 129.909 54.5487 132.066 55.6034 132.896C55.5781 132.33 55.5245 131.766 55.4427 131.207C53.6381 129.852 47.7795 127.747 48.7106 127.138C49.7365 126.472 53.8277 128.644 55.0637 129.328C54.8304 128.409 54.4641 127.541 53.9801 126.76C51.4875 122.937 46.9761 121.62 45.0315 122.347C43.6471 122.862 44.0509 126.897 43.7543 126.76C38.2335 124.183 35.6997 126.024 37.7473 133.836ZM51.4092 133.392C51.8212 132.844 53.634 134.454 53.1067 135.337C52.5793 136.219 50.9025 134.095 51.4092 133.392ZM41.8549 129.951C42.3329 130.305 41.6242 132.339 40.8826 131.726C40.2481 131.216 41.3688 129.597 41.8549 129.951Z" fill="#050606"/>
<path d="M42.5839 130.579C42.8352 130.008 43.0947 129.441 43.3831 128.894C43.6463 128.351 43.9554 127.838 44.306 127.364C44.2236 127.251 44.1495 127.138 44.0671 127.029C43.9847 126.921 44.0918 126.921 44.1247 126.963C44.2195 127.086 44.306 127.209 44.3967 127.336C44.4152 127.347 44.4298 127.366 44.4379 127.388C44.7798 127.86 45.1053 128.332 45.4143 128.842C45.9625 128.986 46.5031 129.166 47.0335 129.38C47.5814 129.592 48.1211 129.809 48.6526 130.064C48.7103 130.093 48.6815 130.196 48.6279 130.168C48.1005 129.904 47.5649 129.644 47.0211 129.432C46.4773 129.219 45.9787 129.078 45.4555 128.908C45.6244 129.186 45.7933 129.46 45.954 129.743C46.9385 130.101 47.8961 130.549 48.8174 131.084C49.7815 131.608 50.7126 132.221 51.6396 132.835C51.6932 132.868 51.6396 132.962 51.5902 132.925C50.6787 132.315 49.7409 131.759 48.7803 131.258C47.8863 130.786 46.9552 130.385 46.0529 129.927C48.3271 133.996 49.695 138.692 51.5201 143.04C51.5449 143.101 51.4583 143.153 51.4377 143.092C50.8774 141.567 50.2388 140.08 49.6291 138.579C49.0852 137.234 48.5537 135.879 48.0099 134.534C47.8492 134.142 47.6844 133.746 47.5196 133.354C47.6185 135.53 47.5773 137.739 47.8863 139.887C47.8863 139.9 47.8815 139.914 47.873 139.923C47.8645 139.933 47.853 139.939 47.841 139.939C47.829 139.939 47.8174 139.933 47.8089 139.923C47.8004 139.914 47.7957 139.9 47.7957 139.887C47.6638 137.56 47.3054 135.275 47.3219 132.939C47.3219 132.939 47.3219 132.939 47.3219 132.91C46.9346 132.023 46.5226 131.145 46.0859 130.296C45.3319 132.33 44.5409 134.393 44.1865 136.578C44.1865 136.644 44.0794 136.616 44.0959 136.545C44.6109 134.355 45.0847 132.165 46.0035 130.14C45.521 129.218 44.9856 128.333 44.4008 127.492C44.1495 128.035 43.824 128.544 43.5397 129.059C43.2554 129.573 42.9794 130.074 42.7157 130.593C42.1577 131.693 41.6822 132.846 41.2943 134.039C41.2943 134.105 41.1789 134.072 41.2037 134.01C41.6445 132.868 42.0853 131.688 42.5839 130.579Z" fill="#050606"/>
<path d="M24.6413 135.525C26.0997 133.845 27.8013 131.645 30.0549 131.65C32.2344 131.65 33.8371 133.661 34.76 135.738C35.7241 137.904 36.0701 140.359 36.342 142.747C36.662 145.607 36.8545 148.483 36.9188 151.366C36.9601 152.966 36.9518 154.571 36.9188 156.171C36.9192 157.792 36.8117 159.411 36.5975 161.013C36.5563 161.273 36.1855 161.282 36.1855 161.013C36.1196 159.668 36.1855 158.313 36.1855 156.964C36.1855 155.614 36.1855 154.306 36.1319 152.98C36.0454 150.294 35.8765 147.613 35.6005 144.956C35.3615 142.629 35.1678 140.236 34.5581 137.98C34.0101 135.945 32.9801 133.623 31.1838 132.731C28.7118 131.513 26.3346 133.736 24.7319 135.615C24.6701 135.643 24.6001 135.573 24.6413 135.525Z" fill="#050606"/>
<path d="M17.1885 139.273C17.1885 139.618 17.2173 139.957 17.2379 140.288C17.9416 139.688 18.764 139.297 19.6316 139.15C21.6916 138.9 21.5722 140.703 20.1878 140.779C19.2129 140.794 18.2489 141.016 17.345 141.435C17.6829 144.569 18.4327 147.099 18.5481 147.099C20.387 146.987 22.2167 146.727 24.0236 146.32C23.5086 145.065 22.3344 143.389 22.9318 143.257C23.5292 143.125 24.1884 144.611 24.518 146.207C25.8725 145.908 27.2046 145.488 28.502 144.951C27.5915 144.045 26.1783 142.922 26.718 142.44C27.2578 141.959 28.366 143.545 29.0458 144.696C29.6575 144.413 30.236 144.044 30.768 143.597C29.532 141.529 26.545 141.109 26.9364 139.618C27.3278 138.126 30.1294 140.193 31.386 142.959C32.8651 141.208 33.2977 138.711 33.1411 136.602C31.8557 136.432 29.3796 136.738 29.5567 135.681C29.7339 134.624 31.5261 134.827 32.9887 135.44C32.8549 134.6 32.5639 133.803 32.1358 133.104C30.7762 131.112 26.6398 133.647 26.6398 133.647C26.6398 133.647 27.0847 128.884 25.5026 128.058C24.5962 127.586 22.9894 127.586 21.3826 128.677C22.2849 128.762 23.3808 129.087 23.8176 129.805C24.3779 130.72 23.4921 131.221 22.9318 130.796C22.5198 130.499 21.7946 129.555 20.4598 129.432C19.8886 129.98 19.3854 130.616 18.9642 131.32C18.8105 131.582 18.6688 131.853 18.5398 132.132C19.3042 131.739 20.1346 131.545 20.9721 131.562C21.8095 131.579 22.6334 131.807 23.385 132.231C25.1772 133.255 24.176 135.389 22.631 134.558C21.086 133.727 19.6193 132.915 17.9836 133.383C17.4066 135.074 17.1388 136.883 17.1967 138.697C17.9964 138.027 18.8973 137.533 19.8541 137.239C21.6381 136.701 22.1778 137.923 20.2167 138.15C19.1508 138.283 18.1201 138.665 17.1885 139.273ZM19.3638 135.993C19.2402 135.332 20.5051 135.143 20.7152 135.681C20.8882 136.139 19.4792 136.658 19.3638 135.993ZM30.1871 139.66C30.3066 139.301 31.1512 139.712 31.0729 140.16C30.9658 140.76 30.0758 140.024 30.183 139.66H30.1871ZM24.2131 141.982C24.827 141.699 25.791 143.46 25.1195 143.87C24.4479 144.281 23.7022 142.214 24.209 141.982H24.2131Z" fill="#51B748"/>
<path d="M18.791 146.792C19.718 145.008 20.6367 143.219 21.6132 141.473C22.0664 140.656 22.5443 139.858 23.0387 139.075C22.9645 139.075 22.8904 139.032 22.8162 139.018L22.4454 138.933C22.1611 138.877 21.8727 138.829 21.5843 138.796C21.2959 138.763 21.0405 138.749 20.7603 138.744C20.4698 138.726 20.1784 138.743 19.891 138.796C19.8873 138.798 19.8832 138.799 19.8791 138.799C19.875 138.798 19.871 138.797 19.8676 138.794C19.8642 138.791 19.8614 138.788 19.8594 138.784C19.8575 138.78 19.8564 138.775 19.8564 138.77C19.8564 138.766 19.8575 138.761 19.8594 138.757C19.8614 138.753 19.8642 138.749 19.8676 138.747C19.871 138.744 19.875 138.743 19.8791 138.742C19.8832 138.742 19.8873 138.743 19.891 138.744C20.1794 138.744 20.4761 138.716 20.7686 138.711C21.0611 138.707 21.333 138.711 21.6173 138.735C21.8823 138.75 22.1463 138.782 22.4083 138.829L22.8203 138.914C22.9077 138.93 22.9943 138.95 23.0799 138.976C23.5826 138.183 24.1058 137.409 24.6455 136.644C23.0358 135.749 21.3223 135.122 19.5573 134.784C19.5285 134.784 19.5573 134.728 19.5573 134.732C21.3495 135.017 23.0916 135.622 24.7197 136.526C25.0163 136.111 25.3171 135.691 25.6178 135.28C25.9186 134.869 26.31 134.364 26.6149 133.864C26.6149 133.836 26.6767 133.864 26.652 133.897C26.2347 134.426 25.8414 134.979 25.4736 135.554C26.1381 136.084 26.77 136.666 27.3647 137.295C27.9827 137.923 28.6007 138.574 29.1734 139.24C29.1981 139.264 29.1734 139.301 29.1404 139.278C28.5636 138.617 27.9607 137.988 27.3317 137.39C26.7055 136.79 26.0422 136.243 25.4118 135.653L24.9792 136.309L24.7609 136.635C24.5178 136.993 24.2788 137.357 24.0399 137.72C24.3203 138.186 24.5604 138.683 24.7567 139.202C24.9669 139.707 25.1687 140.226 25.3129 140.746C25.647 141.833 25.906 142.949 26.0875 144.083C26.0891 144.087 26.0898 144.092 26.0895 144.096C26.0891 144.101 26.0878 144.106 26.0855 144.11C26.0833 144.113 26.0802 144.117 26.0766 144.119C26.073 144.121 26.069 144.122 26.0648 144.122C26.0607 144.122 26.0567 144.121 26.0531 144.119C26.0495 144.117 26.0464 144.113 26.0442 144.11C26.0419 144.106 26.0406 144.101 26.0402 144.096C26.0399 144.092 26.0405 144.087 26.0422 144.083C25.8523 142.968 25.5765 141.875 25.2182 140.816C25.0369 140.269 24.8309 139.74 24.6208 139.212C24.4107 138.683 24.2088 138.268 24.011 137.796C23.805 138.117 23.599 138.433 23.393 138.74L23.2159 139.023C23.2192 139.027 23.2214 139.032 23.222 139.038C23.2227 139.044 23.2219 139.049 23.2196 139.055C23.2174 139.06 23.2139 139.064 23.2096 139.067C23.2052 139.069 23.2002 139.071 23.1953 139.07C22.5567 140.094 21.9593 141.137 21.3577 142.195C21.3929 142.268 21.4205 142.346 21.4402 142.426C21.4772 142.558 21.5143 142.686 21.5473 142.818C21.6134 143.079 21.6671 143.343 21.7079 143.611C21.7491 143.861 21.778 144.111 21.7986 144.366C21.8033 144.655 21.8226 144.943 21.8563 145.23C21.8563 145.272 21.8027 145.272 21.8109 145.23C21.8282 144.961 21.8101 144.69 21.7574 144.427C21.7244 144.149 21.6791 143.88 21.6256 143.606C21.572 143.332 21.5184 143.134 21.4525 142.879C21.4237 142.756 21.3866 142.638 21.3536 142.52L21.2877 142.322C21.0117 142.818 20.7356 143.318 20.4637 143.818C19.9281 144.814 19.3966 145.815 18.8652 146.811C18.8322 146.863 18.7622 146.816 18.791 146.792Z" fill="#050606"/>
<path d="M33.125 160.442C33.1497 159.432 33.2898 158.413 33.3846 157.412C33.4793 156.411 33.5782 155.397 33.673 154.386C33.7922 152.427 34.0192 150.479 34.3528 148.553C34.6474 146.896 35.3643 145.376 36.4128 144.187C36.9613 143.562 37.6792 143.171 38.448 143.077C39.2204 143.052 39.9782 143.321 40.6028 143.842C41.3166 144.443 41.9318 145.185 42.4197 146.032C42.9461 146.868 43.4184 147.746 43.8329 148.661C43.8329 148.699 43.7999 148.718 43.7834 148.685C43.0007 147.156 41.96 145.821 40.7223 144.758C40.1744 144.237 39.5027 143.916 38.7941 143.837C38.4484 143.83 38.1049 143.902 37.7837 144.049C37.4626 144.195 37.1702 144.414 36.9236 144.692C35.9376 145.776 35.2502 147.167 34.946 148.694C34.5931 150.47 34.3426 152.271 34.1962 154.084C34.0726 155.151 33.9531 156.223 33.8295 157.289C33.7059 158.356 33.6276 159.442 33.4175 160.489C33.4026 160.522 33.3791 160.549 33.3503 160.566C33.3215 160.583 33.2888 160.59 33.2567 160.585C33.2246 160.579 33.1946 160.563 33.1711 160.537C33.1475 160.512 33.1314 160.479 33.125 160.442Z" fill="#050606"/>
<path d="M37.4591 152.602C37.73 153.026 38.0517 153.405 38.415 153.726C38.2708 152.739 38.0977 150.988 38.5303 150.058C39.206 148.614 40.0012 149.331 39.6015 150.592C39.2 151.725 38.9795 152.932 38.9506 154.155C39.8666 154.815 40.8488 155.346 41.8758 155.736C41.7675 155.171 41.7356 154.59 41.781 154.014C41.917 152.465 42.9511 152.494 42.6792 154.103C42.5815 154.726 42.5346 155.358 42.5391 155.991C44.0304 156.519 45.5553 156.914 47.0999 157.171C47.8874 156 48.523 154.704 48.9869 153.324C47.8868 153.008 45.662 152.937 45.6909 152.036C45.7527 150.828 47.9074 151.757 49.1682 152.635C49.4562 151.583 49.5858 150.481 49.5513 149.379C48.5617 149.062 47.545 148.869 46.519 148.803C44.2571 148.581 44.3684 147.108 46.0081 147.146C47.2153 147.17 48.7479 148.019 49.473 148.458C48.9992 144.932 46.6508 142.671 44.7721 142.586C41.608 142.44 42.7451 146.952 42.7451 146.952C42.7451 146.952 40.6027 145.225 38.5756 145.272C36.5486 145.319 35.2961 149.152 37.4591 152.602ZM45.9092 146.084C45.8392 145.574 47.2524 145.452 47.3265 146.084C47.4089 146.834 45.9834 146.598 45.9092 146.084ZM48.2041 151.375C48.1752 151.045 48.785 150.983 48.921 151.403C48.9951 151.672 48.2041 151.701 48.2041 151.375ZM40.6027 151.682C41.0806 151.762 41.3525 153.716 40.5326 153.674C39.8858 153.645 40.1783 151.616 40.5821 151.682H40.6027Z" fill="#51B748"/>
<path opacity="0.1" d="M37.4591 152.602C37.73 153.026 38.0517 153.405 38.415 153.726C38.2708 152.739 38.0977 150.988 38.5303 150.058C39.206 148.614 40.0012 149.331 39.6015 150.592C39.2 151.725 38.9795 152.932 38.9506 154.155C39.8666 154.815 40.8488 155.346 41.8758 155.736C41.7675 155.171 41.7356 154.59 41.781 154.014C41.917 152.465 42.9511 152.494 42.6792 154.103C42.5815 154.726 42.5346 155.358 42.5391 155.991C44.0304 156.519 45.5553 156.914 47.0999 157.171C47.8874 156 48.523 154.704 48.9869 153.324C47.8868 153.008 45.662 152.937 45.6909 152.036C45.7527 150.828 47.9074 151.757 49.1682 152.635C49.4562 151.583 49.5858 150.481 49.5513 149.379C48.5617 149.062 47.545 148.869 46.519 148.803C44.2571 148.581 44.3684 147.108 46.0081 147.146C47.2153 147.17 48.7479 148.019 49.473 148.458C48.9992 144.932 46.6508 142.671 44.7721 142.586C41.608 142.44 42.7451 146.952 42.7451 146.952C42.7451 146.952 40.6027 145.225 38.5756 145.272C36.5486 145.319 35.2961 149.152 37.4591 152.602ZM45.9092 146.084C45.8392 145.574 47.2524 145.452 47.3265 146.084C47.4089 146.834 45.9834 146.598 45.9092 146.084ZM48.2041 151.375C48.1752 151.045 48.785 150.983 48.921 151.403C48.9951 151.672 48.2041 151.701 48.2041 151.375ZM40.6027 151.682C41.0806 151.762 41.3525 153.716 40.5326 153.674C39.8858 153.645 40.1783 151.616 40.5821 151.682H40.6027Z" fill="#050606"/>
<path d="M41.2448 153.872C41.3231 153.627 41.3931 153.4 41.4591 153.131C41.3973 153.386 41.3437 153.636 41.3025 153.891C41.2943 153.919 41.2283 153.9 41.2448 153.872Z" fill="#050606"/>
<path d="M42.0776 150.714C42.2259 150.214 42.3948 149.718 42.5637 149.228C42.6544 148.963 42.7491 148.704 42.848 148.444C42.921 148.215 43.0164 147.997 43.1323 147.793C43.0329 147.59 42.9475 147.378 42.8768 147.16C42.8768 147.16 42.8768 147.122 42.9057 147.16C43.1364 147.505 43.3417 147.871 43.5196 148.255C43.6102 148.43 43.6926 148.604 43.7791 148.774C43.9577 148.794 44.1352 148.825 44.3106 148.869L44.8792 149.001L45.4395 149.152C45.629 149.204 45.8144 149.275 46.0039 149.308C46.0451 149.308 46.0286 149.393 46.0039 149.374C45.8107 149.297 45.6123 149.239 45.4106 149.199C45.2294 149.152 45.0481 149.114 44.8627 149.086C44.6773 149.058 44.496 149.029 44.3106 149.01L43.8986 148.968C43.9769 149.124 44.0552 149.27 44.1293 149.44C44.1387 149.464 44.1497 149.488 44.1623 149.511C44.315 149.51 44.4672 149.53 44.6155 149.572L45.1058 149.685C45.4354 149.77 45.765 149.855 46.0904 149.964C46.7744 150.181 47.45 150.436 48.1257 150.686C48.1628 150.686 48.1257 150.762 48.101 150.747C47.425 150.489 46.7373 150.274 46.041 150.101L45.0687 149.851L44.5784 149.733C44.4517 149.711 44.3265 149.679 44.2035 149.638C44.5496 150.374 44.8792 151.125 45.1799 151.89C45.835 153.551 46.3871 155.264 46.9515 156.973C46.9515 157.016 46.9062 157.044 46.8938 157.001C46.3492 155.288 45.7178 153.613 45.0028 151.984C44.875 151.687 44.7432 151.394 44.6155 151.101C44.6155 151.158 44.5949 151.219 44.5825 151.281C44.5496 151.479 44.5207 151.682 44.4878 151.885C44.4301 152.291 44.3683 152.692 44.3188 153.098C44.1684 153.928 44.0829 154.771 44.0634 155.618C44.0634 155.67 43.9934 155.67 44.0016 155.618C44.0463 155.211 44.0724 154.802 44.0799 154.391C44.1046 153.966 44.1293 153.542 44.1746 153.122C44.22 152.701 44.2612 152.305 44.3188 151.904C44.3477 151.701 44.3806 151.498 44.4136 151.295C44.4211 151.143 44.4547 150.993 44.5125 150.856L43.9563 149.582C43.7791 149.18 43.602 148.784 43.4207 148.387L43.1776 147.882C43.1212 148.09 43.0523 148.294 42.9716 148.491L42.7244 149.18C42.5431 149.685 42.3742 150.195 42.2053 150.705C41.9663 151.432 41.7026 152.173 41.5049 152.928C41.6985 152.196 41.8633 151.446 42.0776 150.714Z" fill="#050606"/>
<path d="M41.459 153.112C41.459 153.055 41.4878 152.999 41.5043 152.937C41.4919 152.999 41.4755 153.055 41.459 153.112Z" fill="#050606"/>
<path d="M27.835 158.479L28.0574 163.874L28.6301 177.784H41.1549L41.7276 163.874L41.9501 158.479H27.835Z" fill="#51B748"/>
<path d="M27.835 158.479L28.0574 163.874H41.7276L41.9501 158.479H27.835Z" fill="#050606"/>
<path d="M26.9408 160.655H42.8398V156.293H26.9408V160.655Z" fill="#51B748"/>
<path d="M40.1405 177.784H37.9404V180.068H40.1405V177.784Z" fill="#51B748"/>
<path d="M40.1405 177.784H37.9404V178.926H40.1405V177.784Z" fill="#050606"/>
<path d="M31.8395 177.784H29.6436V180.068H31.8395V177.784Z" fill="#51B748"/>
<path d="M31.8395 177.784H29.6436V178.926H31.8395V177.784Z" fill="#050606"/>
<path d="M107.104 123.926L106.981 124.119C106.812 124.374 102.84 130.383 100.207 129.727C99.3833 129.519 98.8971 129.009 98.8807 128.311C98.8395 126.932 100.459 125.229 102.411 124.591C103.874 124.148 105.381 123.926 106.894 123.931L107.104 123.926ZM99.4121 127.23C99.2159 127.548 99.1056 127.926 99.0949 128.315C99.0949 128.91 99.5069 129.321 100.253 129.51C102.494 130.067 105.951 125.262 106.672 124.195C105.252 124.21 103.841 124.428 102.469 124.846C101.242 125.203 100.161 126.037 99.4121 127.206V127.23Z" fill="#050606"/>
<path d="M121.916 96.5501C121.854 96.4728 121.779 96.4103 121.696 96.3661C121.613 96.322 121.523 96.297 121.432 96.2926C121.341 96.2882 121.249 96.3045 121.163 96.3406C121.077 96.3767 120.998 96.4318 120.931 96.5029L103.916 114.335C103.837 114.419 103.776 114.521 103.738 114.636C103.699 114.751 103.684 114.874 103.693 114.996L104.245 122.836V122.949L104.266 123.152V123.242L104.476 126.211C104.487 126.388 104.55 126.557 104.654 126.689C104.759 126.821 104.899 126.908 105.053 126.937L107.64 127.442L107.875 127.485L114.739 128.821C114.844 128.844 114.953 128.838 115.056 128.803C115.159 128.769 115.254 128.707 115.332 128.622L132.344 110.79C132.412 110.719 132.467 110.633 132.506 110.537C132.545 110.441 132.567 110.337 132.571 110.231C132.575 110.126 132.56 110.02 132.528 109.921C132.496 109.822 132.447 109.73 132.385 109.653L121.916 96.5501Z" fill="white"/>
<path d="M121.916 96.5498C121.841 96.4551 121.747 96.3828 121.642 96.3392C121.537 96.2956 121.425 96.282 121.314 96.2997C121.203 96.316 121.097 96.3629 121.005 96.4365C120.914 96.5121 120.84 96.6065 120.754 96.6914L119.769 97.7298L117.8 99.8019L113.857 103.955L105.975 112.263L104.006 114.335C103.925 114.409 103.86 114.503 103.817 114.61C103.773 114.717 103.752 114.835 103.755 114.953L103.808 115.713L103.919 117.242L104.364 123.355L104.476 124.884L104.529 125.649L104.558 126.031V126.22C104.563 126.275 104.574 126.329 104.591 126.38C104.623 126.486 104.678 126.582 104.749 126.658C104.821 126.735 104.908 126.79 105.003 126.819C105.201 126.866 105.415 126.904 105.654 126.947L106.972 127.201L112.254 128.216L113.573 128.476L114.232 128.603L114.561 128.669L114.726 128.702C114.774 128.712 114.823 128.712 114.87 128.702C114.966 128.699 115.06 128.668 115.142 128.613C115.186 128.587 115.226 128.556 115.262 128.518L115.385 128.386L115.88 127.872L116.869 126.838L120.828 122.708L128.742 114.448L130.724 112.385L131.713 111.352L132.207 110.833C132.293 110.757 132.366 110.666 132.426 110.563C132.478 110.46 132.509 110.343 132.516 110.224C132.524 110.102 132.504 109.98 132.459 109.87C132.411 109.759 132.347 109.658 132.269 109.572L131.82 109.006L130.918 107.873L129.117 105.607L121.916 96.5498ZM121.916 96.5498L129.167 105.579L130.98 107.835L131.886 108.963L132.339 109.53C132.423 109.621 132.493 109.728 132.545 109.846C132.594 109.971 132.616 110.106 132.611 110.243C132.604 110.378 132.569 110.509 132.508 110.625C132.447 110.739 132.369 110.839 132.277 110.922L131.787 111.441L130.798 112.48L128.829 114.557L120.952 122.859L117.009 127.013L116.024 128.051L115.534 128.57L115.41 128.702C115.364 128.751 115.313 128.794 115.258 128.83C115.146 128.903 115.02 128.945 114.891 128.953C114.829 128.96 114.767 128.96 114.706 128.953L114.537 128.92L114.207 128.858L113.548 128.731L112.229 128.476L106.952 127.404L105.633 127.145C105.411 127.098 105.201 127.065 104.966 127.008C104.844 126.969 104.732 126.897 104.639 126.797C104.546 126.698 104.476 126.574 104.434 126.437C104.416 126.369 104.403 126.3 104.397 126.229V126.036L104.369 125.653L104.319 124.889L104.216 123.359L103.804 117.247L103.701 115.718L103.648 114.948C103.646 114.81 103.672 114.673 103.724 114.548C103.775 114.423 103.85 114.313 103.944 114.226L105.926 112.159L113.84 103.899L117.771 99.783L119.753 97.7157L120.741 96.682C120.828 96.6017 120.902 96.5073 120.993 96.4318C121.086 96.359 121.194 96.3121 121.306 96.2949C121.418 96.2779 121.532 96.2922 121.638 96.3366C121.744 96.381 121.839 96.4541 121.916 96.5498Z" fill="#E7E7E7"/>
<path d="M106.622 123.256C106.664 123.177 106.714 123.104 106.77 123.038C106.955 122.884 107.184 122.814 107.411 122.841C107.639 122.868 107.85 122.991 108.003 123.185C108.157 123.38 108.242 123.633 108.242 123.895C108.243 124.157 108.159 124.41 108.006 124.605C107.965 124.65 107.919 124.69 107.87 124.723L107.78 124.775C107.6 124.87 107.399 124.896 107.205 124.85C107.011 124.804 106.836 124.687 106.704 124.518C106.573 124.349 106.492 124.136 106.474 123.91C106.457 123.685 106.503 123.458 106.605 123.265L106.622 123.256Z" fill="white"/>
<path d="M106.622 123.256C106.664 123.175 106.713 123.1 106.771 123.034C106.954 122.84 107.193 122.73 107.442 122.727C107.571 122.725 107.698 122.752 107.817 122.808C107.935 122.863 108.044 122.944 108.134 123.048C108.229 123.157 108.303 123.287 108.353 123.43C108.402 123.573 108.426 123.726 108.422 123.879C108.418 124.033 108.387 124.184 108.33 124.324C108.274 124.463 108.193 124.588 108.093 124.69L108.011 124.761L107.924 124.827C107.728 124.959 107.497 125.004 107.273 124.955C107.059 124.912 106.863 124.787 106.717 124.601C106.577 124.418 106.492 124.189 106.475 123.946C106.458 123.704 106.51 123.462 106.622 123.256ZM106.622 123.256C106.519 123.459 106.479 123.698 106.511 123.931C106.542 124.153 106.638 124.356 106.784 124.508C106.929 124.66 107.114 124.751 107.31 124.766C107.493 124.777 107.674 124.725 107.83 124.615L107.896 124.554L107.966 124.492C108.124 124.322 108.22 124.089 108.233 123.841C108.25 123.587 108.182 123.336 108.044 123.138C107.971 123.035 107.881 122.949 107.779 122.887C107.678 122.824 107.566 122.786 107.451 122.774C107.331 122.761 107.211 122.776 107.097 122.819C106.983 122.861 106.877 122.929 106.787 123.02C106.722 123.088 106.666 123.167 106.622 123.256Z" fill="#E7E7E7"/>
<path d="M120.758 98.1782L105.102 114.585C105.023 114.667 104.961 114.768 104.921 114.88C104.88 114.993 104.862 115.115 104.867 115.236L105.246 122.765V123.01L105.362 125.28C105.37 125.459 105.433 125.628 105.54 125.758C105.647 125.888 105.791 125.97 105.947 125.988L114.636 127.456C114.741 127.475 114.848 127.466 114.949 127.43C115.05 127.394 115.143 127.332 115.221 127.249L130.877 110.842C131.015 110.703 131.1 110.506 131.112 110.296C131.125 110.085 131.064 109.878 130.943 109.719L121.734 98.2018C121.672 98.1265 121.597 98.0661 121.514 98.0241C121.431 97.9821 121.341 97.9593 121.251 97.9571C121.16 97.955 121.07 97.9734 120.985 98.0113C120.9 98.0493 120.823 98.106 120.758 98.1782ZM121.644 98.301L130.844 109.808C130.896 109.874 130.936 109.95 130.962 110.034C130.987 110.118 130.998 110.206 130.992 110.295C130.987 110.383 130.966 110.469 130.93 110.548C130.895 110.626 130.846 110.696 130.786 110.752L115.13 127.159C115.066 127.229 114.989 127.281 114.905 127.312C114.821 127.343 114.732 127.352 114.644 127.338L105.955 125.87C105.833 125.85 105.721 125.782 105.638 125.677C105.553 125.573 105.503 125.437 105.498 125.295L105.382 123.034V122.784L105.003 115.232C104.999 115.131 105.014 115.031 105.047 114.938C105.081 114.845 105.132 114.761 105.197 114.694L120.853 98.2868C120.96 98.1699 121.103 98.1059 121.251 98.1085C121.399 98.1112 121.54 98.1803 121.644 98.301Z" fill="#050606"/>
<path d="M70.4522 125.231C72.3279 125.225 74.1964 125.499 76.01 126.048C78.4285 126.836 80.4308 128.946 80.3855 130.654C80.3608 131.537 79.7757 132.165 78.7375 132.424C75.4744 133.236 70.551 125.793 70.345 125.476L70.1885 125.236L70.4522 125.231ZM75.9359 126.345C74.2332 125.831 72.4807 125.565 70.72 125.552C71.614 126.85 75.8988 132.83 78.6757 132.136C79.5944 131.91 80.0888 131.395 80.1094 130.659C80.0952 130.177 79.9592 129.709 79.718 129.314C78.7941 127.85 77.4539 126.8 75.9276 126.345H75.9359Z" fill="#050606"/>
<path d="M51.829 91.3178C51.9056 91.2189 51.9988 91.1387 52.103 91.0819C52.2073 91.0251 52.3204 90.9929 52.4357 90.9872C52.551 90.9815 52.6661 91.0024 52.7742 91.0486C52.8823 91.0949 52.9812 91.1655 53.065 91.2565L74.1471 113.356C74.2441 113.459 74.3194 113.586 74.3672 113.727C74.415 113.869 74.4341 114.021 74.4231 114.172L73.7474 123.886V124.023L73.7268 124.278V124.391L73.4714 128.068C73.4565 128.287 73.3778 128.495 73.2479 128.658C73.118 128.82 72.9443 128.928 72.7545 128.965L69.5491 129.592L69.2607 129.644L60.7612 131.301C60.6307 131.329 60.4964 131.321 60.369 131.278C60.2417 131.235 60.1248 131.159 60.0278 131.056L38.9128 108.956C38.8275 108.868 38.7584 108.761 38.7094 108.642C38.6605 108.522 38.6328 108.393 38.6278 108.261C38.6228 108.13 38.6407 107.998 38.6804 107.874C38.7202 107.751 38.781 107.637 38.8593 107.54L51.829 91.3178Z" fill="white"/>
<path d="M42.8972 102.556L40.6601 105.365L39.5435 106.781L38.9873 107.479C38.89 107.585 38.8104 107.709 38.7525 107.848C38.6995 107.984 38.6755 108.133 38.6825 108.282C38.6896 108.432 38.7277 108.577 38.7937 108.707C38.8675 108.835 38.9594 108.948 39.0656 109.042L39.6754 109.684L40.9114 110.963L43.3834 113.521L53.1478 123.745L58.0918 128.856L59.3278 130.135L59.9375 130.777L60.0941 130.938C60.1386 130.984 60.1869 131.025 60.2383 131.061C60.3402 131.127 60.4547 131.164 60.572 131.169C60.6323 131.176 60.693 131.176 60.7533 131.169L60.9593 131.131L61.3713 131.046L62.1953 130.886L63.8433 130.565L70.3858 129.309L72.0338 128.993C72.3016 128.941 72.59 128.894 72.8578 128.837C72.9742 128.799 73.0812 128.73 73.1699 128.636C73.2587 128.542 73.3268 128.425 73.3687 128.295C73.3874 128.229 73.3998 128.161 73.4058 128.092V127.856L73.4388 127.384L73.5088 126.44L73.6448 124.552L74.1968 117L74.3328 115.112L74.4028 114.168C74.4061 114.021 74.3794 113.876 74.3251 113.743C74.2707 113.61 74.1902 113.494 74.0897 113.403L71.6466 110.831L61.7998 100.494L56.9341 95.3443L54.4909 92.7719L53.2549 91.4834C53.1563 91.3721 53.0518 91.2681 52.9418 91.1719C52.8298 91.0798 52.6995 91.0214 52.5627 91.0019C52.4251 90.9799 52.2848 90.9968 52.1541 91.0511C52.0234 91.1054 51.9063 91.1955 51.8129 91.3135L42.8972 102.556ZM52.5792 91.0019C52.7163 91.0226 52.8474 91.0792 52.9624 91.1671C53.0714 91.2663 53.1759 91.3719 53.2755 91.4834L54.5115 92.7625L56.9835 95.3207L61.8904 100.437L71.6878 110.67L74.1598 113.228C74.2766 113.336 74.3701 113.472 74.4331 113.628C74.496 113.784 74.5265 113.954 74.5223 114.125L74.4605 115.069L74.3328 116.957L73.8137 124.533L73.686 126.421L73.6201 127.365L73.5871 127.837V128.078C73.581 128.166 73.5643 128.254 73.5377 128.337C73.4861 128.506 73.3996 128.659 73.2856 128.781C73.1715 128.903 73.0332 128.993 72.8826 129.04C72.59 129.111 72.3346 129.154 72.0586 129.21L70.4106 129.536L63.8721 130.829L62.2241 131.146L61.4001 131.301L60.9881 131.377L60.7863 131.419C60.7082 131.429 60.6295 131.429 60.5514 131.419C60.3919 131.411 60.2365 131.36 60.0982 131.268C60.0305 131.224 59.9681 131.17 59.9128 131.108L59.7604 130.947L59.1506 130.305L57.9146 129.017L53.0324 123.872L43.2598 113.625L40.8207 111.052L39.5847 109.764L38.9709 109.122C38.8606 109.018 38.7647 108.896 38.6866 108.759C38.6146 108.614 38.571 108.453 38.5589 108.287C38.5556 108.124 38.5837 107.963 38.6413 107.815C38.7048 107.667 38.7898 107.533 38.8926 107.418L39.457 106.72L40.5777 105.304L42.8272 102.509L51.8088 91.3229C51.9042 91.2009 52.0245 91.1078 52.1589 91.0518C52.2933 90.9959 52.4377 90.9787 52.5792 91.0019Z" fill="#E7E7E7"/>
<path d="M70.7859 124.405C70.7322 124.307 70.6686 124.217 70.5964 124.136V124.112C70.3718 123.878 70.0751 123.755 69.7714 123.771C69.4678 123.787 69.1821 123.94 68.9772 124.197C68.7723 124.455 68.665 124.795 68.6789 125.142C68.6928 125.49 68.8268 125.818 69.0514 126.052C69.1053 126.105 69.1632 126.153 69.2244 126.194C69.2583 126.222 69.2958 126.245 69.3356 126.26C69.56 126.382 69.8128 126.417 70.0561 126.36C70.2994 126.303 70.5199 126.157 70.6845 125.944C70.8491 125.731 70.9487 125.463 70.9685 125.179C70.9883 124.895 70.9271 124.612 70.7941 124.372L70.7859 124.405Z" fill="white"/>
<path d="M70.6452 126.048C70.464 126.279 70.2202 126.433 69.953 126.487C69.6709 126.55 69.3784 126.495 69.129 126.331L69.0219 126.246L68.9189 126.161C68.7936 126.033 68.6925 125.877 68.6217 125.702C68.5508 125.528 68.5118 125.338 68.5069 125.146C68.5054 124.958 68.5367 124.771 68.5989 124.597C68.6612 124.423 68.7532 124.264 68.8694 124.131C68.9817 124.002 69.1153 123.9 69.2625 123.831C69.4097 123.762 69.5674 123.728 69.7264 123.73C70.0324 123.735 70.326 123.869 70.5504 124.108L70.571 124.131C70.6417 124.214 70.704 124.306 70.7564 124.405C70.8898 124.658 70.9507 124.952 70.9308 125.247C70.9108 125.541 70.811 125.821 70.6452 126.048ZM70.5916 124.136L70.571 124.112C70.4595 123.999 70.3287 123.913 70.1869 123.861C70.0452 123.808 69.8954 123.789 69.747 123.806C69.6037 123.825 69.4651 123.877 69.3392 123.958C69.2134 124.039 69.1027 124.147 69.0136 124.278C68.8445 124.526 68.761 124.837 68.7788 125.151C68.7996 125.458 68.9184 125.745 69.1125 125.958L69.2032 126.038L69.2856 126.109C69.4837 126.25 69.7164 126.314 69.9489 126.291C70.1814 126.268 70.4011 126.16 70.5751 125.982C70.7591 125.793 70.8813 125.538 70.9212 125.259C70.9593 124.971 70.9114 124.677 70.7852 124.424C70.7324 124.318 70.6672 124.221 70.5916 124.136Z" fill="#E7E7E7"/>
<path d="M52.0556 93.3616L40.6596 107.616C40.5101 107.812 40.4344 108.068 40.4491 108.328C40.4637 108.588 40.5676 108.831 40.7379 109.004L60.1266 129.328C60.2231 129.43 60.3383 129.506 60.4637 129.551C60.5891 129.596 60.7216 129.609 60.8518 129.588L71.6173 127.77C71.8036 127.738 71.9747 127.634 72.1021 127.475C72.2296 127.317 72.3057 127.113 72.3177 126.897L72.4619 124.065V123.763L72.9316 114.436C72.9389 114.286 72.9168 114.135 72.8669 113.996C72.8171 113.856 72.7406 113.731 72.6432 113.629L53.2545 93.3002C53.087 93.1297 52.868 93.0407 52.6442 93.0522C52.4203 93.0636 52.2091 93.1746 52.0556 93.3616ZM53.1474 93.456L72.5361 113.785C72.6175 113.869 72.6813 113.973 72.7226 114.089C72.764 114.205 72.7819 114.33 72.775 114.455L72.3054 123.787V124.093L72.1653 126.902C72.156 127.077 72.095 127.244 71.9922 127.374C71.8823 127.504 71.737 127.587 71.5802 127.61L60.8147 129.427C60.7066 129.444 60.5967 129.433 60.4928 129.395C60.3888 129.358 60.2933 129.295 60.2132 129.21L40.8409 108.886C40.6999 108.745 40.6133 108.545 40.6002 108.331C40.5871 108.117 40.6484 107.906 40.7709 107.743L52.1668 93.4843C52.2955 93.3356 52.4694 93.2496 52.6521 93.2444C52.8348 93.2391 53.0123 93.3149 53.1474 93.456Z" fill="#050606"/>
<path d="M113.964 118.54C114.294 118.985 114.466 119.555 114.447 120.138C114.428 120.721 114.219 121.275 113.861 121.69C113.502 122.105 113.022 122.351 112.513 122.38C112.004 122.408 111.504 122.217 111.113 121.844C110.997 121.717 110.886 121.589 110.779 121.453C110.379 120.963 110.06 120.396 109.835 119.777C109.595 119.131 109.534 118.415 109.662 117.728C109.774 117.231 110.003 116.778 110.326 116.421C110.369 116.371 110.42 116.332 110.477 116.305C110.533 116.278 110.594 116.264 110.655 116.264C110.717 116.264 110.777 116.278 110.834 116.305C110.89 116.332 110.942 116.371 110.985 116.421C111.069 116.524 111.116 116.66 111.116 116.801C111.116 116.942 111.069 117.078 110.985 117.181C110.788 117.404 110.646 117.682 110.573 117.988C110.513 118.286 110.513 118.596 110.573 118.894C110.591 118.986 110.614 119.076 110.643 119.163C110.752 118.872 110.915 118.611 111.121 118.399C111.516 117.991 112.036 117.777 112.568 117.804C113.099 117.83 113.6 118.095 113.964 118.54ZM113.276 119.262C113.178 119.14 113.06 119.041 112.929 118.971C112.798 118.901 112.656 118.862 112.512 118.854C112.22 118.84 111.936 118.959 111.72 119.185C111.505 119.411 111.377 119.725 111.364 120.059C111.351 120.393 111.455 120.72 111.652 120.966C111.85 121.213 112.124 121.36 112.416 121.374C112.708 121.389 112.992 121.27 113.208 121.044C113.423 120.818 113.551 120.504 113.564 120.169C113.576 119.835 113.473 119.509 113.276 119.262Z" fill="#51B748"/>
<path d="M114.318 116.766C113.831 116.175 113.507 115.433 113.387 114.632C113.309 114.278 113.316 113.906 113.407 113.556C113.499 113.206 113.672 112.891 113.907 112.644C114.142 112.397 114.431 112.228 114.744 112.154C115.056 112.08 115.38 112.105 115.681 112.225C116.359 112.453 116.968 112.889 117.445 113.485C117.921 114.082 118.246 114.816 118.384 115.609C118.464 115.964 118.457 116.336 118.366 116.687C118.275 117.038 118.103 117.354 117.867 117.601C117.631 117.849 117.341 118.018 117.028 118.091C116.715 118.164 116.391 118.138 116.089 118.016C115.405 117.806 114.79 117.371 114.318 116.766ZM116.761 114.203C116.412 113.753 115.959 113.426 115.455 113.259C115.302 113.197 115.137 113.18 114.977 113.21C114.816 113.239 114.665 113.315 114.536 113.429C114.424 113.567 114.344 113.735 114.301 113.918C114.259 114.101 114.256 114.292 114.293 114.476C114.396 115.067 114.643 115.612 115.006 116.048C115.351 116.499 115.801 116.826 116.304 116.992C116.461 117.052 116.629 117.066 116.793 117.035C116.956 117.004 117.111 116.927 117.243 116.813C117.352 116.673 117.429 116.505 117.468 116.323C117.507 116.141 117.506 115.951 117.465 115.77C117.366 115.177 117.121 114.629 116.761 114.189V114.203Z" fill="#51B748"/>
<path d="M117.643 110.974C117.502 110.823 117.39 110.64 117.313 110.437C117.237 110.234 117.197 110.015 117.197 109.794C117.197 109.573 117.237 109.354 117.313 109.151C117.39 108.948 117.502 108.766 117.643 108.614C117.784 108.47 117.95 108.361 118.129 108.293C118.308 108.225 118.498 108.199 118.686 108.217C118.875 108.235 119.058 108.297 119.225 108.398C119.392 108.5 119.539 108.639 119.658 108.808C119.8 108.956 119.913 109.137 119.991 109.338C120.069 109.539 120.11 109.757 120.111 109.977C120.111 110.198 120.072 110.416 119.995 110.618C119.919 110.82 119.806 111.001 119.665 111.151C119.524 111.301 119.357 111.415 119.175 111.487C118.994 111.559 118.801 111.587 118.609 111.569C118.417 111.551 118.231 111.487 118.062 111.383C117.893 111.278 117.744 111.134 117.626 110.96L117.643 110.974ZM119.134 109.412C119.078 109.318 119.006 109.238 118.923 109.176C118.84 109.114 118.747 109.072 118.649 109.051C118.552 109.03 118.451 109.032 118.354 109.056C118.257 109.08 118.165 109.125 118.084 109.19C117.791 109.492 117.878 110.002 118.183 110.384C118.239 110.478 118.311 110.558 118.395 110.62C118.478 110.682 118.572 110.725 118.67 110.745C118.768 110.766 118.868 110.764 118.966 110.74C119.063 110.716 119.155 110.671 119.237 110.606C119.526 110.299 119.439 109.794 119.134 109.412ZM120.997 113.537L120.288 106.122C120.277 106.058 120.281 105.992 120.3 105.931C120.319 105.869 120.352 105.815 120.395 105.773C120.458 105.702 120.542 105.662 120.63 105.662C120.718 105.662 120.802 105.702 120.865 105.773C120.914 105.842 120.946 105.925 120.955 106.013L121.664 113.429C121.674 113.494 121.669 113.56 121.649 113.622C121.63 113.684 121.596 113.74 121.553 113.783C121.521 113.816 121.485 113.843 121.444 113.86C121.404 113.877 121.361 113.885 121.318 113.883C121.275 113.881 121.232 113.869 121.194 113.847C121.155 113.826 121.12 113.796 121.091 113.759C121.041 113.697 121.009 113.62 120.997 113.537ZM122.286 110.766C122.15 110.617 122.042 110.437 121.968 110.238C121.895 110.039 121.858 109.824 121.86 109.608C121.861 109.392 121.901 109.179 121.978 108.981C122.054 108.783 122.165 108.605 122.303 108.458C122.441 108.311 122.604 108.198 122.782 108.126C122.96 108.054 123.149 108.025 123.337 108.039C123.526 108.054 123.709 108.112 123.877 108.211C124.045 108.31 124.193 108.447 124.313 108.614C124.453 108.766 124.565 108.949 124.641 109.152C124.718 109.355 124.757 109.573 124.757 109.794C124.757 110.015 124.718 110.234 124.641 110.437C124.565 110.639 124.453 110.822 124.313 110.974C124.171 111.116 124.005 111.223 123.826 111.289C123.646 111.356 123.457 111.38 123.269 111.36C123.082 111.341 122.899 111.278 122.733 111.176C122.567 111.074 122.421 110.935 122.303 110.766H122.286ZM123.773 109.204C123.717 109.11 123.646 109.03 123.562 108.968C123.479 108.906 123.386 108.864 123.288 108.843C123.191 108.823 123.091 108.824 122.994 108.848C122.896 108.872 122.804 108.918 122.723 108.982C122.43 109.284 122.517 109.794 122.826 110.176C122.882 110.27 122.954 110.351 123.038 110.413C123.122 110.475 123.215 110.517 123.313 110.538C123.411 110.558 123.512 110.557 123.609 110.533C123.706 110.509 123.799 110.463 123.881 110.398C124.169 110.096 124.078 109.586 123.773 109.204Z" fill="#51B748"/>
<path d="M52.8436 107.021C52.86 107.417 52.8072 107.812 52.6884 108.185C52.5695 108.557 52.3869 108.898 52.1514 109.188C51.6763 109.764 51.0221 110.104 50.3304 110.132C49.9868 110.152 49.6431 110.093 49.3197 109.958C48.9963 109.824 48.6998 109.616 48.4475 109.348C48.1965 109.082 47.9944 108.762 47.8529 108.405C47.7114 108.048 47.6334 107.663 47.6235 107.271C47.6179 107.181 47.6285 107.09 47.6547 107.004C47.6808 106.919 47.722 106.84 47.7756 106.773C47.8292 106.707 47.8942 106.653 47.9665 106.616C48.0389 106.579 48.117 106.56 48.1962 106.559C48.2747 106.555 48.353 106.569 48.4268 106.6C48.5005 106.631 48.5682 106.678 48.626 106.739C48.6838 106.8 48.7305 106.873 48.7635 106.955C48.7965 107.037 48.8152 107.125 48.8183 107.215C48.8246 107.43 48.8683 107.641 48.9469 107.837C49.0254 108.033 49.1372 108.208 49.2757 108.354C49.4142 108.499 49.5766 108.612 49.7534 108.684C49.9303 108.757 50.118 108.789 50.3057 108.777C50.6819 108.759 51.0369 108.573 51.2945 108.258C51.4249 108.101 51.5256 107.914 51.5901 107.71C51.6546 107.507 51.6816 107.29 51.6694 107.073C51.6646 106.86 51.6215 106.65 51.5428 106.457C51.4641 106.264 51.3515 106.091 51.2121 105.95C51.0753 105.802 50.9141 105.687 50.7379 105.611C50.5617 105.536 50.3741 105.502 50.1862 105.511C50.0276 105.517 49.8731 105.452 49.756 105.329C49.6389 105.207 49.5685 105.036 49.5599 104.855C49.5599 104.784 49.5599 104.718 49.5599 104.647C49.5599 104.576 49.5599 104.624 49.5599 104.614C49.5649 104.594 49.5649 104.573 49.5599 104.553C49.5599 104.524 49.5847 104.501 49.6011 104.482C49.6176 104.463 49.6011 104.482 49.6011 104.454C49.6347 104.396 49.6765 104.345 49.7247 104.303L51.8095 102.24C51.8767 102.179 51.9541 102.134 52.037 102.108C52.1198 102.082 52.2064 102.075 52.2915 102.089C52.3064 102.093 52.3219 102.093 52.3368 102.089H52.3739C52.4652 102.116 52.5489 102.17 52.617 102.245L54.9159 104.661C54.9738 104.723 55.0205 104.798 55.0533 104.88C55.0861 104.963 55.1043 105.052 55.107 105.143C55.1097 105.234 55.0967 105.324 55.0689 105.409C55.0411 105.494 54.9989 105.572 54.9448 105.638C54.8907 105.705 54.8257 105.758 54.7536 105.796C54.6814 105.833 54.6035 105.854 54.5243 105.857C54.4451 105.86 54.3662 105.845 54.292 105.814C54.2178 105.782 54.1498 105.733 54.0919 105.671L52.1761 103.656L51.3727 104.439C51.5858 104.567 51.7838 104.726 51.9619 104.911C52.2255 105.177 52.4396 105.5 52.5911 105.863C52.7426 106.226 52.8285 106.62 52.8436 107.021Z" fill="#51B748"/>
<path d="M54.158 109.631C54.7523 108.864 55.5325 108.317 56.3993 108.06C56.7791 107.909 57.1874 107.879 57.5809 107.973C57.9744 108.066 58.3384 108.28 58.6342 108.592C58.93 108.904 59.1465 109.302 59.2608 109.743C59.3751 110.185 59.3829 110.653 59.2833 111.099C59.1267 112.107 58.7122 113.038 58.0926 113.776C57.5008 114.542 56.7259 115.094 55.8637 115.362C55.484 115.511 55.0762 115.539 54.6834 115.445C54.2906 115.351 53.9273 115.136 53.6319 114.825C53.3365 114.514 53.12 114.117 53.0052 113.676C52.8904 113.236 52.8816 112.768 52.9797 112.322C53.132 111.311 53.542 110.375 54.158 109.631ZM57.2357 112.869C57.6923 112.319 58.0036 111.632 58.1338 110.887C58.1844 110.659 58.1846 110.42 58.1342 110.191C58.0839 109.963 57.9846 109.753 57.8454 109.58C57.6807 109.435 57.4878 109.338 57.2832 109.298C57.0787 109.258 56.8687 109.275 56.6712 109.348C56.0398 109.569 55.4712 109.979 55.0243 110.536C54.5774 111.093 54.2684 111.776 54.1292 112.515C54.0815 112.748 54.0836 112.991 54.1353 113.222C54.1869 113.454 54.2866 113.668 54.4258 113.846C54.5909 113.988 54.7841 114.082 54.9882 114.118C55.1923 114.154 55.401 114.132 55.5959 114.054C56.2291 113.844 56.7976 113.434 57.2357 112.869Z" fill="#51B748"/>
<path d="M58.4218 118.897L66.4805 117.056C66.5491 117.035 66.6212 117.035 66.6897 117.056C66.7583 117.077 66.821 117.117 66.8719 117.174C66.9134 117.215 66.9472 117.266 66.9713 117.322C66.9955 117.379 67.0095 117.441 67.0126 117.504C67.0157 117.566 67.0077 117.629 66.9892 117.689C66.9707 117.748 66.942 117.803 66.9049 117.849C66.8364 117.932 66.7471 117.988 66.6494 118.009L58.5907 119.841C58.5182 119.861 58.4424 119.86 58.3703 119.838C58.2983 119.816 58.2323 119.773 58.1787 119.713C58.1384 119.671 58.1058 119.621 58.0827 119.564C58.0597 119.508 58.0466 119.446 58.0443 119.384C58.042 119.322 58.0505 119.26 58.0693 119.201C58.0882 119.143 58.1169 119.089 58.154 119.043C58.2289 118.966 58.322 118.915 58.4218 118.897ZM60.8691 113.79C61.0212 113.576 61.2096 113.399 61.423 113.27C61.6363 113.142 61.8702 113.064 62.1105 113.042C62.3507 113.02 62.5924 113.054 62.8209 113.142C63.0494 113.23 63.26 113.37 63.4399 113.554C63.6134 113.742 63.7515 113.968 63.8459 114.219C63.9403 114.471 63.989 114.741 63.989 115.015C63.989 115.288 63.9403 115.559 63.8459 115.81C63.7515 116.061 63.6134 116.288 63.4399 116.475C63.2875 116.69 63.0987 116.867 62.885 116.995C62.6712 117.124 62.437 117.201 62.1964 117.223C61.9558 117.245 61.7138 117.211 61.485 117.123C61.2561 117.035 61.0452 116.895 60.8649 116.711C60.6934 116.522 60.5569 116.295 60.4639 116.044C60.3708 115.793 60.3231 115.522 60.3234 115.25C60.3238 114.977 60.3724 114.707 60.4661 114.456C60.5599 114.205 60.6969 113.978 60.8691 113.79ZM61.5983 120.45C61.7451 120.228 61.9305 120.044 62.1429 119.908C62.3552 119.773 62.5898 119.69 62.8317 119.664C63.0737 119.638 63.3176 119.671 63.548 119.759C63.7785 119.847 63.9904 119.989 64.1703 120.176C64.3502 120.363 64.4942 120.591 64.5931 120.845C64.6919 121.1 64.7435 121.375 64.7446 121.653C64.7456 121.931 64.6961 122.207 64.5992 122.462C64.5023 122.717 64.36 122.947 64.1815 123.135C64.0291 123.349 63.8405 123.525 63.6272 123.653C63.4138 123.781 63.1801 123.859 62.94 123.881C62.6999 123.903 62.4584 123.869 62.2299 123.782C62.0015 123.694 61.7909 123.554 61.6107 123.371C61.4385 123.183 61.3013 122.957 61.2071 122.706C61.113 122.456 61.0639 122.186 61.0627 121.914C61.0616 121.641 61.1084 121.371 61.2004 121.119C61.2925 120.868 61.4278 120.64 61.5983 120.45ZM62.7437 115.767C63.1557 115.267 63.2257 114.592 62.8755 114.224C62.5253 113.856 61.9609 114.021 61.5777 114.502C61.1657 115.012 61.0998 115.673 61.45 116.041C61.8002 116.409 62.3564 116.249 62.7437 115.767ZM63.477 122.423C63.889 121.927 63.9591 121.252 63.6089 120.884C63.2587 120.516 62.6942 120.681 62.3069 121.162C61.8949 121.672 61.8249 122.338 62.1751 122.706C62.5253 123.074 63.0897 122.904 63.477 122.423Z" fill="#51B748"/>
<path d="M151.616 173.087C151.618 176.249 152.713 179.282 154.664 181.52C156.614 183.758 159.259 185.018 162.019 185.024V200.336H43.9814V185.024C45.3675 185.056 46.745 184.77 48.0336 184.184C49.3221 183.598 50.4957 182.724 51.4856 181.612C52.4756 180.501 53.262 179.174 53.7989 177.709C54.3357 176.245 54.6123 174.673 54.6123 173.085C54.6123 171.497 54.3357 169.924 53.7989 168.46C53.262 166.996 52.4756 165.669 51.4856 164.557C50.4957 163.445 49.3221 162.571 48.0336 161.985C46.745 161.399 45.3675 161.114 43.9814 161.146V131.565H162.019V161.146C159.259 161.152 156.613 162.413 154.662 164.652C152.712 166.89 151.616 169.924 151.616 173.087Z" fill="#51B748"/>
<path opacity="0.3" d="M162.019 185.024V200.336H43.9814V185.024C46.7452 185.024 49.3959 183.767 51.3506 181.528C53.3053 179.29 54.404 176.253 54.405 173.087H151.616C151.618 176.249 152.713 179.282 154.664 181.52C156.614 183.758 159.259 185.018 162.019 185.024Z" fill="white"/>
<g opacity="0.2">
<path d="M55.2292 173.554H54.4052C54.2959 173.554 54.1911 173.505 54.1138 173.416C54.0366 173.328 53.9932 173.208 53.9932 173.082C53.9932 172.957 54.0366 172.837 54.1138 172.749C54.1911 172.66 54.2959 172.61 54.4052 172.61H55.2292C55.3384 172.61 55.4432 172.66 55.5205 172.749C55.5978 172.837 55.6412 172.957 55.6412 173.082C55.6412 173.208 55.5978 173.328 55.5205 173.416C55.4432 173.505 55.3384 173.554 55.2292 173.554Z" fill="#050606"/>
<path d="M147.035 173.554H145.387C145.278 173.554 145.173 173.505 145.096 173.416C145.018 173.328 144.975 173.208 144.975 173.082C144.975 172.957 145.018 172.837 145.096 172.749C145.173 172.66 145.278 172.61 145.387 172.61H147.035C147.144 172.61 147.249 172.66 147.326 172.749C147.404 172.837 147.447 172.957 147.447 173.082C147.447 173.208 147.404 173.328 147.326 173.416C147.249 173.505 147.144 173.554 147.035 173.554ZM141.634 173.554H139.986C139.876 173.554 139.772 173.505 139.694 173.416C139.617 173.328 139.574 173.208 139.574 173.082C139.574 172.957 139.617 172.837 139.694 172.749C139.772 172.66 139.876 172.61 139.986 172.61H141.634C141.743 172.61 141.848 172.66 141.925 172.749C142.002 172.837 142.046 172.957 142.046 173.082C142.046 173.208 142.002 173.328 141.925 173.416C141.848 173.505 141.743 173.554 141.634 173.554ZM136.232 173.554H134.584C134.475 173.554 134.37 173.505 134.293 173.416C134.216 173.328 134.172 173.208 134.172 173.082C134.172 172.957 134.216 172.837 134.293 172.749C134.37 172.66 134.475 172.61 134.584 172.61H136.232C136.342 172.61 136.446 172.66 136.524 172.749C136.601 172.837 136.644 172.957 136.644 173.082C136.644 173.208 136.601 173.328 136.524 173.416C136.446 173.505 136.342 173.554 136.232 173.554ZM130.831 173.554H129.183C129.074 173.554 128.969 173.505 128.892 173.416C128.814 173.328 128.771 173.208 128.771 173.082C128.771 172.957 128.814 172.837 128.892 172.749C128.969 172.66 129.074 172.61 129.183 172.61H130.831C130.94 172.61 131.045 172.66 131.122 172.749C131.2 172.837 131.243 172.957 131.243 173.082C131.243 173.208 131.2 173.328 131.122 173.416C131.045 173.505 130.94 173.554 130.831 173.554ZM125.434 173.554H123.786C123.677 173.554 123.572 173.505 123.494 173.416C123.417 173.328 123.374 173.208 123.374 173.082C123.374 172.957 123.417 172.837 123.494 172.749C123.572 172.66 123.677 172.61 123.786 172.61H125.434C125.543 172.61 125.648 172.66 125.725 172.749C125.802 172.837 125.846 172.957 125.846 173.082C125.846 173.208 125.802 173.328 125.725 173.416C125.648 173.505 125.543 173.554 125.434 173.554ZM120.032 173.554H118.384C118.275 173.554 118.17 173.505 118.093 173.416C118.016 173.328 117.972 173.208 117.972 173.082C117.972 172.957 118.016 172.837 118.093 172.749C118.17 172.66 118.275 172.61 118.384 172.61H120.032C120.142 172.61 120.247 172.66 120.324 172.749C120.401 172.837 120.444 172.957 120.444 173.082C120.444 173.208 120.401 173.328 120.324 173.416C120.247 173.505 120.142 173.554 120.032 173.554ZM114.631 173.554H112.983C112.874 173.554 112.769 173.505 112.692 173.416C112.615 173.328 112.571 173.208 112.571 173.082C112.571 172.957 112.615 172.837 112.692 172.749C112.769 172.66 112.874 172.61 112.983 172.61H114.631C114.74 172.61 114.845 172.66 114.922 172.749C115 172.837 115.043 172.957 115.043 173.082C115.043 173.208 115 173.328 114.922 173.416C114.845 173.505 114.74 173.554 114.631 173.554ZM109.23 173.554H107.582C107.473 173.554 107.368 173.505 107.291 173.416C107.213 173.328 107.17 173.208 107.17 173.082C107.17 172.957 107.213 172.837 107.291 172.749C107.368 172.66 107.473 172.61 107.582 172.61H109.23C109.339 172.61 109.444 172.66 109.521 172.749C109.598 172.837 109.642 172.957 109.642 173.082C109.642 173.208 109.598 173.328 109.521 173.416C109.444 173.505 109.339 173.554 109.23 173.554ZM103.833 173.554H102.185C102.075 173.554 101.971 173.505 101.893 173.416C101.816 173.328 101.773 173.208 101.773 173.082C101.773 172.957 101.816 172.837 101.893 172.749C101.971 172.66 102.075 172.61 102.185 172.61H103.833C103.942 172.61 104.047 172.66 104.124 172.749C104.201 172.837 104.245 172.957 104.245 173.082C104.245 173.208 104.201 173.328 104.124 173.416C104.047 173.505 103.942 173.554 103.833 173.554ZM98.4313 173.554H96.7833C96.674 173.554 96.5692 173.505 96.492 173.416C96.4147 173.328 96.3713 173.208 96.3713 173.082C96.3713 172.957 96.4147 172.837 96.492 172.749C96.5692 172.66 96.674 172.61 96.7833 172.61H98.4313C98.5406 172.61 98.6454 172.66 98.7226 172.749C98.7999 172.837 98.8433 172.957 98.8433 173.082C98.8433 173.208 98.7999 173.328 98.7226 173.416C98.6454 173.505 98.5406 173.554 98.4313 173.554ZM93.03 173.554H91.382C91.2727 173.554 91.1679 173.505 91.0907 173.416C91.0134 173.328 90.97 173.208 90.97 173.082C90.97 172.957 91.0134 172.837 91.0907 172.749C91.1679 172.66 91.2727 172.61 91.382 172.61H93.03C93.1393 172.61 93.2441 172.66 93.3213 172.749C93.3986 172.837 93.442 172.957 93.442 173.082C93.442 173.208 93.3986 173.328 93.3213 173.416C93.2441 173.505 93.1393 173.554 93.03 173.554ZM87.6287 173.554H85.9807C85.8714 173.554 85.7666 173.505 85.6893 173.416C85.6121 173.328 85.5687 173.208 85.5687 173.082C85.5687 172.957 85.6121 172.837 85.6893 172.749C85.7666 172.66 85.8714 172.61 85.9807 172.61H87.6287C87.7379 172.61 87.8427 172.66 87.92 172.749C87.9973 172.837 88.0407 172.957 88.0407 173.082C88.0407 173.208 87.9973 173.328 87.92 173.416C87.8427 173.505 87.7379 173.554 87.6287 173.554ZM82.2315 173.554H80.5835C80.4742 173.554 80.3694 173.505 80.2921 173.416C80.2149 173.328 80.1715 173.208 80.1715 173.082C80.1715 172.957 80.2149 172.837 80.2921 172.749C80.3694 172.66 80.4742 172.61 80.5835 172.61H82.2315C82.3407 172.61 82.4455 172.66 82.5228 172.749C82.6001 172.837 82.6435 172.957 82.6435 173.082C82.6435 173.208 82.6001 173.328 82.5228 173.416C82.4455 173.505 82.3407 173.554 82.2315 173.554ZM76.8301 173.554H75.1821C75.0729 173.554 74.9681 173.505 74.8908 173.416C74.8136 173.328 74.7701 173.208 74.7701 173.082C74.7701 172.957 74.8136 172.837 74.8908 172.749C74.9681 172.66 75.0729 172.61 75.1821 172.61H76.8301C76.9394 172.61 77.0442 172.66 77.1215 172.749C77.1987 172.837 77.2421 172.957 77.2421 173.082C77.2421 173.208 77.1987 173.328 77.1215 173.416C77.0442 173.505 76.9394 173.554 76.8301 173.554ZM71.4288 173.554H69.7808C69.6716 173.554 69.5668 173.505 69.4895 173.416C69.4122 173.328 69.3688 173.208 69.3688 173.082C69.3688 172.957 69.4122 172.837 69.4895 172.749C69.5668 172.66 69.6716 172.61 69.7808 172.61H71.4288C71.5381 172.61 71.6429 172.66 71.7202 172.749C71.7974 172.837 71.8408 172.957 71.8408 173.082C71.8408 173.208 71.7974 173.328 71.7202 173.416C71.6429 173.505 71.5381 173.554 71.4288 173.554ZM66.0316 173.554H64.3836C64.2744 173.554 64.1696 173.505 64.0923 173.416C64.015 173.328 63.9716 173.208 63.9716 173.082C63.9716 172.957 64.015 172.837 64.0923 172.749C64.1696 172.66 64.2744 172.61 64.3836 172.61H66.0316C66.1409 172.61 66.2457 172.66 66.323 172.749C66.4002 172.837 66.4436 172.957 66.4436 173.082C66.4436 173.208 66.4002 173.328 66.323 173.416C66.2457 173.505 66.1409 173.554 66.0316 173.554ZM60.6303 173.554H58.9823C58.873 173.554 58.7682 173.505 58.691 173.416C58.6137 173.328 58.5703 173.208 58.5703 173.082C58.5703 172.957 58.6137 172.837 58.691 172.749C58.7682 172.66 58.873 172.61 58.9823 172.61H60.6303C60.7396 172.61 60.8444 172.66 60.9216 172.749C60.9989 172.837 61.0423 172.957 61.0423 173.082C61.0423 173.208 60.9989 173.328 60.9216 173.416C60.8444 173.505 60.7396 173.554 60.6303 173.554Z" fill="#050606"/>
<path d="M151.617 173.554H150.793C150.684 173.554 150.579 173.505 150.502 173.416C150.424 173.328 150.381 173.208 150.381 173.082C150.381 172.957 150.424 172.837 150.502 172.749C150.579 172.66 150.684 172.61 150.793 172.61H151.617C151.726 172.61 151.831 172.66 151.908 172.749C151.985 172.837 152.029 172.957 152.029 173.082C152.029 173.208 151.985 173.328 151.908 173.416C151.831 173.505 151.726 173.554 151.617 173.554Z" fill="#050606"/>
</g>
<path d="M89.5977 158.979V158.889C89.5977 154.641 92.1397 151.116 95.893 151.116C99.6463 151.116 102.114 154.632 102.114 158.804V158.889C102.114 163.104 99.6093 166.668 95.8189 166.668C92.1026 166.668 89.5977 163.147 89.5977 158.979ZM98.7358 158.979V158.889C98.7358 156.459 97.5245 154.462 95.8189 154.462C94.0349 154.462 92.9719 156.459 92.9719 158.804V158.889C92.9719 161.367 94.2079 163.321 95.893 163.321C97.677 163.312 98.7358 161.325 98.7358 158.979ZM93.9607 179.275L111.364 152.036C111.499 151.787 111.69 151.584 111.917 151.447C112.143 151.311 112.397 151.245 112.653 151.257C112.85 151.253 113.046 151.293 113.229 151.376C113.413 151.459 113.58 151.583 113.721 151.741C113.862 151.899 113.974 152.087 114.051 152.295C114.128 152.503 114.168 152.726 114.169 152.952C114.161 153.359 114.043 153.753 113.831 154.08L96.408 181.309C96.2614 181.556 96.0631 181.756 95.8313 181.892C95.5996 182.028 95.3417 182.096 95.0814 182.088C94.8862 182.092 94.6924 182.051 94.5114 181.967C94.3305 181.883 94.1661 181.759 94.0281 181.6C93.89 181.442 93.7812 181.254 93.7081 181.047C93.6349 180.839 93.599 180.617 93.6023 180.394C93.6158 179.984 93.7411 179.589 93.9607 179.266V179.275ZM105.641 174.555V174.465C105.641 170.217 108.179 166.692 111.932 166.692C115.685 166.692 118.153 170.208 118.153 174.38V174.465C118.153 178.68 115.611 182.244 111.858 182.244C108.105 182.244 105.641 178.699 105.641 174.531V174.555ZM114.779 174.555V174.465C114.779 172.035 113.564 170.038 111.858 170.038C110.074 170.038 109.015 172.035 109.015 174.38V174.465C109.015 176.943 110.226 178.897 111.932 178.897C113.712 178.888 114.779 176.877 114.779 174.531V174.555Z" fill="white"/>
</svg>