<svg width="156" height="156" viewBox="0 0 156 156" fill="none" xmlns="http://www.w3.org/2000/svg">
<path d="M78 0L93.673 9.33192L111.843 7.72443L121.915 22.9325L138.983 29.3678L141.459 47.4398L154.044 60.6434L148.434 78L154.044 95.3566L141.459 108.56L138.983 126.632L121.915 133.068L111.843 148.276L93.673 146.668L78 156L62.327 146.668L44.1571 148.276L34.0851 133.068L17.0171 126.632L14.5412 108.56L1.95562 95.3566L7.566 78L1.95562 60.6434L14.5412 47.4398L17.0171 29.3678L34.0851 22.9325L44.1571 7.72443L62.327 9.33192L78 0Z" fill="#B22222"/>
<path fill-rule="evenodd" clip-rule="evenodd" d="M55.125 61.4792L61.4792 55.125L78 71.6458L94.5208 55.125L100.875 61.4792L84.3542 78L100.875 94.5208L94.5208 100.875L78 84.3542L61.4792 100.875L55.125 94.5208L71.6458 78L55.125 61.4792Z" fill="white" stroke="white" stroke-width="4" stroke-linecap="round" stroke-linejoin="round"/>
</svg>
