<svg width="75" height="24" viewBox="0 0 75 24" fill="none" xmlns="http://www.w3.org/2000/svg">
<path fill-rule="evenodd" clip-rule="evenodd" d="M37.1361 1.21065C37.4972 0.929784 38.0028 0.929784 38.3639 1.21065L47.3639 8.21065C47.6075 8.4001 47.75 8.69141 47.75 9V20C47.75 20.7957 47.4339 21.5587 46.8713 22.1213C46.3087 22.6839 45.5457 23 44.75 23H30.75C29.9543 23 29.1913 22.6839 28.6287 22.1213C28.0661 21.5587 27.75 20.7957 27.75 20V9C27.75 8.69141 27.8925 8.4001 28.1361 8.21065L37.1361 1.21065ZM29.75 9.48908V20C29.75 20.2652 29.8554 20.5196 30.0429 20.7071C30.2304 20.8946 30.4848 21 30.75 21H44.75C45.0152 21 45.2696 20.8946 45.4571 20.7071C45.6446 20.5196 45.75 20.2652 45.75 20V9.48908L37.75 3.26686L29.75 9.48908Z" fill="#51B748"/>
<path fill-rule="evenodd" clip-rule="evenodd" d="M33.75 12C33.75 11.4477 34.1977 11 34.75 11H40.75C41.3023 11 41.75 11.4477 41.75 12V22C41.75 22.5523 41.3023 23 40.75 23C40.1977 23 39.75 22.5523 39.75 22V13H35.75V22C35.75 22.5523 35.3023 23 34.75 23C34.1977 23 33.75 22.5523 33.75 22V12Z" fill="#51B748"/>
</svg>