<svg width="312" height="312" viewBox="0 0 312 312" fill="none" xmlns="http://www.w3.org/2000/svg">
<path d="M291.347 157.188C288.28 183.188 276.419 213.423 252.695 227.306C216.875 248.299 219.873 280.574 149.947 294.606C139.75 296.702 129.356 297.684 118.947 297.536C113.852 297.442 108.769 297.027 103.727 296.292C59.2846 289.805 29.3788 258.916 18.4068 221.621C3.97015 172.583 32.7998 140.45 51.9077 121.131C71.0155 101.811 85.0167 41.5147 153.648 27.2087C164.116 24.9622 174.809 23.9311 185.513 24.136C209.933 24.758 236.567 32.7569 254.997 49.4887C256.378 50.7327 257.725 52.0348 259.04 53.3949C284.654 79.6993 295.539 121.74 291.347 157.188Z" fill="#51B748"/>
<path opacity="0.7" d="M291.347 157.188C288.28 183.188 276.419 213.423 252.695 227.306C216.875 248.299 219.873 280.574 149.947 294.606C139.75 296.702 129.356 297.684 118.947 297.536C113.852 297.442 108.769 297.027 103.727 296.292C59.2846 289.805 29.3788 258.916 18.4068 221.621C3.97015 172.583 32.7998 140.45 51.9077 121.131C71.0155 101.811 85.0167 41.5147 153.648 27.2087C164.116 24.9622 174.809 23.9311 185.513 24.136C209.933 24.758 236.567 32.7569 254.997 49.4887C256.378 50.7327 257.725 52.0348 259.04 53.3949C284.654 79.6993 295.539 121.74 291.347 157.188Z" fill="white"/>
<path d="M14.3457 165.815C16.2801 166.661 21.026 166.574 21.026 166.574C21.026 166.574 20.0059 163.464 19.9188 163.29C18.8677 161.1 15.5835 157.518 12.94 157.866C12.4984 157.938 12.0769 158.102 11.7029 158.348C11.3289 158.594 11.0108 158.915 10.7691 159.292C10.5274 159.668 10.3677 160.092 10.3002 160.534C10.2327 160.976 10.259 161.428 10.3774 161.859C10.8003 163.725 12.6974 165.1 14.3457 165.815Z" fill="#131A43"/>
<path d="M15.9746 179.518C17.9837 179.81 22.1946 178.585 22.5367 178.492C23.234 180.907 24.09 183.274 25.0993 185.576C25.6778 186.92 26.306 188.257 26.9653 189.588C26.5797 189.022 26.2314 188.518 26.1754 188.456C24.6017 186.633 20.4903 184.046 18.0085 185.097C17.6006 185.283 17.2365 185.553 16.94 185.889C16.6435 186.225 16.4214 186.62 16.2881 187.048C16.1548 187.476 16.1134 187.928 16.1666 188.373C16.2197 188.818 16.3663 189.247 16.5966 189.632C17.5109 191.299 19.7066 192.12 21.4855 192.381C23.2644 192.642 26.9094 191.672 27.861 191.404C28.116 191.908 28.3648 192.418 28.6199 192.928C29.8639 195.36 31.0705 197.786 32.2026 200.199C32.6069 201.051 32.9676 201.904 33.3346 202.756C32.9925 202.252 32.7126 201.835 32.6442 201.773C31.0705 199.957 26.9591 197.363 24.4773 198.42C24.0709 198.607 23.7083 198.877 23.413 199.213C23.1177 199.549 22.8963 199.943 22.7631 200.37C22.63 200.797 22.5881 201.247 22.6402 201.691C22.6923 202.136 22.8371 202.564 23.0654 202.949C23.9797 204.616 26.1754 205.437 27.9543 205.698C29.7332 205.959 33.0236 205.076 34.1743 204.771C34.5226 205.654 34.8772 206.537 35.1695 207.408C35.3623 208.03 35.5863 208.571 35.7418 209.187C35.8973 209.803 36.0776 210.388 36.2456 210.979C36.5193 212.129 36.8116 213.317 37.0542 214.443C37.2283 215.233 37.3776 215.979 37.5331 216.738C37.1475 215.886 36.3513 214.25 36.2891 214.107C35.014 212.067 31.3131 208.882 28.7256 209.548C28.2898 209.669 27.8847 209.881 27.5368 210.17C27.189 210.458 26.9064 210.818 26.7077 211.224C26.509 211.63 26.3987 212.074 26.3842 212.526C26.3696 212.978 26.4511 213.428 26.6232 213.846C27.2452 215.631 29.3227 216.782 31.0394 217.304C32.9365 217.883 37.1226 217.354 37.6451 217.304C37.9001 218.548 38.1302 219.792 38.3293 220.931C38.7833 223.481 39.1192 225.764 39.3742 227.698H41.1407C40.8359 225.695 40.4316 223.313 39.8967 220.638C39.6417 219.394 39.3494 218.013 39.0384 216.62C40.3008 216.117 41.5324 215.539 42.7268 214.891C44.1014 216.384 47.6406 218.132 48.0947 218.355C47.6157 219.537 47.1368 220.682 46.6641 221.758C45.6875 224.003 44.7608 226 43.9397 227.698H45.8493C46.5521 226.13 47.3296 224.352 48.1382 222.38C48.6296 221.179 49.1334 219.892 49.6372 218.555C50.1473 218.66 54.2898 219.506 56.2242 219.071C57.9783 218.673 60.1055 217.684 60.8892 215.961C61.0868 215.559 61.1978 215.121 61.2151 214.673C61.2325 214.226 61.1557 213.78 60.9897 213.364C60.8238 212.949 60.5724 212.572 60.2519 212.26C59.9314 211.948 59.5488 211.706 59.129 211.551C56.5725 210.692 52.6726 213.597 51.242 215.532C51.1611 215.644 50.3836 216.987 49.9109 217.839C50.11 217.298 50.3152 216.769 50.5329 216.21C50.9372 215.096 51.3104 213.977 51.7209 212.77C51.8951 212.179 52.0755 211.588 52.2496 210.985C52.4238 210.381 52.5669 209.741 52.7348 209.119C53.0831 207.663 53.3568 206.164 53.6118 204.653C54.5821 205.007 58.0591 206.22 59.8318 206.09C61.6045 205.959 63.8748 205.306 64.9136 203.714C65.1699 203.346 65.3461 202.929 65.4309 202.489C65.5156 202.049 65.507 201.597 65.4055 201.16C65.3041 200.724 65.112 200.314 64.8419 199.957C64.5718 199.599 64.2296 199.303 63.8375 199.086C61.4428 197.842 57.151 200.131 55.4467 201.829C55.341 201.935 54.2525 203.291 53.6678 204.043C53.8109 203.135 53.9601 202.227 54.0721 201.3C54.408 198.632 54.6568 195.914 54.9242 193.214C55.0051 192.381 55.0922 191.56 55.1793 190.726C55.5276 190.857 59.6266 192.381 61.6418 192.244C63.4394 192.113 65.6848 191.454 66.7236 189.862C66.981 189.496 67.1583 189.079 67.244 188.64C67.3297 188.201 67.3218 187.748 67.2208 187.312C67.1199 186.876 66.9282 186.466 66.6581 186.109C66.3881 185.752 66.0459 185.456 65.6537 185.24C63.259 183.996 58.961 186.279 57.2567 187.977C57.1323 188.108 55.5711 190.061 55.1979 190.577C55.3907 188.755 55.596 186.945 55.8759 185.166C56.2383 182.76 56.7578 180.381 57.4309 178.044C57.5864 178.106 61.8595 179.723 63.9308 179.574C65.7222 179.449 67.9738 178.79 69.0063 177.198C69.2638 176.831 69.4412 176.414 69.527 175.974C69.6127 175.535 69.6049 175.082 69.5039 174.645C69.403 174.209 69.2113 173.798 68.9412 173.441C68.6711 173.083 68.3288 172.787 67.9365 172.57C65.5418 171.326 61.25 173.615 59.5395 175.313C59.4089 175.444 57.7295 177.546 57.4496 177.95C57.4931 177.814 57.518 177.67 57.5615 177.534C58.2996 175.211 59.2425 172.959 60.3792 170.804C61.0012 169.603 61.6232 168.49 62.3074 167.42C63.0724 167.806 66.5867 169.51 68.459 169.584C70.3312 169.659 72.5642 169.249 73.7708 167.781C74.0667 167.445 74.2886 167.05 74.422 166.623C74.5554 166.195 74.5974 165.745 74.5452 165.3C74.4929 164.855 74.3477 164.426 74.1189 164.042C73.8902 163.657 73.583 163.324 73.2173 163.066C70.9656 161.573 66.4499 163.371 64.5715 164.87C64.4657 164.951 63.5203 165.896 62.8361 166.593C63.1409 166.114 63.4581 165.616 63.7504 165.162C64.8762 163.464 66.0145 161.984 67.0284 160.671C67.613 159.937 68.1604 159.278 68.6767 158.668C69.6221 158.668 73.435 158.538 75.1019 157.754C76.7689 156.97 78.5913 155.565 78.9832 153.705C79.0902 153.27 79.1046 152.818 79.0255 152.377C78.9463 151.937 78.7753 151.518 78.5237 151.148C78.272 150.778 77.9453 150.465 77.5648 150.229C77.1842 149.993 76.7583 149.84 76.3148 149.78C73.634 149.488 70.4494 153.164 69.4728 155.378C69.3857 155.571 68.4092 158.693 68.4527 158.693H68.5149C68.0049 159.266 67.47 159.887 66.8977 160.559C65.8466 161.847 64.6772 163.309 63.5078 164.988C62.2282 166.784 61.0547 168.653 59.9935 170.586C58.7949 172.747 57.7896 175.009 56.9893 177.347C56.9913 177.376 56.9913 177.405 56.9893 177.434C56.9893 176.644 56.9893 174.436 56.9457 174.262C56.641 171.88 54.6381 167.451 51.9697 166.96C51.5276 166.89 51.0757 166.915 50.6437 167.031C50.2116 167.148 49.809 167.355 49.4622 167.638C49.1153 167.921 48.832 168.273 48.6306 168.673C48.4293 169.073 48.3145 169.511 48.2937 169.958C48.1382 171.824 49.5377 173.752 50.8501 174.934C52.3616 176.29 56.5601 177.596 56.896 177.695C56.1411 180.093 55.5489 182.539 55.1233 185.016C54.862 186.459 54.6506 187.921 54.4515 189.37C54.4515 188.686 54.4515 188.077 54.4515 187.989C54.1405 185.601 52.1377 181.147 49.4755 180.687C49.0334 180.618 48.5815 180.642 48.1495 180.759C47.7174 180.876 47.3148 181.082 46.9679 181.365C46.6211 181.648 46.3377 182.001 46.1364 182.401C45.9351 182.8 45.8203 183.238 45.7995 183.685C45.644 185.551 47.0435 187.479 48.3559 188.661C49.6683 189.843 53.2759 191.062 54.2214 191.367C54.1467 191.927 54.0721 192.493 54.0037 193.053C53.6802 195.758 53.3817 198.458 52.9836 201.101C52.853 202.028 52.685 202.967 52.5171 203.85C52.5171 203.228 52.5171 202.737 52.5171 202.656C52.2061 200.274 50.2095 195.814 47.5411 195.354C47.0986 195.284 46.6465 195.309 46.2141 195.426C45.7817 195.542 45.3787 195.749 45.0313 196.032C44.684 196.315 44.4001 196.667 44.1981 197.067C43.9961 197.467 43.8805 197.905 43.8589 198.352C43.7034 200.249 45.1029 202.146 46.4215 203.328C47.7401 204.51 50.9932 205.617 52.1128 205.978C51.9138 206.904 51.7209 207.844 51.4908 208.727C51.3229 209.349 51.1985 209.927 50.987 210.531C50.7755 211.134 50.6076 211.713 50.421 212.297C50.0104 213.411 49.5999 214.561 49.177 215.637C48.8846 216.39 48.5985 217.099 48.3124 217.814C48.4554 216.888 48.7042 215.071 48.7042 214.922C48.6668 212.792 48.0798 210.707 47 208.87C47.0074 208.635 46.9928 208.4 46.9564 208.167C46.9013 207.723 46.753 207.295 46.5212 206.911C46.2894 206.528 45.9794 206.198 45.6113 205.942C45.2432 205.687 44.8255 205.512 44.3852 205.429C43.945 205.346 43.4922 205.357 43.0565 205.461C40.4565 206.152 38.802 210.724 38.7025 213.131C38.7025 213.268 38.7896 214.816 38.8642 215.793C38.7336 215.227 38.6092 214.673 38.4723 214.095C38.1987 212.938 37.8877 211.8 37.5642 210.568C37.3901 209.983 37.2097 209.386 37.0231 208.789C36.8365 208.192 36.6063 207.545 36.4011 206.967C35.8848 205.561 35.3001 204.155 34.6719 202.756C35.6796 202.513 39.2436 201.605 40.6804 200.504C42.1173 199.403 43.6163 197.624 43.6038 195.721C43.6167 195.273 43.535 194.827 43.3639 194.413C43.1928 193.999 42.9363 193.626 42.6111 193.318C42.2859 193.009 41.8992 192.773 41.4765 192.625C41.0538 192.476 40.6045 192.418 40.158 192.455C37.4771 192.748 35.182 197.015 34.6657 199.372C34.6657 199.515 34.4791 201.238 34.4107 202.202C34.025 201.362 33.6518 200.523 33.2351 199.714C32.0346 197.301 30.7471 194.9 29.5031 192.493C29.1112 191.759 28.7318 191.019 28.3462 190.285C28.7069 190.198 32.9676 189.209 34.5662 187.977C35.9968 186.889 37.5082 185.097 37.4958 183.194C37.5077 182.746 37.4253 182.301 37.2539 181.887C37.0825 181.474 36.8259 181.101 36.5009 180.793C36.1759 180.485 35.7897 180.249 35.3674 180.1C34.9451 179.951 34.4962 179.892 34.0499 179.928C31.3691 180.221 29.0739 184.488 28.5577 186.845C28.5203 187.019 28.2964 189.513 28.2715 190.148C27.4256 188.524 26.5984 186.895 25.852 185.259C24.8288 183.054 23.9499 180.785 23.2209 178.467C23.3888 178.429 27.8424 177.415 29.4844 176.153C30.915 175.058 32.4265 173.273 32.4141 171.37C32.426 170.922 32.3436 170.477 32.1721 170.063C32.0007 169.65 31.7442 169.277 31.4192 168.969C31.0942 168.661 30.708 168.424 30.2857 168.276C29.8634 168.127 29.4145 168.068 28.9682 168.104C26.2874 168.396 23.9922 172.663 23.4759 175.021C23.4386 175.207 23.196 177.882 23.1898 178.373C23.1463 178.237 23.0903 178.1 23.053 177.969C22.3721 175.625 21.9017 173.225 21.6472 170.797C21.498 169.454 21.4295 168.166 21.3922 166.916C22.2381 166.81 26.1132 166.294 27.718 165.324C29.3227 164.353 30.9586 162.78 31.1514 160.889C31.2157 160.443 31.1847 159.988 31.0605 159.555C30.9363 159.121 30.7216 158.719 30.4307 158.375C30.1398 158.03 29.7793 157.752 29.3728 157.557C28.9663 157.362 28.5232 157.255 28.0725 157.244C25.3792 157.244 22.5989 161.225 21.8525 163.514C21.809 163.638 21.5415 164.951 21.3549 165.908C21.3549 165.342 21.3549 164.758 21.3549 164.217C21.3549 162.176 21.4917 160.31 21.6161 158.662C21.697 157.723 21.7903 156.871 21.8836 156.081C22.6611 155.546 25.7773 153.344 26.7352 151.77C27.6931 150.197 28.4395 148.038 27.7366 146.253C27.5857 145.836 27.3496 145.455 27.0432 145.135C26.7369 144.814 26.3671 144.561 25.9574 144.391C25.5478 144.221 25.1072 144.139 24.6639 144.149C24.2206 144.159 23.7842 144.261 23.3826 144.449C20.9879 145.693 20.3535 150.508 20.7516 152.884C20.7889 153.083 21.6908 156.23 21.7343 156.205L21.7779 156.174C21.6721 156.933 21.5726 157.748 21.4731 158.662C21.3114 160.317 21.1372 162.183 21.0937 164.26C21.0152 166.463 21.0671 168.669 21.2492 170.866C21.4471 173.33 21.8634 175.771 22.4932 178.162V178.243C22.0702 177.577 20.82 175.755 20.708 175.624C19.1344 173.808 15.0229 171.214 12.5412 172.272C12.1343 172.453 11.77 172.718 11.4718 173.05C11.1736 173.381 10.9481 173.771 10.8099 174.195C10.6716 174.618 10.6236 175.066 10.6689 175.509C10.7143 175.953 10.852 176.382 11.0732 176.769C12.0062 178.436 14.1832 179.263 15.9746 179.518Z" fill="#131A43"/>
<path d="M62.1899 166.86C62.2335 166.86 63.0483 163.713 63.0794 163.508C63.409 161.125 62.6502 156.323 60.2244 155.154C59.8153 154.968 59.3715 154.871 58.9223 154.869C58.473 154.867 58.0283 154.959 57.6173 155.141C57.2062 155.322 56.8382 155.588 56.5371 155.922C56.2361 156.255 56.0089 156.649 55.8704 157.076C55.2484 158.861 56.0446 161.057 57.0211 162.562C58.1842 164.335 62.1899 166.854 62.1899 166.86Z" fill="#131A43"/>
<path d="M56.0632 253.219H30.2067L26.9785 224.507H59.2976L56.0632 253.219Z" fill="white" stroke="#131A43" stroke-linecap="round" stroke-linejoin="round"/>
<path d="M27.5703 229.769L27.8813 232.55H58.3904L58.7076 229.769H27.5703Z" fill="#131A43"/>
<path d="M57.7052 238.67L58.0162 235.89H28.2598L28.5708 238.67H57.7052Z" fill="#131A43"/>
<path opacity="0.3" d="M49.5135 81.982L71.9863 59.5278C73.9289 60.4064 76.0779 60.7265 78.1922 60.4521C80.3066 60.1778 82.3027 59.3198 83.9567 57.9745C85.6107 56.6292 86.8573 54.8497 87.5566 52.8356C88.2559 50.8215 88.3802 48.6524 87.9158 46.5715L78.9714 55.5097C78.9078 55.5736 78.8322 55.6244 78.749 55.659C78.6657 55.6936 78.5764 55.7114 78.4862 55.7114C78.3961 55.7114 78.3068 55.6936 78.2235 55.659C78.1403 55.6244 78.0647 55.5736 78.0011 55.5097L70.251 47.772C70.187 47.7084 70.1363 47.6328 70.1017 47.5496C70.067 47.4663 70.0492 47.377 70.0492 47.2868C70.0492 47.1967 70.067 47.1074 70.1017 47.0241C70.1363 46.9409 70.187 46.8653 70.251 46.8017L79.1953 37.8635C77.1145 37.3991 74.9454 37.5234 72.9313 38.2227C70.9171 38.922 69.1377 40.1686 67.7923 41.8226C66.447 43.4766 65.5891 45.4727 65.3147 47.5871C65.0404 49.7014 65.3605 51.8503 66.2391 53.793L43.7662 76.2472C41.8249 75.3768 39.6798 75.0633 37.5706 75.3416C35.4614 75.6198 33.4711 76.4789 31.8219 77.8229C30.1727 79.1669 28.9296 80.9429 28.2313 82.9526C27.5331 84.9622 27.4073 87.1264 27.8679 89.2034L36.8122 80.2653C36.8753 80.2015 36.9504 80.1509 37.0331 80.1164C37.1159 80.0818 37.2046 80.064 37.2943 80.064C37.384 80.064 37.4727 80.0818 37.5555 80.1164C37.6382 80.1509 37.7133 80.2015 37.7763 80.2653L45.5016 88.0154C45.5655 88.079 45.6163 88.1546 45.6509 88.2378C45.6855 88.3211 45.7033 88.4104 45.7033 88.5006C45.7033 88.5907 45.6855 88.68 45.6509 88.7633C45.6163 88.8465 45.5655 88.9221 45.5016 88.9857L36.5759 97.9239C38.6574 98.388 40.8271 98.2627 42.8413 97.5619C44.8554 96.8611 46.6344 95.6127 47.9782 93.9567C49.3221 92.3008 50.1777 90.303 50.4489 88.1877C50.7201 86.0724 50.3961 83.9234 49.5135 81.982Z" stroke="#131A43" stroke-linecap="round" stroke-linejoin="round"/>
<path opacity="0.3" d="M94.1532 31.7742L87.3112 29.5287L81.9434 34.3306L83.4237 41.3841L90.2657 43.6233L95.6647 38.8214L94.1532 31.7742ZM89.3763 39.3688L86.6643 38.4793L86.0797 35.6865L88.2069 33.8205L90.9126 34.7038L91.4973 37.4966L89.3763 39.3688Z" stroke="#131A43" stroke-linecap="round" stroke-linejoin="round"/>
<path opacity="0.3" d="M247.919 183.604L225.446 206.077C223.502 205.192 221.35 204.867 219.231 205.138C217.113 205.409 215.112 206.266 213.454 207.612C211.796 208.959 210.547 210.741 209.847 212.759C209.147 214.777 209.024 216.95 209.491 219.033L218.461 210.114C218.524 210.05 218.6 209.999 218.683 209.965C218.766 209.93 218.856 209.912 218.946 209.912C219.036 209.912 219.125 209.93 219.208 209.965C219.292 209.999 219.367 210.05 219.431 210.114L227.181 217.87C227.245 217.933 227.295 218.008 227.33 218.091C227.364 218.174 227.382 218.263 227.382 218.352C227.382 218.442 227.364 218.531 227.33 218.614C227.295 218.696 227.245 218.771 227.181 218.834L218.237 227.779C220.318 228.243 222.487 228.119 224.501 227.42C226.515 226.72 228.294 225.474 229.64 223.82C230.985 222.166 231.843 220.17 232.117 218.055C232.392 215.941 232.072 213.792 231.193 211.849L253.653 189.352C255.596 190.23 257.745 190.55 259.859 190.276C261.974 190.002 263.97 189.144 265.624 187.798C267.278 186.453 268.524 184.674 269.224 182.659C269.923 180.645 270.047 178.476 269.583 176.395L260.638 185.34C260.575 185.404 260.499 185.454 260.416 185.489C260.333 185.524 260.243 185.542 260.153 185.542C260.063 185.542 259.974 185.524 259.891 185.489C259.807 185.454 259.732 185.404 259.668 185.34L251.918 177.59C251.854 177.526 251.803 177.45 251.769 177.367C251.734 177.284 251.716 177.195 251.716 177.104C251.716 177.014 251.734 176.925 251.769 176.842C251.803 176.758 251.854 176.683 251.918 176.619L260.862 167.675C258.781 167.21 256.612 167.335 254.598 168.034C252.584 168.733 250.805 169.98 249.459 171.634C248.114 173.288 247.256 175.284 246.982 177.398C246.707 179.513 247.027 181.662 247.906 183.604H247.919Z" stroke="#131A43" stroke-linecap="round" stroke-linejoin="round"/>
<path opacity="0.3" d="M203.271 233.831L210.113 236.076L215.475 231.268L214.001 224.221L207.159 221.976L201.791 226.784L203.271 233.831ZM208.048 226.236L210.76 227.126L211.345 229.912L209.218 231.816L206.512 230.926L205.927 228.14L208.048 226.236Z" stroke="#131A43" stroke-linecap="round" stroke-linejoin="round"/>
<path opacity="0.3" d="M235.771 81.982L258.244 59.5278C260.187 60.4081 262.337 60.7295 264.452 60.4559C266.567 60.1823 268.564 59.3246 270.219 57.979C271.874 56.6335 273.122 54.8533 273.821 52.8383C274.521 50.8232 274.645 48.6532 274.18 46.5715L265.229 55.5097C265.166 55.5734 265.091 55.624 265.008 55.6586C264.925 55.6931 264.837 55.7109 264.747 55.7109C264.657 55.7109 264.568 55.6931 264.486 55.6586C264.403 55.624 264.328 55.5734 264.265 55.5097L256.509 47.772C256.445 47.7084 256.394 47.6328 256.359 47.5496C256.325 47.4663 256.307 47.377 256.307 47.2868C256.307 47.1967 256.325 47.1074 256.359 47.0241C256.394 46.9409 256.445 46.8653 256.509 46.8017L265.472 37.8511C263.391 37.3866 261.222 37.511 259.207 38.2103C257.193 38.9096 255.414 40.1561 254.069 41.8102C252.723 43.4642 251.865 45.4603 251.591 47.5746C251.317 49.689 251.637 51.8379 252.515 53.7805L230.018 76.2472C228.075 75.3685 225.926 75.0485 223.812 75.3228C221.697 75.5972 219.701 76.4551 218.047 77.8004C216.393 79.1457 215.147 80.9252 214.447 82.9394C213.748 84.9535 213.624 87.1226 214.088 89.2034L223.032 80.2653C223.096 80.2013 223.172 80.1506 223.255 80.116C223.338 80.0813 223.427 80.0635 223.518 80.0635C223.608 80.0635 223.697 80.0813 223.78 80.116C223.864 80.1506 223.939 80.2013 224.003 80.2653L231.759 88.0154C231.823 88.079 231.874 88.1546 231.908 88.2378C231.943 88.3211 231.961 88.4104 231.961 88.5006C231.961 88.5907 231.943 88.68 231.908 88.7633C231.874 88.8465 231.823 88.9221 231.759 88.9857L222.815 97.9239C224.898 98.3924 227.07 98.2703 229.087 97.5714C231.104 96.8725 232.886 95.6244 234.233 93.9677C235.579 92.311 236.437 90.3113 236.708 88.1938C236.98 86.0764 236.656 83.925 235.771 81.982Z" stroke="#131A43" stroke-linecap="round" stroke-linejoin="round"/>
<path opacity="0.3" d="M280.399 31.7742L273.557 29.5287L268.195 34.3306L269.669 41.3841L276.511 43.6233L281.873 38.8214L280.399 31.7742ZM275.622 39.3688L272.935 38.4793L272.313 35.6865L274.44 33.8205L277.146 34.7038L277.731 37.4966L275.622 39.3688Z" stroke="#131A43" stroke-linecap="round" stroke-linejoin="round"/>
<path opacity="0.3" d="M292.765 83.649L285.923 81.4098L280.555 86.2116L282.035 93.2589L288.877 95.5043L294.245 90.6962L292.765 83.649ZM287.988 91.2436L285.276 90.3603L284.691 87.58L286.818 85.6767L289.524 86.5661L290.109 89.3589L287.988 91.2436Z" stroke="#131A43" stroke-linecap="round" stroke-linejoin="round"/>
<path opacity="0.3" d="M137.133 51.8772L130.291 49.6318L124.93 54.4398L126.404 61.4871L133.246 63.7325L138.607 58.9245L137.133 51.8772ZM132.363 59.4718L129.651 58.5824L129.066 55.7958L131.193 53.8925L133.899 54.7819L134.484 57.5685L132.363 59.4718Z" stroke="#131A43" stroke-linecap="round" stroke-linejoin="round"/>
<path opacity="0.3" d="M124.788 213.691L117.946 211.445L112.584 216.247L114.064 223.294L120.906 225.54L126.268 220.738L124.788 213.691ZM120.004 221.31L117.299 220.421L116.714 217.628L118.835 215.724L121.541 216.614L122.163 219.407L120.004 221.31Z" stroke="#131A43" stroke-linecap="round" stroke-linejoin="round"/>
<path opacity="0.3" d="M37.9126 126.399L31.0706 124.16L25.709 128.962L27.1831 136.009L34.0251 138.254L39.3868 133.446L37.9126 126.399ZM33.1294 133.994L30.4237 133.11L29.8017 130.318L31.929 128.414L34.6347 129.304L35.2567 132.097L33.1294 133.994Z" stroke="#131A43" stroke-linecap="round" stroke-linejoin="round"/>
<path opacity="0.3" d="M86.7267 219.873L109.193 197.4C111.136 198.281 113.286 198.603 115.401 198.33C117.516 198.057 119.514 197.199 121.169 195.853C122.823 194.507 124.07 192.726 124.768 190.711C125.467 188.696 125.59 186.525 125.123 184.444L116.191 193.388C116.127 193.452 116.052 193.503 115.968 193.538C115.885 193.572 115.796 193.59 115.706 193.59C115.615 193.59 115.526 193.572 115.443 193.538C115.36 193.503 115.284 193.452 115.22 193.388L107.483 185.638C107.419 185.575 107.368 185.499 107.333 185.416C107.299 185.333 107.281 185.243 107.281 185.153C107.281 185.063 107.299 184.974 107.333 184.89C107.368 184.807 107.419 184.732 107.483 184.668L116.421 175.724C114.34 175.259 112.171 175.384 110.157 176.083C108.143 176.782 106.363 178.029 105.018 179.683C103.673 181.337 102.815 183.333 102.54 185.447C102.266 187.561 102.586 189.71 103.465 191.653L80.998 214.126C79.0554 213.247 76.9065 212.927 74.7921 213.202C72.6778 213.476 70.6817 214.334 69.0277 215.679C67.3736 217.024 66.1271 218.804 65.4278 220.818C64.7285 222.832 64.6041 225.001 65.0686 227.082L74.0068 218.138C74.0703 218.074 74.1459 218.023 74.2292 217.988C74.3125 217.954 74.4017 217.936 74.4919 217.936C74.5821 217.936 74.6714 217.954 74.7546 217.988C74.8379 218.023 74.9135 218.074 74.9771 218.138L82.7272 225.888C82.7911 225.951 82.8419 226.027 82.8765 226.11C82.9111 226.194 82.9289 226.283 82.9289 226.373C82.9289 226.463 82.9111 226.553 82.8765 226.636C82.8419 226.719 82.7911 226.795 82.7272 226.858L73.7704 235.803C75.8512 236.267 78.0203 236.143 80.0345 235.443C82.0486 234.744 83.8281 233.498 85.1734 231.844C86.5187 230.189 87.3766 228.193 87.651 226.079C87.9253 223.965 87.6053 221.816 86.7267 219.873Z" stroke="#131A43" stroke-linecap="round" stroke-linejoin="round"/>
<path opacity="0.3" d="M131.368 169.647L124.526 167.401L119.158 172.209L120.639 179.257L127.481 181.502L132.848 176.694L131.368 169.647ZM126.591 177.241L123.879 176.352L123.294 173.565L125.416 171.662L128.127 172.551L128.712 175.338L126.591 177.241Z" stroke="#131A43" stroke-linecap="round" stroke-linejoin="round"/>
<path d="M161.991 184.544H144.805V253.872H161.991V184.544Z" fill="#131A43" stroke="#131A43" stroke-linecap="round" stroke-linejoin="round"/>
<path d="M266.201 70.1827H49.334V201.723H266.201V70.1827Z" fill="#131A43" stroke="#131A43" stroke-linecap="round" stroke-linejoin="round"/>
<path d="M261.833 70.1827H44.9668V201.723H261.833V70.1827Z" fill="#51B748" stroke="#131A43" stroke-linecap="round" stroke-linejoin="round"/>
<path d="M254.015 74.9223H52.7793V196.984H254.015V74.9223Z" fill="white" stroke="#131A43" stroke-linecap="round" stroke-linejoin="round"/>
<path d="M254.015 189.632H52.7793V196.984H254.015V189.632Z" fill="white" stroke="#131A43" stroke-linecap="round" stroke-linejoin="round"/>
<path d="M154.338 246.09L90.627 250.208V254.357H216.171V250.208L154.338 246.09Z" fill="#131A43" stroke="#131A43" stroke-linecap="round" stroke-linejoin="round"/>
<path d="M254.015 74.9223H52.7793V196.984H254.015V74.9223Z" fill="white" stroke="#131A43" stroke-linecap="round" stroke-linejoin="round"/>
<path d="M288.405 253.219H14.1465" stroke="#131A43" stroke-linecap="round" stroke-linejoin="round"/>
<path d="M302.649 253.219H295.266" stroke="#131A43" stroke-linecap="round" stroke-linejoin="round"/>
<g opacity="0.3">
<path d="M152.267 104.169C152.846 103.07 153.15 101.847 153.15 100.605C153.15 98.4898 152.31 96.4616 150.815 94.9662C149.32 93.4708 147.291 92.6306 145.176 92.6306C143.062 92.6306 141.033 93.4708 139.538 94.9662C138.043 96.4616 137.202 98.4898 137.202 100.605C137.205 101.864 137.514 103.103 138.103 104.216C138.691 105.328 139.541 106.282 140.58 106.993C139.551 107.179 138.588 107.632 137.789 108.307C136.99 108.982 136.382 109.855 136.025 110.838C135.669 111.821 135.577 112.881 135.758 113.911C135.94 114.941 136.388 115.906 137.059 116.708C135.746 117.373 134.637 118.382 133.852 119.628C133.066 120.873 132.633 122.308 132.6 123.78C132.6 128.358 136.773 132.078 141.93 132.078C147.086 132.078 151.26 128.346 151.26 123.78C151.256 122.706 151.02 121.645 150.569 120.67C150.872 120.695 151.177 120.708 151.484 120.708C156.82 120.708 161.149 116.976 161.149 112.429C161.112 108.106 157.243 104.523 152.267 104.169Z" fill="#131A43"/>
<path d="M135.194 94.0177C137.99 94.0177 140.257 91.7509 140.257 88.9546C140.257 86.1584 137.99 83.8916 135.194 83.8916C132.398 83.8916 130.131 86.1584 130.131 88.9546C130.131 91.7509 132.398 94.0177 135.194 94.0177Z" fill="#131A43"/>
<path d="M121.546 82.3552C121.242 82.354 120.945 82.443 120.691 82.6111C120.438 82.7792 120.24 83.0187 120.123 83.2993C120.005 83.5799 119.974 83.889 120.033 84.1874C120.091 84.4859 120.237 84.7602 120.452 84.9757C120.666 85.1912 120.94 85.3381 121.238 85.3979C121.536 85.4577 121.846 85.4276 122.127 85.3115C122.408 85.1954 122.648 84.9985 122.817 84.7457C122.986 84.493 123.077 84.1957 123.077 83.8915C123.075 83.4857 122.913 83.0968 122.627 82.8092C122.341 82.5216 121.952 82.3585 121.546 82.3552Z" fill="#131A43"/>
<path d="M152.522 85.714C153.373 85.7152 154.204 85.4642 154.912 84.9927C155.619 84.5212 156.171 83.8503 156.498 83.0651C156.824 82.2798 156.91 81.4154 156.745 80.5813C156.58 79.7472 156.171 78.9807 155.57 78.379C154.969 77.7773 154.203 77.3674 153.369 77.201C152.535 77.0347 151.671 77.1194 150.885 77.4445C150.099 77.7697 149.428 78.3205 148.955 79.0275C148.483 79.7344 148.23 80.5656 148.23 81.416C148.23 81.9801 148.34 82.5389 148.555 83.0603C148.771 83.5817 149.087 84.0556 149.485 84.4548C149.884 84.854 150.357 85.1706 150.878 85.3867C151.4 85.6028 151.958 85.714 152.522 85.714Z" fill="#131A43"/>
</g>
<g opacity="0.3">
<path d="M166.933 52.126C166.629 52.126 166.331 52.2163 166.079 52.3854C165.826 52.5545 165.629 52.7948 165.513 53.0759C165.397 53.357 165.367 53.6662 165.426 53.9644C165.486 54.2626 165.633 54.5363 165.849 54.7509C166.064 54.9655 166.338 55.1113 166.637 55.1699C166.935 55.2285 167.244 55.1972 167.525 55.0799C167.806 54.9627 168.045 54.7648 168.213 54.5114C168.381 54.2579 168.47 53.9602 168.469 53.6561C168.469 53.4547 168.429 53.2552 168.352 53.0691C168.275 52.8831 168.162 52.7141 168.019 52.572C167.876 52.4298 167.707 52.3172 167.52 52.2407C167.334 52.1642 167.134 52.1252 166.933 52.126Z" fill="#131A43"/>
<path d="M163.649 39.1884C162.763 39.6537 162.034 40.3712 161.556 41.2502C161.077 42.1292 160.87 43.1304 160.96 44.1272C161.05 45.124 161.434 46.0717 162.062 46.8506C162.691 47.6295 163.536 48.2047 164.491 48.5034C165.447 48.8022 166.469 48.8111 167.429 48.529C168.39 48.247 169.245 47.6867 169.887 46.9188C170.529 46.151 170.929 45.2101 171.036 44.215C171.144 43.22 170.954 42.2153 170.491 41.3281C170.183 40.7372 169.762 40.2129 169.251 39.7853C168.74 39.3577 168.15 39.0352 167.515 38.8364C166.879 38.6375 166.21 38.5663 165.547 38.6267C164.883 38.6871 164.238 38.878 163.649 39.1884Z" fill="#131A43"/>
<path d="M197.671 73.896C198.251 72.7972 198.554 71.574 198.555 70.3319C198.55 69.1198 198.261 67.9256 197.712 66.8454C197.162 65.7651 196.366 64.8289 195.389 64.1119C199.164 62.0158 201.18 58.1096 200.57 54.5642C201.054 54.1915 201.453 53.7198 201.74 53.1806C202.027 52.6414 202.195 52.0472 202.234 51.4376C202.273 50.828 202.181 50.2172 201.965 49.6459C201.749 49.0746 201.414 48.556 200.981 48.1248C200.548 47.6936 200.029 47.3596 199.457 47.1453C198.885 46.931 198.274 46.8412 197.664 46.882C197.055 46.9228 196.461 47.0932 195.923 47.3819C195.385 47.6705 194.914 48.0707 194.543 48.5557C192.406 48.1141 190.185 48.3534 188.192 49.2399C188.196 47.9988 187.897 46.7754 187.321 45.6759C186.836 44.748 186.172 43.9248 185.368 43.2533C184.565 42.5819 183.637 42.0753 182.637 41.7626C181.638 41.4498 180.586 41.337 179.543 41.4305C178.5 41.5241 177.486 41.8221 176.558 42.3077C175.63 42.7933 174.807 43.4569 174.135 44.2607C173.464 45.0644 172.957 45.9925 172.644 46.992C172.013 49.0106 172.209 51.1974 173.19 53.0714C173.879 54.3778 174.931 55.4576 176.219 56.1814C175.785 56.9389 175.555 57.7964 175.553 58.6694C175.554 59.2088 175.642 59.7445 175.814 60.2555C174.851 60.0429 173.853 60.0379 172.888 60.2408C171.922 60.4437 171.011 60.85 170.215 61.4325C169.418 62.015 168.755 62.7605 168.27 63.6192C167.784 64.478 167.487 65.4303 167.397 66.4129C167.308 67.3955 167.43 68.3858 167.753 69.3179C168.077 70.25 168.595 71.1025 169.274 71.8187C169.952 72.5348 170.776 73.0983 171.689 73.4715C172.602 73.8447 173.584 74.0191 174.57 73.9831C173.603 75.0065 172.969 76.2996 172.752 77.6913C172.536 79.083 172.747 80.5077 173.358 81.7767C172.078 82.6502 171.127 83.9263 170.655 85.4023C170.184 86.8783 170.22 88.4695 170.757 89.9229C171.294 91.3763 172.301 92.6085 173.619 93.4237C174.936 94.2389 176.489 94.5903 178.029 94.422C178.526 98.5894 182.482 101.836 187.29 101.836C192.44 101.836 196.62 98.1042 196.62 93.5388C196.616 92.4653 196.382 91.4051 195.936 90.4288C196.235 90.4536 196.539 90.4661 196.85 90.4661C202.187 90.4661 206.51 86.7341 206.51 82.1873C206.498 77.8146 202.598 74.263 197.671 73.896Z" fill="#131A43"/>
<path d="M150.842 44.1582C150.573 44.3012 150.353 44.5209 150.209 44.7893C150.066 45.0577 150.005 45.3628 150.035 45.6658C150.065 45.9687 150.184 46.256 150.378 46.491C150.571 46.7261 150.83 46.8983 151.122 46.9859C151.413 47.0734 151.724 47.0724 152.015 46.9828C152.306 46.8933 152.564 46.7193 152.756 46.483C152.948 46.2467 153.066 45.9586 153.094 45.6554C153.121 45.3523 153.059 45.0476 152.913 44.7802C152.721 44.4232 152.395 44.1572 152.006 44.0406C151.618 43.9239 151.199 43.9662 150.842 44.1582Z" fill="#131A43"/>
<path d="M179.852 32.788C180.601 32.3912 181.215 31.7816 181.618 31.036C182.021 30.2903 182.194 29.4421 182.116 28.5981C182.037 27.7542 181.711 26.9525 181.177 26.2939C180.644 25.6354 179.927 25.1495 179.118 24.8976C178.309 24.6458 177.443 24.6392 176.63 24.8786C175.817 25.1181 175.093 25.5929 174.55 26.2432C174.006 26.8936 173.667 27.6903 173.576 28.5329C173.484 29.3755 173.645 30.2263 174.036 30.978C174.298 31.4801 174.656 31.9256 175.09 32.2886C175.525 32.6517 176.027 32.9252 176.567 33.0935C177.108 33.2617 177.676 33.3214 178.24 33.2689C178.804 33.2165 179.351 33.0531 179.852 32.788Z" fill="#131A43"/>
</g>
<path d="M134.529 109.244C134.529 108.398 134.278 107.571 133.808 106.867C133.338 106.163 132.67 105.615 131.888 105.291C131.106 104.967 130.245 104.882 129.415 105.047C128.585 105.212 127.823 105.62 127.224 106.218C126.626 106.817 126.218 107.579 126.053 108.409C125.888 109.24 125.973 110.1 126.296 110.882C126.62 111.664 127.169 112.332 127.873 112.802C128.576 113.273 129.404 113.524 130.25 113.524C131.385 113.524 132.473 113.073 133.276 112.27C134.079 111.468 134.529 110.379 134.529 109.244Z" fill="white" stroke="#131A43" stroke-linecap="round" stroke-linejoin="round"/>
<path d="M133.335 106.178L127.488 112.025" stroke="#131A43" stroke-linecap="round" stroke-linejoin="round"/>
<path d="M174.244 154.364C174.244 153.518 173.993 152.69 173.523 151.987C173.053 151.283 172.384 150.734 171.603 150.411C170.821 150.087 169.96 150.002 169.13 150.167C168.3 150.332 167.537 150.74 166.939 151.338C166.34 151.937 165.933 152.699 165.768 153.529C165.603 154.359 165.687 155.22 166.011 156.002C166.335 156.784 166.884 157.452 167.587 157.922C168.291 158.393 169.119 158.644 169.965 158.644C171.1 158.644 172.188 158.193 172.991 157.39C173.793 156.588 174.244 155.499 174.244 154.364Z" fill="#131A43" stroke="#131A43" stroke-linecap="round" stroke-linejoin="round"/>
<path d="M210.041 109.244C210.041 108.398 209.79 107.571 209.32 106.867C208.85 106.163 208.181 105.615 207.399 105.291C206.617 104.967 205.757 104.882 204.927 105.047C204.097 105.212 203.334 105.62 202.736 106.218C202.137 106.817 201.73 107.579 201.565 108.409C201.4 109.24 201.484 110.1 201.808 110.882C202.132 111.664 202.681 112.332 203.384 112.802C204.088 113.273 204.915 113.524 205.762 113.524C206.897 113.524 207.985 113.073 208.788 112.27C209.59 111.468 210.041 110.379 210.041 109.244Z" fill="white" stroke="#131A43" stroke-linecap="round" stroke-linejoin="round"/>
<path d="M208.847 106.178L203 112.025" stroke="#131A43" stroke-linecap="round" stroke-linejoin="round"/>
<path d="M152.039 255.408L137.111 260.596C136.866 260.68 136.658 260.846 136.521 261.066C136.384 261.286 136.327 261.545 136.358 261.802C136.394 262.09 136.538 262.353 136.761 262.538C136.984 262.723 137.269 262.815 137.558 262.797L152.891 261.883L152.039 255.408Z" fill="white" stroke="#131A43" stroke-linecap="round" stroke-linejoin="round"/>
<path d="M137.584 262.797L140.041 259.781" stroke="#131A43" stroke-linecap="round" stroke-linejoin="round"/>
<path d="M140.377 262.58L143.605 258.649" stroke="#131A43" stroke-linecap="round" stroke-linejoin="round"/>
<path d="M143.182 262.505L147.617 257.063" stroke="#131A43" stroke-linecap="round" stroke-linejoin="round"/>
<path d="M146.123 262.343L151.379 255.906" stroke="#131A43" stroke-linecap="round" stroke-linejoin="round"/>
<path d="M157.139 258.294C157.037 257.454 156.688 256.663 156.136 256.021C155.584 255.379 154.855 254.915 154.039 254.688C153.224 254.461 152.36 254.481 151.556 254.745C150.751 255.009 150.044 255.505 149.522 256.172C149 256.838 148.687 257.644 148.623 258.488C148.56 259.332 148.748 260.176 149.163 260.913C149.579 261.65 150.204 262.248 150.96 262.629C151.715 263.011 152.567 263.161 153.407 263.059C153.965 262.991 154.504 262.814 154.993 262.538C155.483 262.262 155.913 261.892 156.26 261.449C156.606 261.007 156.862 260.501 157.013 259.959C157.164 259.418 157.207 258.852 157.139 258.294Z" fill="white" stroke="#131A43" stroke-linecap="round" stroke-linejoin="round"/>
<path d="M155.585 255.389L150.484 261.896" stroke="#131A43" stroke-linecap="round" stroke-linejoin="round"/>
<path d="M229.688 254.562L228.202 256.428C228.027 256.316 227.853 256.204 227.654 256.098C226.968 255.716 226.257 255.38 225.527 255.091L229.259 253.984L230.702 253.648V253.554V249.455L223.586 250.818L224.83 251.869L224.271 251.707L219.058 253.256C216.869 252.808 217.646 251.06 215.133 250.818L213.031 250.065L204.08 249.667L202.581 249.704C199.471 247.913 196.61 247.701 195.223 252.192L191.765 250.258L187.548 250.88L189.93 249.076L183.76 247.247V251.458L179.014 252.236H171.027V256.447L177.726 257.43C177.494 257.649 177.285 257.893 177.104 258.157L170.772 258.462L169.242 255.85V260.061L170.772 262.667L176.625 262.387V265.914L183.094 267.78L188.344 266.218C190.686 266.686 193.051 267.03 195.428 267.251L194.371 269.409L203.322 269.807L204.391 267.649C206.998 267.649 209.622 267.518 212.185 267.276L215.643 269.21L223.642 267.997L223.02 265.323C223.978 265.037 224.886 264.738 225.651 264.415L232.319 265.397L236.325 263.034V259.501L238.091 259.42V255.209L229.688 254.562ZM185.812 252.634L187.212 253.418C186.335 253.61 185.514 253.822 184.724 254.04L185.812 252.634ZM214.182 263.83V261.696L211.775 261.765V261.454L209.231 261.846C204.528 261.983 198.134 262.175 197.91 262.175L197.381 263.251C193.606 263.45 190.316 263.214 188.288 262.076C183.816 259.588 187.081 256.515 195.59 255.234C204.099 253.953 214.611 254.935 219.083 257.43C223.101 259.656 220.856 262.362 214.182 263.817V263.83ZM234.372 260.005L231.884 259.718L235.137 259.563L234.372 260.005Z" fill="#131A43"/>
<path d="M230.702 253.554V253.648L229.259 253.984L225.527 255.091C226.257 255.38 226.968 255.716 227.654 256.098C227.853 256.204 228.027 256.316 228.202 256.428L229.688 254.562L238.091 255.209V259.42L236.325 259.501V263.034L232.319 265.397L225.651 264.415C224.886 264.738 223.978 265.037 223.02 265.323L223.642 267.997L215.643 269.21L212.185 267.276C209.622 267.518 206.998 267.649 204.391 267.649L203.322 269.807L194.371 269.409L195.428 267.251C193.051 267.03 190.686 266.686 188.344 266.218L183.094 267.78L176.625 265.914V262.387L170.772 262.667L169.242 260.061V255.85L170.772 258.462L177.104 258.157C177.285 257.893 177.494 257.649 177.726 257.43L171.027 256.447V252.236H179.014L183.76 251.458V247.247L189.93 249.076L187.548 250.88L191.765 250.258L195.223 252.192C196.61 247.701 199.471 247.913 202.581 249.704L204.08 249.667L213.031 250.065L215.133 250.818C217.646 251.06 216.869 252.808 219.058 253.256L224.271 251.707L224.83 251.869L223.586 250.818L230.702 249.455V253.554ZM230.702 253.554H230.733M185.812 252.634L187.212 253.418C186.335 253.61 185.514 253.822 184.724 254.04L185.812 252.634ZM214.182 263.83V261.696L211.775 261.765V261.454L209.231 261.846C204.528 261.983 198.134 262.175 197.91 262.175L197.381 263.251C193.606 263.45 190.316 263.214 188.288 262.076C183.816 259.588 187.081 256.515 195.59 255.234C204.099 253.953 214.611 254.935 219.083 257.43C223.101 259.656 220.856 262.362 214.182 263.817V263.83ZM234.372 260.005L231.884 259.718L235.137 259.563L234.372 260.005Z" stroke="#131A43" stroke-linecap="round" stroke-linejoin="round"/>
<path d="M213.013 245.86L210.967 248.995L213.013 248.491V245.86Z" fill="#131A43" stroke="#131A43" stroke-linecap="round" stroke-linejoin="round"/>
<path d="M211.775 260.048C203.273 261.336 192.755 260.353 188.289 257.859C183.823 255.365 187.082 252.292 195.591 251.017C204.1 249.742 214.612 250.712 219.084 253.206C223.556 255.7 220.284 258.767 211.775 260.048ZM191.747 246.053L183.742 247.297L187.213 249.238C185.334 249.634 183.491 250.184 181.702 250.88L175.034 249.903L171.028 252.261L177.727 253.243C177.393 253.526 177.12 253.875 176.926 254.267C176.733 254.66 176.622 255.089 176.601 255.526L169.262 255.875L170.792 258.487L178.15 258.132C178.637 258.53 179.16 258.882 179.711 259.184C180.398 259.564 181.108 259.898 181.839 260.185L176.645 261.728L183.114 263.594L188.326 262.045C190.673 262.509 193.041 262.854 195.423 263.077L194.353 265.229L203.304 265.628L204.374 263.475C206.98 263.475 209.605 263.339 212.167 263.096L215.626 265.03L223.625 263.824L220.154 261.883C222.032 261.484 223.874 260.934 225.665 260.241L232.333 261.218L236.338 258.86L229.639 257.877C229.974 257.595 230.246 257.246 230.44 256.853C230.633 256.46 230.744 256.032 230.765 255.595L238.105 255.24L236.575 252.634L229.216 252.982C228.729 252.587 228.206 252.237 227.655 251.937C226.968 251.558 226.257 251.221 225.528 250.93L230.728 249.387L224.253 247.521L219.04 249.07C216.694 248.602 214.325 248.258 211.943 248.037L213.013 245.885L204.063 245.481L202.993 247.639C200.387 247.639 197.762 247.776 195.205 248.012L191.747 246.078" fill="#6D6D6D"/>
<path d="M191.747 246.053L183.742 247.297L187.213 249.238C185.334 249.634 183.491 250.184 181.702 250.88L175.034 249.903L171.028 252.261L177.727 253.243C177.393 253.526 177.12 253.875 176.926 254.267C176.733 254.66 176.622 255.089 176.601 255.526L169.262 255.875L170.792 258.487L178.15 258.132C178.637 258.53 179.16 258.882 179.711 259.184C180.398 259.564 181.108 259.898 181.839 260.185L176.645 261.728L183.114 263.594L188.326 262.045C190.673 262.509 193.041 262.854 195.423 263.077L194.353 265.229L203.304 265.627L204.374 263.475C206.98 263.475 209.605 263.339 212.167 263.096L215.626 265.03L223.625 263.824L220.154 261.883C222.032 261.484 223.874 260.934 225.665 260.241L232.333 261.218L236.338 258.86L229.639 257.877C229.974 257.595 230.246 257.246 230.44 256.853C230.633 256.46 230.744 256.032 230.765 255.595L238.105 255.24L236.575 252.634L229.216 252.982C228.729 252.587 228.206 252.237 227.655 251.937C226.968 251.558 226.257 251.221 225.528 250.93L230.728 249.387L224.253 247.521L219.04 249.07C216.694 248.602 214.325 248.258 211.943 248.037L213.013 245.885L204.063 245.481L202.993 247.639C200.387 247.639 197.762 247.776 195.205 248.012L191.747 246.078M211.775 260.048C203.273 261.336 192.755 260.353 188.289 257.859C183.823 255.365 187.082 252.292 195.591 251.017C204.1 249.742 214.612 250.712 219.084 253.206C223.556 255.7 220.284 258.767 211.775 260.048Z" stroke="#131A43" stroke-linecap="round" stroke-linejoin="round"/>
<path d="M153.978 152.349C153.976 151.26 153.895 150.173 153.735 149.096L159.47 147.23L160.254 145.364L159.01 145.731L157.237 140.27L151.484 142.136C150.482 140.239 149.21 138.498 147.708 136.967L151.253 132.084L152.037 130.218L150.793 131.748L145.338 127.786L141.78 132.681C139.856 131.729 137.802 131.067 135.685 130.716V124.682H129.564L129.092 122.816L128.314 124.682V130.734C126.197 131.094 124.145 131.765 122.225 132.725L118.679 127.823L114.692 130.722L113.529 130.255L113.405 130.56L112.745 132.134L116.309 137.029C114.819 138.567 113.562 140.315 112.577 142.216L108.727 140.972L107.62 138.484L106.836 140.35L104.572 147.317L110.326 149.183C110.173 150.227 110.096 151.281 110.096 152.336C110.097 153.425 110.179 154.512 110.338 155.589L107.228 156.603L105.4 155.577L104.622 157.443L106.861 164.434L112.615 162.568C113.617 164.468 114.891 166.212 116.396 167.743L114.188 170.773H113.629L112.845 172.639L118.773 176.949L122.33 172.054C124.255 173.003 126.309 173.665 128.426 174.019V180.053H135.753L136.537 178.187H135.753V174.007C137.87 173.648 139.922 172.977 141.843 172.017L145.388 176.893L151.322 172.589L152.099 170.723L150.513 171.488L147.764 167.7C149.254 166.162 150.511 164.414 151.496 162.512L157.237 164.378L159.501 157.412L153.748 155.546C153.902 154.487 153.979 153.419 153.978 152.349ZM132.027 166.45C129.238 166.451 126.511 165.625 124.192 164.076C121.872 162.528 120.064 160.326 118.996 157.749C117.927 155.173 117.647 152.337 118.191 149.602C118.734 146.866 120.076 144.353 122.048 142.38C124.02 140.408 126.532 139.064 129.268 138.52C132.003 137.975 134.839 138.254 137.416 139.321C139.993 140.388 142.195 142.195 143.745 144.514C145.295 146.833 146.122 149.56 146.122 152.349C146.122 156.088 144.637 159.673 141.994 162.317C139.351 164.962 135.766 166.448 132.027 166.45Z" fill="#131A43" stroke="#131A43" stroke-linecap="round" stroke-linejoin="round"/>
<path d="M158.022 162.469L160.286 155.496L154.532 153.63C154.679 152.583 154.754 151.528 154.756 150.47C154.756 149.384 154.677 148.299 154.52 147.224L160.255 145.358L157.991 138.385L152.237 140.251C151.235 138.351 149.961 136.608 148.455 135.076L152.007 130.193L146.048 125.895L142.497 130.784C140.57 129.834 138.514 129.174 136.395 128.825V122.791H129.092V128.843C126.976 129.203 124.924 129.874 123.003 130.834L119.458 125.951L113.53 130.255L117.088 135.157C115.6 136.697 114.343 138.444 113.356 140.344L107.621 138.478L105.332 145.426L111.086 147.292C110.933 148.336 110.856 149.39 110.855 150.446C110.854 151.534 110.935 152.622 111.098 153.699L105.357 155.565L107.627 162.537L113.381 160.671C114.377 162.571 115.649 164.313 117.156 165.84L113.611 170.729L119.539 175.033L123.096 170.138C125.019 171.093 127.073 171.756 129.192 172.104V178.137H136.519V172.085C138.636 171.725 140.688 171.055 142.608 170.095L146.154 174.977L152.082 170.667L148.536 165.79C150.026 164.252 151.284 162.505 152.268 160.603L158.022 162.469ZM118.711 150.47C118.711 147.681 119.538 144.955 121.088 142.636C122.638 140.317 124.84 138.51 127.417 137.442C129.994 136.375 132.83 136.096 135.565 136.641C138.301 137.186 140.813 138.529 142.785 140.502C144.757 142.475 146.099 144.988 146.643 147.723C147.186 150.459 146.906 153.294 145.838 155.871C144.769 158.447 142.961 160.649 140.641 162.198C138.322 163.746 135.595 164.572 132.806 164.571C130.954 164.571 129.121 164.206 127.411 163.498C125.7 162.789 124.146 161.75 122.837 160.441C121.528 159.131 120.49 157.577 119.782 155.866C119.074 154.155 118.71 152.322 118.711 150.47Z" fill="#6D6D6D" stroke="#131A43" stroke-linecap="round" stroke-linejoin="round"/>
<path d="M192.181 113.362C192.182 112.273 192.101 111.186 191.938 110.109L197.679 108.243L198.457 106.377L197.213 106.744L195.415 101.264L189.662 103.13C188.658 101.233 187.384 99.4918 185.88 97.9612L189.432 93.0785L190.209 91.2125L188.965 92.7426L183.51 88.7805L179.959 93.6756C178.032 92.7238 175.976 92.0615 173.857 91.7101V85.6767H167.78L167.313 83.8107L166.53 85.6767V91.7287C164.413 92.0883 162.361 92.759 160.44 93.7191L156.895 88.8364L152.889 91.735L151.732 91.2747L151.602 91.5732L150.955 93.178L154.513 98.0731C153.021 99.6123 151.764 101.362 150.781 103.267L146.93 102.023L145.823 99.5348L145.046 101.401L142.782 108.367L148.535 110.233C148.383 111.278 148.306 112.331 148.305 113.387C148.304 114.476 148.385 115.563 148.548 116.64L145.438 117.654L143.559 116.603L142.775 118.469L145.039 125.435L150.799 123.569C151.798 125.467 153.07 127.209 154.575 128.738L152.373 131.773H151.807L151.023 133.608L156.951 137.918L160.502 133.023C162.429 133.975 164.485 134.637 166.604 134.989V141.072H173.931L174.715 139.206H173.931V135.026C176.048 134.667 178.1 133.996 180.021 133.036L183.566 137.918L189.494 133.608L190.278 131.742L188.685 132.501L185.936 128.719C187.428 127.18 188.685 125.43 189.668 123.525L195.409 125.391L197.673 118.425L191.913 116.559C192.08 115.501 192.17 114.433 192.181 113.362ZM170.23 127.463C167.442 127.463 164.715 126.636 162.397 125.086C160.078 123.537 158.27 121.335 157.203 118.758C156.136 116.181 155.857 113.346 156.401 110.611C156.945 107.876 158.288 105.363 160.26 103.391C162.232 101.419 164.744 100.076 167.48 99.5321C170.215 98.988 173.05 99.2673 175.627 100.335C178.203 101.402 180.405 103.209 181.955 105.528C183.504 107.847 184.331 110.573 184.331 113.362C184.331 117.102 182.846 120.688 180.201 123.333C177.557 125.977 173.97 127.463 170.23 127.463Z" fill="#131A43" stroke="#131A43" stroke-linecap="round" stroke-linejoin="round"/>
<path d="M196.223 123.482L198.487 116.509L192.734 114.643C192.886 113.599 192.963 112.545 192.964 111.49C192.962 110.401 192.881 109.314 192.721 108.237L198.456 106.371L196.192 99.398L190.439 101.264C189.443 99.3639 188.17 97.622 186.663 96.0952L190.209 91.2063L184.281 86.902L180.723 91.7972C178.8 90.8427 176.746 90.1802 174.628 89.8316V83.7982H167.3V89.8503C165.183 90.2098 163.131 90.8806 161.211 91.8407L157.666 86.958L151.738 91.2685L155.296 96.1636C153.806 97.7017 152.548 99.4493 151.564 101.351L145.823 99.4851L143.559 106.464L149.312 108.33C149.16 109.376 149.083 110.432 149.082 111.49C149.084 112.576 149.165 113.662 149.325 114.737L143.59 116.603L145.854 123.575L151.607 121.709C152.609 123.609 153.883 125.353 155.389 126.884L151.813 131.742L157.74 136.096L161.298 131.207C163.223 132.156 165.277 132.816 167.394 133.166V139.2H174.727V133.154C176.842 132.793 178.892 132.12 180.81 131.157L184.362 136.04L190.289 131.736L186.732 126.834C188.22 125.295 189.477 123.548 190.464 121.647L196.223 123.482ZM156.913 111.49C156.912 108.701 157.738 105.974 159.286 103.654C160.835 101.334 163.037 99.5261 165.613 98.4579C168.19 97.3897 171.025 97.1095 173.761 97.6529C176.496 98.1963 179.01 99.5388 180.982 101.511C182.955 103.482 184.298 105.995 184.843 108.73C185.388 111.466 185.109 114.301 184.042 116.878C182.975 119.455 181.167 121.658 178.848 123.207C176.529 124.757 173.803 125.584 171.014 125.584C167.275 125.584 163.689 124.099 161.045 121.456C158.401 118.813 156.915 115.228 156.913 111.49Z" fill="#6D6D6D" stroke="#131A43" stroke-linecap="round" stroke-linejoin="round"/>
<path opacity="0.2" d="M184.754 159.912H184.81L185.749 159.06L184.754 159.912Z" fill="#131A43"/>
<path opacity="0.2" d="M183.691 162.842L183.393 162.998C183.405 163.078 183.461 163.085 183.691 162.842Z" fill="#131A43"/>
<path opacity="0.2" d="M184.206 161.766C184.293 161.654 183.584 162.388 183.348 162.687C183.584 162.575 184.256 161.946 184.206 161.766Z" fill="#131A43"/>
<path opacity="0.2" d="M182.589 164.434L185.22 163.582C185.419 163.383 185.525 163.209 185.382 163.109C184.934 163.731 184.99 163.333 184.667 163.564V163.62C184.586 163.675 184.343 163.843 184.437 163.675C185.076 163.306 185.687 162.891 186.265 162.431C186.004 162.568 186.34 162.052 186.352 161.959C186.85 161.554 186.483 162.077 186.539 162.195C186.788 161.965 187.335 161.741 187.379 161.393C187.59 160.932 186.831 161.673 186.614 161.673L188.156 160.534H188.082C188.284 160.452 188.457 160.311 188.579 160.13C188.61 159.9 188.274 160.186 188.1 160.416C188.654 159.558 189.668 159.514 189.966 158.606L189.73 158.755C189.817 158.637 189.898 158.588 189.973 158.588L190.451 158.289C190.451 158.227 190.451 158.109 190.395 158.165L190.874 157.885C191.689 157.263 190.874 157.474 191.049 157.188L191.011 157.225C191.198 156.97 191.273 156.709 191.092 156.84L191.982 156.218C191.882 156.218 191.801 156.218 191.783 156.156L191.982 156.218C192.461 156.106 193.611 155.042 193.928 155.384C193.96 155.344 193.989 155.303 194.016 155.26C194.016 155.198 193.984 155.129 193.972 155.061C193.898 155.139 193.814 155.208 193.723 155.266L193.972 155.061C193.832 154.334 193.749 153.598 193.723 152.859C193.518 153.027 193.369 153.176 193.362 153.288L193.45 153.238L193.418 153.412C193.398 153.399 193.382 153.381 193.372 153.359C193.362 153.337 193.359 153.312 193.362 153.288C192.772 153.643 192.342 154.227 191.876 154.532L192 154.706C191.73 154.862 191.483 155.055 191.266 155.278C191.266 155.278 191.335 155.278 191.397 155.278L191.739 155.011C191.652 155.131 191.534 155.223 191.397 155.278C190.632 155.891 189.903 156.547 189.214 157.244C189.351 157.306 189.413 157.368 189.836 157.026C189.369 157.773 188.038 158.444 187.174 159.421H187.31L186.688 159.813C186.844 159.757 186.825 159.875 186.894 159.937C186.035 160.852 184.934 161.94 184.182 162.102C184.499 161.928 183.958 162.68 184.592 162.282C183.842 162.802 183.14 163.389 182.496 164.036L182.589 164.434ZM187.46 160.758L188.038 160.304L187.447 160.876L187.46 160.758ZM185.961 162.133L185.451 162.643L185.133 162.811L185.961 162.133Z" fill="#131A43"/>
<path opacity="0.2" d="M183.368 163.022C183.368 162.904 183.53 162.581 183.119 163.147L183.368 163.022Z" fill="#131A43"/>
<path opacity="0.2" d="M183.424 161.113L184.456 160.491L184.071 160.659L184.693 160.205C184.506 160.143 183.797 160.534 183.424 161.113Z" fill="#131A43"/>
<path opacity="0.2" d="M183.989 161.063C183.872 161.124 183.766 161.201 183.672 161.293C183.77 161.206 183.876 161.129 183.989 161.063Z" fill="#131A43"/>
<path opacity="0.2" d="M183.988 161.063C184.119 161.026 183.951 161.306 184.361 161.02C184.355 160.901 184.187 160.976 183.988 161.063Z" fill="#131A43"/>
<path opacity="0.2" d="M204.889 176.8L205.206 176.315C204.746 176.29 204.957 176.557 204.889 176.8Z" fill="#131A43"/>
<path opacity="0.2" d="M185.04 159.925L184.81 159.912L184.748 159.968L185.04 159.925Z" fill="#131A43"/>
<path opacity="0.2" d="M210.23 136.382C210.485 136.276 210.884 136.264 211.02 135.76C210.541 135.797 210.641 136.152 210.23 136.382Z" fill="#131A43"/>
<path opacity="0.2" d="M204.789 176.961C204.839 176.919 204.873 176.863 204.889 176.8L204.789 176.961Z" fill="#131A43"/>
<path opacity="0.2" d="M213.553 131.182H213.454C213.36 131.35 213.317 131.487 213.367 131.506C213.401 131.384 213.465 131.273 213.553 131.182Z" fill="#131A43"/>
<path opacity="0.2" d="M210.915 137.962H210.766C211.655 137.34 212.346 136.065 213.117 135.213C213.117 135.325 212.445 135.891 212.719 136.015L213.801 135.045C213.801 134.933 214.243 134.473 213.857 134.641C213.72 134.754 213.603 134.888 213.509 135.039L213.54 134.808C214.61 133.956 213.782 135.163 213.981 135.337C214.423 134.765 214.79 134.771 215.132 134.429C215.101 134.081 214.261 134.883 214.51 134.242C215.003 133.62 215.645 133.132 216.376 132.824C216.399 132.626 216.47 132.436 216.581 132.271C216.302 132.146 216.015 132.028 215.729 131.916C214.149 133.372 212.327 134.367 211.102 136.301H211.17L209.808 137.209C209.627 137.44 209.746 137.676 209.466 138.074C209.466 137.887 209.254 138.074 209.012 138.323C209.472 138.366 209.92 138.429 210.361 138.509C210.505 138.289 210.693 138.103 210.915 137.962Z" fill="#131A43"/>
<path opacity="0.2" d="M186.901 158.675C187.075 158.444 186.863 158.382 187.342 158.096C187.392 158.277 187.809 158.401 188.269 157.766C187.763 157.877 187.285 158.088 186.863 158.388L186.901 158.675Z" fill="#131A43"/>
<path opacity="0.2" d="M188.225 158.146L188.847 157.368C188.218 157.499 188.405 157.798 188.225 158.146Z" fill="#131A43"/>
<path opacity="0.2" d="M188.224 158.146L188.031 158.401C188.111 158.329 188.177 158.243 188.224 158.146Z" fill="#131A43"/>
<path opacity="0.2" d="M193.83 150.235H193.837V150.228L193.83 150.235Z" fill="#131A43"/>
<path opacity="0.2" d="M225.184 139.001L225.054 138.839C224.96 138.92 224.867 139.007 224.768 139.106C224.78 139.256 224.998 139.131 225.184 139.001Z" fill="#131A43"/>
<path opacity="0.2" d="M218.454 161.679C218.684 161.318 218.97 161.399 219.169 161.2C219.113 161.038 218.939 161.113 218.802 161.125C218.671 161.287 218.547 161.442 218.41 161.598C218.416 161.629 218.431 161.657 218.454 161.679Z" fill="#131A43"/>
<path opacity="0.2" d="M219.146 161.02C219.146 160.889 219.376 160.665 219.562 160.398C219.276 160.354 219.021 160.976 219.146 161.02Z" fill="#131A43"/>
<path opacity="0.2" d="M215.506 165.908C215.301 166.02 214.791 165.958 214.629 166.425L214.94 166.263L214.896 166.331L215.071 166.381C214.704 166.151 215.357 166.039 215.506 165.908Z" fill="#131A43"/>
<path opacity="0.2" d="M220.768 144.282L220.488 144.686L220.737 144.456L220.768 144.282Z" fill="#131A43"/>
<path opacity="0.2" d="M194.346 156.622C194.128 156.847 193.893 157.055 193.643 157.244L193.761 157.424C193.492 157.579 193.245 157.77 193.027 157.99C193.048 157.999 193.07 158.004 193.093 158.004C193.115 158.004 193.137 157.999 193.158 157.99L193.506 157.717C193.417 157.838 193.297 157.933 193.158 157.99C192.405 158.599 191.687 159.249 191.006 159.937C191.143 159.999 191.211 160.062 191.628 159.72C191.161 160.466 189.824 161.138 188.959 162.114H189.102L188.48 162.506C188.636 162.456 188.617 162.575 188.68 162.631L188.512 162.805C189.488 164.603 190.711 166.257 192.144 167.718L188.599 172.601L194.526 176.912L198.078 172.017C200.005 172.966 202.061 173.628 204.18 173.982V175.406C204.242 175.36 204.292 175.3 204.327 175.231C204.362 175.162 204.379 175.086 204.379 175.008L204.223 175.077C204.273 175.002 204.323 174.977 204.379 174.99L204.696 174.853C204.696 174.803 204.696 174.716 204.628 174.741L204.945 174.623C205.461 174.299 204.845 174.293 204.945 174.106C205.038 173.945 205.044 173.758 204.945 173.82L205.517 173.516C205.483 173.516 205.45 173.508 205.421 173.491C205.391 173.475 205.367 173.451 205.349 173.422L205.517 173.516C205.872 173.516 206.562 172.925 206.885 173.261C206.973 173.117 207.01 172.968 206.885 172.968C206.834 173.027 206.771 173.074 206.699 173.105L206.885 172.968C207.234 172.663 206.556 172.788 207.128 172.315C207.066 172.253 207.022 172.315 206.917 172.383C207.047 172.24 207.122 172.203 207.184 172.216C207.138 172.17 207.107 172.111 207.097 172.048C207.221 172.172 207.414 171.923 207.501 171.78H207.109C207.216 171.775 207.319 171.743 207.41 171.686C207.5 171.629 207.575 171.55 207.626 171.457H207.346C207.75 171.146 207.657 171.718 207.968 171.171L207.706 171.693C208.204 171.283 208.328 171.693 208.639 171.612C209.33 171.345 209.535 170.368 210.319 170.43C210.238 170.238 210.132 170.25 210.151 170.001C210.029 170.112 209.885 170.196 209.729 170.246C209.572 170.296 209.406 170.313 209.243 170.294C208.459 170.673 209.61 170.953 208.652 171.276C208.515 171.071 208.708 170.866 208.975 170.773C208.839 170.605 208.521 170.729 208.31 170.773C208.758 170.486 209.1 169.771 209.349 169.529H209.317H209.373C209.637 169.48 209.876 169.344 210.051 169.143C210.051 169.143 210.051 169.087 210.051 169.018C210.064 169.037 210.07 169.059 210.07 169.081C210.07 169.103 210.064 169.124 210.051 169.143C210.145 169.28 210.804 168.788 210.86 169.199C211.314 168.863 210.779 168.627 211.432 168.515C211.09 168.459 211.55 168.117 211.215 168.11C211.252 168.415 210.549 168.558 210.226 168.639L210.692 167.961C210.605 168.154 210.928 168.073 211.034 168.017L210.947 167.781C211.432 168.085 211.669 166.493 212.415 166.661C212.21 166.817 212.191 167.109 211.899 166.985C211.681 167.432 212.266 167.215 212.247 167.507C212.925 167.146 213.454 166.101 214.306 165.834C214.082 165.834 213.839 166.089 213.653 165.946C213.976 165.442 214.847 165.324 215.469 164.975L215.177 164.851C215.761 164.627 215.258 164.615 215.761 164.229C215.761 164.273 215.761 164.409 215.886 164.304C216.228 163.937 215.749 164.098 215.929 163.812C216.296 163.75 216.309 163.651 216.309 163.514C214.515 164.881 212.42 165.798 210.199 166.188C207.977 166.578 205.695 166.429 203.543 165.753C201.392 165.078 199.433 163.896 197.833 162.308C196.232 160.719 195.037 158.769 194.346 156.622ZM214.94 164.584C215.189 164.733 214.629 165.131 214.542 165.318C214.387 164.994 215.003 165.044 214.94 164.602V164.584Z" fill="#131A43"/>
<path opacity="0.2" d="M225.191 139.828C225.228 139.768 225.258 139.703 225.278 139.635C225.203 139.728 225.184 139.784 225.191 139.828Z" fill="#131A43"/>
<path opacity="0.2" d="M225.328 139.915C225.41 139.913 225.488 139.879 225.546 139.822C225.466 139.832 225.39 139.864 225.328 139.915Z" fill="#131A43"/>
<path opacity="0.2" d="M225.328 139.915C225.253 139.915 225.203 139.915 225.191 139.834C224.737 140.499 224.207 141.108 223.611 141.65C223.499 141.943 224.233 141.489 224.451 141.377C223.686 141.128 225.123 140.755 225.353 140.17C225.197 140.226 224.936 140.512 224.793 140.506C224.927 140.273 225.109 140.071 225.328 139.915Z" fill="#131A43"/>
<path opacity="0.2" d="M204.838 176.526C204.611 176.528 204.384 176.551 204.16 176.594C204.194 176.659 204.247 176.713 204.311 176.748C204.376 176.782 204.449 176.797 204.522 176.79C204.595 176.782 204.664 176.753 204.721 176.706C204.777 176.659 204.818 176.596 204.838 176.526Z" fill="#131A43"/>
<path opacity="0.2" d="M223.959 140.201L224.967 139.231C224.711 138.988 224.55 139.629 224.251 139.685C224.295 139.355 224.687 139.063 225.016 138.789C224.517 138.153 223.986 137.542 223.424 136.961L226.969 132.078L222.702 128.968C222.335 129.316 221.912 129.795 221.458 130.156L221.589 130.274L221.104 130.616L221.328 130.56C220.911 130.958 220.214 131.238 219.847 131.804C220.109 131.462 220.382 131.587 220.438 131.705L218.983 132.725C219.039 132.843 218.523 133.415 218.983 133.135L218.361 133.471L218.498 133.533C216.744 135.654 214.349 136.6 212.856 138.963H212.925L212.676 139.131C215.572 140.218 218.032 142.223 219.68 144.841C220.36 144.4 220.987 143.88 221.546 143.293C221.402 143.293 221.147 143.516 221.079 143.516C221.819 142.894 223.125 142.447 223.3 141.694C222.877 141.905 222.379 142.167 221.925 142.416C221.861 142.486 221.776 142.534 221.682 142.552C221.396 142.714 221.129 142.863 220.93 142.988C221.297 142.484 221.477 142.59 221.682 142.552L221.925 142.416C222.055 142.283 222.162 142.129 222.242 141.961L221.863 142.073C222.64 141.209 222.783 141.744 223.405 141.451L223.723 140.761C224.183 140.163 224.731 139.637 225.346 139.2L225.203 139.026C224.83 139.43 224.357 140.058 223.959 140.201Z" fill="#131A43"/>
<path opacity="0.2" d="M211.712 169.174L211.588 169.28C211.638 169.256 211.681 169.22 211.712 169.174Z" fill="#131A43"/>
<path opacity="0.2" d="M211.357 169.323C211.462 169.46 211.475 169.398 211.599 169.28C211.413 169.367 211.238 169.162 211.102 169.51C211.195 169.497 211.232 169.336 211.357 169.323Z" fill="#131A43"/>
<path opacity="0.2" d="M212.277 168.396C212.166 167.986 211.655 168.571 211.5 168.857C211.662 168.819 211.979 168.229 212.277 168.396Z" fill="#131A43"/>
<path opacity="0.2" d="M211.568 168.117L211.599 168.334L211.792 168.092L211.568 168.117Z" fill="#131A43"/>
<path opacity="0.2" d="M213.689 166.076L214.007 165.908L214 165.865L213.689 166.033V166.076Z" fill="#131A43"/>
<path opacity="0.2" d="M213.453 168.477C213.148 168.266 213.328 168.782 212.955 168.888C213.079 169.012 213.378 168.757 213.546 168.757C213.639 168.614 213.372 168.664 213.254 168.633C213.305 168.564 213.374 168.511 213.453 168.477Z" fill="#131A43"/>
<path opacity="0.2" d="M212.631 169.684L212.52 169.784C212.568 169.766 212.609 169.73 212.631 169.684Z" fill="#131A43"/>
<path opacity="0.2" d="M212.633 169.684L212.819 169.529C212.683 169.429 212.695 169.572 212.633 169.684Z" fill="#131A43"/>
<path opacity="0.2" d="M210.648 135.281L210.903 134.995C210.63 135.399 211.525 134.771 211.078 135.35C210.897 135.58 211.544 135.126 211.731 134.833C211.594 134.771 211.158 135.287 211.196 135.001L211.376 134.771C211.109 135.119 210.947 134.703 210.648 135.281Z" fill="#131A43"/>
<path opacity="0.2" d="M224.78 156.958C224.625 157.045 224.569 157.026 224.494 157.306C224.65 157.244 224.793 157.045 224.78 156.958Z" fill="#131A43"/>
<path opacity="0.2" d="M220.526 159.732C220.476 159.732 220.134 160.13 220.01 160.012L220.103 160.292C220.24 160.074 220.57 160.043 220.526 160.155C220.551 159.888 220.762 159.825 220.526 159.732Z" fill="#131A43"/>
<path opacity="0.2" d="M222.759 157.244C222.622 157.455 222.137 157.487 222.274 157.785L222.734 157.493C222.722 157.35 222.933 157.288 222.759 157.244Z" fill="#131A43"/>
<path opacity="0.2" d="M229.725 152.349C229.726 151.26 229.645 150.172 229.482 149.096L235.223 147.23L232.959 140.263L227.206 142.129C226.876 141.507 226.515 140.923 226.136 140.338C225.955 140.562 225.728 140.744 225.47 140.873C225.47 140.985 225.719 140.699 225.613 140.935C224.369 142.136 222.304 143.722 220.986 145.333C220.799 145.239 220.513 145.382 220.171 145.631C221.41 147.907 221.998 150.479 221.869 153.067C221.741 155.655 220.901 158.157 219.443 160.298C219.566 160.238 219.699 160.202 219.835 160.192C219.686 159.465 220.899 158.948 220.569 158.612C220.569 158.656 220.805 158.675 220.892 158.488H220.687C220.942 157.922 221.396 158.388 221.577 158.059C221.508 158.003 221.409 158.059 221.291 158.022C221.763 157.4 222.566 157.574 222.914 156.821C222.852 156.821 222.796 156.79 222.752 156.858C222.709 156.927 222.79 156.746 223.057 156.647L222.989 156.97C223.673 157.076 223.611 156.031 224.152 155.683C224.034 155.683 223.691 155.981 223.766 155.683C224.058 155.384 224.45 155.838 224.6 155.278C224.394 155.39 224.245 155.148 224.052 155.278C224.007 155.338 223.955 155.393 223.897 155.44C223.935 155.375 223.988 155.32 224.052 155.278C224.257 155.023 224.301 154.744 224.537 154.812C224.561 154.782 224.573 154.744 224.573 154.706C224.573 154.668 224.561 154.631 224.537 154.601C224.501 154.61 224.462 154.61 224.425 154.601C224.425 154.551 224.494 154.563 224.537 154.601C224.805 154.601 224.954 154.252 225.072 154.066L224.96 154.028C225.645 154.14 225.452 153.574 225.856 153.22L225.682 153.17C225.887 153.058 226.267 152.952 226.372 152.517H226.092C226.41 152.392 226.609 151.77 227.001 151.795C227.044 151.677 226.546 151.752 226.889 151.379C227.056 151.379 227.423 151.192 227.392 150.968C227.33 150.906 227.212 150.875 227.181 151.036C227.131 151.105 227.181 151.08 227.243 151.099H227.019C227.193 150.725 227.343 150.974 227.567 150.62C227.567 150.483 227.343 150.62 227.231 150.564L228.562 149.705C228.686 149.78 228.599 149.973 228.823 149.991L228.487 150.408C228.487 150.75 228.879 150.408 229.109 150.278L228.867 150.551C228.871 150.555 228.875 150.559 228.881 150.561C228.886 150.563 228.892 150.564 228.898 150.564C228.903 150.564 228.909 150.563 228.914 150.561C228.92 150.559 228.925 150.555 228.929 150.551L228.73 150.738C229.47 150.433 228.506 151.571 229.233 151.18C229.06 151.298 228.853 151.359 228.643 151.354C228.338 151.565 228.512 151.609 228.475 151.77L229.003 151.54C228.35 152.075 229.24 151.652 228.922 152.2C228.3 152.579 228.518 153.363 228.3 153.636C227.753 154.115 228.3 153.251 227.896 153.475C227.591 153.73 227.896 153.723 227.728 153.941L227.386 153.842C227.032 154.128 227.579 154.066 227.318 154.165C227.2 154.557 227.486 154.165 227.722 154.277C227.61 154.277 227.249 154.482 227.218 154.688C227.28 154.75 227.629 154.42 227.436 154.688C226.528 155.366 226.584 155.813 225.844 156.491L226.018 156.541C225.912 156.597 225.8 156.61 225.763 156.728H225.875C225.375 157.078 224.906 157.471 224.475 157.903L224.848 157.798L224.27 158.065L224.519 158.214C224.177 158.165 223.81 158.78 223.356 159.122L223.486 159.241L223.169 159.409H223.337C223.094 159.639 222.603 159.707 222.429 160.087C222.566 159.869 222.808 160.024 222.877 160.13L221.944 160.634C222.012 160.733 221.726 161.082 222.043 160.957L221.614 161.088L221.738 161.169C220.799 162.475 219.107 162.718 218.423 164.279H218.479L217.59 164.702C217.496 164.851 217.639 165.056 217.503 165.324C217.409 165.044 217.104 165.678 216.825 165.641C216.744 165.877 216.949 165.765 217.067 165.797C216.619 166.611 215.823 166.804 215.251 167.625C215.479 167.105 215.77 166.614 216.116 166.163C215.45 166.618 215.543 166.897 214.872 167.439L215.238 167.24C215.201 167.83 214.169 168.005 214.386 168.409C213.988 168.72 213.372 168.714 212.993 169.205L213.447 169.292L213.055 169.69L212.862 169.51C212.726 169.628 212.695 169.728 212.726 169.79C212.822 169.775 212.921 169.775 213.018 169.79C212.881 169.864 212.763 169.846 212.726 169.79C212.247 169.846 211.985 170.343 211.444 170.555L211.5 170.685C211.562 170.685 211.612 170.685 211.5 170.791V170.685C211.451 170.691 211.401 170.691 211.351 170.685C211.444 170.922 211.084 171.158 211.22 171.307C211.376 171.22 211.737 171.028 211.612 170.953C212.104 170.835 211.345 171.426 211.152 171.625C211.276 171.326 210.978 171.581 210.822 171.662C210.822 171.706 210.878 171.662 210.934 171.699C210.667 172.172 210.063 171.83 210.138 172.408L209.902 172.296L209.734 172.719C209.361 172.396 209.286 173.099 208.913 172.825C208.571 173.155 209.155 172.981 209 173.061C208.757 173.447 207.893 173.683 207.949 173.951H208.005V174.088C207.967 174.06 207.941 174.021 207.93 173.976C207.538 174.131 207.308 174.498 207.022 174.66L207.152 174.828C206.978 174.888 206.82 174.988 206.692 175.12C206.726 175.134 206.764 175.134 206.798 175.12L207.009 174.977C206.988 175.016 206.957 175.049 206.921 175.074C206.884 175.098 206.842 175.114 206.798 175.12C206.335 175.443 205.902 175.808 205.504 176.209C205.629 176.29 205.691 176.352 205.946 176.165C205.734 176.663 204.82 176.912 204.341 177.503H204.453L204.186 177.615V177.776C204.194 177.794 204.207 177.809 204.223 177.82L204.186 177.857V179.91H211.513V173.858C213.63 173.498 215.682 172.827 217.602 171.867L221.147 176.744L227.075 172.439L223.517 167.538C225.009 166.001 226.266 164.253 227.249 162.351L232.984 164.217L235.254 157.25L229.495 155.384C229.641 154.379 229.718 153.365 229.725 152.349ZM223.088 156.348C223.362 155.919 223.181 156.249 223.586 155.938L223.088 156.348Z" fill="#131A43"/>
<path opacity="0.2" d="M185.855 152.349C185.854 153.438 185.935 154.525 186.098 155.602L180.357 157.468L182.117 162.879C182.64 162.404 183.085 161.85 183.435 161.237L182.478 161.803C182.919 161.287 183.952 160.665 183.622 160.422C183.168 161.044 183.224 160.646 182.901 160.876V160.932C182.82 160.988 182.577 161.156 182.67 160.988C183.312 160.619 183.925 160.204 184.505 159.744C184.238 159.881 184.574 159.365 184.586 159.272C185.084 158.867 184.717 159.39 184.773 159.508C185.022 159.278 185.569 159.054 185.619 158.706C185.824 158.245 185.065 158.986 184.847 158.979L186.353 157.866H186.278C186.479 157.781 186.652 157.641 186.776 157.462C186.776 157.232 186.477 157.518 186.297 157.748C186.85 156.889 187.864 156.846 188.163 155.938L187.926 156.087C188.02 155.969 188.094 155.919 188.169 155.913L188.648 155.608C188.648 155.552 188.648 155.434 188.598 155.49L189.071 155.21C189.892 154.588 189.071 154.8 189.245 154.507L189.208 154.545C189.394 154.29 189.469 154.034 189.288 154.165L190.178 153.543C190.078 153.543 190.004 153.543 189.979 153.481L190.178 153.543C190.657 153.431 191.808 152.361 192.125 152.71C192.305 152.479 192.398 152.262 192.262 152.299L192.224 152.336C192.135 152.433 192.035 152.518 191.926 152.591L192.224 152.336C192.224 152.336 192.224 152.336 192.255 152.299C192.84 151.764 191.87 152.181 192.821 151.323C192.759 151.26 192.672 151.379 192.51 151.491C192.741 151.248 192.859 151.173 192.933 151.167C192.91 151.141 192.892 151.111 192.881 151.077C192.87 151.044 192.867 151.009 192.871 150.974C193.002 151.092 193.35 150.688 193.531 150.458L193.002 150.57C193.33 150.45 193.614 150.233 193.817 149.948L193.437 150.054C193.754 149.786 193.842 149.83 193.922 149.855C194.456 146.891 195.925 144.177 198.113 142.109C200.301 140.04 203.094 138.727 206.082 138.36C206.231 138.242 206.33 138.074 206.362 137.887C206.493 137.943 206.362 138.136 206.17 138.354C206.294 138.354 206.418 138.341 206.543 138.317H206.449C207.326 137.807 206.648 137.968 207.47 137.284C207.47 137.34 207.438 137.52 207.613 137.346C208.235 136.724 207.494 137.11 207.849 136.65C208.937 136.202 208.004 136.071 209.136 135.275H208.993C209.883 134.653 210.567 133.409 211.338 132.526C211.338 132.638 210.667 133.204 210.94 133.328L211.979 132.364C211.979 132.252 212.421 131.792 212.035 131.96C211.898 132.073 211.781 132.207 211.687 132.358L211.724 132.121C212.788 131.276 211.967 132.482 212.159 132.656C212.601 132.084 212.968 132.09 213.31 131.748C213.31 131.394 212.439 132.202 212.688 131.562C212.801 131.383 212.942 131.223 213.105 131.089C212.533 130.952 211.96 130.828 211.376 130.728V124.695H204.061V130.747C201.944 131.106 199.892 131.777 197.972 132.737L194.426 127.855L188.499 132.165L192.075 137.029C190.585 138.567 189.328 140.315 188.343 142.216L182.608 140.35L180.338 147.317L186.098 149.183C185.94 150.231 185.859 151.289 185.855 152.349ZM182.279 161.679L181.762 161.729C182.123 161.436 182.328 161.598 182.247 161.673L182.279 161.679ZM183.684 159.956L183.367 160.124L184.194 159.446L183.684 159.956ZM185.681 158.189V158.071L186.253 157.617L185.681 158.189Z" fill="#131A43"/>
<path opacity="0.2" d="M218.56 163.327C218.436 163.246 218.199 163.564 218.168 163.327L218.261 163.184C218.125 163.396 217.913 163.041 217.795 163.433L217.938 163.259C217.807 163.52 218.38 163.215 218.149 163.576C218.056 163.738 218.473 163.514 218.56 163.327Z" fill="#131A43"/>
<path opacity="0.2" d="M225.47 154.601H225.526C225.528 154.542 225.543 154.485 225.57 154.433C225.508 154.457 225.452 154.489 225.47 154.601Z" fill="#131A43"/>
<path opacity="0.2" d="M227.436 153.07L227.592 152.99C227.673 152.753 227.405 152.853 227.256 152.99C227.318 152.996 227.324 153.083 227.436 153.07Z" fill="#131A43"/>
<path opacity="0.2" d="M224.855 157.107C225.11 156.927 225.316 157.194 225.434 156.846C225.235 157.001 225.042 156.69 224.855 157.107Z" fill="#131A43"/>
<path opacity="0.2" d="M225.141 154.209C225.277 154.209 225.607 154.047 225.694 154.209C225.868 153.923 226.049 153.63 225.626 153.699L225.439 153.947C225.539 153.842 225.545 153.891 225.601 153.904C225.52 154.134 225.296 154.134 225.141 154.209Z" fill="#131A43"/>
<path opacity="0.2" d="M225.712 154.37C225.723 154.346 225.728 154.319 225.728 154.293C225.728 154.266 225.723 154.239 225.712 154.215L225.588 154.445C225.663 154.433 225.694 154.426 225.712 154.37Z" fill="#131A43"/>
<path opacity="0.2" d="M218.199 163.906C217.826 163.837 217.975 164.136 217.701 164.229C217.875 164.204 218.199 164.273 218.199 163.906Z" fill="#131A43"/>
<path opacity="0.2" d="M221.308 128.06C221.305 128.039 221.305 128.018 221.308 127.998L221.19 127.91C220.885 128.153 220.475 128.352 220.568 128.626L221.308 128.06Z" fill="#131A43"/>
<path opacity="0.2" d="M186.553 162.606H186.603L187.548 161.754L186.553 162.606Z" fill="#131A43"/>
<path opacity="0.2" d="M185.855 163.352L186.477 162.898C186.062 162.964 185.688 163.187 185.432 163.52L186.004 163.333L186.222 163.203L185.855 163.352Z" fill="#131A43"/>
<path opacity="0.2" d="M212.184 138.957L212.283 138.988C212.413 138.957 212.532 138.891 212.626 138.797C212.721 138.702 212.787 138.583 212.818 138.453C212.414 138.484 212.414 138.74 212.184 138.957Z" fill="#131A43"/>
<path opacity="0.2" d="M213.528 137.527C213.391 137.471 212.955 137.981 212.993 137.695L213.173 137.464C212.906 137.813 212.744 137.402 212.445 137.974L212.7 137.695C212.427 138.093 213.322 137.464 212.874 138.043C212.694 138.273 213.341 137.819 213.528 137.527Z" fill="#131A43"/>
<path opacity="0.2" d="M189.83 161.094C189.909 161.023 189.974 160.939 190.023 160.845L189.83 161.094Z" fill="#131A43"/>
<path opacity="0.2" d="M190.06 160.46C189.557 160.574 189.082 160.785 188.66 161.082L188.691 161.374C188.872 161.144 188.66 161.082 189.139 160.796C189.183 160.976 189.587 161.094 190.06 160.46Z" fill="#131A43"/>
<path opacity="0.2" d="M221.042 127.767L220.83 128.06C220.936 127.991 221.037 127.916 221.135 127.836L221.042 127.767Z" fill="#131A43"/>
<path opacity="0.2" d="M190.023 160.845L190.645 160.062C190.017 160.192 190.21 160.491 190.023 160.845Z" fill="#131A43"/>
<path opacity="0.2" d="M216.918 132.408C216.825 132.464 216.75 132.495 216.713 132.457V132.812C216.814 132.682 216.939 132.573 217.08 132.488L216.918 132.408Z" fill="#131A43"/>
<path opacity="0.2" d="M215.163 134.18C215.163 134.006 215.605 133.608 215.953 133.204C215.586 133.197 215.02 134.118 215.163 134.18Z" fill="#131A43"/>
<path opacity="0.2" d="M186.838 162.618L186.601 162.606L186.539 162.668L186.838 162.618Z" fill="#131A43"/>
</svg>