<svg width="25" height="24" viewBox="0 0 25 24" fill="none" xmlns="http://www.w3.org/2000/svg">
<path d="M12.75 17L14.31 13.58L17.75 12L14.31 10.44L12.75 7L11.18 10.44L7.75 12L11.18 13.58L12.75 17ZM5.75 3H19.75C20.2804 3 20.7891 3.21071 21.1642 3.58579C21.5393 3.96086 21.75 4.46957 21.75 5V19C21.75 19.53 21.54 20.04 21.16 20.41C20.79 20.79 20.28 21 19.75 21H5.75C5.22 21 4.71 20.79 4.34 20.41C3.96 20.04 3.75 19.53 3.75 19V5C3.75 3.89 4.64 3 5.75 3ZM5.75 19H19.75V5H5.75V19Z" fill="#51B748"/>
</svg>