<svg width="25" height="24" viewBox="0 0 25 24" fill="none" xmlns="http://www.w3.org/2000/svg">
<path d="M5.64161 9.61399C5.64161 9.21199 5.96461 8.88599 6.36361 8.88599H10.2196C10.6196 8.88599 10.9426 9.21199 10.9426 9.61399C10.943 9.70933 10.9246 9.80381 10.8885 9.89204C10.8524 9.98028 10.7992 10.0605 10.7321 10.1282C10.665 10.1959 10.5851 10.2497 10.4972 10.2866C10.4093 10.3234 10.3149 10.3426 10.2196 10.343H6.36361C6.17123 10.3419 5.98714 10.2646 5.85177 10.1279C5.7164 9.99119 5.64081 9.80636 5.64161 9.61399Z" fill="white"/>
<path fill-rule="evenodd" clip-rule="evenodd" d="M21.938 10.004C21.876 10 21.808 10 21.738 10H18.965C16.694 10 14.75 11.736 14.75 14C14.75 16.264 16.694 18 18.965 18H21.738C21.808 18 21.876 18 21.938 17.996C22.861 17.94 23.677 17.239 23.746 16.259C23.75 16.195 23.75 16.126 23.75 16.062V11.938C23.75 11.874 23.75 11.805 23.746 11.741C23.677 10.761 22.861 10.061 21.938 10.004ZM18.721 15.067C19.305 15.067 19.779 14.589 19.779 14C19.779 13.41 19.305 12.933 18.721 12.933C18.136 12.933 17.661 13.411 17.661 14C17.661 14.59 18.136 15.067 18.721 15.067Z" fill="white"/>
<path opacity="0.5" d="M21.89 10.002C21.89 8.821 21.846 7.554 21.092 6.647C21.0183 6.55815 20.9405 6.47272 20.859 6.391C20.11 5.643 19.161 5.311 17.989 5.153C16.849 5 15.394 5 13.556 5H11.444C9.606 5 8.15 5 7.01 5.153C5.838 5.311 4.889 5.643 4.14 6.391C3.392 7.14 3.06 8.089 2.902 9.261C2.75 10.401 2.75 11.856 2.75 13.694V13.806C2.75 15.644 2.75 17.1 2.903 18.239C3.061 19.411 3.393 20.36 4.141 21.109C4.89 21.857 5.839 22.189 7.011 22.347C8.151 22.5 9.606 22.5 11.444 22.5H13.556C15.394 22.5 16.85 22.5 17.989 22.347C19.161 22.189 20.11 21.857 20.859 21.109C21.0582 20.9092 21.2346 20.6878 21.385 20.449C21.835 19.729 21.889 18.847 21.889 17.999L21.739 18H18.965C16.694 18 14.75 16.264 14.75 14C14.75 11.736 16.694 10 18.965 10H21.738C21.79 10 21.842 10 21.89 10.002Z" fill="white"/>
<path d="M10.8506 2.57202L8.7496 3.99202L7.0166 5.15202C8.1546 5.00002 9.6086 5.00002 11.4436 5.00002H13.5556C15.3936 5.00002 16.8496 5.00002 17.9886 5.15302C18.2186 5.18302 18.4386 5.22102 18.6506 5.26702L16.7496 4.00002L14.6366 2.57202C14.0758 2.19896 13.4172 1.99994 12.7436 1.99994C12.07 1.99994 11.4114 2.19896 10.8506 2.57202Z" fill="white"/>
</svg>