<svg width="173" height="51" viewBox="0 0 173 51" fill="none" xmlns="http://www.w3.org/2000/svg">
<path d="M157.162 15.9325C157.162 15.9325 157.162 15.9381 157.157 15.9436L157.148 15.9325H157.162Z" fill="#51B748"/>
<path d="M33.2883 31.086L27.6812 21.3771C29.9083 20.5567 31.6025 18.4283 32.764 16.6833C33.9283 14.9355 34.509 12.9847 34.509 10.8309C34.509 8.88291 34.0551 7.07588 33.1502 5.41544C32.2424 3.75783 30.8921 2.4385 29.0935 1.46592C27.2978 0.487704 25.1327 0 22.6012 0H0.990183V3.85368H0.914062V17.6587H0.990183V35.3146H12.3341V21.4137H16.543L22.5307 34.7536L22.8013 35.3146H35.5351L33.2855 31.086H33.2883ZM23.0551 13.2356C22.3757 13.9319 21.5469 14.2786 20.5687 14.2786H12.3764V7.10408H20.5687C21.5469 7.10408 22.3757 7.44236 23.0551 8.12176C23.7317 8.80116 24.0727 9.64688 24.0727 10.6617C24.0727 11.6766 23.7317 12.5364 23.0551 13.2327V13.2356Z" fill="white"/>
<path d="M71.8285 21.456V13.3483H52.2697V8.47131H71.4677V0.00280762H40.9258V35.3174H71.8285V26.8489H52.2697V21.4588H71.8285V21.456Z" fill="white"/>
<path d="M122.257 0.00280762H110.91V35.3174H122.257V0.00280762Z" fill="#51B748"/>
<path d="M141.711 0.00282183H126.75L134.113 10.2671H140.704C142.012 8.98722 143.87 7.80884 145.937 7.15199L141.711 0.00282183ZM158.417 24.0242C156.348 26.5501 152.891 28.1287 149.277 28.1287C149.009 28.1287 148.736 28.1175 148.463 28.0949L152.75 35.3174H166.507L158.422 24.0242H158.417ZM140.702 24.4724H134.514L126.773 35.3174H139.503L144.44 27.0039C143.016 26.3527 141.714 25.4619 140.704 24.4752L140.702 24.4724ZM152.646 0.00282183L148.691 6.63046C148.885 6.61919 149.083 6.61074 149.277 6.61074C153.029 6.61074 156.604 8.31064 158.648 11.0029L166.505 0H152.646V0.00282183Z" fill="#51B748"/>
<path d="M154.341 18.3352L155.22 19.5615L151.595 19.5644L149.238 17.3683L151.595 15.175L155.666 15.1779L154.789 16.4042L153.876 17.684L154.341 18.3352Z" fill="white"/>
<path d="M155.565 22.6231C154.034 24.1256 151.7 25.07 149.276 25.07C148.267 25.07 147.257 24.8417 146.313 24.478L146.228 24.3314H146.025L146.011 24.354C144.263 23.6154 142.792 22.4286 142.093 21.4137H87.5041V35.3174H76.1602V0.00280762H104.7V8.47131H87.5041V13.3258H142.093C143.203 11.7189 146.251 9.67224 149.276 9.67224C151.7 9.67224 154.034 10.6138 155.562 12.1192H150.395L144.754 17.3711L150.395 22.6231H155.565Z" fill="#51B748"/>
<path d="M146.226 24.3314L146.31 24.4752C146.209 24.4357 146.107 24.3963 146.006 24.354L146.02 24.3314H146.223H146.226Z" fill="#51B748"/>
<path d="M0 45.6295H4.56549V46.8955H1.69534V47.6239H4.1506V48.8362H1.69534V49.6421H4.61831V50.9081H0V45.6295Z" fill="white"/>
<path d="M5.53906 45.6295H7.2344V49.5578H9.94269V50.9081H5.53906V45.6295Z" fill="white"/>
<path d="M10.6562 45.6295H15.2217V46.8955H12.3524V47.6239H14.8077V48.8362H12.3524V49.6421H15.2754V50.9081H10.6562V45.6295Z" fill="white"/>
<path d="M20.5699 46.1237C21.0249 46.5147 21.2532 47.0736 21.2532 47.8003H19.6345C19.6345 47.4936 19.5536 47.2508 19.3926 47.071C19.2315 46.8921 19.0024 46.8026 18.7059 46.8026C18.3634 46.8026 18.1112 46.91 17.9502 47.1247C17.7892 47.3394 17.7083 47.6384 17.7083 48.0226V48.5133C17.7083 48.8916 17.7884 49.1898 17.9502 49.407C18.1112 49.6242 18.3583 49.7333 18.6906 49.7333C19.0228 49.7333 19.2656 49.6489 19.4351 49.4803C19.6038 49.3116 19.6882 49.0739 19.6882 48.7663H21.2532C21.2532 49.4879 21.0317 50.04 20.5895 50.4233C20.1474 50.8067 19.522 50.9984 18.7136 50.9984C17.8131 50.9984 17.1315 50.7684 16.6689 50.3083C16.2063 49.8483 15.9746 49.1676 15.9746 48.2671C15.9746 47.3666 16.2063 46.6868 16.6689 46.2259C17.1315 45.7658 17.8131 45.5358 18.7136 45.5358C19.4965 45.5358 20.115 45.7318 20.5699 46.1228V46.1237Z" fill="white"/>
<path d="M25.2044 46.9798V50.9081H23.5091V46.9798H21.7754V45.6295H26.9313V46.9798H25.2053H25.2044Z" fill="white"/>
<path d="M32.4546 48.1223C32.2808 48.383 32.0278 48.5746 31.6947 48.6982L32.8686 50.9081H30.9663L30.03 48.9819H29.4004V50.9081H27.7051V45.6295H30.9347C31.313 45.6295 31.6367 45.7019 31.9051 45.8485C32.1734 45.9941 32.3754 46.1909 32.5108 46.4388C32.6463 46.6868 32.7144 46.9568 32.7144 47.2482C32.7144 47.5702 32.6275 47.8624 32.4537 48.1231L32.4546 48.1223ZM30.8513 46.9722C30.7592 46.8801 30.6468 46.8341 30.5139 46.8341H29.4013V47.8088H30.5139C30.6468 47.8088 30.7592 47.761 30.8513 47.6665C30.9433 47.5719 30.9893 47.4552 30.9893 47.3172C30.9893 47.1792 30.9433 47.0642 30.8513 46.9722Z" fill="white"/>
<path d="M38.2768 46.2353C38.7727 46.7004 39.0214 47.3786 39.0214 48.268C39.0214 49.1574 38.7735 49.8355 38.2768 50.3015C37.781 50.7667 37.0773 51.0001 36.1666 51.0001C35.2559 51.0001 34.5539 50.7684 34.0606 50.3058C33.5674 49.8432 33.3203 49.1642 33.3203 48.2688C33.3203 47.3734 33.5674 46.6945 34.0606 46.2319C34.5539 45.7693 35.2559 45.5375 36.1666 45.5375C37.0773 45.5375 37.7802 45.7701 38.2768 46.2361V46.2353ZM35.3385 47.1332C35.1494 47.353 35.0548 47.6495 35.0548 48.0235V48.5142C35.0548 48.8873 35.1494 49.1846 35.3385 49.4044C35.5277 49.6242 35.8037 49.7341 36.1675 49.7341C36.5312 49.7341 36.8081 49.6242 36.9998 49.4044C37.1915 49.1846 37.2878 48.8882 37.2878 48.5142V48.0235C37.2878 47.6503 37.1915 47.353 36.9998 47.1332C36.8081 46.9134 36.5304 46.8035 36.1675 46.8035C35.8045 46.8035 35.5285 46.9134 35.3385 47.1332Z" fill="white"/>
<path d="M44.4694 50.9081V49.0057C44.4694 48.7706 44.4788 48.5286 44.4967 48.2807C44.5146 48.0328 44.5333 47.8241 44.5546 47.6554C44.5751 47.4867 44.5879 47.3794 44.593 47.3334H44.5623L43.5877 50.9089H42.2604L41.2781 47.341H41.2474C41.2526 47.387 41.2662 47.4935 41.2892 47.6597C41.3122 47.8258 41.3343 48.0328 41.3548 48.2807C41.3752 48.5286 41.3855 48.7706 41.3855 49.0057V50.9081H39.8281V45.6295H42.222L43.0203 48.6752H43.051L43.8416 45.6295H46.1511V50.9081H44.4711H44.4694Z" fill="white"/>
<path d="M47.1797 45.6295H51.7452V46.8955H48.8759V47.6239H51.3311V48.8362H48.8759V49.6421H51.7988V50.9081H47.1797V45.6295Z" fill="white"/>
<path d="M57.0914 46.1237C57.5463 46.5147 57.7746 47.0736 57.7746 47.8003H56.156C56.156 47.4936 56.0751 47.2508 55.914 47.071C55.753 46.8921 55.5239 46.8026 55.2274 46.8026C54.8849 46.8026 54.6327 46.91 54.4717 47.1247C54.3107 47.3394 54.2298 47.6384 54.2298 48.0226V48.5133C54.2298 48.8916 54.3099 49.1898 54.4717 49.407C54.6327 49.6242 54.8798 49.7333 55.212 49.7333C55.5443 49.7333 55.7871 49.6489 55.9566 49.4803C56.1253 49.3116 56.2097 49.0739 56.2097 48.7663H57.7746C57.7746 49.4879 57.5531 50.04 57.111 50.4233C56.6688 50.8067 56.0435 50.9984 55.235 50.9984C54.3346 50.9984 53.653 50.7684 53.1904 50.3083C52.7278 49.8483 52.4961 49.1676 52.4961 48.2671C52.4961 47.3666 52.7278 46.6868 53.1904 46.2259C53.653 45.7658 54.3346 45.5358 55.235 45.5358C56.018 45.5358 56.6365 45.7318 57.0914 46.1228V46.1237Z" fill="white"/>
<path d="M62.2469 50.908V48.9051H60.3828V50.908H58.6875V45.6295H60.3828V47.5557H62.2469V45.6295H63.9422V50.908H62.2469Z" fill="white"/>
<path d="M68.615 50.908L68.3926 50.1634H66.5439L66.3216 50.908H64.5879L66.5132 45.6295H68.4855L70.4117 50.908H68.6167H68.615ZM66.8958 48.9818H68.0391L67.487 47.1024H67.4563L66.8966 48.9818H66.8958Z" fill="white"/>
<path d="M74.8218 50.9081L72.6042 48.3455V50.9081H71.0469V45.6295H72.5275L74.7451 48.2305V45.6295H76.3024V50.9081H74.8218Z" fill="white"/>
<path d="M77.5156 50.9081V45.6295H79.211V50.9081H77.5156Z" fill="white"/>
<path d="M84.7965 46.1237C85.2514 46.5147 85.4797 47.0736 85.4797 47.8003H83.8611C83.8611 47.4936 83.7801 47.2508 83.6191 47.071C83.4581 46.8921 83.2289 46.8026 82.9325 46.8026C82.59 46.8026 82.3378 46.91 82.1768 47.1247C82.0158 47.3394 81.9349 47.6384 81.9349 48.0226V48.5133C81.9349 48.8916 82.0149 49.1898 82.1768 49.407C82.3378 49.6242 82.5849 49.7333 82.9171 49.7333C83.2494 49.7333 83.4922 49.6489 83.6617 49.4803C83.8304 49.3116 83.9147 49.0739 83.9147 48.7663H85.4797C85.4797 49.4879 85.2582 50.04 84.8161 50.4233C84.3739 50.8067 83.7486 50.9984 82.9401 50.9984C82.0396 50.9984 81.3581 50.7684 80.8955 50.3083C80.4329 49.8483 80.2012 49.1676 80.2012 48.2671C80.2012 47.3666 80.4329 46.6868 80.8955 46.2259C81.3581 45.7658 82.0396 45.5358 82.9401 45.5358C83.7231 45.5358 84.3416 45.7318 84.7965 46.1228V46.1237Z" fill="white"/>
<path d="M89.9294 50.9081L89.7071 50.1635H87.8584L87.636 50.9081H85.9023L87.8286 45.6295H89.8008L91.7261 50.9081H89.9303H89.9294ZM88.2111 48.9819H89.3544L88.8023 47.1025H88.7716L88.2119 48.9819H88.2111Z" fill="white"/>
<path d="M92.3613 45.6296H94.0567V49.5578H96.7649V50.9081H92.3613V45.6296Z" fill="white"/>
<path d="M113.943 50.9081V49.0057C113.943 48.7706 113.951 48.5286 113.969 48.2807C113.987 48.0328 114.006 47.8241 114.027 47.6554C114.048 47.4867 114.061 47.3794 114.066 47.3334H114.035L113.06 50.9089H111.733L110.751 47.341H110.72C110.725 47.387 110.739 47.4935 110.762 47.6597C110.785 47.8258 110.807 48.0328 110.827 48.2807C110.848 48.5286 110.858 48.7706 110.858 49.0057V50.9081H109.301V45.6295H111.695L112.493 48.6752H112.524L113.314 45.6295H115.624V50.9081H113.944H113.943Z" fill="white"/>
<path d="M120.189 50.9081L119.967 50.1635H118.118L117.896 50.9081H116.162L118.088 45.6296H120.061L121.986 50.9081H120.19H120.189ZM118.471 48.9819H119.614L119.062 47.1026H119.031L118.472 48.9819H118.471Z" fill="white"/>
<path d="M122.697 50.9081V45.6295H124.393V50.9081H122.697Z" fill="white"/>
<path d="M129.38 50.9081L127.163 48.3455V50.9081H125.605V45.6296H127.086L129.304 48.2305V45.6296H130.861V50.9081H129.38Z" fill="white"/>
<path d="M135.035 46.9799V50.9081H133.339V46.9799H131.605V45.6296H136.761V46.9799H135.035Z" fill="white"/>
<path d="M137.537 45.6295H142.103V46.8955H139.233V47.6239H141.689V48.8362H139.233V49.6421H142.156V50.9081H137.538V45.6295H137.537Z" fill="white"/>
<path d="M146.851 50.9081L144.634 48.3455V50.9081H143.076V45.6296H144.557L146.774 48.2305V45.6296H148.332V50.9081H146.851Z" fill="white"/>
<path d="M152.929 50.9081L152.707 50.1635H150.858L150.636 50.9081H148.902L150.829 45.6296H152.801L154.726 50.9081H152.93H152.929ZM151.211 48.9819H152.354L151.802 47.1026H151.772L151.212 48.9819H151.211Z" fill="white"/>
<path d="M159.136 50.9081L156.919 48.3455V50.9081H155.361V45.6296H156.842L159.06 48.2305V45.6296H160.617V50.9081H159.136Z" fill="white"/>
<path d="M166.125 46.1237C166.58 46.5147 166.808 47.0736 166.808 47.8003H165.189C165.189 47.4936 165.109 47.2508 164.947 47.071C164.786 46.8921 164.557 46.8026 164.261 46.8026C163.918 46.8026 163.666 46.91 163.505 47.1247C163.344 47.3394 163.263 47.6384 163.263 48.0226V48.5133C163.263 48.8916 163.344 49.1898 163.505 49.407C163.666 49.6242 163.913 49.7333 164.245 49.7333C164.578 49.7333 164.821 49.6489 164.99 49.4803C165.159 49.3116 165.243 49.0739 165.243 48.7663H166.808C166.808 49.4879 166.586 50.04 166.144 50.4233C165.702 50.8067 165.077 50.9984 164.268 50.9984C163.368 50.9984 162.686 50.7684 162.224 50.3083C161.761 49.8483 161.529 49.1676 161.529 48.2671C161.529 47.3666 161.761 46.6868 162.224 46.2259C162.686 45.7658 163.368 45.5358 164.268 45.5358C165.051 45.5358 165.67 45.7318 166.125 46.1228L166.125 46.1237Z" fill="white"/>
<path d="M167.723 45.6296H172.288V46.8955H169.419V47.6239H171.874V48.8362H169.419V49.6422H172.342V50.9081H167.724V45.6296H167.723Z" fill="white"/>
<path d="M104.98 50.2554C104.704 50.0087 104.452 49.7809 104.219 49.5694C104.4 49.315 104.552 49.0281 104.674 48.7087L103.705 48.0415C103.627 48.3216 103.523 48.5742 103.393 48.802C103.122 48.5442 102.892 48.3147 102.704 48.1143C102.905 48.0175 103.098 47.9105 103.278 47.7923C103.471 47.6655 103.629 47.5139 103.751 47.3375C103.873 47.1619 103.934 46.9513 103.934 46.7072C103.934 46.4631 103.864 46.2661 103.725 46.088C103.585 45.9098 103.395 45.7694 103.156 45.6666C102.917 45.5638 102.637 45.5125 102.316 45.5125C101.995 45.5125 101.71 45.5647 101.473 45.67C101.237 45.7754 101.052 45.9227 100.919 46.1137C100.787 46.3047 100.72 46.5316 100.72 46.7954C100.72 46.9761 100.753 47.1585 100.819 47.3418C100.884 47.5191 100.99 47.7092 101.137 47.9113C101.02 47.9756 100.906 48.0424 100.796 48.1152C100.597 48.247 100.436 48.4063 100.312 48.5913C100.187 48.7772 100.125 49.0016 100.125 49.2654C100.125 49.5583 100.206 49.8203 100.369 50.0498C100.532 50.2794 100.756 50.4592 101.04 50.5885C101.326 50.7179 101.651 50.783 102.017 50.783C102.404 50.783 102.769 50.699 103.112 50.5303C103.241 50.4669 103.363 50.3907 103.481 50.3068C103.705 50.5149 103.943 50.7367 104.2 50.9739L104.978 50.2554H104.98ZM102.03 46.4657C102.104 46.3826 102.204 46.3406 102.331 46.3406C102.459 46.3406 102.551 46.3766 102.625 46.4468C102.699 46.5179 102.736 46.6095 102.736 46.7217C102.736 46.8827 102.673 47.0223 102.545 47.1397C102.436 47.2407 102.299 47.3341 102.14 47.4206C102.114 47.3795 102.089 47.3392 102.068 47.3015C101.969 47.1157 101.919 46.9453 101.919 46.7885C101.919 46.6566 101.956 46.5487 102.03 46.4657ZM101.722 49.6833C101.615 49.6345 101.531 49.5651 101.469 49.4743C101.409 49.3835 101.377 49.2773 101.377 49.1557C101.377 48.999 101.44 48.8654 101.565 48.7523C101.616 48.7061 101.675 48.6607 101.738 48.617C101.754 48.6333 101.767 48.6479 101.782 48.6641C102.028 48.9228 102.334 49.226 102.697 49.5685C102.499 49.6919 102.291 49.7561 102.073 49.7561C101.945 49.7561 101.828 49.7321 101.722 49.6824V49.6833Z" fill="white"/>
</svg>