<svg width="45" height="45" viewBox="0 0 45 45" fill="none" xmlns="http://www.w3.org/2000/svg">
<mask id="mask0_3623_1535" style="mask-type:luminance" maskUnits="userSpaceOnUse" x="0" y="0" width="45" height="45">
<path d="M20.8481 3.52597L3.22914 21.1449C2.86982 21.5044 2.66797 21.9918 2.66797 22.5C2.66797 23.0082 2.86982 23.4957 3.22914 23.8551L20.8491 41.475C21.2085 41.8343 21.6959 42.0362 22.2041 42.0362C22.7124 42.0362 23.1998 41.8343 23.5592 41.475L41.1782 23.8561C41.5375 23.4966 41.7394 23.0092 41.7394 22.501C41.7394 21.9927 41.5375 21.5053 41.1782 21.1459L23.5583 3.52501C23.1988 3.16569 22.7114 2.96384 22.2032 2.96384C21.695 2.96384 21.2075 3.16569 20.8481 3.52501V3.52597Z" fill="#555555" stroke="white" stroke-width="4.8" stroke-linejoin="round"/>
<path d="M16.25 22.5H27.75M22 16.75V28.25" stroke="white" stroke-width="4.8" stroke-linecap="round"/>
</mask>
<g mask="url(#mask0_3623_1535)">
<path d="M-1 -0.5H45V45.5H-1V-0.5Z" fill="#888888"/>
</g>
</svg>