<svg width="156" height="156" viewBox="0 0 156 156" fill="none" xmlns="http://www.w3.org/2000/svg">
<path d="M78 0L93.673 9.33192L111.843 7.72443L121.915 22.9325L138.983 29.3678L141.459 47.4398L154.044 60.6434L148.434 78L154.044 95.3566L141.459 108.56L138.983 126.632L121.915 133.068L111.843 148.276L93.673 146.668L78 156L62.327 146.668L44.1571 148.276L34.0851 133.068L17.0171 126.632L14.5412 108.56L1.95562 95.3566L7.566 78L1.95562 60.6434L14.5412 47.4398L17.0171 29.3678L34.0851 22.9325L44.1571 7.72443L62.327 9.33192L78 0Z" fill="#51B748"/>
<path d="M42.2972 82.9942L64.1843 104.707C64.6046 105.125 65.1053 105.455 65.6566 105.677C66.1286 105.867 66.6294 105.975 67.1369 105.996V89.91L51.2268 74.1266C50.3948 73.3021 49.2672 72.8389 48.0915 72.8389C46.9159 72.8389 45.7883 73.3021 44.9563 74.1266L42.2972 76.7696C41.4666 77.5955 41 78.7148 41 79.8819C41 81.0489 41.4666 82.1683 42.2972 82.9942Z" fill="white"/>
<path d="M104.606 50.3838L67.1369 89.91V105.996C67.2223 106 67.3078 106.001 67.3935 105.999C67.9883 105.99 68.5752 105.862 69.1193 105.624C69.6634 105.385 70.1536 105.04 70.5607 104.609L113.795 58.9769C114.601 58.1261 115.034 56.9925 114.998 55.8253C114.962 54.6581 114.461 53.5528 113.604 52.7523L110.874 50.194C110.017 49.3952 108.875 48.9665 107.7 49.002C106.525 49.0376 105.413 49.5346 104.606 50.3838Z" fill="white"/>
</svg>