<svg width="12" height="18" viewBox="0 0 12 18" fill="none" xmlns="http://www.w3.org/2000/svg">
<path d="M6.00033 4.41666C6.55286 4.41666 7.08276 4.63616 7.47346 5.02686C7.86417 5.41756 8.08366 5.94746 8.08366 6.5C8.08366 6.77358 8.02977 7.04449 7.92508 7.29725C7.82038 7.55002 7.66692 7.77968 7.47346 7.97314C7.28001 8.16659 7.05034 8.32005 6.79758 8.42475C6.54482 8.52944 6.27391 8.58333 6.00033 8.58333C5.44779 8.58333 4.91789 8.36384 4.52719 7.97314C4.13649 7.58244 3.91699 7.05253 3.91699 6.5C3.91699 5.94746 4.13649 5.41756 4.52719 5.02686C4.91789 4.63616 5.44779 4.41666 6.00033 4.41666ZM6.00033 0.666664C7.54742 0.666664 9.03115 1.28125 10.1251 2.37521C11.2191 3.46917 11.8337 4.9529 11.8337 6.5C11.8337 10.875 6.00033 17.3333 6.00033 17.3333C6.00033 17.3333 0.166992 10.875 0.166992 6.5C0.166992 4.9529 0.781574 3.46917 1.87554 2.37521C2.9695 1.28125 4.45323 0.666664 6.00033 0.666664ZM6.00033 2.33333C4.89526 2.33333 3.83545 2.77232 3.05405 3.55372C2.27265 4.33512 1.83366 5.39493 1.83366 6.5C1.83366 7.33333 1.83366 9 6.00033 14.5917C10.167 9 10.167 7.33333 10.167 6.5C10.167 5.39493 9.72801 4.33512 8.9466 3.55372C8.1652 2.77232 7.10539 2.33333 6.00033 2.33333Z" fill="#6D6D6D"/>
</svg>