<svg width="398" height="104" viewBox="0 0 398 104" fill="none" xmlns="http://www.w3.org/2000/svg">
<rect x="0.622302" y="-0.622302" width="22.7554" height="22.7554" rx="11.3777" transform="matrix(1 0 0 -1 0 38.7554)" fill="#51B748"/>
<rect x="0.622302" y="-0.622302" width="22.7554" height="22.7554" rx="11.3777" transform="matrix(1 0 0 -1 0 38.7554)" stroke="white" stroke-width="1.2446"/>
<path d="M10.7553 30.2316L8.70611 28.1823L7.82617 29.0623L10.7553 31.9914L16.796 25.9508L15.9161 25.0708L10.7553 30.2316Z" fill="white"/>
<rect x="0.622302" y="-0.622302" width="22.7554" height="22.7554" rx="11.3777" transform="matrix(1 0 0 -1 187 38.7554)" fill="#51B748"/>
<rect x="0.622302" y="-0.622302" width="22.7554" height="22.7554" rx="11.3777" transform="matrix(1 0 0 -1 187 38.7554)" stroke="white" stroke-width="1.2446"/>
<path d="M197.755 30.2316L195.706 28.1823L194.826 29.0623L197.755 31.9914L203.796 25.9508L202.916 25.0708L197.755 30.2316Z" fill="white"/>
<rect x="0.622302" y="-0.622302" width="22.7554" height="22.7554" rx="11.3777" transform="matrix(1 0 0 -1 374 38.7554)" fill="#51B748"/>
<rect x="0.622302" y="-0.622302" width="22.7554" height="22.7554" rx="11.3777" transform="matrix(1 0 0 -1 374 38.7554)" stroke="white" stroke-width="1.2446"/>
<path d="M384.755 30.2316L382.706 28.1823L381.826 29.0623L384.755 31.9914L390.796 25.9508L389.916 25.0708L384.755 30.2316Z" fill="white"/>
<rect y="56" width="398" height="8" rx="4" fill="#D1D1D1"/>
<rect y="56" width="398" height="8" rx="4" fill="#51B748"/>
<path d="M5.15652 79.504C5.78852 79.504 6.37652 79.612 6.92052 79.828C7.46452 80.044 7.93652 80.348 8.33652 80.74C8.74452 81.132 9.06052 81.588 9.28452 82.108C9.51652 82.62 9.63252 83.18 9.63252 83.788C9.63252 84.388 9.51652 84.952 9.28452 85.48C9.06052 86.008 8.74452 86.468 8.33652 86.86C7.93652 87.252 7.46452 87.56 6.92052 87.784C6.37652 88 5.78852 88.108 5.15652 88.108C4.52452 88.108 3.93652 88 3.39252 87.784C2.85652 87.56 2.38452 87.252 1.97652 86.86C1.56852 86.468 1.24852 86.012 1.01652 85.492C0.792517 84.964 0.680517 84.396 0.680517 83.788C0.680517 83.18 0.792517 82.616 1.01652 82.096C1.24852 81.576 1.56852 81.124 1.97652 80.74C2.38452 80.348 2.85652 80.044 3.39252 79.828C3.93652 79.612 4.52452 79.504 5.15652 79.504ZM5.18052 80.86C4.78852 80.86 4.42052 80.936 4.07652 81.088C3.73252 81.232 3.42852 81.44 3.16452 81.712C2.90052 81.976 2.69252 82.284 2.54052 82.636C2.39652 82.988 2.32452 83.372 2.32452 83.788C2.32452 84.204 2.40052 84.592 2.55252 84.952C2.70452 85.304 2.91252 85.616 3.17652 85.888C3.44052 86.16 3.74452 86.372 4.08852 86.524C4.43252 86.676 4.79652 86.752 5.18052 86.752C5.56452 86.752 5.92452 86.676 6.26052 86.524C6.60452 86.372 6.90452 86.16 7.16052 85.888C7.41652 85.616 7.61652 85.304 7.76052 84.952C7.91252 84.592 7.98852 84.204 7.98852 83.788C7.98852 83.372 7.91252 82.988 7.76052 82.636C7.61652 82.284 7.41652 81.976 7.16052 81.712C6.90452 81.44 6.60452 81.232 6.26052 81.088C5.92452 80.936 5.56452 80.86 5.18052 80.86ZM15.4116 84.424C15.4116 83.96 15.2836 83.596 15.0276 83.332C14.7796 83.068 14.4316 82.936 13.9836 82.936C13.4636 82.936 13.0516 83.12 12.7476 83.488C12.4516 83.848 12.3036 84.304 12.3036 84.856H11.8836C11.8836 84.072 11.9916 83.44 12.2076 82.96C12.4316 82.472 12.7476 82.116 13.1556 81.892C13.5716 81.66 14.0556 81.544 14.6076 81.544C15.1036 81.544 15.5276 81.644 15.8796 81.844C16.2316 82.044 16.5036 82.328 16.6956 82.696C16.8876 83.056 16.9836 83.492 16.9836 84.004V88H15.4116V84.424ZM10.7436 81.604H12.3036V88H10.7436V81.604ZM20.6142 79.6H27.4662V80.956H24.8502V88H23.2302V80.956H20.6142V79.6ZM32.4472 84.424C32.4472 83.96 32.3192 83.596 32.0632 83.332C31.8152 83.068 31.4672 82.936 31.0192 82.936C30.4912 82.936 30.0752 83.12 29.7712 83.488C29.4752 83.848 29.3272 84.304 29.3272 84.856H28.9192C28.9192 84.072 29.0272 83.44 29.2432 82.96C29.4672 82.472 29.7832 82.116 30.1912 81.892C30.5992 81.66 31.0832 81.544 31.6432 81.544C32.1312 81.544 32.5512 81.644 32.9032 81.844C33.2632 82.044 33.5392 82.328 33.7312 82.696C33.9232 83.056 34.0192 83.492 34.0192 84.004V88H32.4472V84.424ZM27.7672 79.096H29.3272V88H27.7672V79.096ZM39.8617 84.316C39.8457 83.98 39.7697 83.696 39.6337 83.464C39.4977 83.224 39.3057 83.04 39.0577 82.912C38.8177 82.776 38.5417 82.708 38.2297 82.708C37.8697 82.708 37.5577 82.792 37.2937 82.96C37.0297 83.128 36.8217 83.364 36.6697 83.668C36.5257 83.972 36.4537 84.324 36.4537 84.724C36.4537 85.164 36.5337 85.544 36.6937 85.864C36.8617 86.184 37.0897 86.432 37.3777 86.608C37.6657 86.776 37.9977 86.86 38.3737 86.86C39.0537 86.86 39.6337 86.616 40.1137 86.128L40.9417 86.956C40.6217 87.308 40.2337 87.58 39.7777 87.772C39.3217 87.964 38.8137 88.06 38.2537 88.06C37.5817 88.06 36.9977 87.924 36.5017 87.652C36.0137 87.372 35.6297 86.992 35.3497 86.512C35.0777 86.024 34.9417 85.456 34.9417 84.808C34.9417 84.16 35.0777 83.592 35.3497 83.104C35.6297 82.616 36.0137 82.236 36.5017 81.964C36.9977 81.692 37.5657 81.552 38.2057 81.544C38.9657 81.544 39.5777 81.7 40.0417 82.012C40.5137 82.324 40.8497 82.764 41.0497 83.332C41.2497 83.892 41.3217 84.56 41.2657 85.336H36.2257V84.316H39.8617ZM44.4377 79.6H46.1657L48.3377 86.992H47.9417L50.1137 79.6H51.6977L53.8697 86.992H53.4857L55.6337 79.6H57.3017L54.4577 88H52.7897L50.6777 80.896H51.0737L48.9137 88H47.2697L44.4377 79.6ZM59.6221 85.18C59.2141 85.18 58.9101 85.244 58.7101 85.372C58.5101 85.5 58.4101 85.712 58.4101 86.008C58.4101 86.28 58.5101 86.5 58.7101 86.668C58.9181 86.836 59.1981 86.92 59.5501 86.92C59.8621 86.92 60.1421 86.868 60.3901 86.764C60.6461 86.652 60.8461 86.504 60.9901 86.32C61.1421 86.128 61.2301 85.916 61.2541 85.684L61.5181 86.8C61.3261 87.216 61.0301 87.532 60.6301 87.748C60.2301 87.964 59.7461 88.072 59.1781 88.072C58.7221 88.072 58.3261 87.984 57.9901 87.808C57.6541 87.632 57.3941 87.396 57.2101 87.1C57.0261 86.796 56.9341 86.456 56.9341 86.08C56.9341 85.488 57.1461 85.024 57.5701 84.688C57.9941 84.344 58.5941 84.168 59.3701 84.16H61.4221V85.18H59.6221ZM61.2421 83.968C61.2421 83.584 61.1181 83.284 60.8701 83.068C60.6301 82.844 60.2701 82.732 59.7901 82.732C59.4941 82.732 59.1821 82.788 58.8541 82.9C58.5341 83.004 58.2101 83.156 57.8821 83.356L57.3181 82.348C57.6221 82.164 57.9141 82.016 58.1941 81.904C58.4741 81.784 58.7661 81.696 59.0701 81.64C59.3821 81.576 59.7381 81.544 60.1381 81.544C60.9781 81.544 61.6261 81.744 62.0821 82.144C62.5381 82.544 62.7701 83.096 62.7781 83.8L62.7901 88H61.2541L61.2421 83.968ZM66.8841 88.84C66.6761 89.352 66.3881 89.74 66.0201 90.004C65.6521 90.268 65.2121 90.4 64.7001 90.4C64.3881 90.4 64.1041 90.352 63.8481 90.256C63.6001 90.16 63.3521 90.02 63.1041 89.836L63.7761 88.708C64.0641 88.924 64.3401 89.032 64.6041 89.032C64.8121 89.032 64.9921 88.976 65.1441 88.864C65.3041 88.752 65.4361 88.58 65.5401 88.348L65.7321 87.904L63.0801 81.604H64.7001L66.5241 86.356L68.1921 81.604H69.7641L66.8841 88.84Z" fill="#51B748"/>
<path d="M141.706 79.6H143.314V88H141.706V79.6ZM147.51 81.532C148.094 81.532 148.59 81.664 148.998 81.928C149.406 82.192 149.718 82.568 149.934 83.056C150.15 83.536 150.254 84.116 150.246 84.796C150.254 85.468 150.15 86.052 149.934 86.548C149.726 87.036 149.418 87.412 149.01 87.676C148.602 87.932 148.114 88.06 147.546 88.06C146.938 88.06 146.402 87.924 145.938 87.652C145.482 87.372 145.126 86.984 144.87 86.488C144.614 85.992 144.486 85.424 144.486 84.784C144.486 84.136 144.614 83.568 144.87 83.08C145.126 82.592 145.478 82.212 145.926 81.94C146.382 81.668 146.91 81.532 147.51 81.532ZM147.882 82.792C147.53 82.792 147.214 82.88 146.934 83.056C146.662 83.232 146.45 83.472 146.298 83.776C146.146 84.08 146.066 84.428 146.058 84.82C146.066 85.212 146.146 85.56 146.298 85.864C146.45 86.168 146.662 86.408 146.934 86.584C147.214 86.752 147.53 86.836 147.882 86.836C148.242 86.836 148.558 86.752 148.83 86.584C149.11 86.408 149.326 86.168 149.478 85.864C149.63 85.56 149.706 85.212 149.706 84.82C149.706 84.42 149.63 84.072 149.478 83.776C149.326 83.472 149.11 83.232 148.83 83.056C148.558 82.88 148.242 82.792 147.882 82.792ZM149.706 79.096H151.266V88H149.706V79.096ZM157.357 84.316C157.341 83.98 157.265 83.696 157.129 83.464C156.993 83.224 156.801 83.04 156.553 82.912C156.313 82.776 156.037 82.708 155.725 82.708C155.365 82.708 155.053 82.792 154.789 82.96C154.525 83.128 154.317 83.364 154.165 83.668C154.021 83.972 153.949 84.324 153.949 84.724C153.949 85.164 154.029 85.544 154.189 85.864C154.357 86.184 154.585 86.432 154.873 86.608C155.161 86.776 155.493 86.86 155.869 86.86C156.549 86.86 157.129 86.616 157.609 86.128L158.437 86.956C158.117 87.308 157.729 87.58 157.273 87.772C156.817 87.964 156.309 88.06 155.749 88.06C155.077 88.06 154.493 87.924 153.997 87.652C153.509 87.372 153.125 86.992 152.845 86.512C152.573 86.024 152.437 85.456 152.437 84.808C152.437 84.16 152.573 83.592 152.845 83.104C153.125 82.616 153.509 82.236 153.997 81.964C154.493 81.692 155.061 81.552 155.701 81.544C156.461 81.544 157.073 81.7 157.537 82.012C158.009 82.324 158.345 82.764 158.545 83.332C158.745 83.892 158.817 84.56 158.761 85.336H153.721V84.316H157.357ZM164.555 84.424C164.555 83.96 164.427 83.596 164.171 83.332C163.923 83.068 163.575 82.936 163.127 82.936C162.607 82.936 162.195 83.12 161.891 83.488C161.595 83.848 161.447 84.304 161.447 84.856H161.027C161.027 84.072 161.135 83.44 161.351 82.96C161.575 82.472 161.891 82.116 162.299 81.892C162.715 81.66 163.199 81.544 163.751 81.544C164.247 81.544 164.671 81.644 165.023 81.844C165.375 82.044 165.647 82.328 165.839 82.696C166.031 83.056 166.127 83.492 166.127 84.004V88H164.555V84.424ZM159.887 81.604H161.447V88H159.887V81.604ZM169.451 85.912C169.451 86.232 169.511 86.452 169.631 86.572C169.751 86.692 169.915 86.752 170.123 86.752C170.251 86.752 170.391 86.732 170.543 86.692C170.695 86.644 170.859 86.572 171.035 86.476L171.395 87.604C171.155 87.748 170.895 87.864 170.615 87.952C170.343 88.032 170.067 88.072 169.787 88.072C169.443 88.072 169.127 88.008 168.839 87.88C168.551 87.744 168.323 87.536 168.155 87.256C167.987 86.968 167.903 86.608 167.903 86.176V80.092H169.451V85.912ZM167.003 81.844H171.287V82.936H167.003V81.844ZM172.379 81.604H173.939V88H172.379V81.604ZM173.147 78.88C173.403 78.88 173.615 78.964 173.783 79.132C173.951 79.3 174.035 79.512 174.035 79.768C174.035 80.016 173.951 80.228 173.783 80.404C173.615 80.572 173.403 80.656 173.147 80.656C172.899 80.656 172.691 80.572 172.523 80.404C172.355 80.228 172.271 80.016 172.271 79.768C172.271 79.512 172.355 79.3 172.523 79.132C172.691 78.964 172.899 78.88 173.147 78.88ZM175.919 81.232C175.919 80.736 176.027 80.324 176.243 79.996C176.459 79.668 176.739 79.424 177.083 79.264C177.427 79.104 177.799 79.024 178.199 79.024C178.399 79.024 178.599 79.052 178.799 79.108C179.007 79.156 179.199 79.224 179.375 79.312L179.099 80.5C178.979 80.452 178.851 80.408 178.715 80.368C178.579 80.328 178.443 80.308 178.307 80.308C178.163 80.3 178.027 80.328 177.899 80.392C177.771 80.448 177.667 80.54 177.587 80.668C177.515 80.788 177.479 80.948 177.479 81.148V88H175.919V81.232ZM175.079 81.844H179.087V82.936H175.079V81.844ZM182.886 88.84C182.678 89.352 182.39 89.74 182.022 90.004C181.654 90.268 181.214 90.4 180.702 90.4C180.39 90.4 180.106 90.352 179.85 90.256C179.602 90.16 179.354 90.02 179.106 89.836L179.778 88.708C180.066 88.924 180.342 89.032 180.606 89.032C180.814 89.032 180.994 88.976 181.146 88.864C181.306 88.752 181.438 88.58 181.542 88.348L181.734 87.904L179.082 81.604H180.702L182.526 86.356L184.194 81.604H185.766L182.886 88.84ZM186.425 81.604H187.985V88H186.425V81.604ZM187.193 78.88C187.449 78.88 187.661 78.964 187.829 79.132C187.997 79.3 188.081 79.512 188.081 79.768C188.081 80.016 187.997 80.228 187.829 80.404C187.661 80.572 187.449 80.656 187.193 80.656C186.945 80.656 186.737 80.572 186.569 80.404C186.401 80.228 186.317 80.016 186.317 79.768C186.317 79.512 186.401 79.3 186.569 79.132C186.737 78.964 186.945 78.88 187.193 78.88ZM194.345 84.424C194.345 83.96 194.217 83.596 193.961 83.332C193.713 83.068 193.365 82.936 192.917 82.936C192.397 82.936 191.985 83.12 191.681 83.488C191.385 83.848 191.237 84.304 191.237 84.856H190.817C190.817 84.072 190.925 83.44 191.141 82.96C191.365 82.472 191.681 82.116 192.089 81.892C192.505 81.66 192.989 81.544 193.541 81.544C194.037 81.544 194.461 81.644 194.813 81.844C195.165 82.044 195.437 82.328 195.629 82.696C195.821 83.056 195.917 83.492 195.917 84.004V88H194.345V84.424ZM189.677 81.604H191.237V88H189.677V81.604ZM203.297 87.376C203.297 87.992 203.157 88.524 202.877 88.972C202.605 89.42 202.217 89.764 201.713 90.004C201.209 90.252 200.617 90.376 199.937 90.376C199.417 90.376 198.929 90.3 198.473 90.148C198.025 89.996 197.609 89.792 197.225 89.536L197.849 88.468C198.145 88.684 198.457 88.852 198.785 88.972C199.113 89.092 199.469 89.152 199.853 89.152C200.237 89.152 200.569 89.08 200.849 88.936C201.137 88.792 201.357 88.592 201.509 88.336C201.661 88.08 201.737 87.776 201.737 87.424V81.604H203.297V87.376ZM199.649 81.544C200.201 81.536 200.673 81.656 201.065 81.904C201.457 82.152 201.757 82.504 201.965 82.96C202.173 83.416 202.273 83.964 202.265 84.604C202.273 85.244 202.173 85.796 201.965 86.26C201.765 86.716 201.473 87.068 201.089 87.316C200.705 87.564 200.241 87.688 199.697 87.688C199.129 87.688 198.629 87.56 198.197 87.304C197.773 87.04 197.441 86.676 197.201 86.212C196.961 85.74 196.841 85.2 196.841 84.592C196.841 83.984 196.957 83.456 197.189 83.008C197.429 82.552 197.761 82.196 198.185 81.94C198.609 81.676 199.097 81.544 199.649 81.544ZM200.033 82.732C199.705 82.732 199.409 82.812 199.145 82.972C198.889 83.132 198.689 83.356 198.545 83.644C198.401 83.932 198.325 84.26 198.317 84.628C198.325 84.996 198.401 85.324 198.545 85.612C198.689 85.9 198.889 86.124 199.145 86.284C199.401 86.444 199.697 86.524 200.033 86.524C200.369 86.524 200.665 86.444 200.921 86.284C201.177 86.124 201.377 85.9 201.521 85.612C201.665 85.324 201.737 84.996 201.737 84.628C201.737 84.252 201.665 83.924 201.521 83.644C201.377 83.356 201.177 83.132 200.921 82.972C200.665 82.812 200.369 82.732 200.033 82.732ZM211.375 79.6C212.439 79.6 213.263 79.852 213.847 80.356C214.431 80.86 214.723 81.568 214.723 82.48C214.723 83.432 214.431 84.172 213.847 84.7C213.263 85.228 212.439 85.492 211.375 85.492H208.843L209.551 84.784V88H207.943V79.6H211.375ZM211.303 84.16C211.903 84.16 212.363 84.024 212.683 83.752C213.011 83.48 213.175 83.068 213.175 82.516C213.175 81.988 213.011 81.596 212.683 81.34C212.363 81.076 211.903 80.944 211.303 80.944H208.843L209.551 80.236V84.868L208.843 84.16H211.303ZM219.485 82.96C219.037 82.928 218.649 82.996 218.321 83.164C217.993 83.324 217.741 83.556 217.565 83.86C217.389 84.164 217.301 84.512 217.301 84.904L216.881 84.856C216.881 84.144 216.985 83.544 217.193 83.056C217.401 82.56 217.701 82.184 218.093 81.928C218.485 81.672 218.949 81.544 219.485 81.544V82.96ZM215.741 81.604H217.301V88H215.741V81.604ZM223.148 81.544C223.812 81.544 224.396 81.68 224.9 81.952C225.412 82.224 225.808 82.604 226.088 83.092C226.376 83.58 226.52 84.148 226.52 84.796C226.52 85.444 226.376 86.012 226.088 86.5C225.808 86.988 225.412 87.372 224.9 87.652C224.396 87.924 223.812 88.06 223.148 88.06C222.476 88.06 221.884 87.924 221.372 87.652C220.86 87.372 220.46 86.988 220.172 86.5C219.892 86.012 219.752 85.444 219.752 84.796C219.752 84.148 219.892 83.58 220.172 83.092C220.46 82.604 220.86 82.224 221.372 81.952C221.884 81.68 222.476 81.544 223.148 81.544ZM223.148 82.804C222.788 82.804 222.468 82.892 222.188 83.068C221.916 83.236 221.704 83.472 221.552 83.776C221.4 84.072 221.324 84.416 221.324 84.808C221.324 85.208 221.4 85.56 221.552 85.864C221.704 86.168 221.916 86.404 222.188 86.572C222.468 86.74 222.788 86.824 223.148 86.824C223.5 86.824 223.812 86.74 224.084 86.572C224.356 86.404 224.568 86.168 224.72 85.864C224.872 85.56 224.948 85.208 224.948 84.808C224.948 84.416 224.872 84.072 224.72 83.776C224.568 83.472 224.356 83.236 224.084 83.068C223.812 82.892 223.5 82.804 223.148 82.804ZM231.416 81.544C232.024 81.544 232.556 81.68 233.012 81.952C233.468 82.224 233.82 82.608 234.068 83.104C234.324 83.592 234.452 84.164 234.452 84.82C234.452 85.46 234.328 86.024 234.08 86.512C233.832 86.992 233.48 87.372 233.024 87.652C232.576 87.924 232.048 88.06 231.44 88.06C230.872 88.06 230.384 87.932 229.976 87.676C229.568 87.412 229.256 87.036 229.04 86.548C228.824 86.06 228.716 85.484 228.716 84.82C228.716 84.132 228.82 83.544 229.028 83.056C229.244 82.568 229.556 82.196 229.964 81.94C230.372 81.676 230.856 81.544 231.416 81.544ZM231.068 82.78C230.716 82.78 230.4 82.868 230.12 83.044C229.848 83.212 229.636 83.448 229.484 83.752C229.332 84.048 229.256 84.392 229.256 84.784C229.256 85.176 229.332 85.524 229.484 85.828C229.636 86.132 229.848 86.368 230.12 86.536C230.4 86.704 230.716 86.788 231.068 86.788C231.428 86.788 231.74 86.704 232.004 86.536C232.276 86.36 232.488 86.124 232.64 85.828C232.792 85.524 232.868 85.176 232.868 84.784C232.868 84.392 232.792 84.048 232.64 83.752C232.488 83.448 232.276 83.212 232.004 83.044C231.74 82.868 231.428 82.78 231.068 82.78ZM227.696 79.096H229.256V88H227.696V79.096ZM235.623 79.096H237.183V88H235.623V79.096ZM243.277 84.316C243.261 83.98 243.185 83.696 243.049 83.464C242.913 83.224 242.721 83.04 242.473 82.912C242.233 82.776 241.957 82.708 241.645 82.708C241.285 82.708 240.973 82.792 240.709 82.96C240.445 83.128 240.237 83.364 240.085 83.668C239.941 83.972 239.869 84.324 239.869 84.724C239.869 85.164 239.949 85.544 240.109 85.864C240.277 86.184 240.505 86.432 240.793 86.608C241.081 86.776 241.413 86.86 241.789 86.86C242.469 86.86 243.049 86.616 243.529 86.128L244.357 86.956C244.037 87.308 243.649 87.58 243.193 87.772C242.737 87.964 242.229 88.06 241.669 88.06C240.997 88.06 240.413 87.924 239.917 87.652C239.429 87.372 239.045 86.992 238.765 86.512C238.493 86.024 238.357 85.456 238.357 84.808C238.357 84.16 238.493 83.592 238.765 83.104C239.045 82.616 239.429 82.236 239.917 81.964C240.413 81.692 240.981 81.552 241.621 81.544C242.381 81.544 242.993 81.7 243.457 82.012C243.929 82.324 244.265 82.764 244.465 83.332C244.665 83.892 244.737 84.56 244.681 85.336H239.641V84.316H243.277ZM250.39 84.424C250.39 83.952 250.266 83.584 250.018 83.32C249.778 83.056 249.438 82.924 248.998 82.924C248.494 82.932 248.094 83.12 247.798 83.488C247.51 83.848 247.366 84.3 247.366 84.844H246.946C246.946 84.068 247.054 83.44 247.27 82.96C247.486 82.472 247.794 82.116 248.194 81.892C248.602 81.66 249.078 81.544 249.622 81.544C250.11 81.544 250.526 81.644 250.87 81.844C251.222 82.044 251.49 82.328 251.674 82.696C251.866 83.056 251.962 83.492 251.962 84.004V88H250.39V84.424ZM254.986 84.424C254.986 83.952 254.862 83.584 254.614 83.32C254.366 83.056 254.022 82.924 253.582 82.924C253.078 82.932 252.682 83.12 252.394 83.488C252.106 83.848 251.962 84.3 251.962 84.844H251.542C251.542 84.068 251.65 83.44 251.866 82.96C252.082 82.472 252.39 82.116 252.79 81.892C253.19 81.66 253.666 81.544 254.218 81.544C254.698 81.544 255.11 81.644 255.454 81.844C255.806 82.044 256.078 82.328 256.27 82.696C256.462 83.056 256.558 83.492 256.558 84.004V88H254.986V84.424ZM245.806 81.604H247.366V88H245.806V81.604Z" fill="#51B748"/>
<path d="M349.602 79.6C350.666 79.6 351.49 79.852 352.074 80.356C352.658 80.86 352.95 81.568 352.95 82.48C352.95 83.432 352.658 84.172 352.074 84.7C351.49 85.228 350.666 85.492 349.602 85.492H347.07L347.778 84.784V88H346.17V79.6H349.602ZM349.53 84.16C350.13 84.16 350.59 84.024 350.91 83.752C351.238 83.48 351.402 83.068 351.402 82.516C351.402 81.988 351.238 81.596 350.91 81.34C350.59 81.076 350.13 80.944 349.53 80.944H347.07L347.778 80.236V84.868L347.07 84.16H349.53ZM356.128 85.18C355.72 85.18 355.416 85.244 355.216 85.372C355.016 85.5 354.916 85.712 354.916 86.008C354.916 86.28 355.016 86.5 355.216 86.668C355.424 86.836 355.704 86.92 356.056 86.92C356.368 86.92 356.648 86.868 356.896 86.764C357.152 86.652 357.352 86.504 357.496 86.32C357.648 86.128 357.736 85.916 357.76 85.684L358.024 86.8C357.832 87.216 357.536 87.532 357.136 87.748C356.736 87.964 356.252 88.072 355.684 88.072C355.228 88.072 354.832 87.984 354.496 87.808C354.16 87.632 353.9 87.396 353.716 87.1C353.532 86.796 353.44 86.456 353.44 86.08C353.44 85.488 353.652 85.024 354.076 84.688C354.5 84.344 355.1 84.168 355.876 84.16H357.928V85.18H356.128ZM357.748 83.968C357.748 83.584 357.624 83.284 357.376 83.068C357.136 82.844 356.776 82.732 356.296 82.732C356 82.732 355.688 82.788 355.36 82.9C355.04 83.004 354.716 83.156 354.388 83.356L353.824 82.348C354.128 82.164 354.42 82.016 354.7 81.904C354.98 81.784 355.272 81.696 355.576 81.64C355.888 81.576 356.244 81.544 356.644 81.544C357.484 81.544 358.132 81.744 358.588 82.144C359.044 82.544 359.276 83.096 359.284 83.8L359.296 88H357.76L357.748 83.968ZM363.39 88.84C363.182 89.352 362.894 89.74 362.526 90.004C362.158 90.268 361.718 90.4 361.206 90.4C360.894 90.4 360.61 90.352 360.354 90.256C360.106 90.16 359.858 90.02 359.61 89.836L360.282 88.708C360.57 88.924 360.846 89.032 361.11 89.032C361.318 89.032 361.498 88.976 361.65 88.864C361.81 88.752 361.942 88.58 362.046 88.348L362.238 87.904L359.586 81.604H361.206L363.03 86.356L364.698 81.604H366.27L363.39 88.84ZM371.572 84.424C371.572 83.952 371.448 83.584 371.2 83.32C370.96 83.056 370.62 82.924 370.18 82.924C369.676 82.932 369.276 83.12 368.98 83.488C368.692 83.848 368.548 84.3 368.548 84.844H368.128C368.128 84.068 368.236 83.44 368.452 82.96C368.668 82.472 368.976 82.116 369.376 81.892C369.784 81.66 370.26 81.544 370.804 81.544C371.292 81.544 371.708 81.644 372.052 81.844C372.404 82.044 372.672 82.328 372.856 82.696C373.048 83.056 373.144 83.492 373.144 84.004V88H371.572V84.424ZM376.168 84.424C376.168 83.952 376.044 83.584 375.796 83.32C375.548 83.056 375.204 82.924 374.764 82.924C374.26 82.932 373.864 83.12 373.576 83.488C373.288 83.848 373.144 84.3 373.144 84.844H372.724C372.724 84.068 372.832 83.44 373.048 82.96C373.264 82.472 373.572 82.116 373.972 81.892C374.372 81.66 374.848 81.544 375.4 81.544C375.88 81.544 376.292 81.644 376.636 81.844C376.988 82.044 377.26 82.328 377.452 82.696C377.644 83.056 377.74 83.492 377.74 84.004V88H376.168V84.424ZM366.988 81.604H368.548V88H366.988V81.604ZM383.572 84.316C383.556 83.98 383.48 83.696 383.344 83.464C383.208 83.224 383.016 83.04 382.768 82.912C382.528 82.776 382.252 82.708 381.94 82.708C381.58 82.708 381.268 82.792 381.004 82.96C380.74 83.128 380.532 83.364 380.38 83.668C380.236 83.972 380.164 84.324 380.164 84.724C380.164 85.164 380.244 85.544 380.404 85.864C380.572 86.184 380.8 86.432 381.088 86.608C381.376 86.776 381.708 86.86 382.084 86.86C382.764 86.86 383.344 86.616 383.824 86.128L384.652 86.956C384.332 87.308 383.944 87.58 383.488 87.772C383.032 87.964 382.524 88.06 381.964 88.06C381.292 88.06 380.708 87.924 380.212 87.652C379.724 87.372 379.34 86.992 379.06 86.512C378.788 86.024 378.652 85.456 378.652 84.808C378.652 84.16 378.788 83.592 379.06 83.104C379.34 82.616 379.724 82.236 380.212 81.964C380.708 81.692 381.276 81.552 381.916 81.544C382.676 81.544 383.288 81.7 383.752 82.012C384.224 82.324 384.56 82.764 384.76 83.332C384.96 83.892 385.032 84.56 384.976 85.336H379.936V84.316H383.572ZM390.769 84.424C390.769 83.96 390.641 83.596 390.385 83.332C390.137 83.068 389.789 82.936 389.341 82.936C388.821 82.936 388.409 83.12 388.105 83.488C387.809 83.848 387.661 84.304 387.661 84.856H387.241C387.241 84.072 387.349 83.44 387.565 82.96C387.789 82.472 388.105 82.116 388.513 81.892C388.929 81.66 389.413 81.544 389.965 81.544C390.461 81.544 390.885 81.644 391.237 81.844C391.589 82.044 391.861 82.328 392.053 82.696C392.245 83.056 392.341 83.492 392.341 84.004V88H390.769V84.424ZM386.101 81.604H387.661V88H386.101V81.604ZM395.666 85.912C395.666 86.232 395.726 86.452 395.846 86.572C395.966 86.692 396.13 86.752 396.338 86.752C396.466 86.752 396.606 86.732 396.758 86.692C396.91 86.644 397.074 86.572 397.25 86.476L397.61 87.604C397.37 87.748 397.11 87.864 396.83 87.952C396.558 88.032 396.282 88.072 396.002 88.072C395.658 88.072 395.342 88.008 395.054 87.88C394.766 87.744 394.538 87.536 394.37 87.256C394.202 86.968 394.118 86.608 394.118 86.176V80.092H395.666V85.912ZM393.218 81.844H397.502V82.936H393.218V81.844Z" fill="#51B748"/>
</svg>