<svg width="25" height="24" viewBox="0 0 25 24" fill="none" xmlns="http://www.w3.org/2000/svg">
<path d="M21.75 12.22C21.75 6.73 17.49 3 12.75 3C8.06 3 3.75 6.65 3.75 12.28C3.15 12.62 2.75 13.26 2.75 14V16C2.75 17.1 3.65 18 4.75 18H5.75V11.9C5.75 8.03 8.88 4.9 12.75 4.9C16.62 4.9 19.75 8.03 19.75 11.9V19H11.75V21H19.75C20.85 21 21.75 20.1 21.75 19V17.78C22.34 17.47 22.75 16.86 22.75 16.14V13.84C22.75 13.14 22.34 12.53 21.75 12.22Z" fill="#6D6D6D"/>
<path d="M9.75 14C10.3023 14 10.75 13.5523 10.75 13C10.75 12.4477 10.3023 12 9.75 12C9.19772 12 8.75 12.4477 8.75 13C8.75 13.5523 9.19772 14 9.75 14Z" fill="#6D6D6D"/>
<path d="M15.75 14C16.3023 14 16.75 13.5523 16.75 13C16.75 12.4477 16.3023 12 15.75 12C15.1977 12 14.75 12.4477 14.75 13C14.75 13.5523 15.1977 14 15.75 14Z" fill="#6D6D6D"/>
<path d="M18.75 11.03C18.5115 9.62414 17.7834 8.34797 16.6944 7.42738C15.6055 6.5068 14.2259 6.00117 12.8 6C9.76997 6 6.50997 8.51 6.76997 12.45C8.00335 11.9458 9.09268 11.144 9.94072 10.1162C10.7888 9.08845 11.3691 7.86669 11.63 6.56C12.94 9.19 15.63 11 18.75 11.03Z" fill="#6D6D6D"/>
</svg>
