<svg width="25" height="24" viewBox="0 0 25 24" fill="none" xmlns="http://www.w3.org/2000/svg">
<path d="M3.67871 4.50001C3.67871 3.76119 3.9722 3.05263 4.49463 2.53021C5.01705 2.00779 5.72561 1.71429 6.46443 1.71429H18.0359C18.7747 1.71429 19.4832 2.00779 20.0057 2.53021C20.5281 3.05263 20.8216 3.76119 20.8216 4.50001V14.8963C20.7181 14.9649 20.6207 15.0449 20.5293 15.1363L19.5359 16.1297V4.50001C19.5359 4.10218 19.3778 3.72065 19.0965 3.43935C18.8152 3.15804 18.4337 3.00001 18.0359 3.00001H6.46443C6.0666 3.00001 5.68507 3.15804 5.40377 3.43935C5.12246 3.72065 4.96443 4.10218 4.96443 4.50001V19.5C4.96443 20.328 5.63643 21 6.46443 21H13.3799L14.6656 22.2857H6.46443C5.72561 22.2857 5.01705 21.9922 4.49463 21.4698C3.9722 20.9474 3.67871 20.2388 3.67871 19.5V4.50001ZM9.25014 7.50001C9.25014 7.78417 9.13726 8.05669 8.93633 8.25762C8.73539 8.45856 8.46287 8.57144 8.17871 8.57144C7.89455 8.57144 7.62203 8.45856 7.4211 8.25762C7.22016 8.05669 7.10728 7.78417 7.10728 7.50001C7.10728 7.21585 7.22016 6.94333 7.4211 6.74239C7.62203 6.54146 7.89455 6.42858 8.17871 6.42858C8.46287 6.42858 8.73539 6.54146 8.93633 6.74239C9.13726 6.94333 9.25014 7.21585 9.25014 7.50001ZM8.17871 13.0714C8.46287 13.0714 8.73539 12.9586 8.93633 12.7576C9.13726 12.5567 9.25014 12.2842 9.25014 12C9.25014 11.7158 9.13726 11.4433 8.93633 11.2424C8.73539 11.0415 8.46287 10.9286 8.17871 10.9286C7.89455 10.9286 7.62203 11.0415 7.4211 11.2424C7.22016 11.4433 7.10728 11.7158 7.10728 12C7.10728 12.2842 7.22016 12.5567 7.4211 12.7576C7.62203 12.9586 7.89455 13.0714 8.17871 13.0714ZM8.17871 17.5714C8.46287 17.5714 8.73539 17.4586 8.93633 17.2576C9.13726 17.0567 9.25014 16.7842 9.25014 16.5C9.25014 16.2158 9.13726 15.9433 8.93633 15.7424C8.73539 15.5415 8.46287 15.4286 8.17871 15.4286C7.89455 15.4286 7.62203 15.5415 7.4211 15.7424C7.22016 15.9433 7.10728 16.2158 7.10728 16.5C7.10728 16.7842 7.22016 17.0567 7.4211 17.2576C7.62203 17.4586 7.89455 17.5714 8.17871 17.5714ZM11.1787 6.85715C11.0082 6.85715 10.8447 6.92488 10.7241 7.04544C10.6036 7.166 10.5359 7.32951 10.5359 7.50001C10.5359 7.67051 10.6036 7.83402 10.7241 7.95458C10.8447 8.07514 11.0082 8.14287 11.1787 8.14287H16.7501C16.9206 8.14287 17.0841 8.07514 17.2047 7.95458C17.3253 7.83402 17.393 7.67051 17.393 7.50001C17.393 7.32951 17.3253 7.166 17.2047 7.04544C17.0841 6.92488 16.9206 6.85715 16.7501 6.85715H11.1787ZM10.5359 12C10.5359 11.8295 10.6036 11.666 10.7241 11.5454C10.8447 11.4249 11.0082 11.3572 11.1787 11.3572H16.7501C16.9206 11.3572 17.0841 11.4249 17.2047 11.5454C17.3253 11.666 17.393 11.8295 17.393 12C17.393 12.1705 17.3253 12.334 17.2047 12.4546C17.0841 12.5751 16.9206 12.6429 16.7501 12.6429H11.1787C11.0082 12.6429 10.8447 12.5751 10.7241 12.4546C10.6036 12.334 10.5359 12.1705 10.5359 12ZM11.1787 15.8572C11.0082 15.8572 10.8447 15.9249 10.7241 16.0454C10.6036 16.166 10.5359 16.3295 10.5359 16.5C10.5359 16.6705 10.6036 16.834 10.7241 16.9546C10.8447 17.0751 11.0082 17.1429 11.1787 17.1429H16.7501C16.9206 17.1429 17.0841 17.0751 17.2047 16.9546C17.3253 16.834 17.393 16.6705 17.393 16.5C17.393 16.3295 17.3253 16.166 17.2047 16.0454C17.0841 15.9249 16.9206 15.8572 16.7501 15.8572H11.1787ZM22.3473 16.9543L17.2044 22.0972C17.0839 22.2175 16.9205 22.2852 16.7501 22.2852C16.5798 22.2852 16.4164 22.2175 16.2959 22.0972L13.7261 19.5274C13.6126 19.4056 13.5508 19.2444 13.5537 19.0778C13.5566 18.9113 13.6241 18.7524 13.7419 18.6346C13.8597 18.5168 14.0186 18.4494 14.1851 18.4464C14.3517 18.4435 14.5128 18.5053 14.6347 18.6189L16.7501 20.7334L21.4387 16.0449C21.498 15.9835 21.569 15.9346 21.6474 15.9009C21.7259 15.8672 21.8103 15.8496 21.8956 15.8489C21.981 15.8482 22.0656 15.8645 22.1446 15.8968C22.2236 15.9292 22.2953 15.9769 22.3557 16.0373C22.416 16.0977 22.4637 16.1695 22.496 16.2485C22.5283 16.3276 22.5445 16.4122 22.5437 16.4976C22.5429 16.5829 22.5252 16.6673 22.4914 16.7457C22.4577 16.8241 22.4087 16.895 22.3473 16.9543Z" fill="#6D6D6D"/>
</svg>