<svg width="22" height="26" viewBox="0 0 22 26" fill="none" xmlns="http://www.w3.org/2000/svg">
<path d="M5.66829 25.5134C5.15567 25.1724 4.70135 24.751 4.32279 24.2654C3.90637 23.7642 3.52054 23.2384 3.16741 22.6908C2.33873 21.4767 1.68885 20.1499 1.23772 18.751C0.695787 17.126 0.43335 15.5684 0.43335 14.045C0.43335 12.3436 0.801412 10.8583 1.52129 9.61033C2.05492 8.63488 2.8395 7.81972 3.79385 7.24921C4.71872 6.67474 5.78142 6.36037 6.86997 6.33921C7.25104 6.33921 7.66135 6.39446 8.09685 6.50008C8.40966 6.58864 8.79072 6.72839 9.25629 6.90227C9.8486 7.13058 10.1744 7.27033 10.2849 7.30446C10.6318 7.43121 10.9235 7.48645 11.1527 7.48645C11.3265 7.48645 11.5719 7.43121 11.8506 7.34671C12.0074 7.29146 12.3032 7.19395 12.7265 7.01277C13.1457 6.86002 13.4756 6.72921 13.738 6.63171C14.1402 6.51308 14.5294 6.40339 14.8763 6.34814C15.2876 6.2833 15.705 6.26612 16.1203 6.29696C16.8398 6.34399 17.5486 6.49647 18.2238 6.74952C19.328 7.19396 20.221 7.88783 20.8856 8.87421C20.6047 9.04735 20.341 9.24705 20.0983 9.47058C19.5698 9.93905 19.1197 10.489 18.765 11.0996C18.3013 11.9341 18.0609 12.8742 18.067 13.8288C18.0841 15.0013 18.3847 16.034 18.977 16.9269C19.4125 17.5887 19.9784 18.1546 20.6402 18.5901C20.979 18.8184 21.2707 18.9752 21.5502 19.0808C21.4194 19.4871 21.2797 19.8803 21.1147 20.2703C20.7406 21.1449 20.2873 21.9834 19.7603 22.7753C19.2907 23.457 18.9226 23.9648 18.6431 24.3028C18.2076 24.8187 17.7883 25.2128 17.365 25.4874C16.8995 25.7961 16.3494 25.9611 15.7904 25.9611C15.4118 25.9756 15.0333 25.9298 14.6692 25.8254C14.3563 25.7198 14.0468 25.6052 13.7421 25.4744C13.4253 25.3289 13.0987 25.2059 12.7647 25.1063C11.9389 24.8942 11.0731 24.8928 10.2467 25.1023C9.90791 25.1998 9.5821 25.3135 9.26035 25.4533C8.80779 25.6434 8.50716 25.771 8.33329 25.8254C7.98635 25.927 7.62641 25.9903 7.26241 26.0115C6.69935 26.0115 6.17447 25.8506 5.65447 25.5248L5.66829 25.5134ZM13.0945 5.5137C12.3584 5.88177 11.6556 6.03858 10.9577 5.98739C10.848 5.28458 10.9577 4.56552 11.2493 3.77821C11.4977 3.1112 11.8646 2.4946 12.3324 1.95821C12.8264 1.39354 13.4259 0.930698 14.0972 0.595643C14.8122 0.22758 15.4938 0.0285176 16.1455 -0.000732422C16.23 0.735393 16.1455 1.45933 15.8749 2.24177C15.6245 2.93344 15.2583 3.57746 14.7918 4.14627C14.3158 4.71171 13.7315 5.17634 13.0734 5.51289L13.0945 5.5137Z" fill="black"/>
</svg>