<svg width="287" height="286" viewBox="0 0 287 286" fill="none" xmlns="http://www.w3.org/2000/svg">
<path opacity="0.7" d="M39.3559 95.5755C39.3559 95.5755 23.4085 136.759 45.8195 178.229C68.2305 219.699 114.391 241.607 151.336 260.34C188.282 279.073 226.646 269.95 244.876 239.268C263.105 208.586 238.103 186.684 238.069 142.931C238.034 99.1791 244.618 87.5961 220.909 50.6334C197.199 13.6708 139.078 5.48549 95.1259 32.9014C51.1734 60.3174 39.3559 95.5755 39.3559 95.5755Z" fill="#E4F6E2"/>
<path d="M11.8142 160.28C8.85803 146.606 10.137 132.357 15.4807 119.428C22.808 101.341 38.5151 88.4941 56.1213 80.9952C81.7126 70.1272 106.835 69.8927 127.621 48.5399C134.033 41.9505 139.422 34.4058 145.971 27.9479C165.305 8.9232 193.596 11.2284 214.72 26.3177C258.764 57.7777 274.642 120.126 272.189 171.64C271.09 194.766 260.051 216.29 242.576 231.46C203.057 265.78 135.955 260.003 90.5614 242.088C56.7333 228.743 19.765 197.586 11.8142 160.28Z" fill="#51B748"/>
<path opacity="0.7" d="M11.8142 160.28C8.85803 146.606 10.137 132.357 15.4807 119.428C22.808 101.341 38.5151 88.4941 56.1213 80.9952C81.7126 70.1272 106.835 69.8927 127.621 48.5399C134.033 41.9505 139.422 34.4058 145.971 27.9479C165.305 8.9232 193.596 11.2284 214.72 26.3177C258.764 57.7777 274.642 120.126 272.189 171.64C271.09 194.766 260.051 216.29 242.576 231.46C203.057 265.78 135.955 260.003 90.5614 242.088C56.7333 228.743 19.765 197.586 11.8142 160.28Z" fill="white"/>
<path d="M144.038 61.1868V64.9849" stroke="#131A43" stroke-width="1.10721" stroke-linecap="round" stroke-linejoin="round"/>
<path d="M144.038 69.0862V75.2352" stroke="#131A43" stroke-width="1.10721" stroke-linecap="round" stroke-linejoin="round" stroke-dasharray="7.17 7.17"/>
<path d="M144.038 77.2829V81.081" stroke="#131A43" stroke-width="1.10721" stroke-linecap="round" stroke-linejoin="round"/>
<path d="M204.652 125.485H200.854" stroke="#131A43" stroke-width="1.10721" stroke-linecap="round" stroke-linejoin="round"/>
<path d="M196.753 125.485H190.604" stroke="#131A43" stroke-width="1.10721" stroke-linecap="round" stroke-linejoin="round" stroke-dasharray="7.17 7.17"/>
<path d="M188.556 125.485H184.758" stroke="#131A43" stroke-width="1.10721" stroke-linecap="round" stroke-linejoin="round"/>
<path d="M103.322 125.485H99.5186" stroke="#131A43" stroke-width="1.10721" stroke-linecap="round" stroke-linejoin="round"/>
<path d="M95.4234 125.485H89.2744" stroke="#131A43" stroke-width="1.10721" stroke-linecap="round" stroke-linejoin="round" stroke-dasharray="7.17 7.17"/>
<path d="M87.2266 125.485H83.4229" stroke="#131A43" stroke-width="1.10721" stroke-linecap="round" stroke-linejoin="round"/>
<path d="M248.748 138.367C248.748 138.101 248.853 137.847 249.041 137.659C249.228 137.471 249.483 137.366 249.749 137.366C250.014 137.366 250.269 137.471 250.456 137.659C250.644 137.847 250.75 138.101 250.75 138.367V140.552C250.75 140.817 250.644 141.072 250.456 141.26C250.269 141.447 250.014 141.553 249.749 141.553C249.483 141.553 249.228 141.447 249.041 141.26C248.853 141.072 248.748 140.817 248.748 140.552V138.367ZM249.405 140.592C249.405 140.889 249.537 141.004 249.749 141.004C249.96 141.004 250.086 140.889 250.086 140.592V138.304C250.086 138.006 249.954 137.892 249.749 137.892C249.543 137.892 249.405 138.006 249.405 138.304V140.592Z" fill="#131A43"/>
<path d="M249.217 143.881C249.381 143.901 249.547 143.858 249.681 143.76C249.815 143.663 249.907 143.518 249.938 143.355H250.384V147.576H249.726V144.379H249.217V143.881Z" fill="#131A43"/>
<path d="M248.748 150.35C248.748 150.085 248.853 149.83 249.041 149.642C249.228 149.455 249.483 149.349 249.749 149.349C250.014 149.349 250.269 149.455 250.456 149.642C250.644 149.83 250.75 150.085 250.75 150.35V152.53C250.75 152.795 250.644 153.05 250.456 153.237C250.269 153.425 250.014 153.531 249.749 153.531C249.483 153.531 249.228 153.425 249.041 153.237C248.853 153.05 248.748 152.795 248.748 152.53V150.35ZM249.405 152.575C249.405 152.873 249.537 152.987 249.749 152.987C249.96 152.987 250.086 152.873 250.086 152.575V150.287C250.086 149.984 249.954 149.875 249.749 149.875C249.543 149.875 249.405 149.984 249.405 150.287V152.575Z" fill="#131A43"/>
<path d="M249.217 155.864C249.381 155.885 249.547 155.842 249.681 155.744C249.815 155.646 249.907 155.501 249.938 155.338H250.384V159.525H249.726V156.328H249.217V155.864Z" fill="#131A43"/>
<path d="M248.748 162.334C248.748 162.068 248.853 161.814 249.041 161.626C249.228 161.438 249.483 161.333 249.749 161.333C250.014 161.333 250.269 161.438 250.456 161.626C250.644 161.814 250.75 162.068 250.75 162.334V164.513C250.75 164.778 250.644 165.033 250.456 165.221C250.269 165.408 250.014 165.514 249.749 165.514C249.483 165.514 249.228 165.408 249.041 165.221C248.853 165.033 248.748 164.778 248.748 164.513V162.334ZM249.405 164.553C249.405 164.856 249.537 164.965 249.749 164.965C249.96 164.965 250.086 164.856 250.086 164.553V162.265C250.086 161.968 249.954 161.853 249.749 161.853C249.543 161.853 249.405 161.968 249.405 162.265V164.553Z" fill="#131A43"/>
<path d="M249.217 167.842C249.381 167.862 249.547 167.819 249.681 167.721C249.815 167.624 249.907 167.479 249.938 167.316H250.384V171.508H249.726V168.311H249.217V167.842Z" fill="#131A43"/>
<path d="M248.748 174.311C248.748 174.046 248.853 173.791 249.041 173.603C249.228 173.416 249.483 173.31 249.749 173.31C250.014 173.31 250.269 173.416 250.456 173.603C250.644 173.791 250.75 174.046 250.75 174.311V176.496C250.75 176.762 250.644 177.016 250.456 177.204C250.269 177.392 250.014 177.497 249.749 177.497C249.483 177.497 249.228 177.392 249.041 177.204C248.853 177.016 248.748 176.762 248.748 176.496V174.311ZM249.405 176.536C249.405 176.834 249.537 176.948 249.749 176.948C249.96 176.948 250.086 176.834 250.086 176.536V174.248C250.086 173.951 249.954 173.837 249.749 173.837C249.543 173.837 249.405 173.951 249.405 174.248V176.536Z" fill="#131A43"/>
<path d="M248.748 180.306C248.748 180.04 248.853 179.786 249.041 179.598C249.228 179.41 249.483 179.305 249.749 179.305C250.014 179.305 250.269 179.41 250.456 179.598C250.644 179.786 250.75 180.04 250.75 180.306V182.468C250.75 182.733 250.644 182.988 250.456 183.176C250.269 183.364 250.014 183.469 249.749 183.469C249.483 183.469 249.228 183.364 249.041 183.176C248.853 182.988 248.748 182.733 248.748 182.468V180.306ZM249.405 182.525C249.405 182.828 249.537 182.937 249.749 182.937C249.96 182.937 250.086 182.828 250.086 182.525V180.237C250.086 179.934 249.954 179.82 249.749 179.82C249.543 179.82 249.405 179.934 249.405 180.237V182.525Z" fill="#131A43"/>
<path d="M248.748 186.295C248.748 186.029 248.853 185.775 249.041 185.587C249.228 185.399 249.483 185.294 249.749 185.294C250.014 185.294 250.269 185.399 250.456 185.587C250.644 185.775 250.75 186.029 250.75 186.295V188.474C250.75 188.739 250.644 188.994 250.456 189.182C250.269 189.37 250.014 189.475 249.749 189.475C249.483 189.475 249.228 189.37 249.041 189.182C248.853 188.994 248.748 188.739 248.748 188.474V186.295ZM249.405 188.52C249.405 188.817 249.537 188.932 249.749 188.932C249.96 188.932 250.086 188.817 250.086 188.52V186.232C250.086 185.934 249.954 185.82 249.749 185.82C249.543 185.82 249.405 185.934 249.405 186.232V188.52Z" fill="#131A43"/>
<path d="M249.217 197.798C249.381 197.818 249.547 197.775 249.681 197.677C249.815 197.579 249.907 197.434 249.938 197.271H250.384V201.464H249.726V198.267H249.217V197.798Z" fill="#131A43"/>
<path d="M249.217 203.792C249.382 203.814 249.55 203.77 249.684 203.671C249.819 203.572 249.909 203.425 249.938 203.26H250.384V207.453H249.726V204.255H249.217V203.792Z" fill="#131A43"/>
<path d="M249.217 209.781C249.381 209.801 249.547 209.758 249.681 209.66C249.815 209.563 249.907 209.418 249.938 209.255H250.384V213.442H249.726V210.25H249.217V209.781Z" fill="#131A43"/>
<path d="M248.748 216.25C248.748 215.985 248.853 215.73 249.041 215.543C249.228 215.355 249.483 215.249 249.749 215.249C250.014 215.249 250.269 215.355 250.456 215.543C250.644 215.73 250.75 215.985 250.75 216.25V218.43C250.75 218.695 250.644 218.95 250.456 219.137C250.269 219.325 250.014 219.431 249.749 219.431C249.483 219.431 249.228 219.325 249.041 219.137C248.853 218.95 248.748 218.695 248.748 218.43V216.25ZM249.405 218.47C249.405 218.773 249.537 218.882 249.749 218.882C249.96 218.882 250.086 218.773 250.086 218.47V216.216C250.086 215.913 249.954 215.798 249.749 215.798C249.543 215.798 249.405 215.913 249.405 216.216V218.47Z" fill="#131A43"/>
<path d="M248.748 222.239C248.748 221.974 248.853 221.719 249.041 221.531C249.228 221.344 249.483 221.238 249.749 221.238C250.014 221.238 250.269 221.344 250.456 221.531C250.644 221.719 250.75 221.974 250.75 222.239V224.418C250.75 224.684 250.644 224.939 250.456 225.126C250.269 225.314 250.014 225.419 249.749 225.419C249.483 225.419 249.228 225.314 249.041 225.126C248.853 224.939 248.748 224.684 248.748 224.418V222.239ZM249.405 224.464C249.405 224.762 249.537 224.876 249.749 224.876C249.96 224.876 250.086 224.762 250.086 224.464V222.176C250.086 221.879 249.954 221.764 249.749 221.764C249.543 221.764 249.405 221.879 249.405 222.176V224.464Z" fill="#131A43"/>
<path d="M249.217 227.753C249.381 227.774 249.547 227.73 249.681 227.633C249.815 227.535 249.907 227.39 249.938 227.227H250.384V231.414H249.726V228.228H249.217V227.753Z" fill="#131A43"/>
<path d="M252.752 131.897C252.917 131.918 253.084 131.875 253.219 131.777C253.354 131.68 253.446 131.535 253.478 131.371H253.919V135.564H253.261V132.367H252.752V131.897Z" fill="#131A43"/>
<path d="M252.752 137.892C252.917 137.913 253.084 137.87 253.219 137.772C253.354 137.674 253.446 137.529 253.478 137.366H253.919V141.553H253.261V138.355H252.752V137.892Z" fill="#131A43"/>
<path d="M252.317 150.35C252.307 150.213 252.325 150.075 252.37 149.945C252.416 149.814 252.488 149.695 252.581 149.594C252.675 149.493 252.789 149.412 252.915 149.357C253.041 149.302 253.178 149.274 253.315 149.274C253.453 149.274 253.59 149.302 253.716 149.357C253.842 149.412 253.956 149.493 254.05 149.594C254.143 149.695 254.215 149.814 254.26 149.945C254.306 150.075 254.324 150.213 254.314 150.35V152.53C254.324 152.667 254.306 152.805 254.26 152.935C254.215 153.065 254.143 153.185 254.05 153.286C253.956 153.387 253.842 153.467 253.716 153.523C253.59 153.578 253.453 153.606 253.315 153.606C253.178 153.606 253.041 153.578 252.915 153.523C252.789 153.467 252.675 153.387 252.581 153.286C252.488 153.185 252.416 153.065 252.37 152.935C252.325 152.805 252.307 152.667 252.317 152.53V150.35ZM252.975 152.575C252.975 152.873 253.107 152.987 253.313 152.987C253.519 152.987 253.656 152.873 253.656 152.575V150.287C253.656 149.984 253.524 149.875 253.313 149.875C253.101 149.875 252.975 149.984 252.975 150.287V152.575Z" fill="#131A43"/>
<path d="M252.752 167.842C252.917 167.862 253.084 167.82 253.219 167.722C253.354 167.624 253.446 167.479 253.478 167.316H253.919V171.508H253.261V168.311H252.752V167.842Z" fill="#131A43"/>
<path d="M252.317 174.311C252.307 174.174 252.325 174.036 252.37 173.906C252.416 173.776 252.488 173.656 252.581 173.555C252.675 173.454 252.789 173.373 252.915 173.318C253.041 173.263 253.178 173.235 253.315 173.235C253.453 173.235 253.59 173.263 253.716 173.318C253.842 173.373 253.956 173.454 254.05 173.555C254.143 173.656 254.215 173.776 254.26 173.906C254.306 174.036 254.324 174.174 254.314 174.311V176.496C254.324 176.634 254.306 176.772 254.26 176.902C254.215 177.032 254.143 177.151 254.05 177.252C253.956 177.354 253.842 177.434 253.716 177.489C253.59 177.544 253.453 177.573 253.315 177.573C253.178 177.573 253.041 177.544 252.915 177.489C252.789 177.434 252.675 177.354 252.581 177.252C252.488 177.151 252.416 177.032 252.37 176.902C252.325 176.772 252.307 176.634 252.317 176.496V174.311ZM252.975 176.536C252.975 176.834 253.107 176.948 253.313 176.948C253.519 176.948 253.656 176.834 253.656 176.536V174.248C253.656 173.951 253.524 173.837 253.313 173.837C253.101 173.837 252.975 173.951 252.975 174.248V176.536Z" fill="#131A43"/>
<path d="M252.752 179.825C252.917 179.846 253.084 179.803 253.219 179.705C253.354 179.608 253.446 179.462 253.478 179.299H253.919V183.492H253.261V180.294H252.752V179.825Z" fill="#131A43"/>
<path d="M252.752 185.814C252.917 185.836 253.085 185.794 253.22 185.696C253.355 185.598 253.448 185.452 253.478 185.288H253.919V189.481H253.261V186.283H252.752V185.814Z" fill="#131A43"/>
<path d="M252.752 191.809C252.917 191.829 253.084 191.786 253.219 191.689C253.354 191.591 253.446 191.446 253.478 191.283H253.919V195.47H253.261V192.272H252.752V191.809Z" fill="#131A43"/>
<path d="M252.317 198.278C252.307 198.141 252.325 198.003 252.37 197.872C252.416 197.742 252.488 197.623 252.581 197.522C252.675 197.421 252.789 197.34 252.915 197.285C253.041 197.23 253.178 197.201 253.315 197.201C253.453 197.201 253.59 197.23 253.716 197.285C253.842 197.34 253.956 197.421 254.05 197.522C254.143 197.623 254.215 197.742 254.26 197.872C254.306 198.003 254.324 198.141 254.314 198.278V200.457C254.324 200.595 254.306 200.733 254.26 200.863C254.215 200.993 254.143 201.113 254.05 201.214C253.956 201.315 253.842 201.395 253.716 201.45C253.59 201.506 253.453 201.534 253.315 201.534C253.178 201.534 253.041 201.506 252.915 201.45C252.789 201.395 252.675 201.315 252.581 201.214C252.488 201.113 252.416 200.993 252.37 200.863C252.325 200.733 252.307 200.595 252.317 200.457V198.278ZM252.975 200.497C252.975 200.801 253.107 200.909 253.313 200.909C253.519 200.909 253.656 200.801 253.656 200.497V198.238C253.656 197.935 253.524 197.82 253.313 197.82C253.101 197.82 252.975 197.935 252.975 198.238V200.497Z" fill="#131A43"/>
<path d="M252.317 204.267C252.307 204.129 252.325 203.991 252.37 203.861C252.416 203.731 252.488 203.612 252.581 203.511C252.675 203.41 252.789 203.329 252.915 203.274C253.041 203.219 253.178 203.19 253.315 203.19C253.453 203.19 253.59 203.219 253.716 203.274C253.842 203.329 253.956 203.41 254.05 203.511C254.143 203.612 254.215 203.731 254.26 203.861C254.306 203.991 254.324 204.129 254.314 204.267V206.446C254.324 206.584 254.306 206.722 254.26 206.852C254.215 206.982 254.143 207.101 254.05 207.202C253.956 207.303 253.842 207.384 253.716 207.439C253.59 207.494 253.453 207.523 253.315 207.523C253.178 207.523 253.041 207.494 252.915 207.439C252.789 207.384 252.675 207.303 252.581 207.202C252.488 207.101 252.416 206.982 252.37 206.852C252.325 206.722 252.307 206.584 252.317 206.446V204.267ZM252.975 206.492C252.975 206.789 253.107 206.904 253.313 206.904C253.519 206.904 253.656 206.789 253.656 206.492V204.204C253.656 203.907 253.524 203.792 253.313 203.792C253.101 203.792 252.975 203.907 252.975 204.204V206.492Z" fill="#131A43"/>
<path d="M245.653 167.842C245.819 167.862 245.985 167.82 246.12 167.722C246.255 167.624 246.348 167.479 246.38 167.316H246.82V171.508H246.162V168.311H245.653V167.842Z" fill="#131A43"/>
<path d="M245.19 174.311C245.19 174.046 245.295 173.791 245.483 173.603C245.671 173.416 245.925 173.31 246.191 173.31C246.456 173.31 246.711 173.416 246.899 173.603C247.086 173.791 247.192 174.046 247.192 174.311V176.496C247.192 176.762 247.086 177.016 246.899 177.204C246.711 177.392 246.456 177.497 246.191 177.497C245.925 177.497 245.671 177.392 245.483 177.204C245.295 177.016 245.19 176.762 245.19 176.496V174.311ZM245.848 176.536C245.848 176.834 245.979 176.948 246.191 176.948C246.403 176.948 246.534 176.834 246.534 176.536V174.248C246.534 173.951 246.403 173.837 246.191 173.837C245.979 173.837 245.848 173.951 245.848 174.248V176.536Z" fill="#131A43"/>
<path d="M245.19 180.306C245.19 180.04 245.295 179.786 245.483 179.598C245.671 179.41 245.925 179.305 246.191 179.305C246.456 179.305 246.711 179.41 246.899 179.598C247.086 179.786 247.192 180.04 247.192 180.306V182.468C247.192 182.733 247.086 182.988 246.899 183.176C246.711 183.364 246.456 183.469 246.191 183.469C245.925 183.469 245.671 183.364 245.483 183.176C245.295 182.988 245.19 182.733 245.19 182.468V180.306ZM245.848 182.525C245.848 182.828 245.979 182.937 246.191 182.937C246.403 182.937 246.534 182.828 246.534 182.525V180.237C246.534 179.934 246.403 179.82 246.191 179.82C245.979 179.82 245.848 179.934 245.848 180.237V182.525Z" fill="#131A43"/>
<path d="M245.653 185.814C245.819 185.836 245.986 185.794 246.121 185.696C246.257 185.598 246.349 185.452 246.38 185.288H246.82V189.481H246.162V186.283H245.653V185.814Z" fill="#131A43"/>
<path d="M245.653 197.798C245.819 197.818 245.985 197.775 246.12 197.678C246.255 197.58 246.348 197.435 246.38 197.271H246.82V201.464H246.162V198.267H245.653V197.798Z" fill="#131A43"/>
<path d="M245.653 203.792C245.819 203.812 245.987 203.769 246.122 203.67C246.257 203.571 246.349 203.425 246.38 203.26H246.82V207.453H246.162V204.255H245.653V203.792Z" fill="#131A43"/>
<path d="M245.653 209.781C245.819 209.801 245.985 209.759 246.12 209.661C246.255 209.563 246.348 209.418 246.38 209.255H246.82V213.442H246.162V210.25H245.653V209.781Z" fill="#131A43"/>
<path d="M241.632 150.35C241.622 150.213 241.64 150.075 241.685 149.945C241.731 149.814 241.803 149.695 241.896 149.594C241.99 149.493 242.104 149.412 242.23 149.357C242.356 149.302 242.493 149.274 242.63 149.274C242.768 149.274 242.905 149.302 243.031 149.357C243.157 149.412 243.271 149.493 243.364 149.594C243.458 149.695 243.53 149.814 243.575 149.945C243.621 150.075 243.639 150.213 243.629 150.35V152.53C243.639 152.667 243.621 152.805 243.575 152.935C243.53 153.065 243.458 153.185 243.364 153.286C243.271 153.387 243.157 153.467 243.031 153.523C242.905 153.578 242.768 153.606 242.63 153.606C242.493 153.606 242.356 153.578 242.23 153.523C242.104 153.467 241.99 153.387 241.896 153.286C241.803 153.185 241.731 153.065 241.685 152.935C241.64 152.805 241.622 152.667 241.632 152.53V150.35ZM242.29 152.575C242.29 152.873 242.422 152.987 242.628 152.987C242.833 152.987 242.971 152.873 242.971 152.575V150.287C242.971 149.984 242.839 149.875 242.628 149.875C242.416 149.875 242.29 149.984 242.29 150.287V152.575Z" fill="#131A43"/>
<path d="M241.632 162.334C241.622 162.196 241.64 162.058 241.685 161.928C241.731 161.798 241.803 161.678 241.896 161.577C241.99 161.476 242.104 161.396 242.23 161.341C242.356 161.285 242.493 161.257 242.63 161.257C242.768 161.257 242.905 161.285 243.031 161.341C243.157 161.396 243.271 161.476 243.364 161.577C243.458 161.678 243.53 161.798 243.575 161.928C243.621 162.058 243.639 162.196 243.629 162.334V164.513C243.639 164.65 243.621 164.788 243.575 164.919C243.53 165.049 243.458 165.168 243.364 165.269C243.271 165.37 243.157 165.451 243.031 165.506C242.905 165.561 242.768 165.59 242.63 165.59C242.493 165.59 242.356 165.561 242.23 165.506C242.104 165.451 241.99 165.37 241.896 165.269C241.803 165.168 241.731 165.049 241.685 164.919C241.64 164.788 241.622 164.65 241.632 164.513V162.334ZM242.29 164.553C242.29 164.856 242.422 164.965 242.628 164.965C242.833 164.965 242.971 164.856 242.971 164.553V162.265C242.971 161.968 242.839 161.853 242.628 161.853C242.416 161.853 242.29 161.968 242.29 162.265V164.553Z" fill="#131A43"/>
<path d="M242.09 179.825C242.255 179.846 242.422 179.803 242.557 179.705C242.691 179.608 242.784 179.462 242.816 179.299H243.257V183.492H242.599V180.294H242.09V179.825Z" fill="#131A43"/>
<path d="M242.09 185.814C242.255 185.836 242.423 185.794 242.558 185.696C242.693 185.598 242.786 185.452 242.816 185.288H243.257V189.481H242.599V186.283H242.09V185.814Z" fill="#131A43"/>
<path d="M242.09 203.792C242.256 203.812 242.423 203.769 242.558 203.67C242.693 203.571 242.786 203.425 242.816 203.26H243.257V207.453H242.599V204.255H242.09V203.792Z" fill="#131A43"/>
<path d="M241.632 210.261C241.622 210.124 241.64 209.986 241.685 209.856C241.731 209.726 241.803 209.606 241.896 209.505C241.99 209.404 242.104 209.324 242.23 209.268C242.356 209.213 242.493 209.185 242.63 209.185C242.768 209.185 242.905 209.213 243.031 209.268C243.157 209.324 243.271 209.404 243.364 209.505C243.458 209.606 243.53 209.726 243.575 209.856C243.621 209.986 243.639 210.124 243.629 210.261V212.441C243.639 212.578 243.621 212.716 243.575 212.846C243.53 212.977 243.458 213.096 243.364 213.197C243.271 213.298 243.157 213.379 243.031 213.434C242.905 213.489 242.768 213.517 242.63 213.517C242.493 213.517 242.356 213.489 242.23 213.434C242.104 213.379 241.99 213.298 241.896 213.197C241.803 213.096 241.731 212.977 241.685 212.846C241.64 212.716 241.622 212.578 241.632 212.441V210.261ZM242.29 212.481C242.29 212.778 242.422 212.893 242.628 212.893C242.833 212.893 242.971 212.778 242.971 212.481V210.193C242.971 209.895 242.839 209.781 242.628 209.781C242.416 209.781 242.29 209.895 242.29 210.193V212.481Z" fill="#131A43"/>
<path d="M242.09 215.77C242.255 215.79 242.422 215.747 242.557 215.65C242.691 215.552 242.784 215.407 242.816 215.244H243.257V219.436H242.599V216.216H242.09V215.77Z" fill="#131A43"/>
<path d="M94.1533 156.728C94.1533 156.463 94.2588 156.208 94.4465 156.02C94.6342 155.832 94.8888 155.727 95.1543 155.727C95.4198 155.727 95.6744 155.832 95.8621 156.02C96.0499 156.208 96.1553 156.463 96.1553 156.728V158.907C96.1553 159.173 96.0499 159.427 95.8621 159.615C95.6744 159.803 95.4198 159.908 95.1543 159.908C94.8888 159.908 94.6342 159.803 94.4465 159.615C94.2588 159.427 94.1533 159.173 94.1533 158.907V156.728ZM94.8111 158.947C94.8111 159.251 94.9427 159.365 95.1543 159.365C95.366 159.365 95.4918 159.251 95.4918 158.947V156.659C95.4918 156.356 95.3602 156.242 95.1543 156.242C94.9484 156.242 94.8111 156.356 94.8111 156.659V158.947Z" fill="#131A43"/>
<path d="M94.1533 162.734C94.1533 162.469 94.2588 162.214 94.4465 162.026C94.6342 161.838 94.8888 161.733 95.1543 161.733C95.4198 161.733 95.6744 161.838 95.8621 162.026C96.0499 162.214 96.1553 162.469 96.1553 162.734V164.913C96.1553 165.179 96.0499 165.433 95.8621 165.621C95.6744 165.809 95.4198 165.914 95.1543 165.914C94.8888 165.914 94.6342 165.809 94.4465 165.621C94.2588 165.433 94.1533 165.179 94.1533 164.913V162.734ZM94.8111 164.959C94.8111 165.257 94.9427 165.371 95.1543 165.371C95.366 165.371 95.4918 165.257 95.4918 164.959V162.671C95.4918 162.374 95.3602 162.259 95.1543 162.259C94.9484 162.259 94.8111 162.374 94.8111 162.671V164.959Z" fill="#131A43"/>
<path d="M94.6167 168.248C94.7812 168.268 94.9473 168.225 95.0812 168.128C95.2151 168.03 95.3067 167.885 95.3374 167.722H95.7836V171.915H95.1258V168.74H94.6167V168.248Z" fill="#131A43"/>
<path d="M94.1533 174.717C94.1533 174.452 94.2588 174.197 94.4465 174.01C94.6342 173.822 94.8888 173.716 95.1543 173.716C95.4198 173.716 95.6744 173.822 95.8621 174.01C96.0499 174.197 96.1553 174.452 96.1553 174.717V176.897C96.1553 177.162 96.0499 177.417 95.8621 177.605C95.6744 177.792 95.4198 177.898 95.1543 177.898C94.8888 177.898 94.6342 177.792 94.4465 177.605C94.2588 177.417 94.1533 177.162 94.1533 176.897V174.717ZM94.8111 176.937C94.8111 177.24 94.9427 177.354 95.1543 177.354C95.366 177.354 95.4918 177.24 95.4918 176.937V174.677C95.4918 174.374 95.3602 174.26 95.1543 174.26C94.9484 174.26 94.8111 174.374 94.8111 174.677V176.937Z" fill="#131A43"/>
<path d="M94.6167 180.231C94.7812 180.252 94.9473 180.209 95.0812 180.111C95.2151 180.013 95.3067 179.868 95.3374 179.705H95.7836V183.892H95.1258V180.695H94.6167V180.231Z" fill="#131A43"/>
<path d="M94.1533 186.701C94.1533 186.435 94.2588 186.181 94.4465 185.993C94.6342 185.805 94.8888 185.7 95.1543 185.7C95.4198 185.7 95.6744 185.805 95.8621 185.993C96.0499 186.181 96.1553 186.435 96.1553 186.701V188.88C96.1553 189.146 96.0499 189.4 95.8621 189.588C95.6744 189.776 95.4198 189.881 95.1543 189.881C94.8888 189.881 94.6342 189.776 94.4465 189.588C94.2588 189.4 94.1533 189.146 94.1533 188.88V186.701ZM94.8111 188.92C94.8111 189.218 94.9427 189.332 95.1543 189.332C95.366 189.332 95.4918 189.218 95.4918 188.92V186.632C95.4918 186.335 95.3602 186.22 95.1543 186.22C94.9484 186.22 94.8111 186.335 94.8111 186.632V188.92Z" fill="#131A43"/>
<path d="M94.6167 192.192C94.7812 192.212 94.9473 192.169 95.0812 192.071C95.2151 191.974 95.3067 191.829 95.3374 191.666H95.7836V195.859H95.1258V192.661H94.6167V192.192Z" fill="#131A43"/>
<path d="M94.1533 198.678C94.1533 198.413 94.2588 198.158 94.4465 197.971C94.6342 197.783 94.8888 197.677 95.1543 197.677C95.4198 197.677 95.6744 197.783 95.8621 197.971C96.0499 198.158 96.1553 198.413 96.1553 198.678V200.858C96.1553 201.123 96.0499 201.378 95.8621 201.566C95.6744 201.753 95.4198 201.859 95.1543 201.859C94.8888 201.859 94.6342 201.753 94.4465 201.566C94.2588 201.378 94.1533 201.123 94.1533 200.858V198.678ZM94.8111 200.904C94.8111 201.201 94.9427 201.315 95.1543 201.315C95.366 201.315 95.4918 201.201 95.4918 200.904V198.616C95.4918 198.318 95.3602 198.204 95.1543 198.204C94.9484 198.204 94.8111 198.318 94.8111 198.616V200.904Z" fill="#131A43"/>
<path d="M94.1533 204.673C94.1533 204.408 94.2588 204.153 94.4465 203.965C94.6342 203.777 94.8888 203.672 95.1543 203.672C95.4198 203.672 95.6744 203.777 95.8621 203.965C96.0499 204.153 96.1553 204.408 96.1553 204.673V206.852C96.1553 207.118 96.0499 207.372 95.8621 207.56C95.6744 207.748 95.4198 207.853 95.1543 207.853C94.8888 207.853 94.6342 207.748 94.4465 207.56C94.2588 207.372 94.1533 207.118 94.1533 206.852V204.673ZM94.8111 206.892C94.8111 207.19 94.9427 207.304 95.1543 207.304C95.366 207.304 95.4918 207.19 95.4918 206.892V204.604C95.4918 204.307 95.3602 204.193 95.1543 204.193C94.9484 204.193 94.8111 204.307 94.8111 204.604V206.892Z" fill="#131A43"/>
<path d="M94.1533 210.662C94.1533 210.396 94.2588 210.142 94.4465 209.954C94.6342 209.766 94.8888 209.661 95.1543 209.661C95.4198 209.661 95.6744 209.766 95.8621 209.954C96.0499 210.142 96.1553 210.396 96.1553 210.662V212.841C96.1553 213.107 96.0499 213.361 95.8621 213.549C95.6744 213.737 95.4198 213.842 95.1543 213.842C94.8888 213.842 94.6342 213.737 94.4465 213.549C94.2588 213.361 94.1533 213.107 94.1533 212.841V210.662ZM94.8111 212.881C94.8111 213.184 94.9427 213.299 95.1543 213.299C95.366 213.299 95.4918 213.184 95.4918 212.881V210.622C95.4918 210.319 95.3602 210.21 95.1543 210.21C94.9484 210.21 94.8111 210.319 94.8111 210.622V212.881Z" fill="#131A43"/>
<path d="M94.6167 216.176C94.7812 216.196 94.9473 216.153 95.0812 216.055C95.2151 215.958 95.3067 215.813 95.3374 215.65H95.7836V219.837H95.1258V216.639H94.6167V216.176Z" fill="#131A43"/>
<path d="M94.6167 222.165C94.7812 222.185 94.9473 222.142 95.0812 222.044C95.2151 221.947 95.3067 221.801 95.3374 221.639H95.7836V225.831H95.1258V222.634H94.6167V222.165Z" fill="#131A43"/>
<path d="M94.6167 228.154C94.7812 228.174 94.9473 228.131 95.0812 228.033C95.2151 227.935 95.3067 227.79 95.3374 227.627H95.7836V231.82H95.1258V228.623H94.6167V228.154Z" fill="#131A43"/>
<path d="M94.6167 234.148C94.7812 234.169 94.9473 234.125 95.0812 234.028C95.2151 233.93 95.3067 233.785 95.3374 233.622H95.7836V237.809H95.1258V234.612H94.6167V234.148Z" fill="#131A43"/>
<path d="M94.811 242.837C94.811 243.14 94.9426 243.249 95.1542 243.249C95.3659 243.249 95.4917 243.14 95.4917 242.837V240.549C95.4917 240.251 95.3601 240.137 95.1542 240.137C94.9483 240.137 94.811 240.251 94.811 240.549V242.837Z" fill="#131A43"/>
<path d="M98.1743 180.231C98.3395 180.252 98.5063 180.209 98.6412 180.111C98.776 180.014 98.8687 179.869 98.9008 179.705H99.3412V183.892H98.6834V180.695H98.1743V180.231Z" fill="#131A43"/>
<path d="M98.1743 186.22C98.3395 186.241 98.5063 186.198 98.6412 186.1C98.776 186.003 98.8687 185.857 98.9008 185.694H99.3412V189.904H98.6834V186.707H98.1743V186.22Z" fill="#131A43"/>
<path d="M97.7397 198.678C97.7293 198.541 97.7473 198.403 97.7928 198.273C97.8382 198.143 97.91 198.023 98.0038 197.922C98.0975 197.821 98.211 197.741 98.3373 197.685C98.4637 197.63 98.6 197.602 98.7378 197.602C98.8756 197.602 99.012 197.63 99.1383 197.685C99.2646 197.741 99.3782 197.821 99.4719 197.922C99.5656 198.023 99.6374 198.143 99.6828 198.273C99.7283 198.403 99.7464 198.541 99.736 198.678V200.858C99.7464 200.995 99.7283 201.133 99.6828 201.263C99.6374 201.394 99.5656 201.513 99.4719 201.614C99.3782 201.715 99.2646 201.796 99.1383 201.851C99.012 201.906 98.8756 201.934 98.7378 201.934C98.6 201.934 98.4637 201.906 98.3373 201.851C98.211 201.796 98.0975 201.715 98.0038 201.614C97.91 201.513 97.8382 201.394 97.7928 201.263C97.7473 201.133 97.7293 200.995 97.7397 200.858V198.678ZM98.3975 200.904C98.3975 201.201 98.529 201.315 98.735 201.315C98.9409 201.315 99.0782 201.201 99.0782 200.904V198.616C99.0782 198.318 98.9466 198.204 98.735 198.204C98.5233 198.204 98.3975 198.318 98.3975 198.616V200.904Z" fill="#131A43"/>
<path d="M98.1743 204.204C98.3395 204.224 98.5063 204.182 98.6412 204.084C98.776 203.986 98.8687 203.841 98.9008 203.678H99.3412V207.871H98.6834V204.662H98.1743V204.204Z" fill="#131A43"/>
<path d="M97.7397 210.662C97.7293 210.524 97.7473 210.386 97.7928 210.256C97.8382 210.126 97.91 210.007 98.0038 209.906C98.0975 209.805 98.211 209.724 98.3373 209.669C98.4637 209.614 98.6 209.585 98.7378 209.585C98.8756 209.585 99.012 209.614 99.1383 209.669C99.2646 209.724 99.3782 209.805 99.4719 209.906C99.5656 210.007 99.6374 210.126 99.6828 210.256C99.7283 210.386 99.7464 210.524 99.736 210.662V212.841C99.7464 212.979 99.7283 213.117 99.6828 213.247C99.6374 213.377 99.5656 213.496 99.4719 213.597C99.3782 213.698 99.2646 213.779 99.1383 213.834C99.012 213.889 98.8756 213.918 98.7378 213.918C98.6 213.918 98.4637 213.889 98.3373 213.834C98.211 213.779 98.0975 213.698 98.0038 213.597C97.91 213.496 97.8382 213.377 97.7928 213.247C97.7473 213.117 97.7293 212.979 97.7397 212.841V210.662ZM98.3975 212.881C98.3975 213.184 98.529 213.299 98.735 213.299C98.9409 213.299 99.0782 213.184 99.0782 212.881V210.622C99.0782 210.319 98.9466 210.21 98.735 210.21C98.5233 210.21 98.3975 210.319 98.3975 210.622V212.881Z" fill="#131A43"/>
<path d="M98.3745 224.865C98.3745 225.162 98.5061 225.276 98.712 225.276C98.9179 225.276 99.0552 225.162 99.0552 224.865V222.577C99.0552 222.279 98.9236 222.165 98.712 222.165C98.5003 222.165 98.3745 222.279 98.3745 222.577V224.865Z" fill="#131A43"/>
<path d="M98.1744 228.154C98.3328 228.171 98.4921 228.13 98.6225 228.038C98.753 227.947 98.8458 227.811 98.8837 227.656H99.3241V231.849H98.6663V228.651H98.1572L98.1744 228.154Z" fill="#131A43"/>
<path d="M98.1743 234.148C98.3395 234.169 98.5063 234.126 98.6412 234.028C98.776 233.93 98.8687 233.785 98.9008 233.622H99.3412V237.809H98.6834V234.612H98.1743V234.148Z" fill="#131A43"/>
<path d="M97.7397 252.595C97.7293 252.458 97.7473 252.32 97.7928 252.19C97.8382 252.059 97.91 251.94 98.0038 251.839C98.0975 251.738 98.211 251.657 98.3373 251.602C98.4637 251.547 98.6 251.519 98.7378 251.519C98.8756 251.519 99.012 251.547 99.1383 251.602C99.2646 251.657 99.3782 251.738 99.4719 251.839C99.5656 251.94 99.6374 252.059 99.6828 252.19C99.7283 252.32 99.7464 252.458 99.736 252.595V254.78C99.7464 254.918 99.7283 255.056 99.6828 255.186C99.6374 255.316 99.5656 255.435 99.4719 255.536C99.3782 255.637 99.2646 255.718 99.1383 255.773C99.012 255.828 98.8756 255.857 98.7378 255.857C98.6 255.857 98.4637 255.828 98.3373 255.773C98.211 255.718 98.0975 255.637 98.0038 255.536C97.91 255.435 97.8382 255.316 97.7928 255.186C97.7473 255.056 97.7293 254.918 97.7397 254.78V252.595ZM98.3975 254.82C98.3975 255.118 98.529 255.232 98.735 255.232C98.9409 255.232 99.0782 255.118 99.0782 254.82V252.532C99.0782 252.235 98.9466 252.12 98.735 252.12C98.5233 252.12 98.3975 252.235 98.3975 252.532V254.82Z" fill="#131A43"/>
<path d="M90.5898 174.717C90.5898 174.452 90.6953 174.197 90.883 174.01C91.0708 173.822 91.3254 173.716 91.5908 173.716C91.8563 173.716 92.1109 173.822 92.2987 174.01C92.4864 174.197 92.5918 174.452 92.5918 174.717V176.897C92.5918 177.162 92.4864 177.417 92.2987 177.605C92.1109 177.792 91.8563 177.898 91.5908 177.898C91.3254 177.898 91.0708 177.792 90.883 177.605C90.6953 177.417 90.5898 177.162 90.5898 176.897V174.717ZM91.2476 176.937C91.2476 177.24 91.3792 177.354 91.5908 177.354C91.8025 177.354 91.934 177.24 91.934 176.937V174.677C91.934 174.374 91.8025 174.26 91.5908 174.26C91.3792 174.26 91.2476 174.374 91.2476 174.677V176.937Z" fill="#131A43"/>
<path d="M91.0532 180.231C91.2184 180.252 91.3852 180.209 91.5201 180.111C91.6549 180.014 91.7476 179.869 91.7797 179.705H92.2201V183.892H91.5623V180.695H91.0532V180.231Z" fill="#131A43"/>
<path d="M91.0532 186.22C91.2184 186.241 91.3852 186.198 91.5201 186.1C91.6549 186.003 91.7476 185.857 91.7797 185.694H92.2201V189.904H91.5623V186.707H91.0532V186.22Z" fill="#131A43"/>
<path d="M90.5898 192.69C90.5898 192.424 90.6953 192.17 90.883 191.982C91.0708 191.794 91.3254 191.689 91.5908 191.689C91.8563 191.689 92.1109 191.794 92.2987 191.982C92.4864 192.17 92.5918 192.424 92.5918 192.69V194.869C92.5918 195.134 92.4864 195.389 92.2987 195.577C92.1109 195.765 91.8563 195.87 91.5908 195.87C91.3254 195.87 91.0708 195.765 90.883 195.577C90.6953 195.389 90.5898 195.134 90.5898 194.869V192.69ZM91.2476 194.909C91.2476 195.212 91.3792 195.327 91.5908 195.327C91.8025 195.327 91.934 195.212 91.934 194.909V192.65C91.934 192.346 91.8025 192.232 91.5908 192.232C91.3792 192.232 91.2476 192.346 91.2476 192.65V194.909Z" fill="#131A43"/>
<path d="M90.5898 204.673C90.5898 204.408 90.6953 204.153 90.883 203.965C91.0708 203.777 91.3254 203.672 91.5908 203.672C91.8563 203.672 92.1109 203.777 92.2987 203.965C92.4864 204.153 92.5918 204.408 92.5918 204.673V206.852C92.5918 207.118 92.4864 207.372 92.2987 207.56C92.1109 207.748 91.8563 207.853 91.5908 207.853C91.3254 207.853 91.0708 207.748 90.883 207.56C90.6953 207.372 90.5898 207.118 90.5898 206.852V204.673ZM91.2476 206.892C91.2476 207.19 91.3792 207.304 91.5908 207.304C91.8025 207.304 91.934 207.19 91.934 206.892V204.604C91.934 204.307 91.8025 204.193 91.5908 204.193C91.3792 204.193 91.2476 204.307 91.2476 204.604V206.892Z" fill="#131A43"/>
<path d="M90.5898 210.662C90.5898 210.396 90.6953 210.142 90.883 209.954C91.0708 209.766 91.3254 209.661 91.5908 209.661C91.8563 209.661 92.1109 209.766 92.2987 209.954C92.4864 210.142 92.5918 210.396 92.5918 210.662V212.841C92.5918 213.107 92.4864 213.361 92.2987 213.549C92.1109 213.737 91.8563 213.842 91.5908 213.842C91.3254 213.842 91.0708 213.737 90.883 213.549C90.6953 213.361 90.5898 213.107 90.5898 212.841V210.662ZM91.2476 212.881C91.2476 213.184 91.3792 213.299 91.5908 213.299C91.8025 213.299 91.934 213.184 91.934 212.881V210.622C91.934 210.319 91.8025 210.21 91.5908 210.21C91.3792 210.21 91.2476 210.319 91.2476 210.622V212.881Z" fill="#131A43"/>
<path d="M91.0532 216.176C91.2184 216.196 91.3852 216.154 91.5201 216.056C91.6549 215.958 91.7476 215.813 91.7797 215.65H92.2201V219.837H91.5623V216.639H91.0532V216.176Z" fill="#131A43"/>
<path d="M90.5898 222.645C90.5898 222.38 90.6953 222.125 90.883 221.937C91.0708 221.75 91.3254 221.644 91.5908 221.644C91.8563 221.644 92.1109 221.75 92.2987 221.937C92.4864 222.125 92.5918 222.38 92.5918 222.645V224.825C92.5918 225.09 92.4864 225.345 92.2987 225.532C92.1109 225.72 91.8563 225.826 91.5908 225.826C91.3254 225.826 91.0708 225.72 90.883 225.532C90.6953 225.345 90.5898 225.09 90.5898 224.825V222.645ZM91.2476 224.865C91.2476 225.162 91.3792 225.276 91.5908 225.276C91.8025 225.276 91.934 225.162 91.934 224.865V222.577C91.934 222.279 91.8025 222.165 91.5908 222.165C91.3792 222.165 91.2476 222.279 91.2476 222.577V224.865Z" fill="#131A43"/>
<path d="M91.0532 228.154C91.2184 228.174 91.3852 228.131 91.5201 228.034C91.6549 227.936 91.7476 227.791 91.7797 227.627H92.2201V231.82H91.5623V228.623H91.0532V228.154Z" fill="#131A43"/>
<path d="M87.0322 162.734C87.0217 162.597 87.0398 162.458 87.0853 162.328C87.1307 162.198 87.2025 162.079 87.2962 161.978C87.3899 161.877 87.5035 161.796 87.6298 161.741C87.7561 161.686 87.8925 161.657 88.0303 161.657C88.1681 161.657 88.3045 161.686 88.4308 161.741C88.5571 161.796 88.6707 161.877 88.7644 161.978C88.8581 162.079 88.9299 162.198 88.9753 162.328C89.0208 162.458 89.0389 162.597 89.0284 162.734V164.913C89.0389 165.051 89.0208 165.189 88.9753 165.319C88.9299 165.449 88.8581 165.568 88.7644 165.669C88.6707 165.771 88.5571 165.851 88.4308 165.906C88.3045 165.961 88.1681 165.99 88.0303 165.99C87.8925 165.99 87.7561 165.961 87.6298 165.906C87.5035 165.851 87.3899 165.771 87.2962 165.669C87.2025 165.568 87.1307 165.449 87.0853 165.319C87.0398 165.189 87.0217 165.051 87.0322 164.913V162.734ZM87.69 164.959C87.69 165.257 87.8215 165.371 88.0274 165.371C88.2334 165.371 88.3706 165.257 88.3706 164.959V162.671C88.3706 162.374 88.2391 162.259 88.0274 162.259C87.8158 162.259 87.69 162.374 87.69 162.671V164.959Z" fill="#131A43"/>
<path d="M87.4897 174.237C87.6549 174.257 87.8218 174.215 87.9566 174.117C88.0914 174.019 88.1842 173.874 88.2162 173.711H88.6566V177.892H88.016V174.695H87.5069L87.4897 174.237Z" fill="#131A43"/>
<path d="M87.4897 186.22C87.6549 186.241 87.8218 186.198 87.9566 186.1C88.0914 186.003 88.1842 185.857 88.2162 185.694H88.6566V189.904H88.016V186.707H87.5069L87.4897 186.22Z" fill="#131A43"/>
<path d="M87.0322 192.69C87.0217 192.552 87.0398 192.414 87.0853 192.284C87.1307 192.154 87.2025 192.035 87.2962 191.933C87.3899 191.832 87.5035 191.752 87.6298 191.697C87.7561 191.641 87.8925 191.613 88.0303 191.613C88.1681 191.613 88.3045 191.641 88.4308 191.697C88.5571 191.752 88.6707 191.832 88.7644 191.933C88.8581 192.035 88.9299 192.154 88.9753 192.284C89.0208 192.414 89.0389 192.552 89.0284 192.69V194.869C89.0389 195.006 89.0208 195.145 88.9753 195.275C88.9299 195.405 88.8581 195.524 88.7644 195.625C88.6707 195.726 88.5571 195.807 88.4308 195.862C88.3045 195.917 88.1681 195.946 88.0303 195.946C87.8925 195.946 87.7561 195.917 87.6298 195.862C87.5035 195.807 87.3899 195.726 87.2962 195.625C87.2025 195.524 87.1307 195.405 87.0853 195.275C87.0398 195.145 87.0217 195.006 87.0322 194.869V192.69ZM87.69 194.915C87.69 195.212 87.8215 195.327 88.0274 195.327C88.2334 195.327 88.3706 195.212 88.3706 194.915V192.627C88.3706 192.324 88.2391 192.215 88.0274 192.215C87.8158 192.215 87.69 192.324 87.69 192.627V194.915Z" fill="#131A43"/>
<path d="M87.4897 210.181C87.6549 210.202 87.8218 210.159 87.9566 210.061C88.0914 209.964 88.1842 209.819 88.2162 209.655H88.6566V213.848H88.016V210.65H87.5069L87.4897 210.181Z" fill="#131A43"/>
<path d="M87.4897 216.176C87.6549 216.196 87.8218 216.154 87.9566 216.056C88.0914 215.958 88.1842 215.813 88.2162 215.65H88.6566V219.837H88.016V216.639H87.5069L87.4897 216.176Z" fill="#131A43"/>
<path d="M87.4897 222.165C87.6549 222.185 87.8218 222.142 87.9566 222.045C88.0914 221.947 88.1842 221.802 88.2162 221.639H88.6566V225.831H88.016V222.634H87.5069L87.4897 222.165Z" fill="#131A43"/>
<path d="M199.047 18.6529C199.047 18.3874 199.152 18.1328 199.34 17.9451C199.528 17.7574 199.782 17.6519 200.048 17.6519C200.313 17.6519 200.568 17.7574 200.756 17.9451C200.943 18.1328 201.049 18.3874 201.049 18.6529V20.8322C201.049 21.0977 200.943 21.3523 200.756 21.5401C200.568 21.7278 200.313 21.8332 200.048 21.8332C199.782 21.8332 199.528 21.7278 199.34 21.5401C199.152 21.3523 199.047 21.0977 199.047 20.8322V18.6529ZM199.705 20.8723C199.705 21.1697 199.836 21.2841 200.048 21.2841C200.26 21.2841 200.385 21.1697 200.385 20.8723V18.5843C200.385 18.2868 200.254 18.1724 200.048 18.1724C199.842 18.1724 199.705 18.2868 199.705 18.5843V20.8723Z" fill="#131A43"/>
<path d="M199.047 24.6418C199.047 24.3763 199.152 24.1217 199.34 23.9339C199.528 23.7462 199.782 23.6408 200.048 23.6408C200.313 23.6408 200.568 23.7462 200.756 23.9339C200.943 24.1217 201.049 24.3763 201.049 24.6418V26.8211C201.049 27.0866 200.943 27.3412 200.756 27.5289C200.568 27.7166 200.313 27.8221 200.048 27.8221C199.782 27.8221 199.528 27.7166 199.34 27.5289C199.152 27.3412 199.047 27.0866 199.047 26.8211V24.6418ZM199.705 26.884C199.705 27.1872 199.836 27.3016 200.048 27.3016C200.26 27.3016 200.385 27.1872 200.385 26.884V24.596C200.385 24.2928 200.254 24.1784 200.048 24.1784C199.842 24.1784 199.705 24.2928 199.705 24.596V26.884Z" fill="#131A43"/>
<path d="M199.51 42.1335C199.675 42.1538 199.841 42.1107 199.975 42.013C200.109 41.9152 200.2 41.7702 200.231 41.6073H200.7V45.8H200.042V42.6026H199.533L199.51 42.1335Z" fill="#131A43"/>
<path d="M199.51 48.1281C199.675 48.1484 199.841 48.1053 199.975 48.0076C200.109 47.9098 200.2 47.7647 200.231 47.6018H200.7V51.7889H200.042V48.62H199.533L199.51 48.1281Z" fill="#131A43"/>
<path d="M199.047 66.5751C199.047 66.3096 199.152 66.055 199.34 65.8673C199.528 65.6795 199.782 65.5741 200.048 65.5741C200.313 65.5741 200.568 65.6795 200.756 65.8673C200.943 66.055 201.049 66.3096 201.049 66.5751V68.7544C201.049 69.0199 200.943 69.2745 200.756 69.4622C200.568 69.6499 200.313 69.7554 200.048 69.7554C199.782 69.7554 199.528 69.6499 199.34 69.4622C199.152 69.2745 199.047 69.0199 199.047 68.7544V66.5751ZM199.705 68.8002C199.705 69.0976 199.836 69.212 200.048 69.212C200.26 69.212 200.385 69.0976 200.385 68.8002V66.5122C200.385 66.2147 200.254 66.1003 200.048 66.1003C199.842 66.1003 199.705 66.2147 199.705 66.5122V68.8002Z" fill="#131A43"/>
<path d="M199.047 78.5585C199.047 78.293 199.152 78.0384 199.34 77.8507C199.528 77.6629 199.782 77.5575 200.048 77.5575C200.313 77.5575 200.568 77.6629 200.756 77.8507C200.943 78.0384 201.049 78.293 201.049 78.5585V80.7378C201.049 81.0033 200.943 81.2579 200.756 81.4456C200.568 81.6333 200.313 81.7388 200.048 81.7388C199.782 81.7388 199.528 81.6333 199.34 81.4456C199.152 81.2579 199.047 81.0033 199.047 80.7378V78.5585ZM199.705 80.7778C199.705 81.081 199.836 81.1954 200.048 81.1954C200.26 81.1954 200.385 81.081 200.385 80.7778V78.5184C200.385 78.2153 200.254 78.1066 200.048 78.1066C199.842 78.1066 199.705 78.2153 199.705 78.5184V80.7778Z" fill="#131A43"/>
<path d="M188.362 30.6306C188.362 30.3651 188.467 30.1105 188.655 29.9228C188.843 29.7351 189.097 29.6296 189.363 29.6296C189.628 29.6296 189.883 29.7351 190.071 29.9228C190.258 30.1105 190.364 30.3651 190.364 30.6306V32.8099C190.364 33.0754 190.258 33.33 190.071 33.5177C189.883 33.7055 189.628 33.8109 189.363 33.8109C189.097 33.8109 188.843 33.7055 188.655 33.5177C188.467 33.33 188.362 33.0754 188.362 32.8099V30.6306ZM189.02 32.8557C189.02 33.1531 189.151 33.2675 189.363 33.2675C189.574 33.2675 189.7 33.1531 189.7 32.8557V30.5677C189.7 30.2702 189.569 30.1558 189.363 30.1558C189.157 30.1558 189.02 30.2702 189.02 30.5677V32.8557Z" fill="#131A43"/>
<path d="M188.362 36.608C188.362 36.3425 188.467 36.0879 188.655 35.9002C188.843 35.7125 189.097 35.607 189.363 35.607C189.628 35.607 189.883 35.7125 190.071 35.9002C190.258 36.0879 190.364 36.3425 190.364 36.608V38.7873C190.364 39.0528 190.258 39.3074 190.071 39.4951C189.883 39.6829 189.628 39.7883 189.363 39.7883C189.097 39.7883 188.843 39.6829 188.655 39.4951C188.467 39.3074 188.362 39.0528 188.362 38.7873V36.608ZM189.02 38.8274C189.02 39.1248 189.151 39.2392 189.363 39.2392C189.574 39.2392 189.7 39.1248 189.7 38.8274V36.608C189.7 36.3106 189.569 36.1962 189.363 36.1962C189.157 36.1962 189.02 36.3106 189.02 36.608V38.8274Z" fill="#131A43"/>
<path d="M188.362 42.614C188.362 42.3485 188.467 42.0939 188.655 41.9062C188.843 41.7185 189.097 41.613 189.363 41.613C189.628 41.613 189.883 41.7185 190.071 41.9062C190.258 42.0939 190.364 42.3485 190.364 42.614V44.7933C190.364 45.0588 190.258 45.3134 190.071 45.5011C189.883 45.6889 189.628 45.7943 189.363 45.7943C189.097 45.7943 188.843 45.6889 188.655 45.5011C188.467 45.3134 188.362 45.0588 188.362 44.7933V42.614ZM189.02 44.8333C189.02 45.1365 189.151 45.2509 189.363 45.2509C189.574 45.2509 189.7 45.1365 189.7 44.8333V42.574C189.7 42.2708 189.569 42.1564 189.363 42.1564C189.157 42.1564 189.02 42.2708 189.02 42.574V44.8333Z" fill="#131A43"/>
<path d="M188.825 48.1281C188.99 48.1484 189.156 48.1053 189.29 48.0076C189.424 47.9098 189.515 47.7647 189.546 47.6018H189.992V51.7889H189.334V48.62H188.825V48.1281Z" fill="#131A43"/>
<path d="M188.825 60.1058C188.99 60.1261 189.156 60.083 189.29 59.9852C189.424 59.8875 189.515 59.7424 189.546 59.5795H189.992V63.7723H189.334V60.5748H188.825V60.1058Z" fill="#131A43"/>
<path d="M188.825 66.1003C188.99 66.1206 189.156 66.0776 189.29 65.9798C189.424 65.882 189.515 65.737 189.546 65.5741H189.992V69.784H189.334V66.5865H188.825V66.1003Z" fill="#131A43"/>
<path d="M188.362 78.5585C188.362 78.293 188.467 78.0384 188.655 77.8507C188.843 77.6629 189.097 77.5575 189.363 77.5575C189.628 77.5575 189.883 77.6629 190.071 77.8507C190.258 78.0384 190.364 78.293 190.364 78.5585V80.7378C190.364 81.0033 190.258 81.2579 190.071 81.4456C189.883 81.6333 189.628 81.7388 189.363 81.7388C189.097 81.7388 188.843 81.6333 188.655 81.4456C188.467 81.2579 188.362 81.0033 188.362 80.7378V78.5585ZM189.02 80.7778C189.02 81.081 189.151 81.1954 189.363 81.1954C189.574 81.1954 189.7 81.081 189.7 80.7778V78.5184C189.7 78.2153 189.569 78.1066 189.363 78.1066C189.157 78.1066 189.02 78.2153 189.02 78.5184V80.7778Z" fill="#131A43"/>
<path d="M188.825 84.084C188.99 84.1043 189.156 84.0612 189.29 83.9635C189.424 83.8657 189.515 83.7206 189.546 83.5578H189.992V87.7448H189.334V84.5473H188.825V84.084Z" fill="#131A43"/>
<path d="M195.483 18.6529C195.483 18.3874 195.589 18.1328 195.777 17.9451C195.964 17.7574 196.219 17.6519 196.484 17.6519C196.75 17.6519 197.004 17.7574 197.192 17.9451C197.38 18.1328 197.485 18.3874 197.485 18.6529V20.8322C197.485 21.0977 197.38 21.3523 197.192 21.5401C197.004 21.7278 196.75 21.8332 196.484 21.8332C196.219 21.8332 195.964 21.7278 195.777 21.5401C195.589 21.3523 195.483 21.0977 195.483 20.8322V18.6529ZM196.124 20.8723C196.124 21.1697 196.256 21.2841 196.462 21.2841C196.667 21.2841 196.805 21.1697 196.805 20.8723V18.5843C196.805 18.2868 196.673 18.1724 196.462 18.1724C196.25 18.1724 196.124 18.2868 196.124 18.5843V20.8723Z" fill="#131A43"/>
<path d="M195.946 24.1613C196.111 24.1818 196.278 24.1388 196.413 24.0412C196.548 23.9435 196.641 23.7984 196.673 23.635H197.113V27.8278H196.455V24.6303H195.946V24.1613Z" fill="#131A43"/>
<path d="M195.483 30.6306C195.483 30.3651 195.589 30.1105 195.777 29.9228C195.964 29.7351 196.219 29.6296 196.484 29.6296C196.75 29.6296 197.004 29.7351 197.192 29.9228C197.38 30.1105 197.485 30.3651 197.485 30.6306V32.8099C197.485 33.0754 197.38 33.33 197.192 33.5177C197.004 33.7055 196.75 33.8109 196.484 33.8109C196.219 33.8109 195.964 33.7055 195.777 33.5177C195.589 33.33 195.483 33.0754 195.483 32.8099V30.6306ZM196.124 32.8557C196.124 33.1531 196.256 33.2675 196.462 33.2675C196.667 33.2675 196.805 33.1531 196.805 32.8557V30.5677C196.805 30.2702 196.673 30.1558 196.462 30.1558C196.25 30.1558 196.124 30.2702 196.124 30.5677V32.8557Z" fill="#131A43"/>
<path d="M195.946 36.1447C196.111 36.1652 196.278 36.1222 196.413 36.0246C196.548 35.9269 196.641 35.7818 196.673 35.6184H197.113V39.8112H196.455V36.608H195.946V36.1447Z" fill="#131A43"/>
<path d="M195.946 42.1335C196.111 42.154 196.278 42.1111 196.413 42.0134C196.548 41.9158 196.641 41.7706 196.673 41.6073H197.113V45.8H196.455V42.6026H195.946V42.1335Z" fill="#131A43"/>
<path d="M195.946 48.1281C196.111 48.1486 196.278 48.1056 196.413 48.008C196.548 47.9103 196.641 47.7652 196.673 47.6018H197.113V51.7889H196.455V48.62H195.946V48.1281Z" fill="#131A43"/>
<path d="M195.483 54.5974C195.483 54.3319 195.589 54.0773 195.777 53.8896C195.964 53.7019 196.219 53.5964 196.484 53.5964C196.75 53.5964 197.004 53.7019 197.192 53.8896C197.38 54.0773 197.485 54.3319 197.485 54.5974V56.7767C197.485 57.0422 197.38 57.2968 197.192 57.4845C197.004 57.6722 196.75 57.7777 196.484 57.7777C196.219 57.7777 195.964 57.6722 195.777 57.4845C195.589 57.2968 195.483 57.0422 195.483 56.7767V54.5974ZM196.124 56.8168C196.124 57.1142 196.256 57.2286 196.462 57.2286C196.667 57.2286 196.805 57.1142 196.805 56.8168V54.5288C196.805 54.2313 196.673 54.1169 196.462 54.1169C196.25 54.1169 196.124 54.2313 196.124 54.5288V56.8168Z" fill="#131A43"/>
<path d="M195.483 60.5862C195.483 60.3208 195.589 60.0661 195.777 59.8784C195.964 59.6907 196.219 59.5852 196.484 59.5852C196.75 59.5852 197.004 59.6907 197.192 59.8784C197.38 60.0661 197.485 60.3208 197.485 60.5862V62.7656C197.485 63.031 197.38 63.2856 197.192 63.4734C197.004 63.6611 196.75 63.7666 196.484 63.7666C196.219 63.7666 195.964 63.6611 195.777 63.4734C195.589 63.2856 195.483 63.031 195.483 62.7656V60.5862ZM196.124 62.8056C196.124 63.1088 196.256 63.2232 196.462 63.2232C196.667 63.2232 196.805 63.1088 196.805 62.8056V60.5176C196.805 60.2144 196.673 60.1058 196.462 60.1058C196.25 60.1058 196.124 60.2144 196.124 60.5176V62.8056Z" fill="#131A43"/>
<path d="M192.383 24.1613C192.548 24.1818 192.715 24.1388 192.85 24.0412C192.984 23.9435 193.077 23.7984 193.109 23.635H193.55V27.8278H192.892V24.6303H192.383V24.1613Z" fill="#131A43"/>
<path d="M191.925 30.6306C191.915 30.4932 191.933 30.3551 191.978 30.225C192.024 30.0948 192.096 29.9755 192.189 29.8744C192.283 29.7734 192.397 29.6927 192.523 29.6376C192.649 29.5824 192.786 29.554 192.923 29.554C193.061 29.554 193.198 29.5824 193.324 29.6376C193.45 29.6927 193.564 29.7734 193.657 29.8744C193.751 29.9755 193.823 30.0948 193.868 30.225C193.914 30.3551 193.932 30.4932 193.921 30.6306V32.8099C193.932 32.9474 193.914 33.0854 193.868 33.2156C193.823 33.3457 193.751 33.465 193.657 33.5661C193.564 33.6672 193.45 33.7478 193.324 33.8029C193.198 33.8581 193.061 33.8865 192.923 33.8865C192.786 33.8865 192.649 33.8581 192.523 33.8029C192.397 33.7478 192.283 33.6672 192.189 33.5661C192.096 33.465 192.024 33.3457 191.978 33.2156C191.933 33.0854 191.915 32.9474 191.925 32.8099V30.6306ZM192.583 32.8557C192.583 33.1531 192.715 33.2675 192.92 33.2675C193.126 33.2675 193.264 33.1531 193.264 32.8557V30.5677C193.264 30.2702 193.132 30.1558 192.92 30.1558C192.709 30.1558 192.583 30.2702 192.583 30.5677V32.8557Z" fill="#131A43"/>
<path d="M191.925 36.608C191.915 36.4706 191.933 36.3325 191.978 36.2024C192.024 36.0722 192.096 35.9529 192.189 35.8518C192.283 35.7508 192.397 35.6701 192.523 35.615C192.649 35.5599 192.786 35.5314 192.923 35.5314C193.061 35.5314 193.198 35.5599 193.324 35.615C193.45 35.6701 193.564 35.7508 193.657 35.8518C193.751 35.9529 193.823 36.0722 193.868 36.2024C193.914 36.3325 193.932 36.4706 193.921 36.608V38.7873C193.932 38.9248 193.914 39.0629 193.868 39.193C193.823 39.3231 193.751 39.4424 193.657 39.5435C193.564 39.6446 193.45 39.7252 193.324 39.7803C193.198 39.8355 193.061 39.8639 192.923 39.8639C192.786 39.8639 192.649 39.8355 192.523 39.7803C192.397 39.7252 192.283 39.6446 192.189 39.5435C192.096 39.4424 192.024 39.3231 191.978 39.193C191.933 39.0629 191.915 38.9248 191.925 38.7873V36.608ZM192.583 38.8274C192.583 39.1248 192.715 39.2392 192.92 39.2392C193.126 39.2392 193.264 39.1248 193.264 38.8274V36.608C193.264 36.3106 193.132 36.1962 192.92 36.1962C192.709 36.1962 192.583 36.3106 192.583 36.608V38.8274Z" fill="#131A43"/>
<path d="M192.383 42.1335C192.548 42.154 192.715 42.1111 192.85 42.0134C192.984 41.9158 193.077 41.7706 193.109 41.6073H193.55V45.8H192.892V42.6026H192.383V42.1335Z" fill="#131A43"/>
<path d="M192.383 54.1169C192.548 54.1374 192.715 54.0945 192.85 53.9968C192.984 53.8992 193.077 53.754 193.109 53.5907H193.55V57.772H192.892V54.586H192.383V54.1169Z" fill="#131A43"/>
<path d="M192.383 60.1058C192.548 60.1262 192.715 60.0833 192.85 59.9857C192.984 59.888 193.077 59.7429 193.109 59.5795H193.55V63.7723H192.892V60.5748H192.383V60.1058Z" fill="#131A43"/>
<path d="M192.383 66.1003C192.548 66.1208 192.715 66.0779 192.85 65.9802C192.984 65.8826 193.077 65.7374 193.109 65.5741H193.55V69.784H192.892V66.5865H192.383V66.1003Z" fill="#131A43"/>
<path d="M31.3877 84.982C31.3877 84.7166 31.4932 84.4619 31.6809 84.2742C31.8686 84.0865 32.1232 83.981 32.3887 83.981C32.6542 83.981 32.9088 84.0865 33.0965 84.2742C33.2842 84.4619 33.3897 84.7166 33.3897 84.982V87.1671C33.3897 87.4326 33.2842 87.6872 33.0965 87.8749C32.9088 88.0626 32.6542 88.1681 32.3887 88.1681C32.1232 88.1681 31.8686 88.0626 31.6809 87.8749C31.4932 87.6872 31.3877 87.4326 31.3877 87.1671V84.982ZM32.0455 87.2071C32.0455 87.5046 32.1771 87.619 32.3887 87.619C32.6003 87.619 32.7262 87.5046 32.7262 87.2071V84.9191C32.7262 84.6217 32.5946 84.5073 32.3887 84.5073C32.1828 84.5073 32.0455 84.6217 32.0455 84.9191V87.2071Z" fill="#131A43"/>
<path d="M31.3877 90.9766C31.3877 90.7111 31.4932 90.4565 31.6809 90.2688C31.8686 90.0811 32.1232 89.9756 32.3887 89.9756C32.6542 89.9756 32.9088 90.0811 33.0965 90.2688C33.2842 90.4565 33.3897 90.7111 33.3897 90.9766V93.1559C33.3897 93.4214 33.2842 93.676 33.0965 93.8637C32.9088 94.0515 32.6542 94.1569 32.3887 94.1569C32.1232 94.1569 31.8686 94.0515 31.6809 93.8637C31.4932 93.676 31.3877 93.4214 31.3877 93.1559V90.9766ZM32.0455 93.196C32.0455 93.4991 32.1771 93.6078 32.3887 93.6078C32.6003 93.6078 32.7262 93.4991 32.7262 93.196V90.908C32.7262 90.6105 32.5946 90.4961 32.3887 90.4961C32.1828 90.4961 32.0455 90.6105 32.0455 90.908V93.196Z" fill="#131A43"/>
<path d="M31.8452 96.4849C32.0097 96.5053 32.1758 96.4622 32.3097 96.3644C32.4436 96.2667 32.5352 96.1216 32.5659 95.9587H33.0121V100.151H32.3543V96.954H31.8452V96.4849Z" fill="#131A43"/>
<path d="M31.3877 102.96C31.3877 102.695 31.4932 102.44 31.6809 102.252C31.8686 102.064 32.1232 101.959 32.3887 101.959C32.6542 101.959 32.9088 102.064 33.0965 102.252C33.2842 102.44 33.3897 102.695 33.3897 102.96V105.145C33.3897 105.411 33.2842 105.665 33.0965 105.853C32.9088 106.041 32.6542 106.146 32.3887 106.146C32.1232 106.146 31.8686 106.041 31.6809 105.853C31.4932 105.665 31.3877 105.411 31.3877 105.145V102.96ZM32.0455 105.185C32.0455 105.483 32.1771 105.597 32.3887 105.597C32.6003 105.597 32.7262 105.483 32.7262 105.185V102.897C32.7262 102.6 32.5946 102.485 32.3887 102.485C32.1828 102.485 32.0455 102.6 32.0455 102.897V105.185Z" fill="#131A43"/>
<path d="M31.8452 108.468C32.0097 108.489 32.1758 108.446 32.3097 108.348C32.4436 108.25 32.5352 108.105 32.5659 107.942H33.0121V112.112H32.3543V108.915H31.8452V108.468Z" fill="#131A43"/>
<path d="M31.3877 114.938C31.3877 114.672 31.4932 114.418 31.6809 114.23C31.8686 114.042 32.1232 113.937 32.3887 113.937C32.6542 113.937 32.9088 114.042 33.0965 114.23C33.2842 114.418 33.3897 114.672 33.3897 114.938V117.117C33.3897 117.382 33.2842 117.637 33.0965 117.825C32.9088 118.013 32.6542 118.118 32.3887 118.118C32.1232 118.118 31.8686 118.013 31.6809 117.825C31.4932 117.637 31.3877 117.382 31.3877 117.117V114.938ZM32.0455 117.163C32.0455 117.46 32.1771 117.575 32.3887 117.575C32.6003 117.575 32.7262 117.46 32.7262 117.163V114.875C32.7262 114.572 32.5946 114.463 32.3887 114.463C32.1828 114.463 32.0455 114.572 32.0455 114.875V117.163Z" fill="#131A43"/>
<path d="M31.8452 120.452C32.0097 120.472 32.1758 120.429 32.3097 120.331C32.4436 120.233 32.5352 120.088 32.5659 119.926H33.0121V124.124H32.3543V120.927H31.8452V120.452Z" fill="#131A43"/>
<path d="M31.3877 126.921C31.3877 126.656 31.4932 126.401 31.6809 126.213C31.8686 126.026 32.1232 125.92 32.3887 125.92C32.6542 125.92 32.9088 126.026 33.0965 126.213C33.2842 126.401 33.3897 126.656 33.3897 126.921V129.1C33.3897 129.366 33.2842 129.62 33.0965 129.808C32.9088 129.996 32.6542 130.101 32.3887 130.101C32.1232 130.101 31.8686 129.996 31.6809 129.808C31.4932 129.62 31.3877 129.366 31.3877 129.1V126.921ZM32.0455 129.14C32.0455 129.444 32.1771 129.552 32.3887 129.552C32.6003 129.552 32.7262 129.444 32.7262 129.14V126.852C32.7262 126.555 32.5946 126.441 32.3887 126.441C32.1828 126.441 32.0455 126.555 32.0455 126.852V129.14Z" fill="#131A43"/>
<path d="M31.3877 132.91C31.3877 132.644 31.4932 132.39 31.6809 132.202C31.8686 132.014 32.1232 131.909 32.3887 131.909C32.6542 131.909 32.9088 132.014 33.0965 132.202C33.2842 132.39 33.3897 132.644 33.3897 132.91V135.089C33.3897 135.355 33.2842 135.609 33.0965 135.797C32.9088 135.985 32.6542 136.09 32.3887 136.09C32.1232 136.09 31.8686 135.985 31.6809 135.797C31.4932 135.609 31.3877 135.355 31.3877 135.089V132.91ZM32.0455 135.135C32.0455 135.432 32.1771 135.547 32.3887 135.547C32.6003 135.547 32.7262 135.432 32.7262 135.135V132.847C32.7262 132.55 32.5946 132.435 32.3887 132.435C32.1828 132.435 32.0455 132.55 32.0455 132.847V135.135Z" fill="#131A43"/>
<path d="M31.3877 138.904C31.3877 138.639 31.4932 138.384 31.6809 138.197C31.8686 138.009 32.1232 137.903 32.3887 137.903C32.6542 137.903 32.9088 138.009 33.0965 138.197C33.2842 138.384 33.3897 138.639 33.3897 138.904V141.084C33.3897 141.349 33.2842 141.604 33.0965 141.792C32.9088 141.979 32.6542 142.085 32.3887 142.085C32.1232 142.085 31.8686 141.979 31.6809 141.792C31.4932 141.604 31.3877 141.349 31.3877 141.084V138.904ZM32.0455 141.124C32.0455 141.421 32.1771 141.536 32.3887 141.536C32.6003 141.536 32.7262 141.421 32.7262 141.124V138.836C32.7262 138.538 32.5946 138.424 32.3887 138.424C32.1828 138.424 32.0455 138.538 32.0455 138.836V141.124Z" fill="#131A43"/>
<path d="M31.8452 150.402C32.01 150.423 32.1768 150.381 32.311 150.283C32.4452 150.185 32.5365 150.039 32.5659 149.875H33.0121V154.068H32.3543V150.871H31.8452V150.402Z" fill="#131A43"/>
<path d="M35.3916 108.468C35.5568 108.489 35.7236 108.446 35.8584 108.348C35.9932 108.251 36.086 108.105 36.118 107.942H36.5585V112.112H35.9121V108.915H35.3916V108.468Z" fill="#131A43"/>
<path d="M35.3916 114.457C35.5568 114.478 35.7236 114.435 35.8584 114.337C35.9932 114.239 36.086 114.094 36.118 113.931H36.5585V118.124H35.9121V114.926H35.3916V114.457Z" fill="#131A43"/>
<path d="M34.9457 120.927C34.9353 120.789 34.9534 120.651 34.9988 120.521C35.0443 120.391 35.1161 120.271 35.2098 120.17C35.3035 120.069 35.4171 119.989 35.5434 119.934C35.6697 119.878 35.806 119.85 35.9439 119.85C36.0817 119.85 36.218 119.878 36.3443 119.934C36.4707 119.989 36.5842 120.069 36.6779 120.17C36.7716 120.271 36.8435 120.391 36.8889 120.521C36.9343 120.651 36.9524 120.789 36.942 120.927V123.112C36.9524 123.249 36.9343 123.387 36.8889 123.517C36.8435 123.647 36.7716 123.767 36.6779 123.868C36.5842 123.969 36.4707 124.049 36.3443 124.105C36.218 124.16 36.0817 124.188 35.9439 124.188C35.806 124.188 35.6697 124.16 35.5434 124.105C35.4171 124.049 35.3035 123.969 35.2098 123.868C35.1161 123.767 35.0443 123.647 34.9988 123.517C34.9534 123.387 34.9353 123.249 34.9457 123.112V120.927ZM35.6035 123.152C35.6035 123.449 35.7351 123.563 35.941 123.563C36.1469 123.563 36.2842 123.449 36.2842 123.152V120.864C36.2842 120.566 36.1526 120.452 35.941 120.452C35.7294 120.452 35.6035 120.566 35.6035 120.864V123.152Z" fill="#131A43"/>
<path d="M34.9457 126.921C34.9353 126.784 34.9534 126.646 34.9988 126.515C35.0443 126.385 35.1161 126.266 35.2098 126.165C35.3035 126.064 35.4171 125.983 35.5434 125.928C35.6697 125.873 35.806 125.844 35.9439 125.844C36.0817 125.844 36.218 125.873 36.3443 125.928C36.4707 125.983 36.5842 126.064 36.6779 126.165C36.7716 126.266 36.8435 126.385 36.8889 126.515C36.9343 126.646 36.9524 126.784 36.942 126.921V129.1C36.9524 129.238 36.9343 129.376 36.8889 129.506C36.8435 129.636 36.7716 129.755 36.6779 129.857C36.5842 129.958 36.4707 130.038 36.3443 130.093C36.218 130.149 36.0817 130.177 35.9439 130.177C35.806 130.177 35.6697 130.149 35.5434 130.093C35.4171 130.038 35.3035 129.958 35.2098 129.857C35.1161 129.755 35.0443 129.636 34.9988 129.506C34.9534 129.376 34.9353 129.238 34.9457 129.1V126.921ZM35.6035 129.14C35.6035 129.444 35.7351 129.552 35.941 129.552C36.1469 129.552 36.2842 129.444 36.2842 129.14V126.852C36.2842 126.555 36.1526 126.441 35.941 126.441C35.7294 126.441 35.6035 126.555 35.6035 126.852V129.14Z" fill="#131A43"/>
<path d="M35.3916 132.429C35.557 132.451 35.7245 132.409 35.8597 132.311C35.9948 132.213 36.0873 132.067 36.118 131.903H36.5585V136.096H35.9121V132.898H35.3916V132.429Z" fill="#131A43"/>
<path d="M35.3916 144.413C35.5568 144.433 35.7236 144.39 35.8584 144.293C35.9932 144.195 36.086 144.05 36.118 143.887H36.5585V148.079H35.9121V144.882H35.3916V144.413Z" fill="#131A43"/>
<path d="M27.8184 102.96C27.8184 102.695 27.9238 102.44 28.1115 102.252C28.2993 102.064 28.5539 101.959 28.8194 101.959C29.0848 101.959 29.3395 102.064 29.5272 102.252C29.7149 102.44 29.8204 102.695 29.8204 102.96V105.145C29.8204 105.411 29.7149 105.665 29.5272 105.853C29.3395 106.041 29.0848 106.146 28.8194 106.146C28.5539 106.146 28.2993 106.041 28.1115 105.853C27.9238 105.665 27.8184 105.411 27.8184 105.145V102.96ZM28.4819 105.185C28.4819 105.483 28.6134 105.597 28.8194 105.597C29.0253 105.597 29.1626 105.483 29.1626 105.185V102.897C29.1626 102.6 29.031 102.485 28.8194 102.485C28.6077 102.485 28.4819 102.6 28.4819 102.897V105.185Z" fill="#131A43"/>
<path d="M28.2817 108.468C28.4469 108.489 28.6138 108.446 28.7486 108.348C28.8834 108.251 28.9762 108.105 29.0082 107.942H29.4486V112.112H28.7908V108.915H28.2817V108.468Z" fill="#131A43"/>
<path d="M28.2817 114.457C28.4469 114.478 28.6138 114.435 28.7486 114.337C28.8834 114.239 28.9762 114.094 29.0082 113.931H29.4486V118.124H28.7908V114.926H28.2817V114.457Z" fill="#131A43"/>
<path d="M27.8184 120.927C27.8184 120.661 27.9238 120.406 28.1115 120.219C28.2993 120.031 28.5539 119.926 28.8194 119.926C29.0848 119.926 29.3395 120.031 29.5272 120.219C29.7149 120.406 29.8204 120.661 29.8204 120.927V123.112C29.8204 123.377 29.7149 123.632 29.5272 123.819C29.3395 124.007 29.0848 124.113 28.8194 124.113C28.5539 124.113 28.2993 124.007 28.1115 123.819C27.9238 123.632 27.8184 123.377 27.8184 123.112V120.927ZM28.4819 123.152C28.4819 123.449 28.6134 123.563 28.8194 123.563C29.0253 123.563 29.1626 123.449 29.1626 123.152V120.864C29.1626 120.566 29.031 120.452 28.8194 120.452C28.6077 120.452 28.4819 120.566 28.4819 120.864V123.152Z" fill="#131A43"/>
<path d="M28.2817 126.441C28.4469 126.461 28.6138 126.418 28.7486 126.321C28.8834 126.223 28.9762 126.078 29.0082 125.914H29.4486V130.107H28.7908V126.91H28.2817V126.441Z" fill="#131A43"/>
<path d="M27.8184 132.91C27.8184 132.644 27.9238 132.39 28.1115 132.202C28.2993 132.014 28.5539 131.909 28.8194 131.909C29.0848 131.909 29.3395 132.014 29.5272 132.202C29.7149 132.39 29.8204 132.644 29.8204 132.91V135.089C29.8204 135.355 29.7149 135.609 29.5272 135.797C29.3395 135.985 29.0848 136.09 28.8194 136.09C28.5539 136.09 28.2993 135.985 28.1115 135.797C27.9238 135.609 27.8184 135.355 27.8184 135.089V132.91ZM28.4819 135.135C28.4819 135.432 28.6134 135.547 28.8194 135.547C29.0253 135.547 29.1626 135.432 29.1626 135.135V132.847C29.1626 132.55 29.031 132.435 28.8194 132.435C28.6077 132.435 28.4819 132.55 28.4819 132.847V135.135Z" fill="#131A43"/>
<path d="M24.2607 90.9766C24.2503 90.8392 24.2683 90.7011 24.3138 90.5709C24.3592 90.4408 24.431 90.3215 24.5248 90.2204C24.6185 90.1194 24.732 90.0387 24.8583 89.9836C24.9846 89.9284 25.121 89.9 25.2588 89.9C25.3966 89.9 25.533 89.9284 25.6593 89.9836C25.7856 90.0387 25.8992 90.1194 25.9929 90.2204C26.0866 90.3215 26.1584 90.4408 26.2038 90.5709C26.2493 90.7011 26.2674 90.8392 26.257 90.9766V93.1559C26.2674 93.2933 26.2493 93.4315 26.2038 93.5616C26.1584 93.6917 26.0866 93.811 25.9929 93.9121C25.8992 94.0132 25.7856 94.0938 25.6593 94.1489C25.533 94.2041 25.3966 94.2325 25.2588 94.2325C25.121 94.2325 24.9846 94.2041 24.8583 94.1489C24.732 94.0938 24.6185 94.0132 24.5248 93.9121C24.431 93.811 24.3592 93.6917 24.3138 93.5616C24.2683 93.4315 24.2503 93.2933 24.2607 93.1559V90.9766ZM24.9185 93.196C24.9185 93.4991 25.05 93.6078 25.256 93.6078C25.4619 93.6078 25.5992 93.4991 25.5992 93.196V90.908C25.5992 90.6048 25.4676 90.4904 25.256 90.4904C25.0443 90.4904 24.9185 90.6048 24.9185 90.908V93.196Z" fill="#131A43"/>
<path d="M24.7183 102.48C24.8835 102.5 25.0503 102.457 25.1851 102.359C25.3199 102.262 25.4127 102.117 25.4447 101.953H25.8851V106.14H25.2273V102.96H24.7183V102.48Z" fill="#131A43"/>
<path d="M24.2607 108.949C24.2503 108.811 24.2683 108.673 24.3138 108.543C24.3592 108.413 24.431 108.294 24.5248 108.193C24.6185 108.092 24.732 108.011 24.8583 107.956C24.9846 107.901 25.121 107.872 25.2588 107.872C25.3966 107.872 25.533 107.901 25.6593 107.956C25.7856 108.011 25.8992 108.092 25.9929 108.193C26.0866 108.294 26.1584 108.413 26.2038 108.543C26.2493 108.673 26.2674 108.811 26.257 108.949V111.128C26.2674 111.266 26.2493 111.404 26.2038 111.534C26.1584 111.664 26.0866 111.783 25.9929 111.884C25.8992 111.985 25.7856 112.066 25.6593 112.121C25.533 112.176 25.3966 112.205 25.2588 112.205C25.121 112.205 24.9846 112.176 24.8583 112.121C24.732 112.066 24.6185 111.985 24.5248 111.884C24.431 111.783 24.3592 111.664 24.3138 111.534C24.2683 111.404 24.2503 111.266 24.2607 111.128V108.949ZM24.9185 111.168C24.9185 111.471 25.05 111.58 25.256 111.58C25.4619 111.58 25.5992 111.471 25.5992 111.168V108.909C25.5992 108.606 25.4676 108.491 25.256 108.491C25.0443 108.491 24.9185 108.606 24.9185 108.909V111.168Z" fill="#131A43"/>
<path d="M24.2607 120.932C24.2503 120.795 24.2683 120.657 24.3138 120.527C24.3592 120.396 24.431 120.277 24.5248 120.176C24.6185 120.075 24.732 119.994 24.8583 119.939C24.9846 119.884 25.121 119.856 25.2588 119.856C25.3966 119.856 25.533 119.884 25.6593 119.939C25.7856 119.994 25.8992 120.075 25.9929 120.176C26.0866 120.277 26.1584 120.396 26.2038 120.527C26.2493 120.657 26.2674 120.795 26.257 120.932V123.112C26.2674 123.249 26.2493 123.387 26.2038 123.517C26.1584 123.647 26.0866 123.767 25.9929 123.868C25.8992 123.969 25.7856 124.049 25.6593 124.105C25.533 124.16 25.3966 124.188 25.2588 124.188C25.121 124.188 24.9846 124.16 24.8583 124.105C24.732 124.049 24.6185 123.969 24.5248 123.868C24.431 123.767 24.3592 123.647 24.3138 123.517C24.2683 123.387 24.2503 123.249 24.2607 123.112V120.932ZM24.9185 123.152C24.9185 123.449 25.05 123.563 25.256 123.563C25.4619 123.563 25.5992 123.449 25.5992 123.152V120.864C25.5992 120.566 25.4676 120.452 25.256 120.452C25.0443 120.452 24.9185 120.566 24.9185 120.864V123.152Z" fill="#131A43"/>
<path d="M24.2607 126.921C24.2503 126.784 24.2683 126.646 24.3138 126.515C24.3592 126.385 24.431 126.266 24.5248 126.165C24.6185 126.064 24.732 125.983 24.8583 125.928C24.9846 125.873 25.121 125.844 25.2588 125.844C25.3966 125.844 25.533 125.873 25.6593 125.928C25.7856 125.983 25.8992 126.064 25.9929 126.165C26.0866 126.266 26.1584 126.385 26.2038 126.515C26.2493 126.646 26.2674 126.784 26.257 126.921V129.1C26.2674 129.238 26.2493 129.376 26.2038 129.506C26.1584 129.636 26.0866 129.755 25.9929 129.857C25.8992 129.958 25.7856 130.038 25.6593 130.093C25.533 130.149 25.3966 130.177 25.2588 130.177C25.121 130.177 24.9846 130.149 24.8583 130.093C24.732 130.038 24.6185 129.958 24.5248 129.857C24.431 129.755 24.3592 129.636 24.3138 129.506C24.2683 129.376 24.2503 129.238 24.2607 129.1V126.921ZM24.9185 129.14C24.9185 129.444 25.05 129.558 25.256 129.558C25.4619 129.558 25.5992 129.444 25.5992 129.14V126.852C25.5992 126.549 25.4676 126.435 25.256 126.435C25.0443 126.435 24.9185 126.549 24.9185 126.852V129.14Z" fill="#131A43"/>
<path d="M24.2607 132.91C24.2503 132.772 24.2683 132.634 24.3138 132.504C24.3592 132.374 24.431 132.255 24.5248 132.154C24.6185 132.053 24.732 131.972 24.8583 131.917C24.9846 131.862 25.121 131.833 25.2588 131.833C25.3966 131.833 25.533 131.862 25.6593 131.917C25.7856 131.972 25.8992 132.053 25.9929 132.154C26.0866 132.255 26.1584 132.374 26.2038 132.504C26.2493 132.634 26.2674 132.772 26.257 132.91V135.089C26.2674 135.227 26.2493 135.365 26.2038 135.495C26.1584 135.625 26.0866 135.744 25.9929 135.845C25.8992 135.946 25.7856 136.027 25.6593 136.082C25.533 136.137 25.3966 136.166 25.2588 136.166C25.121 136.166 24.9846 136.137 24.8583 136.082C24.732 136.027 24.6185 135.946 24.5248 135.845C24.431 135.744 24.3592 135.625 24.3138 135.495C24.2683 135.365 24.2503 135.227 24.2607 135.089V132.91ZM24.9185 135.135C24.9185 135.432 25.05 135.547 25.256 135.547C25.4619 135.547 25.5992 135.432 25.5992 135.135V132.847C25.5992 132.55 25.4676 132.435 25.256 132.435C25.0443 132.435 24.9185 132.55 24.9185 132.847V135.135Z" fill="#131A43"/>
<path d="M24.7183 150.436C24.8843 150.456 25.0518 150.413 25.1868 150.314C25.3217 150.215 25.4139 150.068 25.4447 149.904H25.8851V154.097H25.2273V150.899H24.7183V150.436Z" fill="#131A43"/>
<path d="M225.37 146.781C206.677 139.213 205.322 113.187 205.322 113.187H209.326V110.076C218.815 110.076 225.37 104.19 225.37 104.19C225.37 104.19 231.925 110.076 241.415 110.076V113.187H245.419C245.419 113.187 244.058 139.213 225.37 146.781Z" stroke="#131A43" stroke-width="1.10721" stroke-linecap="round" stroke-linejoin="round"/>
<path d="M225.37 143.343C213.124 137.623 209.577 122.431 208.599 115.887H212.26V112.615C216.966 112.034 221.464 110.327 225.37 107.639C229.279 110.327 233.778 112.034 238.486 112.615V115.887H242.135C241.146 122.408 237.577 137.623 225.37 143.343Z" stroke="#131A43" stroke-width="1.10721" stroke-linecap="round" stroke-linejoin="round"/>
<path d="M231.971 121.819H218.764C218.337 121.819 217.992 122.165 217.992 122.591V130.525C217.992 130.951 218.337 131.297 218.764 131.297H231.971C232.398 131.297 232.744 130.951 232.744 130.525V122.591C232.744 122.165 232.398 121.819 231.971 121.819Z" fill="#131A43"/>
<path d="M225.633 113.828C224.916 113.793 224.199 113.904 223.526 114.155C222.852 114.405 222.237 114.79 221.717 115.285C221.196 115.78 220.782 116.376 220.498 117.036C220.215 117.696 220.069 118.406 220.068 119.125V119.697C220.068 119.746 220.078 119.794 220.096 119.839C220.115 119.884 220.142 119.925 220.177 119.96C220.211 119.994 220.252 120.022 220.297 120.04C220.343 120.059 220.391 120.069 220.44 120.069H221.778C221.827 120.069 221.875 120.059 221.92 120.04C221.966 120.022 222.007 119.994 222.041 119.96C222.076 119.925 222.103 119.884 222.122 119.839C222.14 119.794 222.15 119.746 222.15 119.697V119.256C222.139 118.427 222.442 117.625 222.998 117.01C223.554 116.395 224.321 116.012 225.147 115.939C225.587 115.91 226.027 115.971 226.442 116.119C226.857 116.267 227.237 116.499 227.558 116.8C227.88 117.101 228.136 117.464 228.312 117.868C228.488 118.272 228.579 118.707 228.579 119.148V119.72C228.579 119.818 228.618 119.913 228.688 119.982C228.758 120.052 228.852 120.091 228.951 120.091H230.29C230.388 120.091 230.483 120.052 230.552 119.982C230.622 119.913 230.661 119.818 230.661 119.72V119.319C230.687 117.934 230.179 116.592 229.244 115.57C228.308 114.548 227.016 113.925 225.633 113.828Z" fill="#131A43"/>
<path d="M226.755 125.497C226.755 125.25 226.69 125.007 226.565 124.793C226.44 124.58 226.26 124.404 226.044 124.284C225.828 124.164 225.583 124.104 225.336 124.11C225.089 124.116 224.848 124.188 224.638 124.319C224.428 124.45 224.257 124.635 224.143 124.854C224.029 125.073 223.975 125.319 223.988 125.566C224.001 125.813 224.08 126.052 224.216 126.258C224.353 126.464 224.542 126.63 224.764 126.738L224.261 128.963H226.475L225.971 126.738C226.205 126.625 226.402 126.449 226.54 126.229C226.679 126.01 226.753 125.756 226.755 125.497Z" fill="white" stroke="#131A43" stroke-width="1.10721" stroke-linecap="round" stroke-linejoin="round"/>
<path d="M166.311 27.5246H121.146C120.097 27.5246 119.247 28.3749 119.247 29.4237V54.8548C119.247 55.9036 120.097 56.7538 121.146 56.7538H166.311C167.36 56.7538 168.21 55.9036 168.21 54.8548V29.4237C168.21 28.3749 167.36 27.5246 166.311 27.5246Z" stroke="#131A43" stroke-width="1.10721" stroke-linecap="round" stroke-linejoin="round"/>
<path d="M123.806 52.6698H137.975C138.338 52.6698 138.632 52.3753 138.632 52.012V32.2722C138.632 31.909 138.338 31.6144 137.975 31.6144L123.806 31.6144C123.443 31.6144 123.148 31.909 123.148 32.2722V52.012C123.148 52.3753 123.443 52.6698 123.806 52.6698Z" stroke="#131A43" stroke-width="1.10721" stroke-linecap="round" stroke-linejoin="round"/>
<path d="M130.916 52.664H123.846C123.661 52.664 123.483 52.5905 123.352 52.4596C123.221 52.3288 123.148 52.1513 123.148 51.9662V47.1042C123.148 47.1042 127.1 46.9326 127.764 46.0918C128.428 45.2509 127.695 43.9353 127.695 43.9353C127.455 43.6379 127.398 41.5272 127.398 41.5272L127.158 41.4643C126.923 41.4071 126.586 39.6568 126.586 38.999C126.585 38.8095 126.639 38.6238 126.74 38.4637C126.841 38.3036 126.986 38.1758 127.158 38.0952C127.158 38.0952 126.586 33.8281 130.893 33.8281C135.2 33.8281 134.622 38.0952 134.622 38.0952C134.794 38.1758 134.939 38.3036 135.04 38.4637C135.141 38.6238 135.195 38.8095 135.194 38.999C135.194 39.6568 134.885 41.4071 134.622 41.4643L134.382 41.5272C134.382 41.5272 134.325 43.6379 134.085 43.9353C134.085 43.9353 133.347 45.2509 134.016 46.0918C134.685 46.9326 138.632 47.1042 138.632 47.1042V51.9662C138.633 52.0581 138.615 52.1491 138.58 52.2341C138.546 52.3192 138.494 52.3964 138.429 52.4613C138.364 52.5263 138.287 52.5777 138.202 52.6125C138.117 52.6473 138.026 52.6648 137.934 52.664H130.916Z" fill="#131A43"/>
<path d="M163.302 52.767H153.681C153.49 52.7671 153.306 52.6923 153.17 52.5587C153.033 52.425 152.954 52.2432 152.949 52.052C152.949 51.8578 153.026 51.6716 153.164 51.5343C153.301 51.397 153.487 51.3198 153.681 51.3198H163.302C163.497 51.3198 163.683 51.397 163.82 51.5343C163.957 51.6716 164.035 51.8578 164.035 52.052C164.03 52.2432 163.951 52.425 163.814 52.5587C163.677 52.6923 163.494 52.7671 163.302 52.767Z" fill="#131A43"/>
<path d="M163.302 32.9758H143.357C143.162 32.9758 142.976 32.8987 142.839 32.7614C142.702 32.6241 142.625 32.4378 142.625 32.2436C142.625 32.0495 142.702 31.8632 142.839 31.7259C142.976 31.5886 143.162 31.5115 143.357 31.5115H163.302C163.496 31.5115 163.683 31.5886 163.82 31.7259C163.957 31.8632 164.034 32.0495 164.034 32.2436C164.034 32.4378 163.957 32.6241 163.82 32.7614C163.683 32.8987 163.496 32.9758 163.302 32.9758Z" fill="#131A43"/>
<path d="M154.797 37.9236H143.357C143.26 37.9236 143.163 37.9043 143.074 37.8668C142.984 37.8293 142.903 37.7743 142.835 37.7051C142.767 37.6359 142.713 37.5539 142.677 37.4637C142.641 37.3736 142.623 37.2771 142.625 37.18C142.625 36.9858 142.702 36.7996 142.839 36.6623C142.976 36.525 143.163 36.4478 143.357 36.4478H154.797C154.988 36.4523 155.17 36.5314 155.303 36.6683C155.437 36.8051 155.512 36.9888 155.512 37.18C155.515 37.3732 155.441 37.5598 155.307 37.6991C155.174 37.8384 154.99 37.9191 154.797 37.9236Z" fill="#131A43"/>
<path d="M151.153 42.9H143.357C143.162 42.9 142.976 42.8229 142.839 42.6856C142.702 42.5483 142.625 42.362 142.625 42.1678C142.625 41.9737 142.702 41.7874 142.839 41.6501C142.976 41.5128 143.162 41.4357 143.357 41.4357H151.153C151.347 41.4357 151.533 41.5128 151.671 41.6501C151.808 41.7874 151.885 41.9737 151.885 42.1678C151.885 42.362 151.808 42.5483 151.671 42.6856C151.533 42.8229 151.347 42.9 151.153 42.9Z" fill="#131A43"/>
<path d="M154.797 47.8192H143.357C143.163 47.8192 142.977 47.7421 142.839 47.6048C142.702 47.4675 142.625 47.2812 142.625 47.087C142.622 46.989 142.638 46.8913 142.674 46.7998C142.709 46.7083 142.763 46.6249 142.831 46.5545C142.899 46.484 142.981 46.4281 143.071 46.3898C143.162 46.3516 143.259 46.332 143.357 46.332H154.797C154.894 46.3342 154.989 46.3556 155.077 46.3948C155.166 46.434 155.245 46.4903 155.312 46.5605C155.378 46.6307 155.43 46.7134 155.465 46.8038C155.499 46.8941 155.515 46.9904 155.512 47.087C155.512 47.2783 155.437 47.462 155.304 47.5988C155.17 47.7356 154.988 47.8147 154.797 47.8192Z" fill="#131A43"/>
<path d="M73.2356 105.351V133.493L65.6623 141.067H45.5508V105.351H73.2356Z" stroke="#131A43" stroke-width="1.10721" stroke-linecap="round" stroke-linejoin="round"/>
<path d="M73.2354 133.493L65.6621 141.067V133.493H73.2354Z" fill="#131A43" stroke="#131A43" stroke-width="1.10721" stroke-linecap="round" stroke-linejoin="round"/>
<path d="M52.2944 109.904H69.0026" stroke="#131A43" stroke-width="1.10721" stroke-linecap="round" stroke-linejoin="round"/>
<path d="M49.7778 113.05H69.0028" stroke="#131A43" stroke-width="1.10721" stroke-linecap="round" stroke-linejoin="round"/>
<path d="M49.7778 116.196H69.0028" stroke="#131A43" stroke-width="1.10721" stroke-linecap="round" stroke-linejoin="round"/>
<path d="M49.7778 119.342H69.0028" stroke="#131A43" stroke-width="1.10721" stroke-linecap="round" stroke-linejoin="round"/>
<path d="M49.7778 122.488H69.0028" stroke="#131A43" stroke-width="1.10721" stroke-linecap="round" stroke-linejoin="round"/>
<path d="M49.7778 125.634H69.0028" stroke="#131A43" stroke-width="1.10721" stroke-linecap="round" stroke-linejoin="round"/>
<path d="M49.7778 128.774H69.0028" stroke="#131A43" stroke-width="1.10721" stroke-linecap="round" stroke-linejoin="round"/>
<path d="M49.7778 131.92H66.4917" stroke="#131A43" stroke-width="1.10721" stroke-linecap="round" stroke-linejoin="round"/>
<path d="M74.5513 109.904H77.7831V138.046L70.2155 145.62H50.104V142.291" stroke="#131A43" stroke-width="1.10721" stroke-linecap="round" stroke-linejoin="round"/>
<path d="M77.7829 138.046L70.2153 145.62V138.046H77.7829Z" fill="#131A43" stroke="#131A43" stroke-width="1.10721" stroke-linecap="round" stroke-linejoin="round"/>
<path d="M177.237 85.7828H110.221C108.882 85.7828 107.796 86.8687 107.796 88.2081V162.763C107.796 164.102 108.882 165.188 110.221 165.188H177.237C178.576 165.188 179.662 164.102 179.662 162.763V88.2081C179.662 86.8687 178.576 85.7828 177.237 85.7828Z" fill="#51B748" stroke="#131A43" stroke-width="1.10721" stroke-linecap="round" stroke-linejoin="round"/>
<g opacity="0.5">
<path d="M178.215 112.255H109.243" stroke="white" stroke-width="1.10721" stroke-linecap="round" stroke-linejoin="round"/>
<path d="M178.215 121.075H109.243" stroke="white" stroke-width="1.10721" stroke-linecap="round" stroke-linejoin="round"/>
<path d="M178.215 129.895H109.243" stroke="white" stroke-width="1.10721" stroke-linecap="round" stroke-linejoin="round"/>
<path d="M178.215 138.716H109.243" stroke="white" stroke-width="1.10721" stroke-linecap="round" stroke-linejoin="round"/>
<path d="M178.215 147.536H109.243" stroke="white" stroke-width="1.10721" stroke-linecap="round" stroke-linejoin="round"/>
<path d="M178.215 156.362H109.243" stroke="white" stroke-width="1.10721" stroke-linecap="round" stroke-linejoin="round"/>
<path d="M178.215 103.429H109.243" stroke="white" stroke-width="1.10721" stroke-linecap="round" stroke-linejoin="round"/>
<path d="M178.215 94.6088H109.243" stroke="white" stroke-width="1.10721" stroke-linecap="round" stroke-linejoin="round"/>
<path d="M161.736 163.769V87.1957" stroke="white" stroke-width="1.10721" stroke-linecap="round" stroke-linejoin="round"/>
<path d="M152.732 163.769V87.1957" stroke="white" stroke-width="1.10721" stroke-linecap="round" stroke-linejoin="round"/>
<path d="M143.729 163.769V87.1957" stroke="white" stroke-width="1.10721" stroke-linecap="round" stroke-linejoin="round"/>
<path d="M134.726 163.769V87.1957" stroke="white" stroke-width="1.10721" stroke-linecap="round" stroke-linejoin="round"/>
<path d="M125.723 163.769V87.1957" stroke="white" stroke-width="1.10721" stroke-linecap="round" stroke-linejoin="round"/>
<path d="M116.725 163.769V87.1957" stroke="white" stroke-width="1.10721" stroke-linecap="round" stroke-linejoin="round"/>
<path d="M170.739 163.769V87.1957" stroke="white" stroke-width="1.10721" stroke-linecap="round" stroke-linejoin="round"/>
</g>
<path d="M141.212 149.675C141.982 145.695 143.035 141.774 144.364 137.944C144.633 137.171 144.936 136.393 145.268 135.564C146.051 133.562 147.659 129.472 147.052 128.254C146.992 128.124 146.898 128.013 146.78 127.932C146.663 127.85 146.526 127.801 146.383 127.791C146.353 127.789 146.322 127.794 146.294 127.805C146.265 127.816 146.239 127.832 146.217 127.853C144.433 129.312 143.283 133.356 142.448 136.308L142.167 137.303C141.06 141.271 140.275 145.323 139.822 149.418" stroke="#131A43" stroke-width="1.10721" stroke-linecap="round" stroke-linejoin="round"/>
<path d="M143.861 149.864C144.6 146.117 145.6 142.427 146.852 138.819C147.104 138.081 147.424 137.309 147.727 136.496C148.98 133.31 150.536 129.364 149.415 127.104C149.136 126.541 148.708 126.065 148.178 125.728C147.647 125.391 147.034 125.206 146.406 125.194C145.742 125.187 145.098 125.416 144.587 125.84C142.167 127.813 140.943 132.132 139.96 135.598L139.679 136.588C138.572 140.522 137.782 144.539 137.317 148.6" stroke="#131A43" stroke-width="1.10721" stroke-linecap="round" stroke-linejoin="round"/>
<path d="M146.572 149.607C147.269 146.237 148.184 142.916 149.311 139.665C150.673 135.781 153.739 129.941 151.748 125.937C150.118 122.66 145.851 121.441 142.939 123.821C139.61 126.532 138.289 131.972 137.168 135.867C136.11 139.618 135.332 143.442 134.84 147.307" stroke="#131A43" stroke-width="1.10721" stroke-linecap="round" stroke-linejoin="round"/>
<path d="M149.421 148.817C150.043 146.011 150.83 143.243 151.777 140.529C152 139.883 152.286 139.162 152.589 138.39C154.214 134.254 156.239 129.1 154.082 124.765C153.37 123.334 152.276 122.128 150.922 121.28C149.567 120.432 148.004 119.975 146.406 119.96C144.541 119.954 142.732 120.599 141.292 121.785C137.597 124.799 136.144 129.998 134.937 134.168L134.663 135.135C133.699 138.531 132.967 141.988 132.472 145.482" stroke="#131A43" stroke-width="1.10721" stroke-linecap="round" stroke-linejoin="round"/>
<path d="M152.463 147.313C152.995 145.219 153.579 143.28 154.236 141.393C154.454 140.781 154.723 140.089 155.009 139.362C156.725 134.969 159.087 128.975 156.416 123.609C155.489 121.743 154.062 120.17 152.295 119.065C150.528 117.961 148.49 117.368 146.406 117.352C143.939 117.343 141.548 118.197 139.645 119.765C135.309 123.3 133.713 128.917 132.426 133.459L132.151 134.42C131.345 137.255 130.697 140.133 130.212 143.04" stroke="#131A43" stroke-width="1.10721" stroke-linecap="round" stroke-linejoin="round"/>
<path d="M155.604 144.767C156.176 140.58 159.55 135.615 159.882 129.81C160.185 124.49 158.435 121.081 157.194 119.371C156.899 118.949 156.711 118.462 156.647 117.952C156.584 117.441 156.645 116.923 156.828 116.442C157.657 114.005 157.629 111.357 156.748 108.937" stroke="#131A43" stroke-width="1.10721" stroke-linecap="round" stroke-linejoin="round"/>
<path d="M147.676 101.118C152.08 103.875 154.94 108.217 155.163 113.828C155.238 115.841 153.602 116.534 151.554 115.91C147.27 114.606 137.06 111.265 130.836 128.763C129.644 132.394 128.764 136.119 128.205 139.9" stroke="#131A43" stroke-width="1.10721" stroke-linecap="round" stroke-linejoin="round"/>
<path d="M138.924 101.404C141.673 101.367 144.389 102.003 146.835 103.257C151.016 105.505 153.647 110.791 152.303 112.135C150.81 113.628 148.036 110.024 139.553 113.502C135.475 115.172 132.581 118.576 130.613 122.442C129.725 124.208 128.976 126.04 128.371 127.922C127.582 130.342 126.932 132.806 126.426 135.301" stroke="#131A43" stroke-width="1.10721" stroke-linecap="round" stroke-linejoin="round"/>
<path d="M134.102 104.63C135.596 104.236 137.133 104.031 138.678 104.018C146.165 103.847 148.974 107.839 148.15 108.852C147.458 109.704 145.919 109.223 143.809 109.481C137.717 110.23 132.901 113.696 129.658 118.822C128.058 121.417 126.782 124.198 125.859 127.104C125.688 127.625 125.522 128.151 125.362 128.677" stroke="#131A43" stroke-width="1.10721" stroke-linecap="round" stroke-linejoin="round"/>
<path d="M130.573 108.937C133.069 106.922 136.211 105.881 139.416 106.009C140.366 106.009 142.711 106.318 143.026 107.216C143.443 108.394 139.634 106.792 134.114 110.47C127.038 115.189 126.18 119.662 126.18 119.662" stroke="#131A43" stroke-width="1.10721" stroke-linecap="round" stroke-linejoin="round"/>
<path d="M158.606 141.599C158.606 141.599 162.445 133.31 162.038 126.904C161.787 122.78 159.75 120.194 159.43 118.358C159.11 116.522 160.002 116.07 159.762 114.389" stroke="#131A43" stroke-width="1.10721" stroke-linecap="round" stroke-linejoin="round"/>
<path d="M112.635 102.582V90.8794H124.338" stroke="#131A43" stroke-width="1.10721" stroke-linecap="round" stroke-linejoin="round"/>
<path d="M124.338 160.091H112.635V148.388" stroke="#131A43" stroke-width="1.10721" stroke-linecap="round" stroke-linejoin="round"/>
<path d="M174.829 102.582V90.8794H163.125" stroke="#131A43" stroke-width="1.10721" stroke-linecap="round" stroke-linejoin="round"/>
<path d="M163.125 160.091H174.829V148.388" stroke="#131A43" stroke-width="1.10721" stroke-linecap="round" stroke-linejoin="round"/>
<path d="M224.541 267.696C221.487 263.12 218.283 258.292 215.652 254.294C212.289 249.198 209.864 245.474 209.864 245.474C208.577 239.451 206.752 237.088 204.916 232.14C203.08 227.193 204.595 222.783 205.356 216.656C206.117 210.53 204.916 204.822 204.275 200.949C203.634 197.077 204.384 193.422 204.275 192.564C204.166 191.706 200.511 187.187 199.127 183.852C198.5 182.365 197.624 180.995 196.536 179.802C195.334 178.427 193.831 177.348 192.143 176.651C191.44 176.374 190.706 176.182 189.958 176.079C188.242 175.833 186.858 176.107 185.473 176.107C183.534 176.107 179.45 172.778 176.762 172.246C176.263 172.147 175.759 172.077 175.252 172.035C173.027 171.823 170.676 172.035 168.073 172.241C165.471 172.447 162.445 169.981 160.008 169.209H159.968C159.429 169.021 158.854 168.958 158.286 169.026C155.707 169.455 150.85 169.884 150.85 169.884C150.85 169.884 150.421 166.555 150.204 162.036C150.164 161.253 150.107 160.497 150.038 159.748C149.786 156.957 149.386 154.463 149.323 152.181C149.323 151.609 149.323 150.997 149.323 150.425C149.535 147.21 149.437 144.705 149.323 139.762C149.323 139.597 149.323 139.419 149.323 139.242C149.323 137.703 149.323 136.233 149.232 134.906C149.054 131.686 148.339 129.306 145.136 128.814C142.339 128.385 140.406 129.781 139.222 134.409C138.038 139.036 137.18 138.71 136.859 145.482C136.539 152.255 135.023 156.568 135.24 160.006C135.458 163.443 134.703 170.113 134.703 170.113C133.416 169.466 132.232 170.004 132.009 170.542C131.786 171.079 130.836 176.353 130.075 180.117C129.412 183.463 126.363 186.558 125.242 188.863V188.914C125.122 189.163 125.022 189.422 124.944 189.687C124.298 192.055 124.624 197.123 124.624 203.563C124.624 210.004 123.011 216.685 124.624 220.981C124.968 221.856 125.448 222.671 126.048 223.395C128.525 226.455 133.073 229.115 137.208 233.994C142.356 240.126 146.028 244.644 149.466 246.692C151.931 248.145 153.012 249.335 153.47 250.902C153.65 251.582 153.744 252.281 153.75 252.984C153.796 254.357 154.54 255.404 155.798 257.143C157.761 259.802 159.484 262.632 160.946 265.597C162.325 268.359 164.435 273.605 166.666 279.416L224.541 267.696Z" fill="white"/>
<path opacity="0.4" d="M149.306 150.396C149.271 150.968 149.266 151.54 149.306 152.152C145.193 151.374 137.254 153.405 137.134 155.83C136.996 158.787 136.636 165.777 138.14 167.407C139.645 169.037 142.871 170.078 142.871 170.078C142.633 170.097 142.396 170.127 142.161 170.17H142.081C141.052 170.387 140.114 170.914 139.393 171.68C136.247 174.906 136.115 182.056 137.145 185.5C141.452 199.8 134.48 211.114 131.997 209.741C129.515 208.368 129.314 196.076 130.064 193.199C130.516 191.521 130.738 189.789 130.721 188.051C129.623 187.685 127.318 188.217 125.202 188.874V188.823C126.346 186.535 129.372 183.423 130.035 180.077C130.796 176.313 131.751 171.039 131.968 170.502C132.186 169.964 133.376 169.426 134.663 170.073C134.663 170.073 135.418 163.409 135.2 159.966C134.983 156.522 136.493 152.221 136.819 145.442C137.145 138.664 137.997 138.996 139.181 134.369C140.365 129.741 142.299 128.345 145.096 128.774C148.299 129.266 149.014 131.634 149.191 134.866C148.831 134.525 148.449 134.208 148.047 133.917C147.034 133.13 145.762 132.754 144.484 132.864C143.002 133.07 141.704 134.58 140.88 136.136C139.696 138.424 139.502 140.878 141.166 140.037C143.054 139.093 146.949 139.408 149.323 139.722C149.42 144.659 149.517 147.181 149.306 150.396Z" fill="#51B748"/>
<path opacity="0.4" d="M153.699 252.967C153.693 252.264 153.598 251.565 153.419 250.885C152.967 249.318 151.886 248.128 149.415 246.675C145.983 244.627 142.316 240.108 137.157 233.977C133.021 229.075 128.474 226.438 125.997 223.377C129.114 225.065 133.347 224.195 134.68 226.867C136.619 230.722 145.725 236.591 145.725 236.591C154.614 245.388 153.699 252.967 153.699 252.967Z" fill="#51B748"/>
<path opacity="0.4" d="M159.917 169.186C158.87 168.975 156.033 175.97 155.764 178.453C155.049 184.888 158.349 204.725 154.105 204.278C152.349 204.095 150.29 194.829 150.17 190.51C149.786 177.394 150.313 171.943 150.313 171.943C150.313 171.943 149.375 164.679 150.004 159.731C150.072 160.475 150.13 161.23 150.17 162.019C150.387 166.538 150.816 169.867 150.816 169.867C150.816 169.867 155.655 169.438 158.252 169.009C158.813 168.942 159.382 169.002 159.917 169.186Z" fill="#51B748"/>
<path opacity="0.4" d="M175.2 172.029C172.912 172.235 170.624 174.471 168.742 174.889C166.454 175.375 162.25 170.221 159.957 169.215C162.393 169.987 165.448 172.412 168.022 172.246C170.596 172.08 172.975 171.817 175.2 172.029Z" fill="#51B748"/>
<path opacity="0.4" d="M189.929 176.073C188.796 177.493 187.884 179.076 187.224 180.769C185.382 186.724 187.121 209.255 184.152 205.565C180.286 200.772 184.324 184.144 181.504 177.795C180.612 175.764 177.426 172.515 176.733 172.241C179.422 172.773 183.506 176.102 185.445 176.102C186.829 176.102 188.219 175.827 189.929 176.073Z" fill="#51B748"/>
<path opacity="0.4" d="M215.641 254.288C212.627 250.891 209.469 247.653 207.404 246.44C202.376 243.478 200.935 240.412 200.5 235.304C200.065 230.196 201.364 230.304 202.868 225.254C204.373 220.203 201.575 213.957 201.793 215.307C202.01 216.656 199.636 226.003 197.892 226.466C196.147 226.93 195.558 220.626 195.341 215.49C195.123 210.353 197.92 186.432 197.137 181.742C197.03 181.061 196.818 180.401 196.508 179.785C197.595 180.978 198.472 182.348 199.099 183.835C200.5 187.17 204.155 191.689 204.247 192.547C204.338 193.405 203.6 197.065 204.247 200.932C204.893 204.799 206.077 210.502 205.328 216.639C204.578 222.777 203.04 227.176 204.887 232.123C206.735 237.071 208.548 239.433 209.835 245.457C209.852 245.468 212.278 249.192 215.641 254.288Z" fill="#51B748"/>
<path opacity="0.4" d="M170.241 184.756C171.385 185.957 172.106 201.699 172.752 205.571C173.398 209.444 171.391 218.727 170.241 215.901C169.091 213.076 165.585 179.86 170.241 184.756Z" fill="#51B748"/>
<path d="M165.808 277.191C163.909 272.283 162.153 267.988 160.952 265.58C159.49 262.614 157.767 259.785 155.804 257.125C154.546 255.409 153.802 254.34 153.756 252.967C153.75 252.264 153.656 251.565 153.476 250.885C153.024 249.318 151.943 248.128 149.472 246.675C146.04 244.627 142.373 240.108 137.214 233.977C133.078 229.075 128.531 226.438 126.054 223.377C125.454 222.654 124.974 221.839 124.63 220.964C123.017 216.668 124.63 209.993 124.63 203.546C124.63 197.1 124.304 192.038 124.95 189.669C125.028 189.404 125.128 189.146 125.248 188.897V188.846C126.392 186.558 129.418 183.446 130.081 180.1C130.842 176.336 131.797 171.062 132.015 170.525C132.232 169.987 133.422 169.449 134.709 170.096C134.709 170.096 135.464 163.432 135.246 159.988C135.029 156.545 136.539 152.244 136.865 145.465C137.191 138.687 138.043 139.019 139.227 134.391C140.411 129.764 142.345 128.368 145.142 128.797C148.345 129.289 149.06 131.657 149.237 134.889C149.312 136.216 149.3 137.686 149.329 139.225C149.329 139.402 149.329 139.579 149.329 139.745C149.432 144.67 149.529 147.181 149.329 150.407C149.295 150.979 149.289 151.551 149.329 152.163C149.392 154.451 149.792 156.94 150.044 159.731C150.113 160.475 150.17 161.23 150.21 162.019C150.427 166.538 150.856 169.867 150.856 169.867C150.856 169.867 155.695 169.438 158.292 169.009C158.859 168.941 159.435 169.004 159.974 169.192H160.014C162.451 169.964 165.505 172.389 168.079 172.223C170.653 172.058 173.033 171.806 175.258 172.018C175.765 172.06 176.269 172.13 176.768 172.229C179.456 172.761 183.54 176.09 185.479 176.09C186.864 176.09 188.254 175.816 189.964 176.062C190.712 176.165 191.446 176.357 192.149 176.634C193.837 177.331 195.34 178.41 196.542 179.785C197.63 180.978 198.506 182.348 199.133 183.835C200.534 187.17 204.189 191.689 204.281 192.547C204.373 193.405 203.635 197.065 204.281 200.932C204.927 204.799 206.111 210.502 205.362 216.639C204.613 222.777 203.074 227.176 204.922 232.123C206.769 237.071 208.582 239.433 209.869 245.457C209.869 245.457 212.295 249.18 215.658 254.277C217.992 257.818 220.772 262.027 223.506 266.117" stroke="#131A43" stroke-width="1.10721" stroke-linecap="round" stroke-linejoin="round"/>
<path d="M134.68 170.078C134.68 174.815 134.251 180.689 133.536 183.132C132.821 185.574 133.301 193.742 131.986 197.18" stroke="#131A43" stroke-width="1.10721" stroke-linecap="round" stroke-linejoin="round"/>
<path d="M137.123 173.808C137.123 173.808 140.417 170.078 142.843 170.078C145.268 170.078 147.722 171.657 150.279 171.943C152.835 172.229 155.547 170.324 158.023 169.867" stroke="#131A43" stroke-width="1.10721" stroke-linecap="round" stroke-linejoin="round"/>
<path d="M138.981 156.551C138.981 156.551 143.432 154.926 145.725 156.551" stroke="#131A43" stroke-width="1.10721" stroke-linecap="round" stroke-linejoin="round"/>
<path d="M142.356 154.44C142.356 154.44 143.717 154.068 145.725 155.041" stroke="#131A43" stroke-width="1.10721" stroke-linecap="round" stroke-linejoin="round"/>
<path d="M141.167 143C142.673 142.665 144.236 142.665 145.743 143" stroke="#131A43" stroke-width="1.10721" stroke-linecap="round" stroke-linejoin="round"/>
<path d="M125.196 188.823C125.196 188.823 128.056 187.433 129.2 187.29" stroke="#131A43" stroke-width="1.10721" stroke-linecap="round" stroke-linejoin="round"/>
<path d="M132.752 193.227C132.752 193.227 131.036 195.893 130.716 197.18" stroke="#131A43" stroke-width="1.10721" stroke-linecap="round" stroke-linejoin="round"/>
<path d="M141.166 131.366C141.166 131.366 140.48 136.84 141.166 137.326C141.853 137.812 147.155 138.275 147.59 137.326C148.025 136.376 148.099 132.367 148.099 132.367C148.099 132.367 144.924 126.915 141.166 131.366Z" stroke="#131A43" stroke-width="1.10721" stroke-linecap="round" stroke-linejoin="round"/>
<path d="M130.058 180.083C130.058 180.083 134.457 177.863 134.56 174.689C134.663 171.514 133.37 171.549 131.734 171.531" stroke="#131A43" stroke-width="1.10721" stroke-linecap="round" stroke-linejoin="round"/>
<path d="M198.635 187.29C198.778 192.306 197.348 206.932 197.199 209.083C197.051 211.234 197.199 216.731 197.199 216.731" stroke="#131A43" stroke-width="1.10721" stroke-linecap="round" stroke-linejoin="round"/>
<path d="M167.232 175.804C171.963 182.668 167.232 180.083 170.241 212.956" stroke="#131A43" stroke-width="1.10721" stroke-linecap="round" stroke-linejoin="round"/>
<path d="M209.852 245.468C209.852 245.468 205.659 242.208 204.938 240.32" stroke="#131A43" stroke-width="1.10721" stroke-linecap="round" stroke-linejoin="round"/>
<path d="M151.313 243.924C152.572 246.011 153.367 250.587 153.413 250.868" stroke="#131A43" stroke-width="1.10721" stroke-linecap="round" stroke-linejoin="round"/>
</svg>