<svg width="32" height="32" viewBox="0 0 32 32" fill="none" xmlns="http://www.w3.org/2000/svg">
<path d="M27.9997 10.6667C27.9997 12.0267 26.4183 13.2267 23.9997 13.9493C22.4877 14.4027 20.649 14.6667 18.6663 14.6667C16.6837 14.6667 14.845 14.4013 13.333 13.9493C10.9157 13.2267 9.33301 12.0267 9.33301 10.6667C9.33301 8.45733 13.5117 6.66667 18.6663 6.66667C23.821 6.66667 27.9997 8.45733 27.9997 10.6667Z" fill="#51B748"/>
<path d="M27.9997 10.6667C27.9997 8.45733 23.821 6.66667 18.6663 6.66667C13.5117 6.66667 9.33301 8.45733 9.33301 10.6667M27.9997 10.6667V16C27.9997 17.36 26.4183 18.56 23.9997 19.2827C22.4877 19.736 20.649 20 18.6663 20C16.6837 20 14.845 19.7347 13.333 19.2827C10.9157 18.56 9.33301 17.36 9.33301 16V10.6667M27.9997 10.6667C27.9997 12.0267 26.4183 13.2267 23.9997 13.9493C22.4877 14.4027 20.649 14.6667 18.6663 14.6667C16.6837 14.6667 14.845 14.4013 13.333 13.9493C10.9157 13.2267 9.33301 12.0267 9.33301 10.6667" stroke="#51B748" stroke-width="2" stroke-linecap="round" stroke-linejoin="round"/>
<path d="M4 16V21.3333C4 22.6933 5.58267 23.8933 8 24.616C9.512 25.0693 11.3507 25.3333 13.3333 25.3333C15.316 25.3333 17.1547 25.068 18.6667 24.616C21.084 23.8933 22.6667 22.6933 22.6667 21.3333V20M4 16C4 14.404 6.18 13.0267 9.33333 12.3853M4 16C4 17.36 5.58267 18.56 8 19.2827C9.512 19.736 11.3507 20 13.3333 20C14.26 20 15.1547 19.9427 16 19.8347" stroke="#51B748" stroke-width="2" stroke-linecap="round" stroke-linejoin="round"/>
</svg>